<?xml version="1.0" standalone="no"?>
<svg xmlns="http://www.w3.org/2000/svg" xmlns:xlink="http://www.w3.org/1999/xlink" width="913pt" height="1045pt" viewBox="0.00 0.00 913.11 1045.40">
<g id="graph0" class="graph" transform="translate(18,1027.4000244140625) scale(1)" data-name="E0433Patcher_Teaching_Step2">

<polygon fill="white" stroke="none" points="-18,18 -18,-1027.4 895.11,-1027.4 895.11,18 -18,18" style=""/>
<text text-anchor="middle" x="438.56" y="-983.8" font-family="Times,serif" font-size="24.00" style="">Step 2 — Path Resolution (Vec&lt;CandidateFix&gt; -&gt; ResolutionResult)</text>
<!-- in -->
<g id="node1" class="node" pointer-events="visible" data-name="in">

<path fill="#fff4d6" stroke="#444444" stroke-width="1.6" d="M709.78,-972.8C709.78,-972.8 532.76,-972.8 532.76,-972.8 526.76,-972.8 520.76,-966.8 520.76,-960.8 520.76,-960.8 520.76,-938 520.76,-938 520.76,-932 526.76,-926 532.76,-926 532.76,-926 709.78,-926 709.78,-926 715.78,-926 721.78,-932 721.78,-938 721.78,-938 721.78,-960.8 721.78,-960.8 721.78,-966.8 715.78,-972.8 709.78,-972.8" style=""/>
<text text-anchor="middle" x="621.27" y="-954.2" font-family="Helvetica,sans-Serif" font-size="16.00" style="">Input: Vec&lt;CandidateFix&gt;</text>
<text text-anchor="middle" x="621.27" y="-935" font-family="Helvetica,sans-Serif" font-size="16.00" style="">(move / consumed)</text>
</g>
<!-- fn -->
<g id="node2" class="node" pointer-events="visible" data-name="fn">

<path fill="#e9f5ff" stroke="#444444" stroke-width="1.6" d="M695.29,-855.2C695.29,-855.2 547.25,-855.2 547.25,-855.2 541.25,-855.2 535.25,-849.2 535.25,-843.2 535.25,-843.2 535.25,-802 535.25,-802 535.25,-796 541.25,-790 547.25,-790 547.25,-790 695.29,-790 695.29,-790 701.29,-790 707.29,-796 707.29,-802 707.29,-802 707.29,-843.2 707.29,-843.2 707.29,-849.2 701.29,-855.2 695.29,-855.2" style=""/>
<text text-anchor="middle" x="621.27" y="-837" font-family="Helvetica,sans-Serif" font-size="16.00" style="">PathResolver::resolve</text>
<text text-anchor="middle" x="621.27" y="-817.8" font-family="Helvetica,sans-Serif" font-size="16.00" style="">1) dedup/normalize</text>
<text text-anchor="middle" x="621.27" y="-798.6" font-family="Helvetica,sans-Serif" font-size="16.00" style="">2) apply decisions</text>
</g>
<!-- in&#45;&gt;fn -->
<g id="edge1" class="edge" data-name="in-&gt;fn">

<path fill="none" stroke="#444444" stroke-width="1.3" d="M621.27,-925.55C621.27,-925.55 621.27,-865.9 621.27,-865.9" style=""/>
<polygon fill="#444444" stroke="#444444" stroke-width="1.3" points="624.24,-865.9 621.27,-857.4 618.29,-865.9 624.24,-865.9" style=""/>
<text text-anchor="middle" x="638.39" y="-886.6" font-family="Helvetica,sans-Serif" font-size="14.00" style="">move</text>
</g>
<!-- d1 -->
<g id="node3" class="node" pointer-events="visible" data-name="d1">

<path fill="#ffffff" stroke="#444444" stroke-width="1.6" d="M486.4,-717.44C486.4,-717.44 325.94,-693.57 325.94,-693.57 320,-692.68 320,-690.92 325.94,-690.03 325.94,-690.03 486.4,-666.16 486.4,-666.16 492.33,-665.28 504.2,-665.28 510.14,-666.16 510.14,-666.16 670.6,-690.03 670.6,-690.03 676.54,-690.92 676.54,-692.68 670.6,-693.57 670.6,-693.57 510.14,-717.44 510.14,-717.44 504.2,-718.32 492.33,-718.32 486.4,-717.44" style=""/>
<text text-anchor="middle" x="498.27" y="-687" font-family="Helvetica,sans-Serif" font-size="16.00" style="">Any Confidence::High ?</text>
</g>
<!-- fn&#45;&gt;d1 -->
<g id="edge2" class="edge" data-name="fn-&gt;d1">

<path fill="none" stroke="#444444" stroke-width="1.3" d="M608.69,-789.59C608.69,-789.59 608.69,-713.58 608.69,-713.58" style=""/>
<polygon fill="#444444" stroke="#444444" stroke-width="1.3" points="611.67,-713.58 608.69,-705.08 605.72,-713.58 611.67,-713.58" style=""/>
</g>
<!-- r_un -->
<g id="node11" class="node" pointer-events="visible" data-name="r_un">

<path fill="#ffe9e9" stroke="#444444" stroke-width="1.6" d="M809.31,-637.6C809.31,-637.6 677.23,-637.6 677.23,-637.6 671.23,-637.6 665.23,-631.6 665.23,-625.6 665.23,-625.6 665.23,-613.6 665.23,-613.6 665.23,-607.6 671.23,-601.6 677.23,-601.6 677.23,-601.6 809.31,-601.6 809.31,-601.6 815.31,-601.6 821.31,-607.6 821.31,-613.6 821.31,-613.6 821.31,-625.6 821.31,-625.6 821.31,-631.6 815.31,-637.6 809.31,-637.6" style=""/>
<text text-anchor="middle" x="743.27" y="-614.8" font-family="Helvetica,sans-Serif" font-size="16.00" style="">Unresolved{reason}</text>
</g>
<!-- fn&#45;&gt;r_un -->
<g id="edge10" class="edge" data-name="fn-&gt;r_un">

<path fill="none" stroke="#444444" stroke-width="1.3" stroke-dasharray="5,2" d="M694.95,-789.53C694.95,-789.53 694.95,-648.53 694.95,-648.53" style=""/>
<polygon fill="#444444" stroke="#444444" stroke-width="1.3" points="697.92,-648.53 694.95,-640.03 691.97,-648.53 697.92,-648.53" style=""/>
<text text-anchor="middle" x="810.19" y="-750.2" font-family="Helvetica,sans-Serif" font-size="14.00" style="">if empty/invalid inputs</text>
</g>
<!-- d2 -->
<g id="node4" class="node" pointer-events="visible" data-name="d2">

<path fill="#ffffff" stroke="#444444" stroke-width="1.6" d="M312.39,-573.14C312.39,-573.14 140.26,-549.06 140.26,-549.06 134.32,-548.23 134.32,-546.57 140.26,-545.74 140.26,-545.74 312.39,-521.66 312.39,-521.66 318.33,-520.83 330.21,-520.83 336.15,-521.66 336.15,-521.66 508.28,-545.74 508.28,-545.74 514.22,-546.57 514.22,-548.23 508.28,-549.06 508.28,-549.06 336.15,-573.14 336.15,-573.14 330.21,-573.97 318.33,-573.97 312.39,-573.14" style=""/>
<text text-anchor="middle" x="324.27" y="-542.6" font-family="Helvetica,sans-Serif" font-size="16.00" style="">Unique path count == 1 ?</text>
</g>
<!-- d1&#45;&gt;d2 -->
<g id="edge4" class="edge" data-name="d1-&gt;d2">

<path fill="none" stroke="#444444" stroke-width="1.3" d="M417.07,-676.07C417.07,-676.07 417.07,-572.71 417.07,-572.71" style=""/>
<polygon fill="#444444" stroke="#444444" stroke-width="1.3" points="420.04,-572.71 417.07,-564.21 414.09,-572.71 420.04,-572.71" style=""/>
<text text-anchor="middle" x="419.06" y="-615.4" font-family="Helvetica,sans-Serif" font-size="14.00" style="">no</text>
</g>
<!-- r_ok1 -->
<g id="node7" class="node" pointer-events="visible" data-name="r_ok1">

<path fill="#dff7e3" stroke="#444444" stroke-width="1.6" d="M704.96,-493.4C704.96,-493.4 457.58,-493.4 457.58,-493.4 451.58,-493.4 445.58,-487.4 445.58,-481.4 445.58,-481.4 445.58,-458.6 445.58,-458.6 445.58,-452.6 451.58,-446.6 457.58,-446.6 457.58,-446.6 704.96,-446.6 704.96,-446.6 710.96,-446.6 716.96,-452.6 716.96,-458.6 716.96,-458.6 716.96,-481.4 716.96,-481.4 716.96,-487.4 710.96,-493.4 704.96,-493.4" style=""/>
<text text-anchor="middle" x="581.27" y="-474.8" font-family="Helvetica,sans-Serif" font-size="16.00" style="">Resolved</text>
<text text-anchor="middle" x="581.27" y="-455.6" font-family="Helvetica,sans-Serif" font-size="16.00" style="">source=CompilerMachineApplicable</text>
</g>
<!-- d1&#45;&gt;r_ok1 -->
<g id="edge3" class="edge" data-name="d1-&gt;r_ok1">

<path fill="none" stroke="#444444" stroke-width="1.3" d="M592.48,-677.93C592.48,-677.93 592.48,-504.31 592.48,-504.31" style=""/>
<polygon fill="#444444" stroke="#444444" stroke-width="1.3" points="595.46,-504.31 592.48,-495.81 589.51,-504.31 595.46,-504.31" style=""/>
<text text-anchor="middle" x="592.16" y="-615.4" font-family="Helvetica,sans-Serif" font-size="14.00" style="">yes</text>
</g>
<!-- h -->
<g id="node5" class="node" pointer-events="visible" data-name="h">

<path fill="#ffffff" stroke="#444444" stroke-width="1.6" d="M339.75,-420C339.75,-420 154.79,-420 154.79,-420 148.79,-420 142.79,-414 142.79,-408 142.79,-408 142.79,-385.2 142.79,-385.2 142.79,-379.2 148.79,-373.2 154.79,-373.2 154.79,-373.2 339.75,-373.2 339.75,-373.2 345.75,-373.2 351.75,-379.2 351.75,-385.2 351.75,-385.2 351.75,-408 351.75,-408 351.75,-414 345.75,-420 339.75,-420" style=""/>
<text text-anchor="middle" x="247.27" y="-401.4" font-family="Helvetica,sans-Serif" font-size="16.00" style="">Heuristic</text>
<text text-anchor="middle" x="247.27" y="-382.2" font-family="Helvetica,sans-Serif" font-size="16.00" style="">prefer crate:: &gt; std:: &gt; short</text>
</g>
<!-- d2&#45;&gt;h -->
<g id="edge6" class="edge" data-name="d2-&gt;h">

<path fill="none" stroke="#444444" stroke-width="1.3" d="M247.27,-530.39C247.27,-530.39 247.27,-430.94 247.27,-430.94" style=""/>
<polygon fill="#444444" stroke="#444444" stroke-width="1.3" points="250.24,-430.94 247.27,-422.44 244.29,-430.94 250.24,-430.94" style=""/>
<text text-anchor="middle" x="297.06" y="-465.8" font-family="Helvetica,sans-Serif" font-size="14.00" style="">no</text>
</g>
<!-- r_ok2 -->
<g id="node8" class="node" pointer-events="visible" data-name="r_ok2">

<path fill="#dff7e3" stroke="#444444" stroke-width="1.6" d="M528.22,-346.6C528.22,-346.6 334.32,-346.6 334.32,-346.6 328.32,-346.6 322.32,-340.6 322.32,-334.6 322.32,-334.6 322.32,-311.8 322.32,-311.8 322.32,-305.8 328.32,-299.8 334.32,-299.8 334.32,-299.8 528.22,-299.8 528.22,-299.8 534.22,-299.8 540.22,-305.8 540.22,-311.8 540.22,-311.8 540.22,-334.6 540.22,-334.6 540.22,-340.6 534.22,-346.6 528.22,-346.6" style=""/>
<text text-anchor="middle" x="431.27" y="-328" font-family="Helvetica,sans-Serif" font-size="16.00" style="">Resolved</text>
<text text-anchor="middle" x="431.27" y="-308.8" font-family="Helvetica,sans-Serif" font-size="16.00" style="">source=CompilerSuggestion</text>
</g>
<!-- d2&#45;&gt;r_ok2 -->
<g id="edge5" class="edge" data-name="d2-&gt;r_ok2">

<path fill="none" stroke="#444444" stroke-width="1.3" d="M398.59,-530.18C398.59,-530.18 398.59,-357.56 398.59,-357.56" style=""/>
<polygon fill="#444444" stroke="#444444" stroke-width="1.3" points="401.57,-357.56 398.59,-349.06 395.62,-357.56 401.57,-357.56" style=""/>
<text text-anchor="middle" x="425.16" y="-465.8" font-family="Helvetica,sans-Serif" font-size="14.00" style="">yes</text>
</g>
<!-- d3 -->
<g id="node6" class="node" pointer-events="visible" data-name="d3">

<path fill="#ffffff" stroke="#444444" stroke-width="1.6" d="M213.37,-271.69C213.37,-271.69 21.8,-247.31 21.8,-247.31 15.85,-246.56 15.85,-245.04 21.8,-244.29 21.8,-244.29 213.37,-219.91 213.37,-219.91 219.32,-219.16 231.22,-219.16 237.17,-219.91 237.17,-219.91 428.74,-244.29 428.74,-244.29 434.69,-245.04 434.69,-246.56 428.74,-247.31 428.74,-247.31 237.17,-271.69 237.17,-271.69 231.22,-272.44 219.32,-272.44 213.37,-271.69" style=""/>
<text text-anchor="middle" x="225.27" y="-241" font-family="Helvetica,sans-Serif" font-size="16.00" style="">Still multiple after heuristic ?</text>
</g>
<!-- h&#45;&gt;d3 -->
<g id="edge7" class="edge" data-name="h-&gt;d3">

<path fill="none" stroke="#444444" stroke-width="1.3" d="M232.66,-372.71C232.66,-372.71 232.66,-283.1 232.66,-283.1" style=""/>
<polygon fill="#444444" stroke="#444444" stroke-width="1.3" points="235.64,-283.1 232.66,-274.6 229.69,-283.1 235.64,-283.1" style=""/>
</g>
<!-- r_ok3 -->
<g id="node9" class="node" pointer-events="visible" data-name="r_ok3">

<path fill="#dff7e3" stroke="#444444" stroke-width="1.6" d="M204.31,-148C204.31,-148 12.23,-148 12.23,-148 6.23,-148 0.23,-142 0.23,-136 0.23,-136 0.23,-113.2 0.23,-113.2 0.23,-107.2 6.23,-101.2 12.23,-101.2 12.23,-101.2 204.31,-101.2 204.31,-101.2 210.31,-101.2 216.31,-107.2 216.31,-113.2 216.31,-113.2 216.31,-136 216.31,-136 216.31,-142 210.31,-148 204.31,-148" style=""/>
<text text-anchor="middle" x="108.27" y="-129.4" font-family="Helvetica,sans-Serif" font-size="16.00" style="">Resolved</text>
<text text-anchor="middle" x="108.27" y="-110.2" font-family="Helvetica,sans-Serif" font-size="16.00" style="">source=Heuristic/StdLibMap</text>
</g>
<!-- d3&#45;&gt;r_ok3 -->
<g id="edge8" class="edge" data-name="d3-&gt;r_ok3">

<path fill="none" stroke="#444444" stroke-width="1.3" d="M113.31,-232.37C113.31,-232.37 113.31,-158.53 113.31,-158.53" style=""/>
<polygon fill="#444444" stroke="#444444" stroke-width="1.3" points="116.29,-158.53 113.31,-150.03 110.34,-158.53 116.29,-158.53" style=""/>
<text text-anchor="middle" x="181.52" y="-179" font-family="Helvetica,sans-Serif" font-size="14.00" style="">no (picked one)</text>
</g>
<!-- r_amb -->
<g id="node10" class="node" pointer-events="visible" data-name="r_amb">

<path fill="#ffe9e9" stroke="#444444" stroke-width="1.6" d="M428.39,-142.6C428.39,-142.6 268.14,-142.6 268.14,-142.6 262.14,-142.6 256.14,-136.6 256.14,-130.6 256.14,-130.6 256.14,-118.6 256.14,-118.6 256.14,-112.6 262.14,-106.6 268.14,-106.6 268.14,-106.6 428.39,-106.6 428.39,-106.6 434.39,-106.6 440.39,-112.6 440.39,-118.6 440.39,-118.6 440.39,-130.6 440.39,-130.6 440.39,-136.6 434.39,-142.6 428.39,-142.6" style=""/>
<text text-anchor="middle" x="348.27" y="-119.8" font-family="Helvetica,sans-Serif" font-size="16.00" style="">Ambiguous{candidates}</text>
</g>
<!-- d3&#45;&gt;r_amb -->
<g id="edge9" class="edge" data-name="d3-&gt;r_amb">

<path fill="none" stroke="#444444" stroke-width="1.3" d="M348.27,-233.74C348.27,-233.74 348.27,-153.35 348.27,-153.35" style=""/>
<polygon fill="#444444" stroke="#444444" stroke-width="1.3" points="351.24,-153.35 348.27,-144.85 345.29,-153.35 351.24,-153.35" style=""/>
<text text-anchor="middle" x="310.16" y="-179" font-family="Helvetica,sans-Serif" font-size="14.00" style="">yes</text>
</g>
<!-- out -->
<g id="node12" class="node" pointer-events="visible" data-name="out">

<path fill="#e9f5ff" stroke="#444444" stroke-width="1.6" d="M624.04,-46.6C624.04,-46.6 378.5,-46.6 378.5,-46.6 372.5,-46.6 366.5,-40.6 366.5,-34.6 366.5,-34.6 366.5,-11.8 366.5,-11.8 366.5,-5.8 372.5,0.2 378.5,0.2 378.5,0.2 624.04,0.2 624.04,0.2 630.04,0.2 636.04,-5.8 636.04,-11.8 636.04,-11.8 636.04,-34.6 636.04,-34.6 636.04,-40.6 630.04,-46.6 624.04,-46.6" style=""/>
<text text-anchor="middle" x="501.27" y="-28" font-family="Helvetica,sans-Serif" font-size="16.00" style="">Output: ResolutionResult</text>
<text text-anchor="middle" x="501.27" y="-8.8" font-family="Helvetica,sans-Serif" font-size="16.00" style="">Resolved | Ambiguous | Unresolved</text>
</g>
<!-- r_ok1&#45;&gt;out -->
<g id="edge11" class="edge" data-name="r_ok1-&gt;out">

<path fill="none" stroke="#444444" stroke-width="1.3" d="M588.07,-446.29C588.07,-446.29 588.07,-57.32 588.07,-57.32" style=""/>
<polygon fill="#444444" stroke="#444444" stroke-width="1.3" points="591.05,-57.32 588.07,-48.82 585.1,-57.32 591.05,-57.32" style=""/>
</g>
<!-- r_ok2&#45;&gt;out -->
<g id="edge12" class="edge" data-name="r_ok2-&gt;out">

<path fill="none" stroke="#444444" stroke-width="1.3" d="M490.22,-299.41C490.22,-299.41 490.22,-57.46 490.22,-57.46" style=""/>
<polygon fill="#444444" stroke="#444444" stroke-width="1.3" points="493.2,-57.46 490.22,-48.96 487.25,-57.46 493.2,-57.46" style=""/>
</g>
<!-- r_ok3&#45;&gt;out -->
<g id="edge13" class="edge" data-name="r_ok3-&gt;out">

<path fill="none" stroke="#444444" stroke-width="1.3" d="M108.27,-100.78C108.27,-70.75 108.27,-23 108.27,-23 108.27,-23 355.55,-23 355.55,-23" style=""/>
<polygon fill="#444444" stroke="#444444" stroke-width="1.3" points="355.55,-25.98 364.05,-23 355.55,-20.03 355.55,-25.98" style=""/>
</g>
<!-- r_amb&#45;&gt;out -->
<g id="edge14" class="edge" data-name="r_amb-&gt;out">

<path fill="none" stroke="#444444" stroke-width="1.3" d="M403.36,-106.47C403.36,-106.47 403.36,-57.37 403.36,-57.37" style=""/>
<polygon fill="#444444" stroke="#444444" stroke-width="1.3" points="406.33,-57.37 403.36,-48.87 400.38,-57.37 406.33,-57.37" style=""/>
</g>
<!-- r_un&#45;&gt;out -->
<g id="edge15" class="edge" data-name="r_un-&gt;out">

<path fill="none" stroke="#444444" stroke-width="1.3" d="M769.33,-601.42C769.33,-501.43 769.33,-23 769.33,-23 769.33,-23 646.94,-23 646.94,-23" style=""/>
<polygon fill="#444444" stroke="#444444" stroke-width="1.3" points="646.94,-20.03 638.44,-23 646.94,-25.98 646.94,-20.03" style=""/>
</g>
</g>
</svg>