<?xml version="1.0" encoding="UTF-8" standalone="no"?>
<!DOCTYPE svg PUBLIC "-//W3C//DTD SVG 1.1//EN"
 "http://www.w3.org/Graphics/SVG/1.1/DTD/svg11.dtd">
<!-- Generated by graphviz version 14.1.2 (20260124.0452)
 -->
<!-- Title: ruter_pipeline Pages: 1 -->
<svg width="230pt" height="887pt"
 viewBox="0.00 0.00 230.00 887.00" xmlns="http://www.w3.org/2000/svg" xmlns:xlink="http://www.w3.org/1999/xlink">
<g id="graph0" class="graph" transform="scale(1 1) rotate(0) translate(4 882.5)">
<title>ruter_pipeline</title>
<polygon fill="white" stroke="none" points="-4,4 -4,-882.5 225.71,-882.5 225.71,4 -4,4"/>
<g id="clust1" class="cluster">
<title>cluster_input</title>
<polygon fill="none" stroke="#999999" stroke-dasharray="5,2" points="56,-791.25 56,-870.5 164,-870.5 164,-791.25 56,-791.25"/>
<text xml:space="preserve" text-anchor="middle" x="75.25" y="-856.05" font-family="Helvetica,sans-Serif" font-size="11.00">输入</text>
</g>
<g id="clust2" class="cluster">
<title>cluster_output</title>
<polygon fill="none" stroke="#999999" stroke-dasharray="5,2" points="8,-8 8,-139.75 182,-139.75 182,-8 8,-8"/>
<text xml:space="preserve" text-anchor="middle" x="48.62" y="-125.3" font-family="Helvetica,sans-Serif" font-size="11.00">输出 Artifacts</text>
</g>
<!-- crate_path -->
<g id="node1" class="node">
<title>crate_path</title>
<polygon fill="#fff3e0" stroke="black" points="155.88,-838.75 152.88,-842.75 131.88,-842.75 128.88,-838.75 64.12,-838.75 64.12,-799.25 155.88,-799.25 155.88,-838.75"/>
<text xml:space="preserve" text-anchor="middle" x="110" y="-824.3" font-family="Helvetica,sans-Serif" font-size="11.00">Crate 目录</text>
<text xml:space="preserve" text-anchor="middle" x="110" y="-808.55" font-family="Helvetica,sans-Serif" font-size="11.00">(含 Cargo.toml)</text>
</g>
<!-- compile -->
<g id="node2" class="node">
<title>compile</title>
<path fill="#e8f0fe" stroke="black" d="M161.88,-762.25C161.88,-762.25 58.12,-762.25 58.12,-762.25 52.12,-762.25 46.12,-756.25 46.12,-750.25 46.12,-750.25 46.12,-730.25 46.12,-730.25 46.12,-724.25 52.12,-718.25 58.12,-718.25 58.12,-718.25 161.88,-718.25 161.88,-718.25 167.88,-718.25 173.88,-724.25 173.88,-730.25 173.88,-730.25 173.88,-750.25 173.88,-750.25 173.88,-756.25 167.88,-762.25 161.88,-762.25"/>
<text xml:space="preserve" text-anchor="middle" x="110" y="-747.8" font-family="Helvetica,sans-Serif" font-size="11.00">Stage 1: Compile</text>
<text xml:space="preserve" text-anchor="middle" x="110" y="-735.8" font-family="Helvetica,sans-Serif" font-size="11.00">cargo check &#45;&#45;tests</text>
<text xml:space="preserve" text-anchor="middle" x="110" y="-723.8" font-family="Helvetica,sans-Serif" font-size="11.00">&#45;&#45;message&#45;format=json</text>
</g>
<!-- crate_path&#45;&gt;compile -->
<g id="edge1" class="edge">
<title>crate_path&#45;&gt;compile</title>
<path fill="none" stroke="black" d="M110,-799.03C110,-791.46 110,-782.52 110,-773.97"/>
<polygon fill="black" stroke="black" points="113.5,-774.23 110,-764.23 106.5,-774.23 113.5,-774.23"/>
</g>
<!-- analyze -->
<g id="node3" class="node">
<title>analyze</title>
<path fill="#e8f0fe" stroke="black" d="M178.75,-671C178.75,-671 41.25,-671 41.25,-671 35.25,-671 29.25,-665 29.25,-659 29.25,-659 29.25,-647 29.25,-647 29.25,-641 35.25,-635 41.25,-635 41.25,-635 178.75,-635 178.75,-635 184.75,-635 190.75,-641 190.75,-647 190.75,-647 190.75,-659 190.75,-659 190.75,-665 184.75,-671 178.75,-671"/>
<text xml:space="preserve" text-anchor="middle" x="110" y="-656.42" font-family="Helvetica,sans-Serif" font-size="11.00">Stage 2: Analyze</text>
<text xml:space="preserve" text-anchor="middle" x="110" y="-644.42" font-family="Helvetica,sans-Serif" font-size="11.00">解析 NDJSON → Diagnostic[]</text>
</g>
<!-- compile&#45;&gt;analyze -->
<g id="edge2" class="edge">
<title>compile&#45;&gt;analyze</title>
<path fill="none" stroke="black" d="M110,-718.18C110,-707.49 110,-694.35 110,-682.75"/>
<polygon fill="black" stroke="black" points="113.5,-682.9 110,-672.9 106.5,-682.9 113.5,-682.9"/>
<text xml:space="preserve" text-anchor="middle" x="131" y="-690.75" font-family="Helvetica,sans-Serif" font-size="10.00">NDJSON</text>
</g>
<!-- plan -->
<g id="node4" class="node">
<title>plan</title>
<path fill="#e8f0fe" stroke="black" d="M151,-587.75C151,-587.75 69,-587.75 69,-587.75 63,-587.75 57,-581.75 57,-575.75 57,-575.75 57,-555.75 57,-555.75 57,-549.75 63,-543.75 69,-543.75 69,-543.75 151,-543.75 151,-543.75 157,-543.75 163,-549.75 163,-555.75 163,-555.75 163,-575.75 163,-575.75 163,-581.75 157,-587.75 151,-587.75"/>
<text xml:space="preserve" text-anchor="middle" x="110" y="-573.3" font-family="Helvetica,sans-Serif" font-size="11.00">Stage 3: Plan</text>
<text xml:space="preserve" text-anchor="middle" x="110" y="-561.3" font-family="Helvetica,sans-Serif" font-size="11.00">Function Dispatch</text>
<text xml:space="preserve" text-anchor="middle" x="110" y="-549.3" font-family="Helvetica,sans-Serif" font-size="11.00">+ Rule Candidates</text>
</g>
<!-- analyze&#45;&gt;plan -->
<g id="edge3" class="edge">
<title>analyze&#45;&gt;plan</title>
<path fill="none" stroke="black" d="M110,-634.75C110,-624.68 110,-611.63 110,-599.67"/>
<polygon fill="black" stroke="black" points="113.5,-599.73 110,-589.73 106.5,-599.73 113.5,-599.73"/>
<text xml:space="preserve" text-anchor="middle" x="136.25" y="-607.5" font-family="Helvetica,sans-Serif" font-size="10.00">Diagnostic[]</text>
</g>
<!-- verify -->
<g id="node5" class="node">
<title>verify</title>
<path fill="#e8f0fe" stroke="black" d="M148.38,-485.25C148.38,-485.25 71.62,-485.25 71.62,-485.25 65.62,-485.25 59.62,-479.25 59.62,-473.25 59.62,-473.25 59.62,-449.5 59.62,-449.5 59.62,-443.5 65.62,-437.5 71.62,-437.5 71.62,-437.5 148.38,-437.5 148.38,-437.5 154.38,-437.5 160.38,-443.5 160.38,-449.5 160.38,-449.5 160.38,-473.25 160.38,-473.25 160.38,-479.25 154.38,-485.25 148.38,-485.25"/>
<text xml:space="preserve" text-anchor="middle" x="110" y="-470.8" font-family="Helvetica,sans-Serif" font-size="11.00">Stage 4: Verify</text>
<text xml:space="preserve" text-anchor="middle" x="110" y="-458.8" font-family="Helvetica,sans-Serif" font-size="11.00">Optimistic Greedy</text>
<text xml:space="preserve" text-anchor="middle" x="110" y="-446.8" font-family="Helvetica,sans-Serif" font-size="11.00">函数级验证</text>
</g>
<!-- plan&#45;&gt;verify -->
<g id="edge4" class="edge">
<title>plan&#45;&gt;verify</title>
<path fill="none" stroke="black" d="M110,-543.54C110,-530.1 110,-512.4 110,-496.96"/>
<polygon fill="black" stroke="black" points="113.5,-497.22 110,-487.22 106.5,-497.22 113.5,-497.22"/>
<text xml:space="preserve" text-anchor="middle" x="155" y="-516.25" font-family="Helvetica,sans-Serif" font-size="10.00">FunctionPatchTask[]</text>
<text xml:space="preserve" text-anchor="middle" x="155" y="-505" font-family="Helvetica,sans-Serif" font-size="10.00">+ RuleCandidates</text>
</g>
<!-- llm -->
<g id="node6" class="node">
<title>llm</title>
<path fill="#e8f5e9" stroke="black" d="M121.25,-375.25C121.25,-375.25 34.75,-375.25 34.75,-375.25 28.75,-375.25 22.75,-369.25 22.75,-363.25 22.75,-363.25 22.75,-338.75 22.75,-338.75 22.75,-332.75 28.75,-326.75 34.75,-326.75 34.75,-326.75 121.25,-326.75 121.25,-326.75 127.25,-326.75 133.25,-332.75 133.25,-338.75 133.25,-338.75 133.25,-363.25 133.25,-363.25 133.25,-369.25 127.25,-375.25 121.25,-375.25"/>
<text xml:space="preserve" text-anchor="middle" x="78" y="-360.8" font-family="Helvetica,sans-Serif" font-size="11.00">Stage 4+: LLM</text>
<text xml:space="preserve" text-anchor="middle" x="78" y="-348.8" font-family="Helvetica,sans-Serif" font-size="11.00">Preflight → Context</text>
<text xml:space="preserve" text-anchor="middle" x="78" y="-334.55" font-family="Helvetica,sans-Serif" font-size="11.00">→ Prompt → Verify</text>
</g>
<!-- verify&#45;&gt;llm -->
<g id="edge5" class="edge">
<title>verify&#45;&gt;llm</title>
<path fill="none" stroke="black" stroke-dasharray="5,2" d="M99.39,-437.31C97,-431.57 94.61,-425.37 92.75,-419.5 89.42,-409 86.58,-397.36 84.31,-386.73"/>
<polygon fill="black" stroke="black" points="87.79,-386.3 82.37,-377.19 80.93,-387.69 87.79,-386.3"/>
<text xml:space="preserve" text-anchor="middle" x="123.88" y="-410" font-family="Helvetica,sans-Serif" font-size="10.00">未解决函数</text>
<text xml:space="preserve" text-anchor="middle" x="123.88" y="-395" font-family="Helvetica,sans-Serif" font-size="10.00">(Partial Union)</text>
</g>
<!-- apply -->
<g id="node7" class="node">
<title>apply</title>
<path fill="#e8f0fe" stroke="black" d="M142,-275.75C142,-275.75 48,-275.75 48,-275.75 42,-275.75 36,-269.75 36,-263.75 36,-263.75 36,-251.75 36,-251.75 36,-245.75 42,-239.75 48,-239.75 48,-239.75 142,-239.75 142,-239.75 148,-239.75 154,-245.75 154,-251.75 154,-251.75 154,-263.75 154,-263.75 154,-269.75 148,-275.75 142,-275.75"/>
<text xml:space="preserve" text-anchor="middle" x="95" y="-261.18" font-family="Helvetica,sans-Serif" font-size="11.00">Stage 5: Apply</text>
<text xml:space="preserve" text-anchor="middle" x="95" y="-249.18" font-family="Helvetica,sans-Serif" font-size="11.00">写回源文件 / Dry&#45;run</text>
</g>
<!-- verify&#45;&gt;apply -->
<g id="edge6" class="edge">
<title>verify&#45;&gt;apply</title>
<path fill="none" stroke="black" d="M142.46,-437.24C147.56,-432.02 152.1,-426.06 155,-419.5 165.65,-395.44 190.47,-358.59 153,-293.75 150.78,-289.91 147.95,-286.44 144.75,-283.31"/>
<polygon fill="black" stroke="black" points="147.25,-280.84 137.3,-277.21 142.81,-286.25 147.25,-280.84"/>
<text xml:space="preserve" text-anchor="middle" x="197.33" y="-349" font-family="Helvetica,sans-Serif" font-size="10.00">已接纳补丁</text>
</g>
<!-- llm&#45;&gt;apply -->
<g id="edge7" class="edge">
<title>llm&#45;&gt;apply</title>
<path fill="none" stroke="black" stroke-dasharray="5,2" d="M82.38,-326.5C84.6,-314.58 87.32,-299.99 89.66,-287.41"/>
<polygon fill="black" stroke="black" points="93.1,-288.08 91.49,-277.6 86.22,-286.79 93.1,-288.08"/>
<text xml:space="preserve" text-anchor="middle" x="118.4" y="-299.25" font-family="Helvetica,sans-Serif" font-size="10.00">LLM 接纳补丁</text>
</g>
<!-- summarize -->
<g id="node8" class="node">
<title>summarize</title>
<path fill="#e8f0fe" stroke="black" d="M143.12,-202.75C143.12,-202.75 46.88,-202.75 46.88,-202.75 40.88,-202.75 34.88,-196.75 34.88,-190.75 34.88,-190.75 34.88,-178.75 34.88,-178.75 34.88,-172.75 40.88,-166.75 46.88,-166.75 46.88,-166.75 143.12,-166.75 143.12,-166.75 149.12,-166.75 155.12,-172.75 155.12,-178.75 155.12,-178.75 155.12,-190.75 155.12,-190.75 155.12,-196.75 149.12,-202.75 143.12,-202.75"/>
<text xml:space="preserve" text-anchor="middle" x="95" y="-188.18" font-family="Helvetica,sans-Serif" font-size="11.00">Stage 6: Summarize</text>
<text xml:space="preserve" text-anchor="middle" x="95" y="-176.18" font-family="Helvetica,sans-Serif" font-size="11.00">生成 6_summary.json</text>
</g>
<!-- apply&#45;&gt;summarize -->
<g id="edge8" class="edge">
<title>apply&#45;&gt;summarize</title>
<path fill="none" stroke="black" d="M95,-239.56C95,-231.98 95,-222.85 95,-214.29"/>
<polygon fill="black" stroke="black" points="98.5,-214.29 95,-204.29 91.5,-214.29 98.5,-214.29"/>
</g>
<!-- artifacts -->
<g id="node9" class="node">
<title>artifacts</title>
<polygon fill="#fff9c4" stroke="black" points="168.25,-108 15.75,-108 15.75,-16 174.25,-16 174.25,-102 168.25,-108"/>
<polyline fill="none" stroke="black" points="168.25,-108 168.25,-102"/>
<polyline fill="none" stroke="black" points="174.25,-102 168.25,-102"/>
<text xml:space="preserve" text-anchor="middle" x="95" y="-93.55" font-family="Helvetica,sans-Serif" font-size="11.00">1_compile_diagnostics.json</text>
<text xml:space="preserve" text-anchor="middle" x="95" y="-81.55" font-family="Helvetica,sans-Serif" font-size="11.00">2_analyzed_diagnostics.json</text>
<text xml:space="preserve" text-anchor="middle" x="95" y="-69.55" font-family="Helvetica,sans-Serif" font-size="11.00">3_plan.json</text>
<text xml:space="preserve" text-anchor="middle" x="95" y="-57.55" font-family="Helvetica,sans-Serif" font-size="11.00">4_function_verify_rounds.json</text>
<text xml:space="preserve" text-anchor="middle" x="95" y="-45.55" font-family="Helvetica,sans-Serif" font-size="11.00">4_llm_attempts.json</text>
<text xml:space="preserve" text-anchor="middle" x="95" y="-33.55" font-family="Helvetica,sans-Serif" font-size="11.00">5_changes.diff</text>
<text xml:space="preserve" text-anchor="middle" x="95" y="-21.55" font-family="Helvetica,sans-Serif" font-size="11.00">6_summary.json</text>
</g>
<!-- summarize&#45;&gt;artifacts -->
<g id="edge9" class="edge">
<title>summarize&#45;&gt;artifacts</title>
<path fill="none" stroke="black" d="M95,-166.45C95,-154.04 95,-136.56 95,-119.5"/>
<polygon fill="black" stroke="black" points="98.5,-119.92 95,-109.92 91.5,-119.92 98.5,-119.92"/>
</g>
</g>
</svg>
