<?xml version="1.0" encoding="UTF-8" standalone="no"?>
<!DOCTYPE svg PUBLIC "-//W3C//DTD SVG 1.1//EN"
 "http://www.w3.org/Graphics/SVG/1.1/DTD/svg11.dtd">
<!-- Generated by graphviz version 14.1.2 (20260124.0452)
 -->
<!-- Title: dispatch_flow Pages: 1 -->
<svg width="280pt" height="443pt"
 viewBox="0.00 0.00 280.00 443.00" xmlns="http://www.w3.org/2000/svg" xmlns:xlink="http://www.w3.org/1999/xlink">
<g id="graph0" class="graph" transform="scale(1 1) rotate(0) translate(4 439)">
<title>dispatch_flow</title>
<polygon fill="white" stroke="none" points="-4,4 -4,-439 276,-439 276,4 -4,4"/>
<!-- task -->
<g id="node1" class="node">
<title>task</title>
<path fill="#e8f0fe" stroke="black" d="M177.38,-435C177.38,-435 94.62,-435 94.62,-435 88.62,-435 82.62,-429 82.62,-423 82.62,-423 82.62,-411 82.62,-411 82.62,-405 88.62,-399 94.62,-399 94.62,-399 177.38,-399 177.38,-399 183.38,-399 189.38,-405 189.38,-411 189.38,-411 189.38,-423 189.38,-423 189.38,-429 183.38,-435 177.38,-435"/>
<text xml:space="preserve" text-anchor="middle" x="136" y="-420.43" font-family="Helvetica,sans-Serif" font-size="11.00">FunctionPatchTask</text>
<text xml:space="preserve" text-anchor="middle" x="136" y="-408.43" font-family="Helvetica,sans-Serif" font-size="11.00">(函数级诊断集合)</text>
</g>
<!-- check -->
<g id="node2" class="node">
<title>check</title>
<path fill="#fff3e0" stroke="black" d="M124.39,-358.95C124.39,-358.95 11.61,-329.3 11.61,-329.3 5.8,-327.78 5.8,-324.72 11.61,-323.2 11.61,-323.2 124.39,-293.55 124.39,-293.55 130.2,-292.03 141.8,-292.03 147.61,-293.55 147.61,-293.55 260.39,-323.2 260.39,-323.2 266.2,-324.72 266.2,-327.78 260.39,-329.3 260.39,-329.3 147.61,-358.95 147.61,-358.95 141.8,-360.47 130.2,-360.47 124.39,-358.95"/>
<text xml:space="preserve" text-anchor="middle" x="136" y="-329.68" font-family="Helvetica,sans-Serif" font-size="11.00">implemented_rule_codes</text>
<text xml:space="preserve" text-anchor="middle" x="136" y="-317.68" font-family="Helvetica,sans-Serif" font-size="11.00">非空？</text>
</g>
<!-- task&#45;&gt;check -->
<g id="edge1" class="edge">
<title>task&#45;&gt;check</title>
<path fill="none" stroke="black" d="M136,-398.89C136,-391.59 136,-382.69 136,-373.68"/>
<polygon fill="black" stroke="black" points="139.5,-373.82 136,-363.82 132.5,-373.82 139.5,-373.82"/>
</g>
<!-- rule -->
<g id="node3" class="node">
<title>rule</title>
<path fill="#e8f5e9" stroke="black" d="M145.25,-239.5C145.25,-239.5 28.75,-239.5 28.75,-239.5 22.75,-239.5 16.75,-233.5 16.75,-227.5 16.75,-227.5 16.75,-200 16.75,-200 16.75,-194 22.75,-188 28.75,-188 28.75,-188 145.25,-188 145.25,-188 151.25,-188 157.25,-194 157.25,-200 157.25,-200 157.25,-227.5 157.25,-227.5 157.25,-233.5 151.25,-239.5 145.25,-239.5"/>
<text xml:space="preserve" text-anchor="middle" x="87" y="-225.05" font-family="Helvetica,sans-Serif" font-size="11.00">RulePatcher 路由</text>
<text xml:space="preserve" text-anchor="middle" x="87" y="-209.3" font-family="Helvetica,sans-Serif" font-size="11.00">提取 selected_rule_codes</text>
<text xml:space="preserve" text-anchor="middle" x="87" y="-193.55" font-family="Helvetica,sans-Serif" font-size="11.00">+ deferred_codes</text>
</g>
<!-- check&#45;&gt;rule -->
<g id="edge2" class="edge">
<title>check&#45;&gt;rule</title>
<path fill="none" stroke="black" d="M122.09,-293.88C116.05,-280.25 108.94,-264.23 102.71,-250.17"/>
<polygon fill="black" stroke="black" points="106.01,-248.99 98.76,-241.27 99.61,-251.83 106.01,-248.99"/>
<text xml:space="preserve" text-anchor="middle" x="116.38" y="-263" font-family="Helvetica,sans-Serif" font-size="10.00">是</text>
</g>
<!-- llm -->
<g id="node4" class="node">
<title>llm</title>
<path fill="#fce4ec" stroke="black" d="M229.62,-170C229.62,-170 136.38,-170 136.38,-170 130.38,-170 124.38,-164 124.38,-158 124.38,-158 124.38,-142.5 124.38,-142.5 124.38,-136.5 130.38,-130.5 136.38,-130.5 136.38,-130.5 229.62,-130.5 229.62,-130.5 235.62,-130.5 241.62,-136.5 241.62,-142.5 241.62,-142.5 241.62,-158 241.62,-158 241.62,-164 235.62,-170 229.62,-170"/>
<text xml:space="preserve" text-anchor="middle" x="183" y="-155.55" font-family="Helvetica,sans-Serif" font-size="11.00">LlmPatcher 路由</text>
<text xml:space="preserve" text-anchor="middle" x="183" y="-139.8" font-family="Helvetica,sans-Serif" font-size="11.00">全部为未实现错误码</text>
</g>
<!-- check&#45;&gt;llm -->
<g id="edge3" class="edge">
<title>check&#45;&gt;llm</title>
<path fill="none" stroke="black" d="M148.38,-293.43C154.29,-277.42 161.11,-257.62 166,-239.5 171.15,-220.41 175.37,-198.59 178.31,-181.42"/>
<polygon fill="black" stroke="black" points="181.72,-182.3 179.9,-171.86 174.81,-181.16 181.72,-182.3"/>
<text xml:space="preserve" text-anchor="middle" x="165.36" y="-263" font-family="Helvetica,sans-Serif" font-size="10.00">否</text>
</g>
<!-- arbitrate -->
<g id="node5" class="node">
<title>arbitrate</title>
<path fill="#e8f5e9" stroke="black" d="M140.12,-112.5C140.12,-112.5 61.88,-112.5 61.88,-112.5 55.88,-112.5 49.88,-106.5 49.88,-100.5 49.88,-100.5 49.88,-85 49.88,-85 49.88,-79 55.88,-73 61.88,-73 61.88,-73 140.12,-73 140.12,-73 146.12,-73 152.12,-79 152.12,-85 152.12,-85 152.12,-100.5 152.12,-100.5 152.12,-106.5 146.12,-112.5 140.12,-112.5"/>
<text xml:space="preserve" text-anchor="middle" x="101" y="-98.05" font-family="Helvetica,sans-Serif" font-size="11.00">Span 冲突仲裁</text>
<text xml:space="preserve" text-anchor="middle" x="101" y="-82.3" font-family="Helvetica,sans-Serif" font-size="11.00">(Union&#45;Find 算法)</text>
</g>
<!-- rule&#45;&gt;arbitrate -->
<g id="edge4" class="edge">
<title>rule&#45;&gt;arbitrate</title>
<path fill="none" stroke="black" d="M89.97,-187.51C92.15,-168.98 95.12,-143.72 97.43,-124.09"/>
<polygon fill="black" stroke="black" points="100.9,-124.55 98.59,-114.21 93.95,-123.73 100.9,-124.55"/>
</g>
<!-- output -->
<g id="node6" class="node">
<title>output</title>
<path fill="#e8f0fe" stroke="black" d="M199.25,-36C199.25,-36 82.75,-36 82.75,-36 76.75,-36 70.75,-30 70.75,-24 70.75,-24 70.75,-12 70.75,-12 70.75,-6 76.75,0 82.75,0 82.75,0 199.25,0 199.25,0 205.25,0 211.25,-6 211.25,-12 211.25,-12 211.25,-24 211.25,-24 211.25,-30 205.25,-36 199.25,-36"/>
<text xml:space="preserve" text-anchor="middle" x="141" y="-13.55" font-family="Helvetica,sans-Serif" font-size="11.00">FunctionDispatchDecision</text>
</g>
<!-- llm&#45;&gt;output -->
<g id="edge6" class="edge">
<title>llm&#45;&gt;output</title>
<path fill="none" stroke="black" d="M177.87,-130.02C173.64,-114.53 167.33,-92.24 161,-73 158.21,-64.51 154.93,-55.37 151.84,-47.06"/>
<polygon fill="black" stroke="black" points="155.15,-45.93 148.35,-37.81 148.61,-48.4 155.15,-45.93"/>
</g>
<!-- arbitrate&#45;&gt;output -->
<g id="edge5" class="edge">
<title>arbitrate&#45;&gt;output</title>
<path fill="none" stroke="black" d="M111.51,-72.64C115.97,-64.53 121.25,-54.93 126.1,-46.11"/>
<polygon fill="black" stroke="black" points="129.04,-48.02 130.79,-37.57 122.9,-44.65 129.04,-48.02"/>
</g>
</g>
</svg>
