<?xml version="1.0" encoding="UTF-8" standalone="no"?>
<!DOCTYPE svg PUBLIC "-//W3C//DTD SVG 1.1//EN"
 "http://www.w3.org/Graphics/SVG/1.1/DTD/svg11.dtd">
<!-- Generated by graphviz version 14.1.2 (20260124.0452)
 -->
<!-- Title: preflight_pipeline Pages: 1 -->
<svg width="605pt" height="280pt"
 viewBox="0.00 0.00 605.00 280.00" xmlns="http://www.w3.org/2000/svg" xmlns:xlink="http://www.w3.org/1999/xlink">
<g id="graph0" class="graph" transform="scale(1 1) rotate(0) translate(4 275.5)">
<title>preflight_pipeline</title>
<polygon fill="white" stroke="none" points="-4,4 -4,-275.5 600.73,-275.5 600.73,4 -4,4"/>
<!-- lv -->
<g id="node1" class="node">
<title>lv</title>
<path fill="#e8f0fe" stroke="black" d="M65.5,-271.5C65.5,-271.5 12,-271.5 12,-271.5 6,-271.5 0,-265.5 0,-259.5 0,-259.5 0,-244 0,-244 0,-238 6,-232 12,-232 12,-232 65.5,-232 65.5,-232 71.5,-232 77.5,-238 77.5,-244 77.5,-244 77.5,-259.5 77.5,-259.5 77.5,-265.5 71.5,-271.5 65.5,-271.5"/>
<text xml:space="preserve" text-anchor="middle" x="38.75" y="-257.05" font-family="Helvetica,sans-Serif" font-size="11.00">① LowValue</text>
<text xml:space="preserve" text-anchor="middle" x="38.75" y="-241.3" font-family="Helvetica,sans-Serif" font-size="11.00">检测</text>
</g>
<!-- digest -->
<g id="node6" class="node">
<title>digest</title>
<path fill="#fff9c4" stroke="black" d="M210,-157.75C210,-157.75 126.5,-157.75 126.5,-157.75 120.5,-157.75 114.5,-151.75 114.5,-145.75 114.5,-145.75 114.5,-125.75 114.5,-125.75 114.5,-119.75 120.5,-113.75 126.5,-113.75 126.5,-113.75 210,-113.75 210,-113.75 216,-113.75 222,-119.75 222,-125.75 222,-125.75 222,-145.75 222,-145.75 222,-151.75 216,-157.75 210,-157.75"/>
<text xml:space="preserve" text-anchor="middle" x="168.25" y="-143.3" font-family="Helvetica,sans-Serif" font-size="11.00">PreflightInterceptor</text>
<text xml:space="preserve" text-anchor="middle" x="168.25" y="-131.3" font-family="Helvetica,sans-Serif" font-size="11.00">DigestV1</text>
<text xml:space="preserve" text-anchor="middle" x="168.25" y="-119.3" font-family="Helvetica,sans-Serif" font-size="11.00">(KEY=value notes)</text>
</g>
<!-- lv&#45;&gt;digest -->
<g id="edge1" class="edge">
<title>lv&#45;&gt;digest</title>
<path fill="none" stroke="black" d="M66.86,-231.53C70.49,-228.64 74.12,-225.67 77.5,-222.75 98.39,-204.71 120.67,-183.12 137.81,-165.96"/>
<polygon fill="black" stroke="black" points="140.16,-168.57 144.72,-159 135.19,-163.63 140.16,-168.57"/>
</g>
<!-- e0599 -->
<g id="node2" class="node">
<title>e0599</title>
<path fill="#e8f0fe" stroke="black" d="M57.62,-213.5C57.62,-213.5 19.88,-213.5 19.88,-213.5 13.88,-213.5 7.88,-207.5 7.88,-201.5 7.88,-201.5 7.88,-186 7.88,-186 7.88,-180 13.88,-174 19.88,-174 19.88,-174 57.62,-174 57.62,-174 63.62,-174 69.62,-180 69.62,-186 69.62,-186 69.62,-201.5 69.62,-201.5 69.62,-207.5 63.62,-213.5 57.62,-213.5"/>
<text xml:space="preserve" text-anchor="middle" x="38.75" y="-199.05" font-family="Helvetica,sans-Serif" font-size="11.00">② E0599</text>
<text xml:space="preserve" text-anchor="middle" x="38.75" y="-183.3" font-family="Helvetica,sans-Serif" font-size="11.00">分析</text>
</g>
<!-- e0599&#45;&gt;digest -->
<g id="edge2" class="edge">
<title>e0599&#45;&gt;digest</title>
<path fill="none" stroke="black" d="M69.97,-180C81.24,-174.88 94.47,-168.86 107.47,-162.94"/>
<polygon fill="black" stroke="black" points="108.78,-166.19 116.44,-158.86 105.89,-159.82 108.78,-166.19"/>
</g>
<!-- e0308 -->
<g id="node3" class="node">
<title>e0308</title>
<path fill="#e8f0fe" stroke="black" d="M57.62,-155.5C57.62,-155.5 19.88,-155.5 19.88,-155.5 13.88,-155.5 7.88,-149.5 7.88,-143.5 7.88,-143.5 7.88,-128 7.88,-128 7.88,-122 13.88,-116 19.88,-116 19.88,-116 57.62,-116 57.62,-116 63.62,-116 69.62,-122 69.62,-128 69.62,-128 69.62,-143.5 69.62,-143.5 69.62,-149.5 63.62,-155.5 57.62,-155.5"/>
<text xml:space="preserve" text-anchor="middle" x="38.75" y="-141.05" font-family="Helvetica,sans-Serif" font-size="11.00">③ E0308</text>
<text xml:space="preserve" text-anchor="middle" x="38.75" y="-125.3" font-family="Helvetica,sans-Serif" font-size="11.00">分析</text>
</g>
<!-- e0308&#45;&gt;digest -->
<g id="edge3" class="edge">
<title>e0308&#45;&gt;digest</title>
<path fill="none" stroke="black" d="M69.97,-135.75C79.85,-135.75 91.24,-135.75 102.67,-135.75"/>
<polygon fill="black" stroke="black" points="102.54,-139.25 112.54,-135.75 102.54,-132.25 102.54,-139.25"/>
</g>
<!-- e0432 -->
<g id="node4" class="node">
<title>e0432</title>
<path fill="#e8f0fe" stroke="black" d="M57.62,-97.5C57.62,-97.5 19.88,-97.5 19.88,-97.5 13.88,-97.5 7.88,-91.5 7.88,-85.5 7.88,-85.5 7.88,-70 7.88,-70 7.88,-64 13.88,-58 19.88,-58 19.88,-58 57.62,-58 57.62,-58 63.62,-58 69.62,-64 69.62,-70 69.62,-70 69.62,-85.5 69.62,-85.5 69.62,-91.5 63.62,-97.5 57.62,-97.5"/>
<text xml:space="preserve" text-anchor="middle" x="38.75" y="-83.05" font-family="Helvetica,sans-Serif" font-size="11.00">④ E0432</text>
<text xml:space="preserve" text-anchor="middle" x="38.75" y="-67.3" font-family="Helvetica,sans-Serif" font-size="11.00">分析</text>
</g>
<!-- e0432&#45;&gt;digest -->
<g id="edge4" class="edge">
<title>e0432&#45;&gt;digest</title>
<path fill="none" stroke="black" d="M69.97,-91.5C81.24,-96.62 94.47,-102.64 107.47,-108.56"/>
<polygon fill="black" stroke="black" points="105.89,-111.68 116.44,-112.64 108.78,-105.31 105.89,-111.68"/>
</g>
<!-- e0560 -->
<g id="node5" class="node">
<title>e0560</title>
<path fill="#e8f0fe" stroke="black" d="M57.62,-39.5C57.62,-39.5 19.88,-39.5 19.88,-39.5 13.88,-39.5 7.88,-33.5 7.88,-27.5 7.88,-27.5 7.88,-12 7.88,-12 7.88,-6 13.88,0 19.88,0 19.88,0 57.62,0 57.62,0 63.62,0 69.62,-6 69.62,-12 69.62,-12 69.62,-27.5 69.62,-27.5 69.62,-33.5 63.62,-39.5 57.62,-39.5"/>
<text xml:space="preserve" text-anchor="middle" x="38.75" y="-25.05" font-family="Helvetica,sans-Serif" font-size="11.00">⑤ E0560</text>
<text xml:space="preserve" text-anchor="middle" x="38.75" y="-9.3" font-family="Helvetica,sans-Serif" font-size="11.00">分析</text>
</g>
<!-- e0560&#45;&gt;digest -->
<g id="edge5" class="edge">
<title>e0560&#45;&gt;digest</title>
<path fill="none" stroke="black" d="M66.86,-39.97C70.49,-42.86 74.12,-45.83 77.5,-48.75 98.39,-66.79 120.67,-88.38 137.81,-105.54"/>
<polygon fill="black" stroke="black" points="135.19,-107.87 144.72,-112.5 140.16,-102.93 135.19,-107.87"/>
</g>
<!-- decision -->
<g id="node7" class="node">
<title>decision</title>
<path fill="#fff3e0" stroke="black" d="M329.77,-151.19C329.77,-151.19 270.72,-138.31 270.72,-138.31 264.86,-137.03 264.86,-134.47 270.72,-133.19 270.72,-133.19 329.77,-120.31 329.77,-120.31 335.63,-119.03 347.35,-119.03 353.21,-120.31 353.21,-120.31 412.26,-133.19 412.26,-133.19 418.12,-134.47 418.12,-137.03 412.26,-138.31 412.26,-138.31 353.21,-151.19 353.21,-151.19 347.35,-152.47 335.63,-152.47 329.77,-151.19"/>
<text xml:space="preserve" text-anchor="middle" x="341.49" y="-131.3" font-family="Helvetica,sans-Serif" font-size="11.00">PreflightDecision</text>
</g>
<!-- digest&#45;&gt;decision -->
<g id="edge6" class="edge">
<title>digest&#45;&gt;decision</title>
<path fill="none" stroke="black" d="M222.49,-135.75C229.82,-135.75 237.51,-135.75 245.31,-135.75"/>
<polygon fill="black" stroke="black" points="245.27,-139.25 255.27,-135.75 245.27,-132.25 245.27,-139.25"/>
</g>
<!-- cont -->
<g id="node8" class="node">
<title>cont</title>
<path fill="#e8f5e9" stroke="black" d="M584.73,-207.75C584.73,-207.75 520.73,-207.75 520.73,-207.75 514.73,-207.75 508.73,-201.75 508.73,-195.75 508.73,-195.75 508.73,-183.75 508.73,-183.75 508.73,-177.75 514.73,-171.75 520.73,-171.75 520.73,-171.75 584.73,-171.75 584.73,-171.75 590.73,-171.75 596.73,-177.75 596.73,-183.75 596.73,-183.75 596.73,-195.75 596.73,-195.75 596.73,-201.75 590.73,-207.75 584.73,-207.75"/>
<text xml:space="preserve" text-anchor="middle" x="552.73" y="-185.3" font-family="Helvetica,sans-Serif" font-size="11.00">ContinueToLlm</text>
</g>
<!-- decision&#45;&gt;cont -->
<g id="edge7" class="edge">
<title>decision&#45;&gt;cont</title>
<path fill="none" stroke="black" d="M380.87,-145.65C413.59,-154.1 460.99,-166.33 497.57,-175.77"/>
<polygon fill="black" stroke="black" points="496.52,-179.12 507.08,-178.23 498.27,-172.34 496.52,-179.12"/>
<text xml:space="preserve" text-anchor="middle" x="466.36" y="-179.29" font-family="Helvetica,sans-Serif" font-size="10.00">默认</text>
</g>
<!-- hints -->
<g id="node9" class="node">
<title>hints</title>
<path fill="#e8f5e9" stroke="black" d="M584.73,-153.75C584.73,-153.75 520.73,-153.75 520.73,-153.75 514.73,-153.75 508.73,-147.75 508.73,-141.75 508.73,-141.75 508.73,-129.75 508.73,-129.75 508.73,-123.75 514.73,-117.75 520.73,-117.75 520.73,-117.75 584.73,-117.75 584.73,-117.75 590.73,-117.75 596.73,-123.75 596.73,-129.75 596.73,-129.75 596.73,-141.75 596.73,-141.75 596.73,-147.75 590.73,-153.75 584.73,-153.75"/>
<text xml:space="preserve" text-anchor="middle" x="552.73" y="-137.3" font-family="Helvetica,sans-Serif" font-size="11.00">ContinueToLlm</text>
<text xml:space="preserve" text-anchor="middle" x="552.73" y="-125.3" font-family="Helvetica,sans-Serif" font-size="11.00">WithHints</text>
</g>
<!-- decision&#45;&gt;hints -->
<g id="edge8" class="edge">
<title>decision&#45;&gt;hints</title>
<path fill="none" stroke="black" d="M426.09,-135.75C450.02,-135.75 475.48,-135.75 497.18,-135.75"/>
<polygon fill="black" stroke="black" points="496.97,-139.25 506.97,-135.75 496.97,-132.25 496.97,-139.25"/>
<text xml:space="preserve" text-anchor="middle" x="466.36" y="-141.25" font-family="Helvetica,sans-Serif" font-size="10.00">可修复提示</text>
</g>
<!-- skip -->
<g id="node10" class="node">
<title>skip</title>
<path fill="#fce4ec" stroke="black" d="M580.98,-99.75C580.98,-99.75 524.48,-99.75 524.48,-99.75 518.48,-99.75 512.48,-93.75 512.48,-87.75 512.48,-87.75 512.48,-75.75 512.48,-75.75 512.48,-69.75 518.48,-63.75 524.48,-63.75 524.48,-63.75 580.98,-63.75 580.98,-63.75 586.98,-63.75 592.98,-69.75 592.98,-75.75 592.98,-75.75 592.98,-87.75 592.98,-87.75 592.98,-93.75 586.98,-99.75 580.98,-99.75"/>
<text xml:space="preserve" text-anchor="middle" x="552.73" y="-83.3" font-family="Helvetica,sans-Serif" font-size="11.00">SkipLlm</text>
<text xml:space="preserve" text-anchor="middle" x="552.73" y="-71.3" font-family="Helvetica,sans-Serif" font-size="11.00">CommentOut</text>
</g>
<!-- decision&#45;&gt;skip -->
<g id="edge9" class="edge">
<title>decision&#45;&gt;skip</title>
<path fill="none" stroke="black" d="M380.87,-125.85C414.66,-117.13 464.1,-104.37 501.12,-94.81"/>
<polygon fill="black" stroke="black" points="501.9,-98.22 510.71,-92.34 500.15,-91.45 501.9,-98.22"/>
<text xml:space="preserve" text-anchor="middle" x="466.36" y="-114.25" font-family="Helvetica,sans-Serif" font-size="10.00">高风险</text>
</g>
</g>
</svg>
