<?xml version="1.0" encoding="UTF-8" standalone="no"?>
<!DOCTYPE svg PUBLIC "-//W3C//DTD SVG 1.1//EN"
 "http://www.w3.org/Graphics/SVG/1.1/DTD/svg11.dtd">
<!-- Generated by graphviz version 14.1.2 (20260124.0452)
 -->
<!-- Title: llm_round_loop Pages: 1 -->
<svg width="915pt" height="1752pt"
 viewBox="0.00 0.00 915.00 1752.00" xmlns="http://www.w3.org/2000/svg" xmlns:xlink="http://www.w3.org/1999/xlink">
<g id="graph0" class="graph" transform="scale(1 1) rotate(0) translate(4 1747.75)">
<title>llm_round_loop</title>
<polygon fill="white" stroke="none" points="-4,4 -4,-1747.75 911.25,-1747.75 911.25,4 -4,4"/>
<g id="clust1" class="cluster">
<title>cluster_inject</title>
<path fill="#fff9c4" fill-opacity="0.301961" stroke="#f57f17" d="M20,-181.62C20,-181.62 469,-181.62 469,-181.62 475,-181.62 481,-187.62 481,-193.62 481,-193.62 481,-1422.25 481,-1422.25 481,-1428.25 475,-1434.25 469,-1434.25 469,-1434.25 20,-1434.25 20,-1434.25 14,-1434.25 8,-1428.25 8,-1422.25 8,-1422.25 8,-193.62 8,-193.62 8,-187.63 14,-181.62 20,-181.62"/>
<text xml:space="preserve" text-anchor="middle" x="55.38" y="-1419.8" font-family="Helvetica,sans-Serif" font-weight="bold" font-size="11.00">上下文注入来源</text>
</g>
<g id="clust2" class="cluster">
<title>cluster_round</title>
<polygon fill="none" stroke="#1a73e8" stroke-dasharray="5,2" points="489,-179.5 489,-1298 798,-1298 798,-179.5 489,-179.5"/>
<text xml:space="preserve" text-anchor="middle" x="583.62" y="-1283.55" font-family="Helvetica,sans-Serif" font-weight="bold" font-size="11.00">Round 迭代循环（每轮独立预算）</text>
</g>
<g id="clust3" class="cluster">
<title>cluster_candidate</title>
<polygon fill="none" stroke="#2e7d32" stroke-dasharray="1,5" points="497,-496.25 497,-847 639,-847 639,-496.25 497,-496.25"/>
<text xml:space="preserve" text-anchor="middle" x="533.12" y="-832.55" font-family="Helvetica,sans-Serif" font-size="11.00">逐候选验证</text>
</g>
<!-- entry -->
<g id="node1" class="node">
<title>entry</title>
<path fill="#e8f0fe" stroke="black" d="M627.5,-1743.75C627.5,-1743.75 566.5,-1743.75 566.5,-1743.75 560.5,-1743.75 554.5,-1737.75 554.5,-1731.75 554.5,-1731.75 554.5,-1719.75 554.5,-1719.75 554.5,-1713.75 560.5,-1707.75 566.5,-1707.75 566.5,-1707.75 627.5,-1707.75 627.5,-1707.75 633.5,-1707.75 639.5,-1713.75 639.5,-1719.75 639.5,-1719.75 639.5,-1731.75 639.5,-1731.75 639.5,-1737.75 633.5,-1743.75 627.5,-1743.75"/>
<text xml:space="preserve" text-anchor="middle" x="597" y="-1729.17" font-family="Helvetica,sans-Serif" font-size="11.00">LLM 函数入口</text>
<text xml:space="preserve" text-anchor="middle" x="597" y="-1713.42" font-family="Helvetica,sans-Serif" font-size="11.00">(round = 1)</text>
</g>
<!-- preflight -->
<g id="node2" class="node">
<title>preflight</title>
<path fill="#fff9c4" stroke="black" d="M625.62,-1670.75C625.62,-1670.75 568.38,-1670.75 568.38,-1670.75 562.38,-1670.75 556.38,-1664.75 556.38,-1658.75 556.38,-1658.75 556.38,-1643.25 556.38,-1643.25 556.38,-1637.25 562.38,-1631.25 568.38,-1631.25 568.38,-1631.25 625.62,-1631.25 625.62,-1631.25 631.62,-1631.25 637.62,-1637.25 637.62,-1643.25 637.62,-1643.25 637.62,-1658.75 637.62,-1658.75 637.62,-1664.75 631.62,-1670.75 625.62,-1670.75"/>
<text xml:space="preserve" text-anchor="middle" x="597" y="-1656.3" font-family="Helvetica,sans-Serif" font-size="11.00">Preflight 分析</text>
<text xml:space="preserve" text-anchor="middle" x="597" y="-1640.55" font-family="Helvetica,sans-Serif" font-size="11.00">五维编排</text>
</g>
<!-- entry&#45;&gt;preflight -->
<g id="edge1" class="edge">
<title>entry&#45;&gt;preflight</title>
<path fill="none" stroke="black" d="M597,-1707.51C597,-1700 597,-1690.97 597,-1682.39"/>
<polygon fill="black" stroke="black" points="600.5,-1682.68 597,-1672.68 593.5,-1682.68 600.5,-1682.68"/>
</g>
<!-- pf_decision -->
<g id="node3" class="node">
<title>pf_decision</title>
<path fill="#fff3e0" stroke="black" d="M585.23,-1591.9C585.23,-1591.9 518.62,-1578.6 518.62,-1578.6 512.74,-1577.42 512.74,-1575.08 518.62,-1573.9 518.62,-1573.9 585.23,-1560.6 585.23,-1560.6 591.12,-1559.42 602.88,-1559.42 608.77,-1560.6 608.77,-1560.6 675.38,-1573.9 675.38,-1573.9 681.26,-1575.08 681.26,-1577.42 675.38,-1578.6 675.38,-1578.6 608.77,-1591.9 608.77,-1591.9 602.88,-1593.08 591.12,-1593.08 585.23,-1591.9"/>
<text xml:space="preserve" text-anchor="middle" x="597" y="-1571.8" font-family="Helvetica,sans-Serif" font-size="11.00">Preflight Decision?</text>
</g>
<!-- preflight&#45;&gt;pf_decision -->
<g id="edge2" class="edge">
<title>preflight&#45;&gt;pf_decision</title>
<path fill="none" stroke="black" d="M597,-1630.89C597,-1623.22 597,-1614.22 597,-1605.8"/>
<polygon fill="black" stroke="black" points="600.5,-1606.01 597,-1596.01 593.5,-1606.01 600.5,-1606.01"/>
</g>
<!-- comment_out -->
<g id="node4" class="node">
<title>comment_out</title>
<path fill="#fce4ec" stroke="black" d="M693.12,-1511C693.12,-1511 638.88,-1511 638.88,-1511 632.88,-1511 626.88,-1505 626.88,-1499 626.88,-1499 626.88,-1483.5 626.88,-1483.5 626.88,-1477.5 632.88,-1471.5 638.88,-1471.5 638.88,-1471.5 693.12,-1471.5 693.12,-1471.5 699.12,-1471.5 705.12,-1477.5 705.12,-1483.5 705.12,-1483.5 705.12,-1499 705.12,-1499 705.12,-1505 699.12,-1511 693.12,-1511"/>
<text xml:space="preserve" text-anchor="middle" x="666" y="-1496.55" font-family="Helvetica,sans-Serif" font-size="11.00">尝试注释化</text>
<text xml:space="preserve" text-anchor="middle" x="666" y="-1480.8" font-family="Helvetica,sans-Serif" font-size="11.00">+ Verify 门禁</text>
</g>
<!-- pf_decision&#45;&gt;comment_out -->
<g id="edge3" class="edge">
<title>pf_decision&#45;&gt;comment_out</title>
<path fill="none" stroke="black" d="M609.34,-1560.41C618.68,-1549.17 631.8,-1533.39 643.06,-1519.85"/>
<polygon fill="black" stroke="black" points="645.46,-1522.43 649.16,-1512.51 640.08,-1517.96 645.46,-1522.43"/>
<text xml:space="preserve" text-anchor="middle" x="680.44" y="-1530.75" font-family="Helvetica,sans-Serif" font-size="10.00">SkipLlmCommentOut</text>
</g>
<!-- build_ctx -->
<g id="node10" class="node">
<title>build_ctx</title>
<path fill="#e8f5e9" stroke="black" d="M653.12,-1266.25C653.12,-1266.25 508.88,-1266.25 508.88,-1266.25 502.88,-1266.25 496.88,-1260.25 496.88,-1254.25 496.88,-1254.25 496.88,-1191.5 496.88,-1191.5 496.88,-1185.5 502.88,-1179.5 508.88,-1179.5 508.88,-1179.5 653.12,-1179.5 653.12,-1179.5 659.12,-1179.5 665.12,-1185.5 665.12,-1191.5 665.12,-1191.5 665.12,-1254.25 665.12,-1254.25 665.12,-1260.25 659.12,-1266.25 653.12,-1266.25"/>
<text xml:space="preserve" text-anchor="middle" x="581" y="-1251.8" font-family="Helvetica,sans-Serif" font-size="11.00">构建 FunctionContextBundleV1</text>
<text xml:space="preserve" text-anchor="middle" x="581" y="-1236.05" font-family="Helvetica,sans-Serif" font-size="11.00">L0: 元数据 + 约束</text>
<text xml:space="preserve" text-anchor="middle" x="581" y="-1220.3" font-family="Helvetica,sans-Serif" font-size="11.00">L1: 目标函数 + 诊断摘要</text>
<text xml:space="preserve" text-anchor="middle" x="581" y="-1204.55" font-family="Helvetica,sans-Serif" font-size="11.00">L2: 相关导入/类型/impl/函数</text>
<text xml:space="preserve" text-anchor="middle" x="581" y="-1188.8" font-family="Helvetica,sans-Serif" font-size="11.00">字符预算裁剪 (≤12000)</text>
</g>
<!-- pf_decision&#45;&gt;build_ctx -->
<g id="edge4" class="edge">
<title>pf_decision&#45;&gt;build_ctx</title>
<path fill="none" stroke="black" d="M596.23,-1558.3C593.95,-1508.19 587.16,-1359.18 583.47,-1278.02"/>
<polygon fill="black" stroke="black" points="586.96,-1277.91 583.01,-1268.07 579.97,-1278.22 586.96,-1277.91"/>
<text xml:space="preserve" text-anchor="middle" x="628.87" y="-1444" font-family="Helvetica,sans-Serif" font-size="10.00">ContinueToLlm(*)</text>
</g>
<!-- co_ok -->
<g id="node5" class="node">
<title>co_ok</title>
<path fill="#fff3e0" stroke="black" d="M686.24,-1386.38C686.24,-1386.38 620.61,-1373.12 620.61,-1373.12 614.73,-1371.94 614.73,-1369.56 620.61,-1368.38 620.61,-1368.38 686.24,-1355.12 686.24,-1355.12 692.12,-1353.94 703.88,-1353.94 709.76,-1355.12 709.76,-1355.12 775.39,-1368.38 775.39,-1368.38 781.27,-1369.56 781.27,-1371.94 775.39,-1373.12 775.39,-1373.12 709.76,-1386.38 709.76,-1386.38 703.88,-1387.56 692.12,-1387.56 686.24,-1386.38"/>
<text xml:space="preserve" text-anchor="middle" x="698" y="-1368.17" font-family="Helvetica,sans-Serif" font-size="11.00">注释验证通过？</text>
</g>
<!-- comment_out&#45;&gt;co_ok -->
<g id="edge5" class="edge">
<title>comment_out&#45;&gt;co_ok</title>
<path fill="none" stroke="black" d="M671.14,-1471.21C676.41,-1451.69 684.66,-1421.14 690.63,-1399.05"/>
<polygon fill="black" stroke="black" points="693.97,-1400.1 693.2,-1389.53 687.21,-1398.27 693.97,-1400.1"/>
</g>
<!-- co_ok&#45;&gt;build_ctx -->
<g id="edge7" class="edge">
<title>co_ok&#45;&gt;build_ctx</title>
<path fill="none" stroke="black" d="M685.92,-1354.69C671.01,-1336.1 644.87,-1303.51 622.42,-1275.51"/>
<polygon fill="black" stroke="black" points="625.21,-1273.4 616.22,-1267.79 619.75,-1277.78 625.21,-1273.4"/>
<text xml:space="preserve" text-anchor="middle" x="686.07" y="-1311.5" font-family="Helvetica,sans-Serif" font-size="10.00">否，回退继续</text>
</g>
<!-- result -->
<g id="node22" class="node">
<title>result</title>
<path fill="#e8f0fe" stroke="black" d="M836.12,-36C836.12,-36 733.88,-36 733.88,-36 727.88,-36 721.88,-30 721.88,-24 721.88,-24 721.88,-12 721.88,-12 721.88,-6 727.88,0 733.88,0 733.88,0 836.12,0 836.12,0 842.12,0 848.12,-6 848.12,-12 848.12,-12 848.12,-24 848.12,-24 848.12,-30 842.12,-36 836.12,-36"/>
<text xml:space="preserve" text-anchor="middle" x="785" y="-21.43" font-family="Helvetica,sans-Serif" font-size="11.00">输出</text>
<text xml:space="preserve" text-anchor="middle" x="785" y="-5.67" font-family="Helvetica,sans-Serif" font-size="11.00">LlmReplayStageResult</text>
</g>
<!-- co_ok&#45;&gt;result -->
<g id="edge6" class="edge">
<title>co_ok&#45;&gt;result</title>
<path fill="none" stroke="black" d="M749.26,-1362.64C775.87,-1356.23 806.58,-1344.07 825,-1321 852.21,-1286.92 839,-1267.49 839,-1223.88 839,-1223.88 839,-1223.88 839,-103.75 839,-81.37 825.45,-60.15 811.92,-44.54"/>
<polygon fill="black" stroke="black" points="814.87,-42.57 805.52,-37.58 809.72,-47.31 814.87,-42.57"/>
<text xml:space="preserve" text-anchor="middle" x="873.12" y="-656" font-family="Helvetica,sans-Serif" font-size="10.00">是，函数已处理</text>
</g>
<!-- inject_pf -->
<g id="node6" class="node">
<title>inject_pf</title>
<path fill="#fff9c4" stroke="black" d="M461.12,-1402.5C461.12,-1402.5 304.88,-1402.5 304.88,-1402.5 298.88,-1402.5 292.88,-1396.5 292.88,-1390.5 292.88,-1390.5 292.88,-1351 292.88,-1351 292.88,-1345 298.88,-1339 304.88,-1339 304.88,-1339 461.12,-1339 461.12,-1339 467.12,-1339 473.12,-1345 473.12,-1351 473.12,-1351 473.12,-1390.5 473.12,-1390.5 473.12,-1396.5 467.12,-1402.5 461.12,-1402.5"/>
<text xml:space="preserve" text-anchor="middle" x="383" y="-1388.05" font-family="Helvetica,sans-Serif" font-size="11.00">Preflight Digest(如果存在)</text>
<text xml:space="preserve" text-anchor="middle" x="383" y="-1372.3" font-family="Helvetica,sans-Serif" font-size="11.00">(始终注入)</text>
<text xml:space="preserve" text-anchor="middle" x="383" y="-1356.55" font-family="Helvetica,sans-Serif" font-size="11.00">preflight_interceptor_digest</text>
<text xml:space="preserve" text-anchor="middle" x="383" y="-1344.55" font-family="Helvetica,sans-Serif" font-size="11.00">E0308/E0599/E0432/E0560 notes</text>
</g>
<!-- inject_pf&#45;&gt;build_ctx -->
<g id="edge8" class="edge">
<title>inject_pf&#45;&gt;build_ctx</title>
<path fill="none" stroke="#f57f17" stroke-dasharray="5,2" d="M433.71,-1338.51C452.66,-1326.36 474.15,-1312.01 493,-1298 503.17,-1290.44 513.7,-1282.08 523.79,-1273.78"/>
<polygon fill="#f57f17" stroke="#f57f17" points="525.91,-1276.57 531.36,-1267.49 521.43,-1271.19 525.91,-1276.57"/>
</g>
<!-- inject_nb -->
<g id="node7" class="node">
<title>inject_nb</title>
<path fill="#fff9c4" stroke="black" d="M113.5,-1396.5C113.5,-1396.5 28.5,-1396.5 28.5,-1396.5 22.5,-1396.5 16.5,-1390.5 16.5,-1384.5 16.5,-1384.5 16.5,-1357 16.5,-1357 16.5,-1351 22.5,-1345 28.5,-1345 28.5,-1345 113.5,-1345 113.5,-1345 119.5,-1345 125.5,-1351 125.5,-1357 125.5,-1357 125.5,-1384.5 125.5,-1384.5 125.5,-1390.5 119.5,-1396.5 113.5,-1396.5"/>
<text xml:space="preserve" text-anchor="middle" x="71" y="-1382.05" font-family="Helvetica,sans-Serif" font-size="11.00">邻域成功摘要</text>
<text xml:space="preserve" text-anchor="middle" x="71" y="-1366.3" font-family="Helvetica,sans-Serif" font-size="11.00">(始终注入)</text>
<text xml:space="preserve" text-anchor="middle" x="71" y="-1350.55" font-family="Helvetica,sans-Serif" font-size="11.00">neighbor_fix_digest</text>
</g>
<!-- inject_nb&#45;&gt;build_ctx -->
<g id="edge9" class="edge">
<title>inject_nb&#45;&gt;build_ctx</title>
<path fill="none" stroke="#f57f17" stroke-dasharray="5,2" d="M118.13,-1344.64C123.39,-1342.47 128.74,-1340.53 134,-1339 172.55,-1327.77 456.14,-1313.9 493,-1298 506.74,-1292.07 519.97,-1283.27 531.82,-1273.78"/>
<polygon fill="#f57f17" stroke="#f57f17" points="534.02,-1276.5 539.43,-1267.39 529.52,-1271.14 534.02,-1276.5"/>
</g>
<!-- inject_r1 -->
<g id="node8" class="node">
<title>inject_r1</title>
<path fill="#fff3cd" stroke="black" d="M262.75,-1396.5C262.75,-1396.5 155.25,-1396.5 155.25,-1396.5 149.25,-1396.5 143.25,-1390.5 143.25,-1384.5 143.25,-1384.5 143.25,-1357 143.25,-1357 143.25,-1351 149.25,-1345 155.25,-1345 155.25,-1345 262.75,-1345 262.75,-1345 268.75,-1345 274.75,-1351 274.75,-1357 274.75,-1357 274.75,-1384.5 274.75,-1384.5 274.75,-1390.5 268.75,-1396.5 262.75,-1396.5"/>
<text xml:space="preserve" text-anchor="middle" x="209" y="-1382.05" font-family="Helvetica,sans-Serif" font-size="11.00">本地规则失败摘要</text>
<text xml:space="preserve" text-anchor="middle" x="209" y="-1366.3" font-family="Helvetica,sans-Serif" font-size="11.00">(Round = 1 注入)</text>
<text xml:space="preserve" text-anchor="middle" x="209" y="-1350.55" font-family="Helvetica,sans-Serif" font-size="11.00">local_rule_failure_digest</text>
</g>
<!-- inject_r1&#45;&gt;build_ctx -->
<g id="edge10" class="edge">
<title>inject_r1&#45;&gt;build_ctx</title>
<path fill="none" stroke="#f57f17" stroke-dasharray="5,2" d="M266.69,-1344.59C272.47,-1342.52 278.31,-1340.61 284,-1339 375.07,-1313.17 408.31,-1340.28 493,-1298 505.96,-1291.53 518.64,-1282.78 530.16,-1273.55"/>
<polygon fill="#f57f17" stroke="#f57f17" points="532.1,-1276.49 537.56,-1267.41 527.63,-1271.1 532.1,-1276.49"/>
</g>
<!-- inject_rn -->
<g id="node9" class="node">
<title>inject_rn</title>
<path fill="#ffe0b2" stroke="black" d="M461.38,-256.88C461.38,-256.88 312.62,-256.88 312.62,-256.88 306.62,-256.88 300.62,-250.88 300.62,-244.88 300.62,-244.88 300.62,-201.62 300.62,-201.62 300.62,-195.62 306.62,-189.62 312.62,-189.62 312.62,-189.62 461.38,-189.62 461.38,-189.62 467.38,-189.62 473.38,-195.62 473.38,-201.62 473.38,-201.62 473.38,-244.88 473.38,-244.88 473.38,-250.88 467.38,-256.88 461.38,-256.88"/>
<text xml:space="preserve" text-anchor="middle" x="387" y="-242.43" font-family="Helvetica,sans-Serif" font-size="11.00">上轮失败摘要</text>
<text xml:space="preserve" text-anchor="middle" x="387" y="-226.68" font-family="Helvetica,sans-Serif" font-size="11.00">(Round ≥ 2 注入)</text>
<text xml:space="preserve" text-anchor="middle" x="387" y="-210.93" font-family="Helvetica,sans-Serif" font-size="11.00">previous_round_failure_digest</text>
<text xml:space="preserve" text-anchor="middle" x="387" y="-198.93" font-family="Helvetica,sans-Serif" font-size="11.00">(修复文本 + 失败分类 + 错误码)</text>
</g>
<!-- inject_rn&#45;&gt;build_ctx -->
<g id="edge11" class="edge">
<title>inject_rn&#45;&gt;build_ctx</title>
<path fill="none" stroke="#f57f17" stroke-dasharray="5,2" d="M401.34,-257.36C411,-282.68 422,-318.72 422,-351.62 422,-1094.12 422,-1094.12 422,-1094.12 422,-1116.25 459.9,-1147.22 498.69,-1173.13"/>
<polygon fill="#f57f17" stroke="#f57f17" points="496.47,-1175.86 506.75,-1178.42 500.31,-1170.01 496.47,-1175.86"/>
</g>
<!-- build_prompt -->
<g id="node11" class="node">
<title>build_prompt</title>
<path fill="#e8f5e9" stroke="black" d="M631.75,-1142.5C631.75,-1142.5 530.25,-1142.5 530.25,-1142.5 524.25,-1142.5 518.25,-1136.5 518.25,-1130.5 518.25,-1130.5 518.25,-1055.75 518.25,-1055.75 518.25,-1049.75 524.25,-1043.75 530.25,-1043.75 530.25,-1043.75 631.75,-1043.75 631.75,-1043.75 637.75,-1043.75 643.75,-1049.75 643.75,-1055.75 643.75,-1055.75 643.75,-1130.5 643.75,-1130.5 643.75,-1136.5 637.75,-1142.5 631.75,-1142.5"/>
<text xml:space="preserve" text-anchor="middle" x="581" y="-1128.05" font-family="Helvetica,sans-Serif" font-size="11.00">组装 Prompt v2</text>
<text xml:space="preserve" text-anchor="middle" x="581" y="-1112.3" font-family="Helvetica,sans-Serif" font-size="11.00">System: 修复约束</text>
<text xml:space="preserve" text-anchor="middle" x="581" y="-1096.55" font-family="Helvetica,sans-Serif" font-size="11.00">User: 函数源码 + 诊断</text>
<text xml:space="preserve" text-anchor="middle" x="581" y="-1080.8" font-family="Helvetica,sans-Serif" font-size="11.00">+ 规则失败摘要</text>
<text xml:space="preserve" text-anchor="middle" x="581" y="-1065.05" font-family="Helvetica,sans-Serif" font-size="11.00">+ Preflight notes</text>
<text xml:space="preserve" text-anchor="middle" x="581" y="-1053.05" font-family="Helvetica,sans-Serif" font-size="11.00">+ 上轮失败记忆</text>
</g>
<!-- build_ctx&#45;&gt;build_prompt -->
<g id="edge12" class="edge">
<title>build_ctx&#45;&gt;build_prompt</title>
<path fill="none" stroke="black" d="M581,-1179.34C581,-1171.25 581,-1162.65 581,-1154.15"/>
<polygon fill="black" stroke="black" points="584.5,-1154.17 581,-1144.17 577.5,-1154.17 584.5,-1154.17"/>
</g>
<!-- llm_call -->
<g id="node12" class="node">
<title>llm_call</title>
<path fill="#e8f5e9" stroke="black" d="M626.62,-1006.75C626.62,-1006.75 533.38,-1006.75 533.38,-1006.75 527.38,-1006.75 521.38,-1000.75 521.38,-994.75 521.38,-994.75 521.38,-982.75 521.38,-982.75 521.38,-976.75 527.38,-970.75 533.38,-970.75 533.38,-970.75 626.62,-970.75 626.62,-970.75 632.62,-970.75 638.62,-976.75 638.62,-982.75 638.62,-982.75 638.62,-994.75 638.62,-994.75 638.62,-1000.75 632.62,-1006.75 626.62,-1006.75"/>
<text xml:space="preserve" text-anchor="middle" x="580" y="-992.17" font-family="Helvetica,sans-Serif" font-size="11.00">LLM 请求</text>
<text xml:space="preserve" text-anchor="middle" x="580" y="-976.42" font-family="Helvetica,sans-Serif" font-size="11.00">(Replay / Online API)</text>
</g>
<!-- build_prompt&#45;&gt;llm_call -->
<g id="edge13" class="edge">
<title>build_prompt&#45;&gt;llm_call</title>
<path fill="none" stroke="black" d="M580.52,-1043.34C580.44,-1034.82 580.36,-1026.21 580.28,-1018.47"/>
<polygon fill="black" stroke="black" points="583.78,-1018.61 580.18,-1008.64 576.78,-1018.68 583.78,-1018.61"/>
</g>
<!-- parse -->
<g id="node13" class="node">
<title>parse</title>
<path fill="#e8f5e9" stroke="black" d="M615.5,-933.75C615.5,-933.75 542.5,-933.75 542.5,-933.75 536.5,-933.75 530.5,-927.75 530.5,-921.75 530.5,-921.75 530.5,-886 530.5,-886 530.5,-880 536.5,-874 542.5,-874 542.5,-874 615.5,-874 615.5,-874 621.5,-874 627.5,-880 627.5,-886 627.5,-886 627.5,-921.75 627.5,-921.75 627.5,-927.75 621.5,-933.75 615.5,-933.75"/>
<text xml:space="preserve" text-anchor="middle" x="579" y="-919.3" font-family="Helvetica,sans-Serif" font-size="11.00">输出解析</text>
<text xml:space="preserve" text-anchor="middle" x="579" y="-903.55" font-family="Helvetica,sans-Serif" font-size="11.00">rust fenced block</text>
<text xml:space="preserve" text-anchor="middle" x="579" y="-891.55" font-family="Helvetica,sans-Serif" font-size="11.00">&gt; plain fn item</text>
<text xml:space="preserve" text-anchor="middle" x="579" y="-879.55" font-family="Helvetica,sans-Serif" font-size="11.00">&gt; JSON fallback</text>
</g>
<!-- llm_call&#45;&gt;parse -->
<g id="edge14" class="edge">
<title>llm_call&#45;&gt;parse</title>
<path fill="none" stroke="black" d="M579.79,-970.58C579.7,-963.26 579.6,-954.38 579.49,-945.55"/>
<polygon fill="black" stroke="black" points="582.99,-945.57 579.37,-935.62 575.99,-945.66 582.99,-945.57"/>
</g>
<!-- resolve -->
<g id="node14" class="node">
<title>resolve</title>
<path fill="#e0f2f1" stroke="black" d="M619,-815.25C619,-815.25 537,-815.25 537,-815.25 531,-815.25 525,-809.25 525,-803.25 525,-803.25 525,-772 525,-772 525,-766 531,-760 537,-760 537,-760 619,-760 619,-760 625,-760 631,-766 631,-772 631,-772 631,-803.25 631,-803.25 631,-809.25 625,-815.25 619,-815.25"/>
<text xml:space="preserve" text-anchor="middle" x="578" y="-800.8" font-family="Helvetica,sans-Serif" font-size="11.00">候选解析</text>
<text xml:space="preserve" text-anchor="middle" x="578" y="-785.05" font-family="Helvetica,sans-Serif" font-size="11.00">syn 签名/属性守卫</text>
<text xml:space="preserve" text-anchor="middle" x="578" y="-769.3" font-family="Helvetica,sans-Serif" font-size="11.00">(不变则通过)</text>
</g>
<!-- parse&#45;&gt;resolve -->
<g id="edge15" class="edge">
<title>parse&#45;&gt;resolve</title>
<path fill="none" stroke="black" d="M578.75,-873.75C578.62,-859.52 578.47,-842.22 578.34,-826.94"/>
<polygon fill="black" stroke="black" points="581.84,-827.22 578.25,-817.25 574.84,-827.28 581.84,-827.22"/>
</g>
<!-- merge -->
<g id="node15" class="node">
<title>merge</title>
<path fill="#e0f2f1" stroke="black" d="M554.5,-723C554.5,-723 517.5,-723 517.5,-723 511.5,-723 505.5,-717 505.5,-711 505.5,-711 505.5,-695.5 505.5,-695.5 505.5,-689.5 511.5,-683.5 517.5,-683.5 517.5,-683.5 554.5,-683.5 554.5,-683.5 560.5,-683.5 566.5,-689.5 566.5,-695.5 566.5,-695.5 566.5,-711 566.5,-711 566.5,-717 560.5,-723 554.5,-723"/>
<text xml:space="preserve" text-anchor="middle" x="536" y="-708.55" font-family="Helvetica,sans-Serif" font-size="11.00">合并动作</text>
<text xml:space="preserve" text-anchor="middle" x="536" y="-692.8" font-family="Helvetica,sans-Serif" font-size="11.00">冲突检测</text>
</g>
<!-- resolve&#45;&gt;merge -->
<g id="edge16" class="edge">
<title>resolve&#45;&gt;merge</title>
<path fill="none" stroke="black" d="M564.25,-759.65C560.01,-751.34 555.32,-742.14 551,-733.67"/>
<polygon fill="black" stroke="black" points="554.14,-732.12 546.48,-724.8 547.9,-735.3 554.14,-732.12"/>
</g>
<!-- verify -->
<g id="node16" class="node">
<title>verify</title>
<path fill="#e0f2f1" stroke="black" d="M599,-632.5C599,-632.5 517,-632.5 517,-632.5 511,-632.5 505,-626.5 505,-620.5 505,-620.5 505,-589.25 505,-589.25 505,-583.25 511,-577.25 517,-577.25 517,-577.25 599,-577.25 599,-577.25 605,-577.25 611,-583.25 611,-589.25 611,-589.25 611,-620.5 611,-620.5 611,-626.5 605,-632.5 599,-632.5"/>
<text xml:space="preserve" text-anchor="middle" x="558" y="-618.05" font-family="Helvetica,sans-Serif" font-size="11.00">Verify 门禁</text>
<text xml:space="preserve" text-anchor="middle" x="558" y="-602.3" font-family="Helvetica,sans-Serif" font-size="11.00">目标函数错误清零</text>
<text xml:space="preserve" text-anchor="middle" x="558" y="-586.55" font-family="Helvetica,sans-Serif" font-size="11.00">+ 非目标无回归</text>
</g>
<!-- merge&#45;&gt;verify -->
<g id="edge17" class="edge">
<title>merge&#45;&gt;verify</title>
<path fill="none" stroke="black" d="M539.93,-683.05C541.96,-673.29 544.53,-661.24 547,-650.5 547.5,-648.34 548.01,-646.13 548.54,-643.89"/>
<polygon fill="black" stroke="black" points="551.93,-644.76 550.87,-634.21 545.13,-643.12 551.93,-644.76"/>
</g>
<!-- cand_ok -->
<g id="node17" class="node">
<title>cand_ok</title>
<path fill="#fff3e0" stroke="black" d="M572.8,-535.94C572.8,-535.94 548.39,-526.56 548.39,-526.56 542.79,-524.4 542.79,-520.1 548.39,-517.94 548.39,-517.94 572.8,-508.56 572.8,-508.56 578.4,-506.4 589.6,-506.4 595.2,-508.56 595.2,-508.56 619.61,-517.94 619.61,-517.94 625.21,-520.1 625.21,-524.4 619.61,-526.56 619.61,-526.56 595.2,-535.94 595.2,-535.94 589.6,-538.1 578.4,-538.1 572.8,-535.94"/>
<text xml:space="preserve" text-anchor="middle" x="584" y="-519.67" font-family="Helvetica,sans-Serif" font-size="11.00">接纳？</text>
</g>
<!-- verify&#45;&gt;cand_ok -->
<g id="edge18" class="edge">
<title>verify&#45;&gt;cand_ok</title>
<path fill="none" stroke="black" d="M566.66,-577.03C569.53,-568.11 572.73,-558.2 575.59,-549.34"/>
<polygon fill="black" stroke="black" points="578.89,-550.5 578.63,-539.91 572.23,-548.35 578.89,-550.5"/>
</g>
<!-- cand_ok&#45;&gt;resolve -->
<g id="edge20" class="edge">
<title>cand_ok&#45;&gt;resolve</title>
<path fill="none" stroke="black" d="M602.01,-533.46C610.68,-539.45 620.22,-547.88 625,-558.25 638.82,-588.22 629.87,-599.86 625,-632.5 618.92,-673.28 604.26,-718.2 592.92,-748.97"/>
<polygon fill="black" stroke="black" points="589.68,-747.62 589.44,-758.21 596.24,-750.08 589.68,-747.62"/>
<text xml:space="preserve" text-anchor="middle" x="651.05" y="-656" font-family="Helvetica,sans-Serif" font-size="10.00">否，下一候选</text>
</g>
<!-- round_exhausted -->
<g id="node18" class="node">
<title>round_exhausted</title>
<path fill="#ffcdd2" stroke="black" d="M595.16,-451.32C595.16,-451.32 508.52,-437.18 508.52,-437.18 502.6,-436.22 502.6,-434.28 508.52,-433.32 508.52,-433.32 595.16,-419.18 595.16,-419.18 601.08,-418.22 612.92,-418.22 618.84,-419.18 618.84,-419.18 705.48,-433.32 705.48,-433.32 711.4,-434.28 711.4,-436.22 705.48,-437.18 705.48,-437.18 618.84,-451.32 618.84,-451.32 612.92,-452.28 601.08,-452.28 595.16,-451.32"/>
<text xml:space="preserve" text-anchor="middle" x="607" y="-432.68" font-family="Helvetica,sans-Serif" font-size="11.00">本轮所有候选均失败</text>
</g>
<!-- cand_ok&#45;&gt;round_exhausted -->
<g id="edge21" class="edge">
<title>cand_ok&#45;&gt;round_exhausted</title>
<path fill="none" stroke="black" d="M588.22,-505.66C591.38,-493.98 595.79,-477.69 599.54,-463.82"/>
<polygon fill="black" stroke="black" points="602.86,-464.93 602.1,-454.36 596.11,-463.1 602.86,-464.93"/>
<text xml:space="preserve" text-anchor="middle" x="626.13" y="-476.75" font-family="Helvetica,sans-Serif" font-size="10.00">候选列表耗尽</text>
</g>
<!-- cand_ok&#45;&gt;result -->
<g id="edge19" class="edge">
<title>cand_ok&#45;&gt;result</title>
<path fill="none" stroke="black" d="M622.74,-518.75C671.03,-514.85 749.81,-505.66 771,-486.25 788.02,-470.67 785,-459.33 785,-436.25 785,-436.25 785,-436.25 785,-103.75 785,-84.92 785,-63.75 785,-47.27"/>
<polygon fill="black" stroke="black" points="788.5,-47.72 785,-37.72 781.5,-47.72 788.5,-47.72"/>
<text xml:space="preserve" text-anchor="middle" x="804.5" y="-290" font-family="Helvetica,sans-Serif" font-size="10.00">是，接纳</text>
</g>
<!-- record_failure -->
<g id="node19" class="node">
<title>record_failure</title>
<path fill="#fce4ec" stroke="black" d="M652.88,-380.25C652.88,-380.25 561.12,-380.25 561.12,-380.25 555.12,-380.25 549.12,-374.25 549.12,-368.25 549.12,-368.25 549.12,-337 549.12,-337 549.12,-331 555.12,-325 561.12,-325 561.12,-325 652.88,-325 652.88,-325 658.88,-325 664.88,-331 664.88,-337 664.88,-337 664.88,-368.25 664.88,-368.25 664.88,-374.25 658.88,-380.25 652.88,-380.25"/>
<text xml:space="preserve" text-anchor="middle" x="607" y="-365.8" font-family="Helvetica,sans-Serif" font-size="11.00">记录失败摘要</text>
<text xml:space="preserve" text-anchor="middle" x="607" y="-350.05" font-family="Helvetica,sans-Serif" font-size="11.00">写入 attempt_history</text>
<text xml:space="preserve" text-anchor="middle" x="607" y="-334.3" font-family="Helvetica,sans-Serif" font-size="11.00">(供下轮注入)</text>
</g>
<!-- round_exhausted&#45;&gt;record_failure -->
<g id="edge22" class="edge">
<title>round_exhausted&#45;&gt;record_failure</title>
<path fill="none" stroke="black" d="M607,-416.76C607,-409.41 607,-400.57 607,-391.85"/>
<polygon fill="black" stroke="black" points="610.5,-392.12 607,-382.12 603.5,-392.12 610.5,-392.12"/>
</g>
<!-- record_failure&#45;&gt;inject_rn -->
<g id="edge27" class="edge">
<title>record_failure&#45;&gt;inject_rn</title>
<path fill="none" stroke="#999999" stroke-dasharray="1,5" d="M578.01,-324.8C560.41,-309.46 536.97,-290.61 514,-277 504.53,-271.39 494.34,-266.08 484.01,-261.16"/>
<polygon fill="#999999" stroke="#999999" points="485.58,-258.03 475.03,-257 482.64,-264.38 485.58,-258.03"/>
<text xml:space="preserve" text-anchor="middle" x="573.69" y="-297.5" font-family="Helvetica,sans-Serif" font-size="10.00">写入供</text>
<text xml:space="preserve" text-anchor="middle" x="573.69" y="-282.5" font-family="Helvetica,sans-Serif" font-size="10.00">下轮使用</text>
</g>
<!-- round_budget -->
<g id="node20" class="node">
<title>round_budget</title>
<path fill="#fff3e0" stroke="black" d="M615.43,-255.82C615.43,-255.82 508.57,-226.43 508.57,-226.43 502.79,-224.84 502.79,-221.66 508.57,-220.07 508.57,-220.07 615.43,-190.68 615.43,-190.68 621.21,-189.09 632.79,-189.09 638.57,-190.68 638.57,-190.68 745.43,-220.07 745.43,-220.07 751.21,-221.66 751.21,-224.84 745.43,-226.43 745.43,-226.43 638.57,-255.82 638.57,-255.82 632.79,-257.41 621.21,-257.41 615.43,-255.82"/>
<text xml:space="preserve" text-anchor="middle" x="627" y="-226.68" font-family="Helvetica,sans-Serif" font-size="11.00">轮次预算耗尽？</text>
<text xml:space="preserve" text-anchor="middle" x="627" y="-210.93" font-family="Helvetica,sans-Serif" font-size="11.00">(round == max_rounds)</text>
</g>
<!-- record_failure&#45;&gt;round_budget -->
<g id="edge23" class="edge">
<title>record_failure&#45;&gt;round_budget</title>
<path fill="none" stroke="black" d="M611.24,-324.61C613.77,-308.53 617.04,-287.7 619.94,-269.2"/>
<polygon fill="black" stroke="black" points="623.37,-269.96 621.46,-259.53 616.45,-268.87 623.37,-269.96"/>
</g>
<!-- round_budget&#45;&gt;build_ctx -->
<g id="edge24" class="edge">
<title>round_budget&#45;&gt;build_ctx</title>
<path fill="none" stroke="#1a73e8" stroke-width="2" d="M689.18,-242.31C705.61,-250.22 721.41,-261.39 731,-277 840,-454.5 665,-532.7 665,-741 665,-1094.12 665,-1094.12 665,-1094.12 665,-1124.15 674.29,-1135.09 660,-1161.5 658.33,-1164.59 656.42,-1167.57 654.33,-1170.43"/>
<polygon fill="#1a73e8" stroke="#1a73e8" stroke-width="2" points="652.68,-1166.94 649.01,-1176.87 658.08,-1171.39 652.68,-1166.94"/>
<text xml:space="preserve" text-anchor="middle" x="731.65" y="-708.75" font-family="Helvetica,sans-Serif" font-size="10.00" fill="#1a73e8">否（round++）</text>
<text xml:space="preserve" text-anchor="middle" x="731.65" y="-693.75" font-family="Helvetica,sans-Serif" font-size="10.00" fill="#1a73e8">注入本轮失败摘要→inject_rn</text>
</g>
<!-- budget_fallback -->
<g id="node21" class="node">
<title>budget_fallback</title>
<path fill="#fce4ec" stroke="black" d="M734.62,-136.5C734.62,-136.5 581.38,-136.5 581.38,-136.5 575.38,-136.5 569.38,-130.5 569.38,-124.5 569.38,-124.5 569.38,-85 569.38,-85 569.38,-79 575.38,-73 581.38,-73 581.38,-73 734.62,-73 734.62,-73 740.62,-73 746.62,-79 746.62,-85 746.62,-85 746.62,-124.5 746.62,-124.5 746.62,-130.5 740.62,-136.5 734.62,-136.5"/>
<text xml:space="preserve" text-anchor="middle" x="658" y="-122.05" font-family="Helvetica,sans-Serif" font-size="11.00">Budget Fallback</text>
<text xml:space="preserve" text-anchor="middle" x="658" y="-110.05" font-family="Helvetica,sans-Serif" font-size="11.00">仅 E0308 SetupHell/</text>
<text xml:space="preserve" text-anchor="middle" x="658" y="-94.3" font-family="Helvetica,sans-Serif" font-size="11.00">NominalHallucination + LowValue</text>
<text xml:space="preserve" text-anchor="middle" x="658" y="-82.3" font-family="Helvetica,sans-Serif" font-size="11.00">执行一次保守注释尝试</text>
</g>
<!-- round_budget&#45;&gt;budget_fallback -->
<g id="edge25" class="edge">
<title>round_budget&#45;&gt;budget_fallback</title>
<path fill="none" stroke="black" d="M635.72,-189.49C639.19,-176.42 643.24,-161.23 646.92,-147.4"/>
<polygon fill="black" stroke="black" points="650.2,-148.69 649.38,-138.13 643.43,-146.89 650.2,-148.69"/>
<text xml:space="preserve" text-anchor="middle" x="673.61" y="-160" font-family="Helvetica,sans-Serif" font-size="10.00">是，预算耗尽</text>
</g>
<!-- budget_fallback&#45;&gt;result -->
<g id="edge26" class="edge">
<title>budget_fallback&#45;&gt;result</title>
<path fill="none" stroke="black" d="M704.57,-72.67C719.52,-62.69 735.83,-51.81 749.83,-42.47"/>
<polygon fill="black" stroke="black" points="751.47,-45.58 757.84,-37.12 747.58,-39.76 751.47,-45.58"/>
</g>
</g>
</svg>
