<?xml version="1.0" encoding="UTF-8" standalone="no"?>
<!DOCTYPE svg PUBLIC "-//W3C//DTD SVG 1.1//EN"
 "http://www.w3.org/Graphics/SVG/1.1/DTD/svg11.dtd">
<!-- Generated by graphviz version 14.1.2 (20260124.0452)
 -->
<!-- Title: fix_flow Pages: 1 -->
<svg width="210pt" height="877pt"
 viewBox="0.00 0.00 210.00 877.00" xmlns="http://www.w3.org/2000/svg" xmlns:xlink="http://www.w3.org/1999/xlink">
<g id="graph0" class="graph" transform="scale(1 1) rotate(0) translate(4 873.25)">
<title>fix_flow</title>
<polygon fill="white" stroke="none" points="-4,4 -4,-873.25 206,-873.25 206,4 -4,4"/>
<g id="clust1" class="cluster">
<title>cluster_plan</title>
<polygon fill="none" stroke="#666666" stroke-dasharray="5,2" points="29,-443.25 29,-663 173,-663 173,-443.25 29,-443.25"/>
<text xml:space="preserve" text-anchor="middle" x="60.62" y="-648.55" font-family="Helvetica,sans-Serif" font-size="11.00">Plan 内部</text>
</g>
<g id="clust2" class="cluster">
<title>cluster_verify</title>
<polygon fill="none" stroke="#666666" stroke-dasharray="5,2" points="8,-151.5 8,-371.25 194,-371.25 194,-151.5 8,-151.5"/>
<text xml:space="preserve" text-anchor="middle" x="42.25" y="-356.8" font-family="Helvetica,sans-Serif" font-size="11.00">Verify 内部</text>
</g>
<!-- compile -->
<g id="node1" class="node">
<title>compile</title>
<path fill="#e8f0fe" stroke="black" d="M152.88,-869.25C152.88,-869.25 49.12,-869.25 49.12,-869.25 43.12,-869.25 37.12,-863.25 37.12,-857.25 37.12,-857.25 37.12,-837.25 37.12,-837.25 37.12,-831.25 43.12,-825.25 49.12,-825.25 49.12,-825.25 152.88,-825.25 152.88,-825.25 158.88,-825.25 164.88,-831.25 164.88,-837.25 164.88,-837.25 164.88,-857.25 164.88,-857.25 164.88,-863.25 158.88,-869.25 152.88,-869.25"/>
<text xml:space="preserve" text-anchor="middle" x="101" y="-854.8" font-family="Helvetica,sans-Serif" font-size="11.00">Stage 1: Compile</text>
<text xml:space="preserve" text-anchor="middle" x="101" y="-842.8" font-family="Helvetica,sans-Serif" font-size="11.00">cargo check &#45;&#45;tests</text>
<text xml:space="preserve" text-anchor="middle" x="101" y="-830.8" font-family="Helvetica,sans-Serif" font-size="11.00">&#45;&#45;message&#45;format=json</text>
</g>
<!-- analyze -->
<g id="node2" class="node">
<title>analyze</title>
<path fill="#e8f0fe" stroke="black" d="M161.12,-789.25C161.12,-789.25 40.87,-789.25 40.87,-789.25 34.88,-789.25 28.88,-783.25 28.88,-777.25 28.88,-777.25 28.88,-755 28.88,-755 28.88,-749 34.88,-743 40.88,-743 40.88,-743 161.12,-743 161.12,-743 167.12,-743 173.12,-749 173.12,-755 173.12,-755 173.12,-777.25 173.12,-777.25 173.12,-783.25 167.12,-789.25 161.12,-789.25"/>
<text xml:space="preserve" text-anchor="middle" x="101" y="-774.8" font-family="Helvetica,sans-Serif" font-size="11.00">Stage 2: Analyze</text>
<text xml:space="preserve" text-anchor="middle" x="101" y="-762.8" font-family="Helvetica,sans-Serif" font-size="11.00">JsonParser → Diagnostic[]</text>
<text xml:space="preserve" text-anchor="middle" x="101" y="-748.55" font-family="Helvetica,sans-Serif" font-size="11.00">+ normalize_paths()</text>
</g>
<!-- compile&#45;&gt;analyze -->
<g id="edge1" class="edge">
<title>compile&#45;&gt;analyze</title>
<path fill="none" stroke="black" d="M101,-825.05C101,-817.58 101,-808.99 101,-800.75"/>
<polygon fill="black" stroke="black" points="104.5,-801.01 101,-791.01 97.5,-801.01 104.5,-801.01"/>
</g>
<!-- plan -->
<g id="node3" class="node">
<title>plan</title>
<path fill="#e8f0fe" stroke="black" d="M129.62,-707C129.62,-707 72.38,-707 72.38,-707 66.38,-707 60.38,-701 60.38,-695 60.38,-695 60.38,-683 60.38,-683 60.38,-677 66.38,-671 72.38,-671 72.38,-671 129.62,-671 129.62,-671 135.62,-671 141.62,-677 141.62,-683 141.62,-683 141.62,-695 141.62,-695 141.62,-701 135.62,-707 129.62,-707"/>
<text xml:space="preserve" text-anchor="middle" x="101" y="-684.55" font-family="Helvetica,sans-Serif" font-size="11.00">Stage 3: Plan</text>
</g>
<!-- analyze&#45;&gt;plan -->
<g id="edge2" class="edge">
<title>analyze&#45;&gt;plan</title>
<path fill="none" stroke="black" d="M101,-742.59C101,-735.01 101,-726.45 101,-718.48"/>
<polygon fill="black" stroke="black" points="104.5,-718.54 101,-708.54 97.5,-718.54 104.5,-718.54"/>
</g>
<!-- func_index -->
<g id="node4" class="node">
<title>func_index</title>
<path fill="#e8f5e9" stroke="black" d="M148.75,-631.25C148.75,-631.25 53.25,-631.25 53.25,-631.25 47.25,-631.25 41.25,-625.25 41.25,-619.25 41.25,-619.25 41.25,-607.25 41.25,-607.25 41.25,-601.25 47.25,-595.25 53.25,-595.25 53.25,-595.25 148.75,-595.25 148.75,-595.25 154.75,-595.25 160.75,-601.25 160.75,-607.25 160.75,-607.25 160.75,-619.25 160.75,-619.25 160.75,-625.25 154.75,-631.25 148.75,-631.25"/>
<text xml:space="preserve" text-anchor="middle" x="101" y="-616.67" font-family="Helvetica,sans-Serif" font-size="11.00">FunctionIndex::build()</text>
<text xml:space="preserve" text-anchor="middle" x="101" y="-604.67" font-family="Helvetica,sans-Serif" font-size="11.00">AST 扫描测试函数</text>
</g>
<!-- plan&#45;&gt;func_index -->
<g id="edge3" class="edge">
<title>plan&#45;&gt;func_index</title>
<path fill="none" stroke="black" d="M101,-670.52C101,-662.26 101,-652.17 101,-642.84"/>
<polygon fill="black" stroke="black" points="104.5,-643.12 101,-633.12 97.5,-643.12 104.5,-643.12"/>
</g>
<!-- dispatch -->
<g id="node5" class="node">
<title>dispatch</title>
<path fill="#e8f5e9" stroke="black" d="M152.88,-559.25C152.88,-559.25 49.12,-559.25 49.12,-559.25 43.12,-559.25 37.12,-553.25 37.12,-547.25 37.12,-547.25 37.12,-535.25 37.12,-535.25 37.12,-529.25 43.12,-523.25 49.12,-523.25 49.12,-523.25 152.88,-523.25 152.88,-523.25 158.88,-523.25 164.88,-529.25 164.88,-535.25 164.88,-535.25 164.88,-547.25 164.88,-547.25 164.88,-553.25 158.88,-559.25 152.88,-559.25"/>
<text xml:space="preserve" text-anchor="middle" x="101" y="-544.67" font-family="Helvetica,sans-Serif" font-size="11.00">build_dispatch_output()</text>
<text xml:space="preserve" text-anchor="middle" x="101" y="-532.67" font-family="Helvetica,sans-Serif" font-size="11.00">RuleFirst 分发</text>
</g>
<!-- func_index&#45;&gt;dispatch -->
<g id="edge4" class="edge">
<title>func_index&#45;&gt;dispatch</title>
<path fill="none" stroke="black" d="M101,-594.95C101,-587.66 101,-578.98 101,-570.79"/>
<polygon fill="black" stroke="black" points="104.5,-570.87 101,-560.87 97.5,-570.87 104.5,-570.87"/>
</g>
<!-- rule_plan -->
<g id="node6" class="node">
<title>rule_plan</title>
<path fill="#e8f5e9" stroke="black" d="M151.75,-487.25C151.75,-487.25 50.25,-487.25 50.25,-487.25 44.25,-487.25 38.25,-481.25 38.25,-475.25 38.25,-475.25 38.25,-463.25 38.25,-463.25 38.25,-457.25 44.25,-451.25 50.25,-451.25 50.25,-451.25 151.75,-451.25 151.75,-451.25 157.75,-451.25 163.75,-457.25 163.75,-463.25 163.75,-463.25 163.75,-475.25 163.75,-475.25 163.75,-481.25 157.75,-487.25 151.75,-487.25"/>
<text xml:space="preserve" text-anchor="middle" x="101" y="-472.68" font-family="Helvetica,sans-Serif" font-size="11.00">plan_rule_candidates()</text>
<text xml:space="preserve" text-anchor="middle" x="101" y="-460.68" font-family="Helvetica,sans-Serif" font-size="11.00">规则候选生成</text>
</g>
<!-- dispatch&#45;&gt;rule_plan -->
<g id="edge5" class="edge">
<title>dispatch&#45;&gt;rule_plan</title>
<path fill="none" stroke="black" d="M101,-522.95C101,-515.66 101,-506.98 101,-498.79"/>
<polygon fill="black" stroke="black" points="104.5,-498.87 101,-488.87 97.5,-498.87 104.5,-498.87"/>
</g>
<!-- verify -->
<g id="node7" class="node">
<title>verify</title>
<path fill="#e8f0fe" stroke="black" d="M132.25,-415.25C132.25,-415.25 69.75,-415.25 69.75,-415.25 63.75,-415.25 57.75,-409.25 57.75,-403.25 57.75,-403.25 57.75,-391.25 57.75,-391.25 57.75,-385.25 63.75,-379.25 69.75,-379.25 69.75,-379.25 132.25,-379.25 132.25,-379.25 138.25,-379.25 144.25,-385.25 144.25,-391.25 144.25,-391.25 144.25,-403.25 144.25,-403.25 144.25,-409.25 138.25,-415.25 132.25,-415.25"/>
<text xml:space="preserve" text-anchor="middle" x="101" y="-392.8" font-family="Helvetica,sans-Serif" font-size="11.00">Stage 4: Verify</text>
</g>
<!-- rule_plan&#45;&gt;verify -->
<g id="edge6" class="edge">
<title>rule_plan&#45;&gt;verify</title>
<path fill="none" stroke="black" d="M101,-450.95C101,-443.66 101,-434.98 101,-426.79"/>
<polygon fill="black" stroke="black" points="104.5,-426.87 101,-416.87 97.5,-426.87 104.5,-426.87"/>
</g>
<!-- optimistic -->
<g id="node8" class="node">
<title>optimistic</title>
<path fill="#fff9c4" stroke="black" d="M153.25,-339.5C153.25,-339.5 48.75,-339.5 48.75,-339.5 42.75,-339.5 36.75,-333.5 36.75,-327.5 36.75,-327.5 36.75,-315.5 36.75,-315.5 36.75,-309.5 42.75,-303.5 48.75,-303.5 48.75,-303.5 153.25,-303.5 153.25,-303.5 159.25,-303.5 165.25,-309.5 165.25,-315.5 165.25,-315.5 165.25,-327.5 165.25,-327.5 165.25,-333.5 159.25,-339.5 153.25,-339.5"/>
<text xml:space="preserve" text-anchor="middle" x="101" y="-324.93" font-family="Helvetica,sans-Serif" font-size="11.00">run_optimistic_greedy()</text>
<text xml:space="preserve" text-anchor="middle" x="101" y="-312.93" font-family="Helvetica,sans-Serif" font-size="11.00">逐轮 rank 提升验证</text>
</g>
<!-- verify&#45;&gt;optimistic -->
<g id="edge7" class="edge">
<title>verify&#45;&gt;optimistic</title>
<path fill="none" stroke="black" d="M101,-378.77C101,-370.51 101,-360.42 101,-351.09"/>
<polygon fill="black" stroke="black" points="104.5,-351.37 101,-341.37 97.5,-351.37 104.5,-351.37"/>
</g>
<!-- partial -->
<g id="node9" class="node">
<title>partial</title>
<path fill="#fff9c4" stroke="black" d="M173.5,-267.5C173.5,-267.5 28.5,-267.5 28.5,-267.5 22.5,-267.5 16.5,-261.5 16.5,-255.5 16.5,-255.5 16.5,-243.5 16.5,-243.5 16.5,-237.5 22.5,-231.5 28.5,-231.5 28.5,-231.5 173.5,-231.5 173.5,-231.5 179.5,-231.5 185.5,-237.5 185.5,-243.5 185.5,-243.5 185.5,-255.5 185.5,-255.5 185.5,-261.5 179.5,-267.5 173.5,-267.5"/>
<text xml:space="preserve" text-anchor="middle" x="101" y="-252.93" font-family="Helvetica,sans-Serif" font-size="11.00">compose_function_union_plan()</text>
<text xml:space="preserve" text-anchor="middle" x="101" y="-240.93" font-family="Helvetica,sans-Serif" font-size="11.00">函数级合并</text>
</g>
<!-- optimistic&#45;&gt;partial -->
<g id="edge8" class="edge">
<title>optimistic&#45;&gt;partial</title>
<path fill="none" stroke="black" d="M101,-303.2C101,-295.91 101,-287.23 101,-279.04"/>
<polygon fill="black" stroke="black" points="104.5,-279.12 101,-269.12 97.5,-279.12 104.5,-279.12"/>
</g>
<!-- llm_stage -->
<g id="node10" class="node">
<title>llm_stage</title>
<path fill="#e8f5e9" stroke="black" stroke-dasharray="5,2" d="M153.62,-195.5C153.62,-195.5 48.37,-195.5 48.37,-195.5 42.38,-195.5 36.38,-189.5 36.38,-183.5 36.38,-183.5 36.38,-171.5 36.38,-171.5 36.38,-165.5 42.38,-159.5 48.38,-159.5 48.38,-159.5 153.62,-159.5 153.62,-159.5 159.62,-159.5 165.62,-165.5 165.62,-171.5 165.62,-171.5 165.62,-183.5 165.62,-183.5 165.62,-189.5 159.62,-195.5 153.62,-195.5"/>
<text xml:space="preserve" text-anchor="middle" x="101" y="-180.93" font-family="Helvetica,sans-Serif" font-size="11.00">maybe_run_llm_stage()</text>
<text xml:space="preserve" text-anchor="middle" x="101" y="-168.93" font-family="Helvetica,sans-Serif" font-size="11.00">条件性 LLM 执行</text>
</g>
<!-- partial&#45;&gt;llm_stage -->
<g id="edge9" class="edge">
<title>partial&#45;&gt;llm_stage</title>
<path fill="none" stroke="black" d="M101,-231.2C101,-223.91 101,-215.23 101,-207.04"/>
<polygon fill="black" stroke="black" points="104.5,-207.12 101,-197.12 97.5,-207.12 104.5,-207.12"/>
</g>
<!-- apply_stage -->
<g id="node11" class="node">
<title>apply_stage</title>
<path fill="#e8f0fe" stroke="black" d="M148,-123.5C148,-123.5 54,-123.5 54,-123.5 48,-123.5 42,-117.5 42,-111.5 42,-111.5 42,-84 42,-84 42,-78 48,-72 54,-72 54,-72 148,-72 148,-72 154,-72 160,-78 160,-84 160,-84 160,-111.5 160,-111.5 160,-117.5 154,-123.5 148,-123.5"/>
<text xml:space="preserve" text-anchor="middle" x="101" y="-109.05" font-family="Helvetica,sans-Serif" font-size="11.00">Stage 5: Apply</text>
<text xml:space="preserve" text-anchor="middle" x="101" y="-97.05" font-family="Helvetica,sans-Serif" font-size="11.00">写回源文件 / Dry&#45;run</text>
<text xml:space="preserve" text-anchor="middle" x="101" y="-81.3" font-family="Helvetica,sans-Serif" font-size="11.00">+ 备份</text>
</g>
<!-- llm_stage&#45;&gt;apply_stage -->
<g id="edge10" class="edge">
<title>llm_stage&#45;&gt;apply_stage</title>
<path fill="none" stroke="black" d="M101,-159.24C101,-152.19 101,-143.74 101,-135.43"/>
<polygon fill="black" stroke="black" points="104.5,-135.44 101,-125.44 97.5,-135.44 104.5,-135.44"/>
</g>
<!-- summarize -->
<g id="node12" class="node">
<title>summarize</title>
<path fill="#e8f0fe" stroke="black" d="M146.12,-36C146.12,-36 55.87,-36 55.87,-36 49.88,-36 43.87,-30 43.87,-24 43.87,-24 43.87,-12 43.87,-12 43.87,-6 49.87,0 55.87,0 55.87,0 146.12,0 146.12,0 152.12,0 158.12,-6 158.12,-12 158.12,-12 158.12,-24 158.12,-24 158.12,-30 152.12,-36 146.12,-36"/>
<text xml:space="preserve" text-anchor="middle" x="101" y="-21.43" font-family="Helvetica,sans-Serif" font-size="11.00">Stage 6: Summarize</text>
<text xml:space="preserve" text-anchor="middle" x="101" y="-9.43" font-family="Helvetica,sans-Serif" font-size="11.00">生成 RunSummary</text>
</g>
<!-- apply_stage&#45;&gt;summarize -->
<g id="edge11" class="edge">
<title>apply_stage&#45;&gt;summarize</title>
<path fill="none" stroke="black" d="M101,-71.72C101,-64.06 101,-55.57 101,-47.68"/>
<polygon fill="black" stroke="black" points="104.5,-47.87 101,-37.87 97.5,-47.87 104.5,-47.87"/>
</g>
</g>
</svg>
