<?xml version="1.0" encoding="UTF-8" standalone="no"?>
<!DOCTYPE svg PUBLIC "-//W3C//DTD SVG 1.1//EN"
 "http://www.w3.org/Graphics/SVG/1.1/DTD/svg11.dtd">
<!-- Generated by graphviz version 14.1.2 (20260124.0452)
 -->
<!-- Title: module_layers Pages: 1 -->
<svg width="887pt" height="600pt"
 viewBox="0.00 0.00 887.00 600.00" xmlns="http://www.w3.org/2000/svg" xmlns:xlink="http://www.w3.org/1999/xlink">
<g id="graph0" class="graph" transform="scale(1 1) rotate(0) translate(4 596)">
<title>module_layers</title>
<polygon fill="white" stroke="none" points="-4,4 -4,-596 882.81,-596 882.81,4 -4,4"/>
<text xml:space="preserve" text-anchor="middle" x="439.4" y="-574.7" font-family="Helvetica,sans-Serif" font-weight="bold" font-size="14.00">rug&#45;patcher 模块层次架构</text>
<g id="clust1" class="cluster">
<title>cluster_app</title>
<path fill="#fff3e0" fill-opacity="0.301961" stroke="#e6a817" d="M347.81,-238.75C347.81,-238.75 607.81,-238.75 607.81,-238.75 613.81,-238.75 619.81,-244.75 619.81,-250.75 619.81,-250.75 619.81,-543.75 619.81,-543.75 619.81,-549.75 613.81,-555.75 607.81,-555.75 607.81,-555.75 347.81,-555.75 347.81,-555.75 341.81,-555.75 335.81,-549.75 335.81,-543.75 335.81,-543.75 335.81,-250.75 335.81,-250.75 335.81,-244.75 341.81,-238.75 347.81,-238.75"/>
<text xml:space="preserve" text-anchor="middle" x="413.56" y="-540.35" font-family="Helvetica,sans-Serif" font-weight="bold" font-size="12.00">应用层 (main.rs 私有模块)</text>
</g>
<g id="clust2" class="cluster">
<title>cluster_lib</title>
<path fill="#e8f0fe" fill-opacity="0.301961" stroke="#1a73e8" d="M51.81,-8C51.81,-8 315.81,-8 315.81,-8 321.81,-8 327.81,-14 327.81,-20 327.81,-20 327.81,-321.75 327.81,-321.75 327.81,-327.75 321.81,-333.75 315.81,-333.75 315.81,-333.75 51.81,-333.75 51.81,-333.75 45.81,-333.75 39.81,-327.75 39.81,-321.75 39.81,-321.75 39.81,-20 39.81,-20 39.81,-14 45.81,-8 51.81,-8"/>
<text xml:space="preserve" text-anchor="middle" x="104.43" y="-318.35" font-family="Helvetica,sans-Serif" font-weight="bold" font-size="12.00">库层 (lib.rs 公共导出)</text>
</g>
<g id="clust3" class="cluster">
<title>cluster_external</title>
<path fill="#f3e5f5" fill-opacity="0.301961" stroke="#7b1fa2" d="M639.81,-20C639.81,-20 858.81,-20 858.81,-20 864.81,-20 870.81,-26 870.81,-32 870.81,-32 870.81,-435.75 870.81,-435.75 870.81,-441.75 864.81,-447.75 858.81,-447.75 858.81,-447.75 639.81,-447.75 639.81,-447.75 633.81,-447.75 627.81,-441.75 627.81,-435.75 627.81,-435.75 627.81,-32 627.81,-32 627.81,-26 633.81,-20 639.81,-20"/>
<text xml:space="preserve" text-anchor="middle" x="659.81" y="-432.35" font-family="Helvetica,sans-Serif" font-weight="bold" font-size="12.00">外部依赖</text>
</g>
<!-- cli -->
<g id="node1" class="node">
<title>cli</title>
<path fill="#fff3e0" stroke="black" d="M566.43,-522.5C566.43,-522.5 509.18,-522.5 509.18,-522.5 503.18,-522.5 497.18,-516.5 497.18,-510.5 497.18,-510.5 497.18,-486.75 497.18,-486.75 497.18,-480.75 503.18,-474.75 509.18,-474.75 509.18,-474.75 566.43,-474.75 566.43,-474.75 572.43,-474.75 578.43,-480.75 578.43,-486.75 578.43,-486.75 578.43,-510.5 578.43,-510.5 578.43,-516.5 572.43,-522.5 566.43,-522.5"/>
<text xml:space="preserve" text-anchor="middle" x="537.81" y="-508.05" font-family="Helvetica,sans-Serif" font-size="11.00">cli</text>
<text xml:space="preserve" text-anchor="middle" x="537.81" y="-496.05" font-family="Helvetica,sans-Serif" font-size="11.00">CLI 参数解析</text>
<text xml:space="preserve" text-anchor="middle" x="537.81" y="-480.3" font-family="Helvetica,sans-Serif" font-size="11.00">(clap derive)</text>
</g>
<!-- config -->
<g id="node2" class="node">
<title>config</title>
<path fill="#fff3e0" stroke="black" d="M599.43,-416.38C599.43,-416.38 476.18,-416.38 476.18,-416.38 470.18,-416.38 464.18,-410.38 464.18,-404.38 464.18,-404.38 464.18,-376.88 464.18,-376.88 464.18,-370.88 470.18,-364.88 476.18,-364.88 476.18,-364.88 599.43,-364.88 599.43,-364.88 605.43,-364.88 611.43,-370.88 611.43,-376.88 611.43,-376.88 611.43,-404.38 611.43,-404.38 611.43,-410.38 605.43,-416.38 599.43,-416.38"/>
<text xml:space="preserve" text-anchor="middle" x="537.81" y="-401.93" font-family="Helvetica,sans-Serif" font-size="11.00">config</text>
<text xml:space="preserve" text-anchor="middle" x="537.81" y="-389.93" font-family="Helvetica,sans-Serif" font-size="11.00">配置解析</text>
<text xml:space="preserve" text-anchor="middle" x="537.81" y="-374.18" font-family="Helvetica,sans-Serif" font-size="11.00">CLI &gt; ENV &gt; TOML &gt; 默认</text>
</g>
<!-- cli&#45;&gt;config -->
<g id="edge1" class="edge">
<title>cli&#45;&gt;config</title>
<path fill="none" stroke="black" stroke-dasharray="5,2" d="M537.81,-474.36C537.81,-460.76 537.81,-443.31 537.81,-427.93"/>
<polygon fill="black" stroke="black" points="541.31,-428.2 537.81,-418.2 534.31,-428.2 541.31,-428.2"/>
</g>
<!-- runtime -->
<g id="node3" class="node">
<title>runtime</title>
<path fill="#fff3e0" stroke="black" d="M433.93,-420.5C433.93,-420.5 355.68,-420.5 355.68,-420.5 349.68,-420.5 343.68,-414.5 343.68,-408.5 343.68,-408.5 343.68,-372.75 343.68,-372.75 343.68,-366.75 349.68,-360.75 355.68,-360.75 355.68,-360.75 433.93,-360.75 433.93,-360.75 439.93,-360.75 445.93,-366.75 445.93,-372.75 445.93,-372.75 445.93,-408.5 445.93,-408.5 445.93,-414.5 439.93,-420.5 433.93,-420.5"/>
<text xml:space="preserve" text-anchor="middle" x="394.81" y="-406.05" font-family="Helvetica,sans-Serif" font-size="11.00">runtime</text>
<text xml:space="preserve" text-anchor="middle" x="394.81" y="-394.05" font-family="Helvetica,sans-Serif" font-size="11.00">运行时编排</text>
<text xml:space="preserve" text-anchor="middle" x="394.81" y="-378.3" font-family="Helvetica,sans-Serif" font-size="11.00">(stages, workflow,</text>
<text xml:space="preserve" text-anchor="middle" x="394.81" y="-366.3" font-family="Helvetica,sans-Serif" font-size="11.00">artifacts, reporter)</text>
</g>
<!-- cli&#45;&gt;runtime -->
<g id="edge2" class="edge">
<title>cli&#45;&gt;runtime</title>
<path fill="none" stroke="black" d="M497.01,-475.42C483.2,-467.31 467.96,-457.68 454.81,-447.75 447.12,-441.94 439.31,-435.29 431.98,-428.65"/>
<polygon fill="black" stroke="black" points="434.45,-426.17 424.74,-421.93 429.69,-431.3 434.45,-426.17"/>
</g>
<!-- clap -->
<g id="node13" class="node">
<title>clap</title>
<path fill="#f3e5f5" stroke="black" d="M682.18,-414.5C682.18,-414.5 647.43,-414.5 647.43,-414.5 641.43,-414.5 635.43,-408.5 635.43,-402.5 635.43,-402.5 635.43,-378.75 635.43,-378.75 635.43,-372.75 641.43,-366.75 647.43,-366.75 647.43,-366.75 682.18,-366.75 682.18,-366.75 688.18,-366.75 694.18,-372.75 694.18,-378.75 694.18,-378.75 694.18,-402.5 694.18,-402.5 694.18,-408.5 688.18,-414.5 682.18,-414.5"/>
<text xml:space="preserve" text-anchor="middle" x="664.81" y="-400.05" font-family="Helvetica,sans-Serif" font-size="11.00">clap</text>
<text xml:space="preserve" text-anchor="middle" x="664.81" y="-388.05" font-family="Helvetica,sans-Serif" font-size="11.00">CLI 框架</text>
<text xml:space="preserve" text-anchor="middle" x="664.81" y="-372.3" font-family="Helvetica,sans-Serif" font-size="11.00">(derive)</text>
</g>
<!-- cli&#45;&gt;clap -->
<g id="edge18" class="edge">
<title>cli&#45;&gt;clap</title>
<path fill="none" stroke="#7b1fa2" stroke-dasharray="1,5" d="M578.65,-478.45C593.77,-470.24 610.47,-459.76 623.81,-447.75 631.35,-440.96 638.36,-432.58 644.38,-424.38"/>
<polygon fill="#7b1fa2" stroke="#7b1fa2" points="647.24,-426.39 650.09,-416.19 641.5,-422.39 647.24,-426.39"/>
</g>
<!-- llm -->
<g id="node4" class="node">
<title>llm</title>
<path fill="#fff3e0" stroke="black" d="M439.56,-306.5C439.56,-306.5 356.06,-306.5 356.06,-306.5 350.06,-306.5 344.06,-300.5 344.06,-294.5 344.06,-294.5 344.06,-258.75 344.06,-258.75 344.06,-252.75 350.06,-246.75 356.06,-246.75 356.06,-246.75 439.56,-246.75 439.56,-246.75 445.56,-246.75 451.56,-252.75 451.56,-258.75 451.56,-258.75 451.56,-294.5 451.56,-294.5 451.56,-300.5 445.56,-306.5 439.56,-306.5"/>
<text xml:space="preserve" text-anchor="middle" x="397.81" y="-292.05" font-family="Helvetica,sans-Serif" font-size="11.00">llm</text>
<text xml:space="preserve" text-anchor="middle" x="397.81" y="-280.05" font-family="Helvetica,sans-Serif" font-size="11.00">LLM 修复器</text>
<text xml:space="preserve" text-anchor="middle" x="397.81" y="-264.3" font-family="Helvetica,sans-Serif" font-size="11.00">(executor, preflight,</text>
<text xml:space="preserve" text-anchor="middle" x="397.81" y="-252.3" font-family="Helvetica,sans-Serif" font-size="11.00">client, prompt)</text>
</g>
<!-- runtime&#45;&gt;llm -->
<g id="edge3" class="edge">
<title>runtime&#45;&gt;llm</title>
<path fill="none" stroke="black" d="M395.59,-360.49C395.94,-347.53 396.35,-332.05 396.73,-318"/>
<polygon fill="black" stroke="black" points="400.22,-318.22 396.99,-308.13 393.23,-318.03 400.22,-318.22"/>
</g>
<!-- patchers -->
<g id="node5" class="node">
<title>patchers</title>
<path fill="#e8f0fe" stroke="black" d="M307.31,-184.5C307.31,-184.5 228.31,-184.5 228.31,-184.5 222.31,-184.5 216.31,-178.5 216.31,-172.5 216.31,-172.5 216.31,-136.75 216.31,-136.75 216.31,-130.75 222.31,-124.75 228.31,-124.75 228.31,-124.75 307.31,-124.75 307.31,-124.75 313.31,-124.75 319.31,-130.75 319.31,-136.75 319.31,-136.75 319.31,-172.5 319.31,-172.5 319.31,-178.5 313.31,-184.5 307.31,-184.5"/>
<text xml:space="preserve" text-anchor="middle" x="267.81" y="-170.05" font-family="Helvetica,sans-Serif" font-size="11.00">patchers</text>
<text xml:space="preserve" text-anchor="middle" x="267.81" y="-158.05" font-family="Helvetica,sans-Serif" font-size="11.00">Patcher trait</text>
<text xml:space="preserve" text-anchor="middle" x="267.81" y="-146.05" font-family="Helvetica,sans-Serif" font-size="11.00">+ PatcherRegistry</text>
<text xml:space="preserve" text-anchor="middle" x="267.81" y="-134.05" font-family="Helvetica,sans-Serif" font-size="11.00">+ 5 个错误码实现</text>
</g>
<!-- runtime&#45;&gt;patchers -->
<g id="edge4" class="edge">
<title>runtime&#45;&gt;patchers</title>
<path fill="none" stroke="black" d="M343.38,-389.4C254.36,-387.79 77.39,-378.86 38.81,-333.75 11.37,-301.66 14.58,-273.33 38.81,-238.75 48.81,-224.49 140.75,-194.16 205.04,-174.35"/>
<polygon fill="black" stroke="black" points="205.92,-177.74 214.46,-171.47 203.87,-171.05 205.92,-177.74"/>
</g>
<!-- coordinator -->
<g id="node6" class="node">
<title>coordinator</title>
<path fill="#e8f0fe" stroke="black" d="M154.18,-300.5C154.18,-300.5 59.43,-300.5 59.43,-300.5 53.43,-300.5 47.43,-294.5 47.43,-288.5 47.43,-288.5 47.43,-264.75 47.43,-264.75 47.43,-258.75 53.43,-252.75 59.43,-252.75 59.43,-252.75 154.18,-252.75 154.18,-252.75 160.18,-252.75 166.18,-258.75 166.18,-264.75 166.18,-264.75 166.18,-288.5 166.18,-288.5 166.18,-294.5 160.18,-300.5 154.18,-300.5"/>
<text xml:space="preserve" text-anchor="middle" x="106.81" y="-286.05" font-family="Helvetica,sans-Serif" font-size="11.00">coordinator</text>
<text xml:space="preserve" text-anchor="middle" x="106.81" y="-274.05" font-family="Helvetica,sans-Serif" font-size="11.00">PatchCoordinator</text>
<text xml:space="preserve" text-anchor="middle" x="106.81" y="-262.05" font-family="Helvetica,sans-Serif" font-size="11.00">冲突检测 + 候选排序</text>
</g>
<!-- runtime&#45;&gt;coordinator -->
<g id="edge5" class="edge">
<title>runtime&#45;&gt;coordinator</title>
<path fill="none" stroke="black" d="M343.19,-383.08C297.11,-375.75 228.76,-361.11 174.81,-333.75 161.78,-327.14 149.01,-317.65 138.11,-308.36"/>
<polygon fill="black" stroke="black" points="140.75,-306.02 130.95,-302 136.11,-311.25 140.75,-306.02"/>
</g>
<!-- transformer -->
<g id="node7" class="node">
<title>transformer</title>
<path fill="#e8f0fe" stroke="black" d="M145.56,-178.5C145.56,-178.5 68.06,-178.5 68.06,-178.5 62.06,-178.5 56.06,-172.5 56.06,-166.5 56.06,-166.5 56.06,-142.75 56.06,-142.75 56.06,-136.75 62.06,-130.75 68.06,-130.75 68.06,-130.75 145.56,-130.75 145.56,-130.75 151.56,-130.75 157.56,-136.75 157.56,-142.75 157.56,-142.75 157.56,-166.5 157.56,-166.5 157.56,-172.5 151.56,-178.5 145.56,-178.5"/>
<text xml:space="preserve" text-anchor="middle" x="106.81" y="-164.05" font-family="Helvetica,sans-Serif" font-size="11.00">transformer</text>
<text xml:space="preserve" text-anchor="middle" x="106.81" y="-152.05" font-family="Helvetica,sans-Serif" font-size="11.00">CodeTransformer</text>
<text xml:space="preserve" text-anchor="middle" x="106.81" y="-140.05" font-family="Helvetica,sans-Serif" font-size="11.00">字节级替换</text>
</g>
<!-- runtime&#45;&gt;transformer -->
<g id="edge6" class="edge">
<title>runtime&#45;&gt;transformer</title>
<path fill="none" stroke="black" d="M343.43,-390.53C248.95,-390.91 53.78,-385.29 15.81,-333.75 -9.23,-299.76 0.28,-278.01 15.81,-238.75 24.26,-217.4 41.61,-199.35 58.92,-185.57"/>
<polygon fill="black" stroke="black" points="60.84,-188.5 66.71,-179.68 56.62,-182.92 60.84,-188.5"/>
</g>
<!-- parser -->
<g id="node8" class="node">
<title>parser</title>
<path fill="#e8f0fe" stroke="black" d="M307.43,-299.75C307.43,-299.75 196.18,-299.75 196.18,-299.75 190.18,-299.75 184.18,-293.75 184.18,-287.75 184.18,-287.75 184.18,-265.5 184.18,-265.5 184.18,-259.5 190.18,-253.5 196.18,-253.5 196.18,-253.5 307.43,-253.5 307.43,-253.5 313.43,-253.5 319.43,-259.5 319.43,-265.5 319.43,-265.5 319.43,-287.75 319.43,-287.75 319.43,-293.75 313.43,-299.75 307.43,-299.75"/>
<text xml:space="preserve" text-anchor="middle" x="251.81" y="-285.3" font-family="Helvetica,sans-Serif" font-size="11.00">parser</text>
<text xml:space="preserve" text-anchor="middle" x="251.81" y="-273.3" font-family="Helvetica,sans-Serif" font-size="11.00">JsonParser</text>
<text xml:space="preserve" text-anchor="middle" x="251.81" y="-261.3" font-family="Helvetica,sans-Serif" font-size="11.00">NDJSON → Diagnostic[]</text>
</g>
<!-- runtime&#45;&gt;parser -->
<g id="edge7" class="edge">
<title>runtime&#45;&gt;parser</title>
<path fill="none" stroke="black" d="M357.61,-360.49C336.56,-344 310.31,-323.45 289.23,-306.93"/>
<polygon fill="black" stroke="black" points="291.46,-304.24 281.43,-300.83 287.15,-309.75 291.46,-304.24"/>
</g>
<!-- llm&#45;&gt;patchers -->
<g id="edge8" class="edge">
<title>llm&#45;&gt;patchers</title>
<path fill="none" stroke="black" d="M348.36,-246.31C342.87,-243.56 337.28,-240.98 331.81,-238.75 316.03,-232.33 307.38,-240.24 294.81,-228.75 285.33,-220.08 279.16,-207.79 275.16,-195.75"/>
<polygon fill="black" stroke="black" points="278.59,-194.98 272.48,-186.33 271.85,-196.9 278.59,-194.98"/>
<text xml:space="preserve" text-anchor="middle" x="314.31" y="-219.25" font-family="Helvetica,sans-Serif" font-size="10.00">Preflight</text>
<text xml:space="preserve" text-anchor="middle" x="314.31" y="-208" font-family="Helvetica,sans-Serif" font-size="10.00">分析注入</text>
</g>
<!-- core -->
<g id="node9" class="node">
<title>core</title>
<path fill="#e8f0fe" stroke="black" d="M277.93,-87.75C277.93,-87.75 181.68,-87.75 181.68,-87.75 175.68,-87.75 169.68,-81.75 169.68,-75.75 169.68,-75.75 169.68,-28 169.68,-28 169.68,-22 175.68,-16 181.68,-16 181.68,-16 277.93,-16 277.93,-16 283.93,-16 289.93,-22 289.93,-28 289.93,-28 289.93,-75.75 289.93,-75.75 289.93,-81.75 283.93,-87.75 277.93,-87.75"/>
<text xml:space="preserve" text-anchor="middle" x="229.81" y="-73.3" font-family="Helvetica,sans-Serif" font-size="11.00">core</text>
<text xml:space="preserve" text-anchor="middle" x="229.81" y="-61.3" font-family="Helvetica,sans-Serif" font-size="11.00">核心数据模型</text>
<text xml:space="preserve" text-anchor="middle" x="229.81" y="-45.55" font-family="Helvetica,sans-Serif" font-size="11.00">Diagnostic, SpanInfo,</text>
<text xml:space="preserve" text-anchor="middle" x="229.81" y="-33.55" font-family="Helvetica,sans-Serif" font-size="11.00">FixAction, ErrorCode,</text>
<text xml:space="preserve" text-anchor="middle" x="229.81" y="-21.55" font-family="Helvetica,sans-Serif" font-size="11.00">TestFunction</text>
</g>
<!-- llm&#45;&gt;core -->
<g id="edge9" class="edge">
<title>llm&#45;&gt;core</title>
<path fill="none" stroke="black" d="M389.45,-246.51C379.11,-214.2 359.09,-161.75 328.81,-124.75 319.95,-113.92 309.09,-103.9 297.85,-95"/>
<polygon fill="black" stroke="black" points="300.07,-92.29 289.99,-89.02 295.83,-97.86 300.07,-92.29"/>
</g>
<!-- reqwest -->
<g id="node12" class="node">
<title>reqwest</title>
<path fill="#f3e5f5" stroke="black" d="M851.18,-178.5C851.18,-178.5 774.43,-178.5 774.43,-178.5 768.43,-178.5 762.43,-172.5 762.43,-166.5 762.43,-166.5 762.43,-142.75 762.43,-142.75 762.43,-136.75 768.43,-130.75 774.43,-130.75 774.43,-130.75 851.18,-130.75 851.18,-130.75 857.18,-130.75 863.18,-136.75 863.18,-142.75 863.18,-142.75 863.18,-166.5 863.18,-166.5 863.18,-172.5 857.18,-178.5 851.18,-178.5"/>
<text xml:space="preserve" text-anchor="middle" x="812.81" y="-164.05" font-family="Helvetica,sans-Serif" font-size="11.00">reqwest</text>
<text xml:space="preserve" text-anchor="middle" x="812.81" y="-152.05" font-family="Helvetica,sans-Serif" font-size="11.00">HTTP 客户端</text>
<text xml:space="preserve" text-anchor="middle" x="812.81" y="-136.3" font-family="Helvetica,sans-Serif" font-size="11.00">(blocking + rustls)</text>
</g>
<!-- llm&#45;&gt;reqwest -->
<g id="edge17" class="edge">
<title>llm&#45;&gt;reqwest</title>
<path fill="none" stroke="#7b1fa2" stroke-dasharray="1,5" d="M452.04,-265.19C522.54,-250.83 648.95,-222.4 752.81,-184.5 753.95,-184.08 755.1,-183.65 756.25,-183.21"/>
<polygon fill="#7b1fa2" stroke="#7b1fa2" points="757.36,-186.54 765.29,-179.51 754.71,-180.06 757.36,-186.54"/>
</g>
<!-- patchers&#45;&gt;core -->
<g id="edge10" class="edge">
<title>patchers&#45;&gt;core</title>
<path fill="none" stroke="black" d="M256.82,-124.48C253.76,-116.39 250.37,-107.39 247.05,-98.59"/>
<polygon fill="black" stroke="black" points="250.4,-97.56 243.6,-89.44 243.85,-100.03 250.4,-97.56"/>
</g>
<!-- syn_dep -->
<g id="node10" class="node">
<title>syn_dep</title>
<path fill="#f3e5f5" stroke="black" d="M691.68,-75.75C691.68,-75.75 647.93,-75.75 647.93,-75.75 641.93,-75.75 635.93,-69.75 635.93,-63.75 635.93,-63.75 635.93,-40 635.93,-40 635.93,-34 641.93,-28 647.93,-28 647.93,-28 691.68,-28 691.68,-28 697.68,-28 703.68,-34 703.68,-40 703.68,-40 703.68,-63.75 703.68,-63.75 703.68,-69.75 697.68,-75.75 691.68,-75.75"/>
<text xml:space="preserve" text-anchor="middle" x="669.81" y="-61.3" font-family="Helvetica,sans-Serif" font-size="11.00">syn</text>
<text xml:space="preserve" text-anchor="middle" x="669.81" y="-49.3" font-family="Helvetica,sans-Serif" font-size="11.00">AST 解析</text>
<text xml:space="preserve" text-anchor="middle" x="669.81" y="-33.55" font-family="Helvetica,sans-Serif" font-size="11.00">(full + visit)</text>
</g>
<!-- patchers&#45;&gt;syn_dep -->
<g id="edge15" class="edge">
<title>patchers&#45;&gt;syn_dep</title>
<path fill="none" stroke="#7b1fa2" stroke-dasharray="1,5" d="M319.54,-140.66C398.91,-120.77 549.42,-83.05 624.65,-64.19"/>
<polygon fill="#7b1fa2" stroke="#7b1fa2" points="625.3,-67.64 634.15,-61.81 623.6,-60.85 625.3,-67.64"/>
</g>
<!-- coordinator&#45;&gt;patchers -->
<g id="edge11" class="edge">
<title>coordinator&#45;&gt;patchers</title>
<path fill="none" stroke="black" d="M137.85,-252.49C160.98,-235.25 193.01,-211.37 219.48,-191.64"/>
<polygon fill="black" stroke="black" points="221.45,-194.54 227.38,-185.76 217.27,-188.93 221.45,-194.54"/>
</g>
<!-- coordinator&#45;&gt;transformer -->
<g id="edge12" class="edge">
<title>coordinator&#45;&gt;transformer</title>
<path fill="none" stroke="black" d="M106.81,-252.49C106.81,-234.81 106.81,-210.16 106.81,-190.15"/>
<polygon fill="black" stroke="black" points="110.31,-190.2 106.81,-180.2 103.31,-190.2 110.31,-190.2"/>
</g>
<!-- transformer&#45;&gt;core -->
<g id="edge13" class="edge">
<title>transformer&#45;&gt;core</title>
<path fill="none" stroke="black" d="M135.34,-130.26C148.15,-119.76 163.68,-107.04 178.41,-94.98"/>
<polygon fill="black" stroke="black" points="180.27,-97.97 185.79,-88.93 175.84,-92.56 180.27,-97.97"/>
</g>
<!-- parser&#45;&gt;core -->
<g id="edge14" class="edge">
<title>parser&#45;&gt;core</title>
<path fill="none" stroke="black" d="M237.37,-253.09C226.85,-235.27 213.49,-209.33 207.81,-184.5 201.35,-156.27 206.44,-124.22 213.35,-98.82"/>
<polygon fill="black" stroke="black" points="216.64,-100.05 216.08,-89.47 209.92,-98.09 216.64,-100.05"/>
</g>
<!-- serde -->
<g id="node11" class="node">
<title>serde</title>
<path fill="#f3e5f5" stroke="black" d="M731.93,-172.62C731.93,-172.62 647.68,-172.62 647.68,-172.62 641.68,-172.62 635.68,-166.62 635.68,-160.62 635.68,-160.62 635.68,-148.62 635.68,-148.62 635.68,-142.62 641.68,-136.62 647.68,-136.62 647.68,-136.62 731.93,-136.62 731.93,-136.62 737.93,-136.62 743.93,-142.62 743.93,-148.62 743.93,-148.62 743.93,-160.62 743.93,-160.62 743.93,-166.62 737.93,-172.62 731.93,-172.62"/>
<text xml:space="preserve" text-anchor="middle" x="689.81" y="-158.05" font-family="Helvetica,sans-Serif" font-size="11.00">serde + serde_json</text>
<text xml:space="preserve" text-anchor="middle" x="689.81" y="-146.05" font-family="Helvetica,sans-Serif" font-size="11.00">序列化</text>
</g>
<!-- parser&#45;&gt;serde -->
<g id="edge16" class="edge">
<title>parser&#45;&gt;serde</title>
<path fill="none" stroke="#7b1fa2" stroke-dasharray="1,5" d="M296.42,-253.12C307.78,-247.93 320.09,-242.76 331.81,-238.75 431.51,-204.6 551.58,-179.91 624.23,-166.7"/>
<polygon fill="#7b1fa2" stroke="#7b1fa2" points="624.76,-170.16 633.99,-164.94 623.53,-163.27 624.76,-170.16"/>
</g>
</g>
</svg>
