<?xml version="1.0" encoding="UTF-8" standalone="no"?>
<!DOCTYPE svg PUBLIC "-//W3C//DTD SVG 1.1//EN"
 "http://www.w3.org/Graphics/SVG/1.1/DTD/svg11.dtd">
<!-- Generated by graphviz version 14.1.2 (20260124.0452)
 -->
<!-- Title: data_model Pages: 1 -->
<svg width="755pt" height="605pt"
 viewBox="0.00 0.00 755.00 605.00" xmlns="http://www.w3.org/2000/svg" xmlns:xlink="http://www.w3.org/1999/xlink">
<g id="graph0" class="graph" transform="scale(1 1) rotate(0) translate(4 601.25)">
<title>data_model</title>
<polygon fill="white" stroke="none" points="-4,4 -4,-601.25 751.12,-601.25 751.12,4 -4,4"/>
<text xml:space="preserve" text-anchor="middle" x="373.56" y="-579.95" font-family="Helvetica,sans-Serif" font-weight="bold" font-size="14.00">核心数据模型关系图</text>
<!-- Diagnostic -->
<g id="node1" class="node">
<title>Diagnostic</title>
<polygon fill="#e8f0fe" stroke="black" points="409.12,-317.25 409.12,-423.25 560.88,-423.25 560.88,-317.25 409.12,-317.25"/>
<text xml:space="preserve" text-anchor="middle" x="485" y="-409.75" font-family="Helvetica,sans-Serif" font-size="10.00">Diagnostic</text>
<polyline fill="none" stroke="black" points="409.12,-404 560.88,-404"/>
<text xml:space="preserve" text-anchor="start" x="417.12" y="-390.5" font-family="Helvetica,sans-Serif" font-size="10.00">message: String</text>
<text xml:space="preserve" text-anchor="start" x="417.12" y="-379.25" font-family="Helvetica,sans-Serif" font-size="10.00">message_type: Option&lt;String&gt;</text>
<text xml:space="preserve" text-anchor="start" x="417.12" y="-368" font-family="Helvetica,sans-Serif" font-size="10.00">code: Option&lt;CompilerCode&gt;</text>
<text xml:space="preserve" text-anchor="start" x="417.12" y="-356.75" font-family="Helvetica,sans-Serif" font-size="10.00">level: Severity</text>
<text xml:space="preserve" text-anchor="start" x="417.12" y="-345.5" font-family="Helvetica,sans-Serif" font-size="10.00">spans: Vec&lt;SpanInfo&gt;</text>
<text xml:space="preserve" text-anchor="start" x="417.12" y="-334.25" font-family="Helvetica,sans-Serif" font-size="10.00">children: Vec&lt;Diagnostic&gt;</text>
<text xml:space="preserve" text-anchor="start" x="417.12" y="-323" font-family="Helvetica,sans-Serif" font-size="10.00">rendered: Option&lt;String&gt;</text>
</g>
<!-- Diagnostic&#45;&gt;Diagnostic -->
<g id="edge3" class="edge">
<title>Diagnostic&#45;&gt;Diagnostic</title>
<path fill="none" stroke="black" stroke-dasharray="5,2" d="M561.25,-383.03C571.81,-380.92 578.88,-376.66 578.88,-370.25 578.88,-366.34 576.25,-363.23 571.81,-360.92"/>
<polygon fill="black" stroke="black" points="562.4,-357.85 573.31,-356.68 566,-359.02 571.91,-360.96 571.91,-360.96 571.91,-360.96 566,-359.02 570.51,-365.23 562.4,-357.85"/>
<text xml:space="preserve" text-anchor="middle" x="600.62" y="-366.57" font-family="Helvetica,sans-Serif" font-size="9.00">children [*]</text>
</g>
<!-- CompilerCode -->
<g id="node2" class="node">
<title>CompilerCode</title>
<polygon fill="#e8f0fe" stroke="black" points="416.25,-175.75 416.25,-225.5 553.75,-225.5 553.75,-175.75 416.25,-175.75"/>
<text xml:space="preserve" text-anchor="middle" x="485" y="-212" font-family="Helvetica,sans-Serif" font-size="10.00">CompilerCode</text>
<polyline fill="none" stroke="black" points="416.25,-206.25 553.75,-206.25"/>
<text xml:space="preserve" text-anchor="start" x="424.25" y="-192.75" font-family="Helvetica,sans-Serif" font-size="10.00">code: ErrorCode</text>
<text xml:space="preserve" text-anchor="start" x="424.25" y="-181.5" font-family="Helvetica,sans-Serif" font-size="10.00">explanation: Option&lt;String&gt;</text>
</g>
<!-- Diagnostic&#45;&gt;CompilerCode -->
<g id="edge1" class="edge">
<title>Diagnostic&#45;&gt;CompilerCode</title>
<path fill="none" stroke="black" d="M485,-317.13C485,-290.99 485,-260.02 485,-236.73"/>
<polygon fill="black" stroke="black" points="485,-226.86 489.5,-236.86 485,-230.64 485,-236.86 485,-236.86 485,-236.86 485,-230.64 480.5,-236.86 485,-226.86"/>
<text xml:space="preserve" text-anchor="middle" x="495.12" y="-290.2" font-family="Helvetica,sans-Serif" font-size="9.00">code</text>
</g>
<!-- SpanInfo -->
<g id="node4" class="node">
<title>SpanInfo</title>
<polygon fill="#e8f5e9" stroke="black" points="193.88,-130.75 193.88,-270.5 398.12,-270.5 398.12,-130.75 193.88,-130.75"/>
<text xml:space="preserve" text-anchor="middle" x="296" y="-257" font-family="Helvetica,sans-Serif" font-size="10.00">SpanInfo</text>
<polyline fill="none" stroke="black" points="193.88,-251.25 398.12,-251.25"/>
<text xml:space="preserve" text-anchor="start" x="201.88" y="-237.75" font-family="Helvetica,sans-Serif" font-size="10.00">file_path: PathBuf</text>
<text xml:space="preserve" text-anchor="start" x="201.88" y="-226.5" font-family="Helvetica,sans-Serif" font-size="10.00">line_start / line_end: usize</text>
<text xml:space="preserve" text-anchor="start" x="201.88" y="-215.25" font-family="Helvetica,sans-Serif" font-size="10.00">column_start / column_end: usize</text>
<text xml:space="preserve" text-anchor="start" x="201.88" y="-204" font-family="Helvetica,sans-Serif" font-size="10.00">byte_start / byte_end: usize</text>
<text xml:space="preserve" text-anchor="start" x="201.88" y="-192.75" font-family="Helvetica,sans-Serif" font-size="10.00">is_primary: bool</text>
<text xml:space="preserve" text-anchor="start" x="201.88" y="-181.5" font-family="Helvetica,sans-Serif" font-size="10.00">text: Vec&lt;SpanText&gt;</text>
<text xml:space="preserve" text-anchor="start" x="201.88" y="-170.25" font-family="Helvetica,sans-Serif" font-size="10.00">label: Option&lt;String&gt;</text>
<text xml:space="preserve" text-anchor="start" x="201.88" y="-159" font-family="Helvetica,sans-Serif" font-size="10.00">suggested_replacement: Option&lt;String&gt;</text>
<text xml:space="preserve" text-anchor="start" x="201.88" y="-147.75" font-family="Helvetica,sans-Serif" font-size="10.00">applicability: Option&lt;Applicability&gt;</text>
<text xml:space="preserve" text-anchor="start" x="201.88" y="-136.5" font-family="Helvetica,sans-Serif" font-size="10.00">expansion: Option&lt;Box&lt;SpanExpansion&gt;&gt;</text>
</g>
<!-- Diagnostic&#45;&gt;SpanInfo -->
<g id="edge2" class="edge">
<title>Diagnostic&#45;&gt;SpanInfo</title>
<path fill="none" stroke="black" d="M425.98,-316.9C412.09,-304.58 397,-291.2 382.19,-278.06"/>
<polygon fill="black" stroke="black" points="374.91,-271.61 385.37,-274.88 377.74,-274.12 382.39,-278.24 382.39,-278.24 382.39,-278.24 377.74,-274.12 379.4,-281.61 374.91,-271.61"/>
<text xml:space="preserve" text-anchor="middle" x="419.44" y="-290.2" font-family="Helvetica,sans-Serif" font-size="9.00">spans [*]</text>
</g>
<!-- Severity -->
<g id="node9" class="node">
<title>Severity</title>
<polygon fill="#fff9c4" stroke="black" points="572,-153.25 572,-248 636,-248 636,-153.25 572,-153.25"/>
<text xml:space="preserve" text-anchor="middle" x="604" y="-234.5" font-family="Helvetica,sans-Serif" font-size="10.00">Severity</text>
<text xml:space="preserve" text-anchor="middle" x="604" y="-223.25" font-family="Helvetica,sans-Serif" font-size="10.00">&lt;&lt;enum&gt;&gt;</text>
<polyline fill="none" stroke="black" points="572,-217.5 636,-217.5"/>
<text xml:space="preserve" text-anchor="start" x="580" y="-204" font-family="Helvetica,sans-Serif" font-size="10.00">Error</text>
<text xml:space="preserve" text-anchor="start" x="580" y="-192.75" font-family="Helvetica,sans-Serif" font-size="10.00">Warning</text>
<text xml:space="preserve" text-anchor="start" x="580" y="-181.5" font-family="Helvetica,sans-Serif" font-size="10.00">Note</text>
<text xml:space="preserve" text-anchor="start" x="580" y="-170.25" font-family="Helvetica,sans-Serif" font-size="10.00">Help</text>
<text xml:space="preserve" text-anchor="start" x="580" y="-159" font-family="Helvetica,sans-Serif" font-size="10.00">Unknown</text>
</g>
<!-- Diagnostic&#45;&gt;Severity -->
<g id="edge4" class="edge">
<title>Diagnostic&#45;&gt;Severity</title>
<path fill="none" stroke="black" d="M528.67,-316.98C540.25,-302.4 552.45,-286.34 563,-271 565.92,-266.76 568.84,-262.3 571.72,-257.78"/>
<polygon fill="black" stroke="black" points="576.87,-249.48 575.41,-260.35 574.88,-252.7 571.59,-257.98 571.59,-257.98 571.59,-257.98 574.88,-252.7 567.77,-255.6 576.87,-249.48"/>
<text xml:space="preserve" text-anchor="middle" x="558.78" y="-290.2" font-family="Helvetica,sans-Serif" font-size="9.00">level</text>
</g>
<!-- ErrorCode -->
<g id="node3" class="node">
<title>ErrorCode</title>
<polygon fill="#fff9c4" stroke="black" points="426.38,-0.5 426.38,-84 543.62,-84 543.62,-0.5 426.38,-0.5"/>
<text xml:space="preserve" text-anchor="middle" x="485" y="-70.5" font-family="Helvetica,sans-Serif" font-size="10.00">ErrorCode</text>
<text xml:space="preserve" text-anchor="middle" x="485" y="-59.25" font-family="Helvetica,sans-Serif" font-size="10.00">&lt;&lt;enum&gt;&gt;</text>
<polyline fill="none" stroke="black" points="426.38,-53.5 543.62,-53.5"/>
<text xml:space="preserve" text-anchor="start" x="434.38" y="-40" font-family="Helvetica,sans-Serif" font-size="10.00">E0433 · E0432 · E0560</text>
<text xml:space="preserve" text-anchor="start" x="434.38" y="-28.75" font-family="Helvetica,sans-Serif" font-size="10.00">E0599 · E0308</text>
<text xml:space="preserve" text-anchor="start" x="434.38" y="-17.5" font-family="Helvetica,sans-Serif" font-size="10.00">E0425 · E0382</text>
<text xml:space="preserve" text-anchor="start" x="434.38" y="-6.25" font-family="Helvetica,sans-Serif" font-size="10.00">Unknown</text>
</g>
<!-- CompilerCode&#45;&gt;ErrorCode -->
<g id="edge5" class="edge">
<title>CompilerCode&#45;&gt;ErrorCode</title>
<path fill="none" stroke="black" d="M485,-175.53C485,-154.22 485,-122.4 485,-95.31"/>
<polygon fill="black" stroke="black" points="485,-85.63 489.5,-95.63 485,-89.42 485,-95.63 485,-95.63 485,-95.63 485,-89.42 480.5,-95.63 485,-85.63"/>
<text xml:space="preserve" text-anchor="middle" x="495.12" y="-103.7" font-family="Helvetica,sans-Serif" font-size="9.00">code</text>
</g>
<!-- SpanText -->
<g id="node5" class="node">
<title>SpanText</title>
<polygon fill="#e8f5e9" stroke="black" points="0,-11.75 0,-72.75 106,-72.75 106,-11.75 0,-11.75"/>
<text xml:space="preserve" text-anchor="middle" x="53" y="-59.25" font-family="Helvetica,sans-Serif" font-size="10.00">SpanText</text>
<polyline fill="none" stroke="black" points="0,-53.5 106,-53.5"/>
<text xml:space="preserve" text-anchor="start" x="8" y="-40" font-family="Helvetica,sans-Serif" font-size="10.00">text: String</text>
<text xml:space="preserve" text-anchor="start" x="8" y="-28.75" font-family="Helvetica,sans-Serif" font-size="10.00">highlight_start: usize</text>
<text xml:space="preserve" text-anchor="start" x="8" y="-17.5" font-family="Helvetica,sans-Serif" font-size="10.00">highlight_end: usize</text>
</g>
<!-- SpanInfo&#45;&gt;SpanText -->
<g id="edge6" class="edge">
<title>SpanInfo&#45;&gt;SpanText</title>
<path fill="none" stroke="black" d="M193.82,-135.15C168.03,-118.73 140.44,-101.05 115,-84.5 112.36,-82.78 109.66,-81.02 106.93,-79.23"/>
<polygon fill="black" stroke="black" points="98.65,-73.77 109.47,-75.51 101.81,-75.85 107,-79.27 107,-79.27 107,-79.27 101.81,-75.85 104.52,-83.03 98.65,-73.77"/>
<text xml:space="preserve" text-anchor="middle" x="166.86" y="-103.7" font-family="Helvetica,sans-Serif" font-size="9.00">text [*]</text>
</g>
<!-- SpanExpansion -->
<g id="node6" class="node">
<title>SpanExpansion</title>
<polygon fill="#e8f5e9" stroke="black" points="124.25,-17.38 124.25,-67.12 291.75,-67.12 291.75,-17.38 124.25,-17.38"/>
<text xml:space="preserve" text-anchor="middle" x="208" y="-53.62" font-family="Helvetica,sans-Serif" font-size="10.00">SpanExpansion</text>
<polyline fill="none" stroke="black" points="124.25,-47.88 291.75,-47.88"/>
<text xml:space="preserve" text-anchor="start" x="132.25" y="-34.38" font-family="Helvetica,sans-Serif" font-size="10.00">span: Box&lt;SpanInfo&gt;</text>
<text xml:space="preserve" text-anchor="start" x="132.25" y="-23.12" font-family="Helvetica,sans-Serif" font-size="10.00">macro_decl_name: Option&lt;String&gt;</text>
</g>
<!-- SpanInfo&#45;&gt;SpanExpansion -->
<g id="edge7" class="edge">
<title>SpanInfo&#45;&gt;SpanExpansion</title>
<path fill="none" stroke="black" d="M219.34,-130.45C215.52,-124.62 212.17,-118.54 209.5,-112.25 205.09,-101.85 203.73,-89.76 203.76,-78.62"/>
<polygon fill="black" stroke="black" points="204.18,-68.7 208.25,-78.88 204.02,-72.48 203.76,-78.69 203.76,-78.69 203.76,-78.69 204.02,-72.48 199.26,-78.5 204.18,-68.7"/>
<text xml:space="preserve" text-anchor="middle" x="241.75" y="-103.7" font-family="Helvetica,sans-Serif" font-size="9.00">expansion [0..1]</text>
</g>
<!-- Applicability -->
<g id="node7" class="node">
<title>Applicability</title>
<polygon fill="#fff9c4" stroke="black" points="310.12,-0.5 310.12,-84 407.88,-84 407.88,-0.5 310.12,-0.5"/>
<text xml:space="preserve" text-anchor="middle" x="359" y="-70.5" font-family="Helvetica,sans-Serif" font-size="10.00">Applicability</text>
<text xml:space="preserve" text-anchor="middle" x="359" y="-59.25" font-family="Helvetica,sans-Serif" font-size="10.00">&lt;&lt;enum&gt;&gt;</text>
<polyline fill="none" stroke="black" points="310.12,-53.5 407.88,-53.5"/>
<text xml:space="preserve" text-anchor="start" x="318.12" y="-40" font-family="Helvetica,sans-Serif" font-size="10.00">MachineApplicable</text>
<text xml:space="preserve" text-anchor="start" x="318.12" y="-28.75" font-family="Helvetica,sans-Serif" font-size="10.00">MaybeIncorrect</text>
<text xml:space="preserve" text-anchor="start" x="318.12" y="-17.5" font-family="Helvetica,sans-Serif" font-size="10.00">HasPlaceholders</text>
<text xml:space="preserve" text-anchor="start" x="318.12" y="-6.25" font-family="Helvetica,sans-Serif" font-size="10.00">Unspecified</text>
</g>
<!-- SpanInfo&#45;&gt;Applicability -->
<g id="edge8" class="edge">
<title>SpanInfo&#45;&gt;Applicability</title>
<path fill="none" stroke="black" d="M323.82,-130.58C328.71,-118.43 333.73,-105.98 338.38,-94.42"/>
<polygon fill="black" stroke="black" points="342.09,-85.23 342.52,-96.19 340.67,-88.74 338.35,-94.51 338.35,-94.51 338.35,-94.51 340.67,-88.74 334.18,-92.82 342.09,-85.23"/>
<text xml:space="preserve" text-anchor="middle" x="359.37" y="-103.7" font-family="Helvetica,sans-Serif" font-size="9.00">applicability</text>
</g>
<!-- SpanExpansion&#45;&gt;SpanInfo -->
<g id="edge9" class="edge">
<title>SpanExpansion&#45;&gt;SpanInfo</title>
<path fill="none" stroke="black" stroke-dasharray="5,2" d="M242.63,-67.36C254.19,-77.04 266.12,-89.09 274,-102.5 277.23,-107.99 279.98,-113.91 282.33,-120.03"/>
<polygon fill="black" stroke="black" points="285.52,-129.31 278.01,-121.31 284.29,-125.73 282.27,-119.85 282.27,-119.85 282.27,-119.85 284.29,-125.73 286.52,-118.39 285.52,-129.31"/>
<text xml:space="preserve" text-anchor="middle" x="289.08" y="-103.7" font-family="Helvetica,sans-Serif" font-size="9.00">span</text>
</g>
<!-- FixAction -->
<g id="node8" class="node">
<title>FixAction</title>
<polygon fill="#fce4ec" stroke="black" points="232.88,-334.12 232.88,-406.38 359.12,-406.38 359.12,-334.12 232.88,-334.12"/>
<text xml:space="preserve" text-anchor="middle" x="296" y="-392.88" font-family="Helvetica,sans-Serif" font-size="10.00">FixAction</text>
<text xml:space="preserve" text-anchor="middle" x="296" y="-381.62" font-family="Helvetica,sans-Serif" font-size="10.00">&lt;&lt;enum&gt;&gt;</text>
<polyline fill="none" stroke="black" points="232.88,-375.88 359.12,-375.88"/>
<text xml:space="preserve" text-anchor="start" x="240.88" y="-362.38" font-family="Helvetica,sans-Serif" font-size="10.00">Insert { span, content }</text>
<text xml:space="preserve" text-anchor="start" x="240.88" y="-351.12" font-family="Helvetica,sans-Serif" font-size="10.00">Replace { span, content }</text>
<text xml:space="preserve" text-anchor="start" x="240.88" y="-339.88" font-family="Helvetica,sans-Serif" font-size="10.00">Delete { span }</text>
</g>
<!-- FixAction&#45;&gt;SpanInfo -->
<g id="edge10" class="edge">
<title>FixAction&#45;&gt;SpanInfo</title>
<path fill="none" stroke="black" d="M296,-333.7C296,-318.58 296,-300.28 296,-282.18"/>
<polygon fill="black" stroke="black" points="296,-272.19 300.5,-282.19 296,-275.97 296,-282.19 296,-282.19 296,-282.19 296,-275.97 291.5,-282.19 296,-272.19"/>
<text xml:space="preserve" text-anchor="middle" x="306.12" y="-290.2" font-family="Helvetica,sans-Serif" font-size="9.00">span</text>
</g>
<!-- TestFunction -->
<g id="node10" class="node">
<title>TestFunction</title>
<polygon fill="#fff3e0" stroke="black" points="614.88,-479.38 614.88,-562.88 747.12,-562.88 747.12,-479.38 614.88,-479.38"/>
<text xml:space="preserve" text-anchor="middle" x="681" y="-549.38" font-family="Helvetica,sans-Serif" font-size="10.00">TestFunction</text>
<polyline fill="none" stroke="black" points="614.88,-543.62 747.12,-543.62"/>
<text xml:space="preserve" text-anchor="start" x="622.88" y="-530.12" font-family="Helvetica,sans-Serif" font-size="10.00">id: String</text>
<text xml:space="preserve" text-anchor="start" x="622.88" y="-518.88" font-family="Helvetica,sans-Serif" font-size="10.00">name: String</text>
<text xml:space="preserve" text-anchor="start" x="622.88" y="-507.62" font-family="Helvetica,sans-Serif" font-size="10.00">module_path: Vec&lt;String&gt;</text>
<text xml:space="preserve" text-anchor="start" x="622.88" y="-496.38" font-family="Helvetica,sans-Serif" font-size="10.00">file_path: PathBuf</text>
<text xml:space="preserve" text-anchor="start" x="622.88" y="-485.12" font-family="Helvetica,sans-Serif" font-size="10.00">line_start / line_end: usize</text>
</g>
<!-- FunctionDiagnostic -->
<g id="node11" class="node">
<title>FunctionDiagnostic</title>
<polygon fill="#fff3e0" stroke="black" points="372.75,-473.75 372.75,-568.5 597.25,-568.5 597.25,-473.75 372.75,-473.75"/>
<text xml:space="preserve" text-anchor="middle" x="485" y="-555" font-family="Helvetica,sans-Serif" font-size="10.00">FunctionDiagnostic</text>
<polyline fill="none" stroke="black" points="372.75,-549.25 597.25,-549.25"/>
<text xml:space="preserve" text-anchor="start" x="380.75" y="-535.75" font-family="Helvetica,sans-Serif" font-size="10.00">code: String</text>
<text xml:space="preserve" text-anchor="start" x="380.75" y="-524.5" font-family="Helvetica,sans-Serif" font-size="10.00">message: String</text>
<text xml:space="preserve" text-anchor="start" x="380.75" y="-513.25" font-family="Helvetica,sans-Serif" font-size="10.00">primary_span_label: Option&lt;String&gt;</text>
<text xml:space="preserve" text-anchor="start" x="380.75" y="-502" font-family="Helvetica,sans-Serif" font-size="10.00">primary_span_suggestion: Option&lt;String&gt;</text>
<text xml:space="preserve" text-anchor="start" x="380.75" y="-490.75" font-family="Helvetica,sans-Serif" font-size="10.00">children_messages: Vec&lt;String&gt;</text>
<text xml:space="preserve" text-anchor="start" x="380.75" y="-479.5" font-family="Helvetica,sans-Serif" font-size="10.00">children_suggested_replacements: Vec&lt;String&gt;</text>
</g>
<!-- FunctionDiagnostic&#45;&gt;Diagnostic -->
<g id="edge11" class="edge">
<title>FunctionDiagnostic&#45;&gt;Diagnostic</title>
<path fill="none" stroke="black" stroke-dasharray="1,5" d="M485,-473.43C485,-461.23 485,-447.87 485,-434.94"/>
<polygon fill="black" stroke="black" points="485,-424.96 489.5,-434.96 485,-428.74 485,-434.96 485,-434.96 485,-434.96 485,-428.74 480.5,-434.96 485,-424.96"/>
<text xml:space="preserve" text-anchor="middle" x="498.5" y="-446.7" font-family="Helvetica,sans-Serif" font-size="9.00">简化自</text>
</g>
</g>
</svg>
