<?xml version="1.0" encoding="UTF-8" standalone="no"?>
<!DOCTYPE svg PUBLIC "-//W3C//DTD SVG 1.1//EN"
 "http://www.w3.org/Graphics/SVG/1.1/DTD/svg11.dtd">
<!-- Generated by graphviz version 14.1.2 (20260124.0452)
 -->
<!-- Title: patcher_hierarchy Pages: 1 -->
<svg width="572pt" height="460pt"
 viewBox="0.00 0.00 572.00 460.00" xmlns="http://www.w3.org/2000/svg" xmlns:xlink="http://www.w3.org/1999/xlink">
<g id="graph0" class="graph" transform="scale(1 1) rotate(0) translate(4 456.25)">
<title>patcher_hierarchy</title>
<polygon fill="white" stroke="none" points="-4,4 -4,-456.25 568,-456.25 568,4 -4,4"/>
<text xml:space="preserve" text-anchor="middle" x="282" y="-434.95" font-family="Helvetica,sans-Serif" font-weight="bold" font-size="14.00">Patcher 类型体系与修复路由</text>
<g id="clust1" class="cluster">
<title>cluster_action</title>
<path fill="#e8f5e9" fill-opacity="0.301961" stroke="#2e7d32" d="M20,-116.38C20,-116.38 307,-116.38 307,-116.38 313,-116.38 319,-122.38 319,-128.38 319,-128.38 319,-219.62 319,-219.62 319,-225.62 313,-231.62 307,-231.62 307,-231.62 20,-231.62 20,-231.62 14,-231.62 8,-225.62 8,-219.62 8,-219.62 8,-128.38 8,-128.38 8,-122.38 14,-116.38 20,-116.38"/>
<text xml:space="preserve" text-anchor="middle" x="65.5" y="-217.18" font-family="Helvetica,sans-Serif" font-weight="bold" font-size="11.00">Action Patchers</text>
<text xml:space="preserve" text-anchor="middle" x="65.5" y="-205.18" font-family="Helvetica,sans-Serif" font-weight="bold" font-size="11.00">直接生成 FixAction</text>
</g>
<g id="clust2" class="cluster">
<title>cluster_analysis</title>
<path fill="#fce4ec" fill-opacity="0.301961" stroke="#c62828" d="M339,-114.5C339,-114.5 544,-114.5 544,-114.5 550,-114.5 556,-120.5 556,-126.5 556,-126.5 556,-237.25 556,-237.25 556,-243.25 550,-249.25 544,-249.25 544,-249.25 339,-249.25 339,-249.25 333,-249.25 327,-243.25 327,-237.25 327,-237.25 327,-126.5 327,-126.5 327,-120.5 333,-114.5 339,-114.5"/>
<text xml:space="preserve" text-anchor="middle" x="384.12" y="-234.8" font-family="Helvetica,sans-Serif" font-weight="bold" font-size="11.00">Analysis Patchers</text>
<text xml:space="preserve" text-anchor="middle" x="384.12" y="-222.8" font-family="Helvetica,sans-Serif" font-weight="bold" font-size="11.00">analyze() → 空 Vec</text>
<text xml:space="preserve" text-anchor="middle" x="384.12" y="-207.05" font-family="Helvetica,sans-Serif" font-weight="bold" font-size="11.00">结果注入 Preflight</text>
</g>
<g id="clust3" class="cluster">
<title>cluster_common</title>
<path fill="#f3e5f5" fill-opacity="0.301961" stroke="#7b1fa2" d="M24,-8C24,-8 174,-8 174,-8 180,-8 186,-14 186,-20 186,-20 186,-83.5 186,-83.5 186,-89.5 180,-95.5 174,-95.5 174,-95.5 24,-95.5 24,-95.5 18,-95.5 12,-89.5 12,-83.5 12,-83.5 12,-20 12,-20 12,-14 18,-8 24,-8"/>
<text xml:space="preserve" text-anchor="middle" x="53.75" y="-81.05" font-family="Helvetica,sans-Serif" font-weight="bold" font-size="11.00">公共基础设施</text>
</g>
<!-- trait_def -->
<g id="node1" class="node">
<title>trait_def</title>
<path fill="#e8f0fe" stroke="black" d="M252,-387.5C252,-387.5 282,-387.5 282,-387.5 288,-387.5 294,-393.5 294,-399.5 294,-399.5 294,-411.5 294,-411.5 294,-417.5 288,-423.5 282,-423.5 282,-423.5 252,-423.5 252,-423.5 246,-423.5 240,-417.5 240,-411.5 240,-411.5 240,-399.5 240,-399.5 240,-393.5 246,-387.5 252,-387.5"/>
</g>
<!-- registry -->
<g id="node2" class="node">
<title>registry</title>
<path fill="#fff9c4" stroke="black" d="M329.38,-336C329.38,-336 204.62,-336 204.62,-336 198.62,-336 192.62,-330 192.62,-324 192.62,-324 192.62,-288.25 192.62,-288.25 192.62,-282.25 198.62,-276.25 204.62,-276.25 204.62,-276.25 329.38,-276.25 329.38,-276.25 335.38,-276.25 341.38,-282.25 341.38,-288.25 341.38,-288.25 341.38,-324 341.38,-324 341.38,-330 335.38,-336 329.38,-336"/>
<text xml:space="preserve" text-anchor="middle" x="267" y="-321.55" font-family="Helvetica,sans-Serif" font-size="11.00">PatcherRegistry</text>
<text xml:space="preserve" text-anchor="middle" x="267" y="-309.55" font-family="Helvetica,sans-Serif" font-size="11.00">(策略模式注册表)</text>
<text xml:space="preserve" text-anchor="middle" x="267" y="-293.8" font-family="Helvetica,sans-Serif" font-size="11.00">implemented_error_codes()</text>
<text xml:space="preserve" text-anchor="middle" x="267" y="-281.8" font-family="Helvetica,sans-Serif" font-size="11.00">get_patcher(ErrorCode)</text>
</g>
<!-- trait_def&#45;&gt;registry -->
<g id="edge1" class="edge">
<title>trait_def&#45;&gt;registry</title>
<path fill="none" stroke="black" d="M267,-387.09C267,-375.95 267,-361.03 267,-347.09"/>
<polygon fill="black" stroke="black" points="267,-337.44 271.5,-347.44 267,-341.22 267,-347.44 267,-347.44 267,-347.44 267,-341.22 262.5,-347.44 267,-337.44"/>
<text xml:space="preserve" text-anchor="middle" x="276.75" y="-359.5" font-family="Helvetica,sans-Serif" font-size="10.00">注册</text>
</g>
<!-- e0433 -->
<g id="node3" class="node">
<title>e0433</title>
<path fill="#e8f5e9" stroke="black" d="M299,-187.88C299,-187.88 235,-187.88 235,-187.88 229,-187.88 223,-181.88 223,-175.88 223,-175.88 223,-136.38 223,-136.38 223,-130.38 229,-124.38 235,-124.38 235,-124.38 299,-124.38 299,-124.38 305,-124.38 311,-130.38 311,-136.38 311,-136.38 311,-175.88 311,-175.88 311,-181.88 305,-187.88 299,-187.88"/>
<text xml:space="preserve" text-anchor="middle" x="267" y="-173.43" font-family="Helvetica,sans-Serif" font-size="11.00">E0433Patcher</text>
<text xml:space="preserve" text-anchor="middle" x="267" y="-161.43" font-family="Helvetica,sans-Serif" font-size="11.00">路径未解析</text>
<text xml:space="preserve" text-anchor="middle" x="267" y="-145.68" font-family="Helvetica,sans-Serif" font-size="11.00">4 候选轨道</text>
<text xml:space="preserve" text-anchor="middle" x="267" y="-129.93" font-family="Helvetica,sans-Serif" font-size="11.00">(P1/P2/R1/R2)</text>
</g>
<!-- registry&#45;&gt;e0433 -->
<g id="edge2" class="edge">
<title>registry&#45;&gt;e0433</title>
<path fill="none" stroke="black" d="M267,-275.88C267,-254.07 267,-223.94 267,-199.48"/>
<polygon fill="black" stroke="black" points="267,-189.57 271.5,-199.57 267,-193.35 267,-199.57 267,-199.57 267,-199.57 267,-193.35 262.5,-199.57 267,-189.57"/>
</g>
<!-- e0432 -->
<g id="node4" class="node">
<title>e0432</title>
<path fill="#e8f5e9" stroke="black" d="M89.5,-187.88C89.5,-187.88 28.5,-187.88 28.5,-187.88 22.5,-187.88 16.5,-181.88 16.5,-175.88 16.5,-175.88 16.5,-136.38 16.5,-136.38 16.5,-130.38 22.5,-124.38 28.5,-124.38 28.5,-124.38 89.5,-124.38 89.5,-124.38 95.5,-124.38 101.5,-130.38 101.5,-136.38 101.5,-136.38 101.5,-175.88 101.5,-175.88 101.5,-181.88 95.5,-187.88 89.5,-187.88"/>
<text xml:space="preserve" text-anchor="middle" x="59" y="-173.43" font-family="Helvetica,sans-Serif" font-size="11.00">E0432Patcher</text>
<text xml:space="preserve" text-anchor="middle" x="59" y="-161.43" font-family="Helvetica,sans-Serif" font-size="11.00">导入未解析</text>
<text xml:space="preserve" text-anchor="middle" x="59" y="-145.68" font-family="Helvetica,sans-Serif" font-size="11.00">3 候选轨道</text>
<text xml:space="preserve" text-anchor="middle" x="59" y="-129.93" font-family="Helvetica,sans-Serif" font-size="11.00">(P1/R1/R2)</text>
</g>
<!-- registry&#45;&gt;e0432 -->
<g id="edge3" class="edge">
<title>registry&#45;&gt;e0432</title>
<path fill="none" stroke="black" d="M192.31,-290.06C164.49,-281.62 134.09,-268.72 111,-249.25 95.04,-235.79 83,-216.12 74.54,-198.4"/>
<polygon fill="black" stroke="black" points="70.48,-189.37 78.69,-196.65 72.03,-192.82 74.58,-198.49 74.58,-198.49 74.58,-198.49 72.03,-192.82 70.48,-200.34 70.48,-189.37"/>
</g>
<!-- e0560 -->
<g id="node5" class="node">
<title>e0560</title>
<path fill="#e8f5e9" stroke="black" d="M192.5,-187.88C192.5,-187.88 131.5,-187.88 131.5,-187.88 125.5,-187.88 119.5,-181.88 119.5,-175.88 119.5,-175.88 119.5,-136.38 119.5,-136.38 119.5,-130.38 125.5,-124.38 131.5,-124.38 131.5,-124.38 192.5,-124.38 192.5,-124.38 198.5,-124.38 204.5,-130.38 204.5,-136.38 204.5,-136.38 204.5,-175.88 204.5,-175.88 204.5,-181.88 198.5,-187.88 192.5,-187.88"/>
<text xml:space="preserve" text-anchor="middle" x="162" y="-173.43" font-family="Helvetica,sans-Serif" font-size="11.00">E0560Patcher</text>
<text xml:space="preserve" text-anchor="middle" x="162" y="-161.43" font-family="Helvetica,sans-Serif" font-size="11.00">未知字段</text>
<text xml:space="preserve" text-anchor="middle" x="162" y="-145.68" font-family="Helvetica,sans-Serif" font-size="11.00">2 候选轨道</text>
<text xml:space="preserve" text-anchor="middle" x="162" y="-129.93" font-family="Helvetica,sans-Serif" font-size="11.00">(P1/R1)</text>
</g>
<!-- registry&#45;&gt;e0560 -->
<g id="edge4" class="edge">
<title>registry&#45;&gt;e0560</title>
<path fill="none" stroke="black" d="M236.69,-275.87C228.87,-267.62 220.75,-258.39 214,-249.25 202.25,-233.35 191.19,-214.53 182.31,-198.06"/>
<polygon fill="black" stroke="black" points="177.65,-189.23 186.3,-195.97 179.41,-192.57 182.32,-198.07 182.32,-198.07 182.32,-198.07 179.41,-192.57 178.34,-200.18 177.65,-189.23"/>
</g>
<!-- e0599 -->
<g id="node6" class="node">
<title>e0599</title>
<path fill="#fce4ec" stroke="black" d="M432.5,-189.75C432.5,-189.75 347.5,-189.75 347.5,-189.75 341.5,-189.75 335.5,-183.75 335.5,-177.75 335.5,-177.75 335.5,-134.5 335.5,-134.5 335.5,-128.5 341.5,-122.5 347.5,-122.5 347.5,-122.5 432.5,-122.5 432.5,-122.5 438.5,-122.5 444.5,-128.5 444.5,-134.5 444.5,-134.5 444.5,-177.75 444.5,-177.75 444.5,-183.75 438.5,-189.75 432.5,-189.75"/>
<text xml:space="preserve" text-anchor="middle" x="390" y="-175.3" font-family="Helvetica,sans-Serif" font-size="11.00">E0599Patcher</text>
<text xml:space="preserve" text-anchor="middle" x="390" y="-163.3" font-family="Helvetica,sans-Serif" font-size="11.00">方法/关联项未找到</text>
<text xml:space="preserve" text-anchor="middle" x="390" y="-147.55" font-family="Helvetica,sans-Serif" font-size="11.00">4 级分类</text>
<text xml:space="preserve" text-anchor="middle" x="390" y="-131.8" font-family="Helvetica,sans-Serif" font-size="11.00">AST 扫描可用方法</text>
</g>
<!-- registry&#45;&gt;e0599 -->
<g id="edge5" class="edge">
<title>registry&#45;&gt;e0599</title>
<path fill="none" stroke="black" d="M298.13,-275.8C306.48,-267.48 315.32,-258.23 323,-249.25 336.56,-233.4 350.32,-214.97 361.81,-198.78"/>
<polygon fill="black" stroke="black" points="367.25,-191.05 365.18,-201.82 365.07,-194.14 361.5,-199.23 361.5,-199.23 361.5,-199.23 365.07,-194.14 357.82,-196.64 367.25,-191.05"/>
</g>
<!-- e0308 -->
<g id="node7" class="node">
<title>e0308</title>
<path fill="#fce4ec" stroke="black" d="M535.5,-189.75C535.5,-189.75 474.5,-189.75 474.5,-189.75 468.5,-189.75 462.5,-183.75 462.5,-177.75 462.5,-177.75 462.5,-134.5 462.5,-134.5 462.5,-128.5 468.5,-122.5 474.5,-122.5 474.5,-122.5 535.5,-122.5 535.5,-122.5 541.5,-122.5 547.5,-128.5 547.5,-134.5 547.5,-134.5 547.5,-177.75 547.5,-177.75 547.5,-183.75 541.5,-189.75 535.5,-189.75"/>
<text xml:space="preserve" text-anchor="middle" x="505" y="-175.3" font-family="Helvetica,sans-Serif" font-size="11.00">E0308Patcher</text>
<text xml:space="preserve" text-anchor="middle" x="505" y="-163.3" font-family="Helvetica,sans-Serif" font-size="11.00">类型不匹配</text>
<text xml:space="preserve" text-anchor="middle" x="505" y="-147.55" font-family="Helvetica,sans-Serif" font-size="11.00">5 级分类</text>
<text xml:space="preserve" text-anchor="middle" x="505" y="-131.8" font-family="Helvetica,sans-Serif" font-size="11.00">类型差异提取</text>
</g>
<!-- registry&#45;&gt;e0308 -->
<g id="edge6" class="edge">
<title>registry&#45;&gt;e0308</title>
<path fill="none" stroke="black" d="M341.52,-296.35C378.54,-288.85 422.06,-274.96 454,-249.25 469.83,-236.51 481.53,-217.45 489.7,-199.98"/>
<polygon fill="black" stroke="black" points="493.62,-191.05 493.72,-202.01 492.1,-194.51 489.6,-200.2 489.6,-200.2 489.6,-200.2 492.1,-194.51 485.48,-198.4 493.62,-191.05"/>
</g>
<!-- suggestion -->
<g id="node8" class="node">
<title>suggestion</title>
<path fill="#f3e5f5" stroke="black" d="M165.5,-63.75C165.5,-63.75 32.5,-63.75 32.5,-63.75 26.5,-63.75 20.5,-57.75 20.5,-51.75 20.5,-51.75 20.5,-28 20.5,-28 20.5,-22 26.5,-16 32.5,-16 32.5,-16 165.5,-16 165.5,-16 171.5,-16 177.5,-22 177.5,-28 177.5,-28 177.5,-51.75 177.5,-51.75 177.5,-57.75 171.5,-63.75 165.5,-63.75"/>
<text xml:space="preserve" text-anchor="middle" x="99" y="-49.3" font-family="Helvetica,sans-Serif" font-size="11.00">CompilerSuggestionExtractor</text>
<text xml:space="preserve" text-anchor="middle" x="99" y="-37.3" font-family="Helvetica,sans-Serif" font-size="11.00">NormalizedSuggestion</text>
<text xml:space="preserve" text-anchor="middle" x="99" y="-25.3" font-family="Helvetica,sans-Serif" font-size="11.00">提取 + 归一化 + 去重</text>
</g>
<!-- e0433&#45;&gt;suggestion -->
<g id="edge7" class="edge">
<title>e0433&#45;&gt;suggestion</title>
<path fill="none" stroke="#7b1fa2" stroke-dasharray="5,2" d="M227.04,-123.93C222.68,-120.69 218.27,-117.5 214,-114.5 201.3,-105.59 171.51,-86.54 145.43,-70.04"/>
<polygon fill="#7b1fa2" stroke="#7b1fa2" points="147.64,-67.3 137.31,-64.92 143.9,-73.22 147.64,-67.3"/>
</g>
<!-- fix_out -->
<g id="node9" class="node">
<title>fix_out</title>
<ellipse fill="#c8e6c9" stroke="black" cx="260" cy="-39.88" rx="64.88" ry="25.28"/>
<text xml:space="preserve" text-anchor="middle" x="260" y="-43.3" font-family="Helvetica,sans-Serif" font-size="11.00">Vec&lt;FixAction&gt;</text>
<text xml:space="preserve" text-anchor="middle" x="260" y="-31.3" font-family="Helvetica,sans-Serif" font-size="11.00">(非空)</text>
</g>
<!-- e0433&#45;&gt;fix_out -->
<g id="edge10" class="edge">
<title>e0433&#45;&gt;fix_out</title>
<path fill="none" stroke="black" d="M265.09,-123.91C264.19,-109.27 263.12,-91.75 262.19,-76.59"/>
<polygon fill="black" stroke="black" points="265.71,-76.82 261.6,-67.05 258.72,-77.25 265.71,-76.82"/>
</g>
<!-- e0432&#45;&gt;suggestion -->
<g id="edge8" class="edge">
<title>e0432&#45;&gt;suggestion</title>
<path fill="none" stroke="#7b1fa2" stroke-dasharray="5,2" d="M69.93,-123.91C75.25,-108.7 81.66,-90.39 87.11,-74.84"/>
<polygon fill="#7b1fa2" stroke="#7b1fa2" points="90.37,-76.1 90.38,-65.51 83.77,-73.79 90.37,-76.1"/>
</g>
<!-- e0432&#45;&gt;fix_out -->
<g id="edge11" class="edge">
<title>e0432&#45;&gt;fix_out</title>
<path fill="none" stroke="black" d="M94.92,-123.98C100.1,-120.43 105.53,-117.14 111,-114.5 143.52,-98.8 157.47,-111.19 190,-95.5 203.26,-89.11 216.36,-79.88 227.58,-70.83"/>
<polygon fill="black" stroke="black" points="229.56,-73.74 234.99,-64.64 225.07,-68.37 229.56,-73.74"/>
</g>
<!-- e0560&#45;&gt;suggestion -->
<g id="edge9" class="edge">
<title>e0560&#45;&gt;suggestion</title>
<path fill="none" stroke="#7b1fa2" stroke-dasharray="5,2" d="M144.78,-123.91C136.24,-108.41 125.91,-89.68 117.23,-73.93"/>
<polygon fill="#7b1fa2" stroke="#7b1fa2" points="120.42,-72.47 112.53,-65.41 114.29,-75.85 120.42,-72.47"/>
</g>
<!-- e0560&#45;&gt;fix_out -->
<g id="edge12" class="edge">
<title>e0560&#45;&gt;fix_out</title>
<path fill="none" stroke="black" d="M188.78,-123.91C202.45,-107.96 219.06,-88.6 232.8,-72.59"/>
<polygon fill="black" stroke="black" points="235.25,-75.1 239.11,-65.23 229.94,-70.54 235.25,-75.1"/>
</g>
<!-- analysis_out -->
<g id="node10" class="node">
<title>analysis_out</title>
<ellipse fill="#ffcdd2" stroke="black" cx="417" cy="-39.88" rx="73.36" ry="35.36"/>
<text xml:space="preserve" text-anchor="middle" x="417" y="-50.42" font-family="Helvetica,sans-Serif" font-size="11.00">Vec&lt;FixAction&gt;</text>
<text xml:space="preserve" text-anchor="middle" x="417" y="-38.42" font-family="Helvetica,sans-Serif" font-size="11.00">(空)</text>
<text xml:space="preserve" text-anchor="middle" x="417" y="-22.68" font-family="Helvetica,sans-Serif" font-size="11.00">→ Preflight Digest</text>
</g>
<!-- e0599&#45;&gt;analysis_out -->
<g id="edge13" class="edge">
<title>e0599&#45;&gt;analysis_out</title>
<path fill="none" stroke="black" d="M397.81,-122.08C400.43,-110.99 403.4,-98.42 406.21,-86.54"/>
<polygon fill="black" stroke="black" points="409.59,-87.45 408.48,-76.91 402.78,-85.84 409.59,-87.45"/>
</g>
<!-- e0308&#45;&gt;analysis_out -->
<g id="edge14" class="edge">
<title>e0308&#45;&gt;analysis_out</title>
<path fill="none" stroke="black" d="M479.55,-122.08C469.98,-109.66 458.98,-95.37 448.9,-82.29"/>
<polygon fill="black" stroke="black" points="451.89,-80.44 443.02,-74.65 446.35,-84.71 451.89,-80.44"/>
</g>
</g>
</svg>
