<?xml version="1.0" encoding="UTF-8" standalone="no"?>
<!DOCTYPE svg PUBLIC "-//W3C//DTD SVG 1.1//EN"
 "http://www.w3.org/Graphics/SVG/1.1/DTD/svg11.dtd">
<!-- Generated by graphviz version 14.1.2 (20260124.0452)
 -->
<!-- Title: e0433_layers Pages: 1 -->
<svg width="522pt" height="1074pt"
 viewBox="0.00 0.00 522.00 1074.00" xmlns="http://www.w3.org/2000/svg" xmlns:xlink="http://www.w3.org/1999/xlink">
<g id="graph0" class="graph" transform="scale(1 1) rotate(0) translate(4 1070.37)">
<title>e0433_layers</title>
<polygon fill="white" stroke="none" points="-4,4 -4,-1070.37 518,-1070.37 518,4 -4,4"/>
<text xml:space="preserve" text-anchor="middle" x="257" y="-1049.07" font-family="Helvetica,sans-Serif" font-weight="bold" font-size="14.00">E0433Patcher 四层架构与候选流水线</text>
<g id="clust1" class="cluster">
<title>cluster_l1</title>
<path fill="#e8f0fe" fill-opacity="0.301961" stroke="#1a73e8" d="M206,-770.11C206,-770.11 457,-770.11 457,-770.11 463,-770.11 469,-776.11 469,-782.11 469,-782.11 469,-972.86 469,-972.86 469,-978.86 463,-984.86 457,-984.86 457,-984.86 206,-984.86 206,-984.86 200,-984.86 194,-978.86 194,-972.86 194,-972.86 194,-782.11 194,-782.11 194,-776.11 200,-770.11 206,-770.11"/>
<text xml:space="preserve" text-anchor="middle" x="331.38" y="-970.41" font-family="Helvetica,sans-Serif" font-weight="bold" font-size="11.00">第一层：证据提取 (Span &amp; Suggestion Extraction)</text>
</g>
<g id="clust2" class="cluster">
<title>cluster_l2</title>
<path fill="#e8f5e9" fill-opacity="0.301961" stroke="#2e7d32" d="M20,-598.86C20,-598.86 494,-598.86 494,-598.86 500,-598.86 506,-604.86 506,-610.86 506,-610.86 506,-750.11 506,-750.11 506,-756.11 500,-762.11 494,-762.11 494,-762.11 20,-762.11 20,-762.11 14,-762.11 8,-756.11 8,-750.11 8,-750.11 8,-610.86 8,-610.86 8,-604.86 14,-598.86 20,-598.86"/>
<text xml:space="preserve" text-anchor="middle" x="116.5" y="-747.66" font-family="Helvetica,sans-Serif" font-weight="bold" font-size="11.00">第二层：候选构建 (Candidate Building)</text>
</g>
<g id="clust3" class="cluster">
<title>cluster_l3</title>
<path fill="#fff9c4" fill-opacity="0.301961" stroke="#f57f17" d="M167,-282.61C167,-282.61 364,-282.61 364,-282.61 370,-282.61 376,-288.61 376,-294.61 376,-294.61 376,-578.86 376,-578.86 376,-584.86 370,-590.86 364,-590.86 364,-590.86 167,-590.86 167,-590.86 161,-590.86 155,-584.86 155,-578.86 155,-578.86 155,-294.61 155,-294.61 155,-288.61 161,-282.61 167,-282.61"/>
<text xml:space="preserve" text-anchor="middle" x="265.38" y="-576.41" font-family="Helvetica,sans-Serif" font-weight="bold" font-size="11.00">第三层：约束过滤与评分 (PathResolver)</text>
</g>
<g id="clust4" class="cluster">
<title>cluster_l4</title>
<path fill="#fce4ec" fill-opacity="0.301961" stroke="#c62828" d="M159,-83.86C159,-83.86 372,-83.86 372,-83.86 378,-83.86 384,-89.86 384,-95.86 384,-95.86 384,-262.61 384,-262.61 384,-268.61 378,-274.61 372,-274.61 372,-274.61 159,-274.61 159,-274.61 153,-274.61 147,-268.61 147,-262.61 147,-262.61 147,-95.86 147,-95.86 147,-89.86 153,-83.86 159,-83.86"/>
<text xml:space="preserve" text-anchor="middle" x="265.62" y="-260.16" font-family="Helvetica,sans-Serif" font-weight="bold" font-size="11.00">第四层：动作输出 (Fix Generation &amp; Verify)</text>
</g>
<!-- diag -->
<g id="node1" class="node">
<title>diag</title>
<ellipse fill="#fff3e0" stroke="black" cx="330" cy="-1015.49" rx="46.85" ry="22.63"/>
<text xml:space="preserve" text-anchor="middle" x="330" y="-1017.04" font-family="Helvetica,sans-Serif" font-size="11.00">Diagnostic</text>
<text xml:space="preserve" text-anchor="middle" x="330" y="-1005.04" font-family="Helvetica,sans-Serif" font-size="11.00">(E0433)</text>
</g>
<!-- span_analyzer -->
<g id="node2" class="node">
<title>span_analyzer</title>
<path fill="#e8f0fe" stroke="black" d="M307,-953.11C307,-953.11 225,-953.11 225,-953.11 219,-953.11 213,-947.11 213,-941.11 213,-941.11 213,-897.86 213,-897.86 213,-891.86 219,-885.86 225,-885.86 225,-885.86 307,-885.86 307,-885.86 313,-885.86 319,-891.86 319,-897.86 319,-897.86 319,-941.11 319,-941.11 319,-947.11 313,-953.11 307,-953.11"/>
<text xml:space="preserve" text-anchor="middle" x="266" y="-938.66" font-family="Helvetica,sans-Serif" font-size="11.00">SpanAnalyzer</text>
<text xml:space="preserve" text-anchor="middle" x="266" y="-926.66" font-family="Helvetica,sans-Serif" font-size="11.00">定位 primary span</text>
<text xml:space="preserve" text-anchor="middle" x="266" y="-910.91" font-family="Helvetica,sans-Serif" font-size="11.00">前向扫展完整路径</text>
<text xml:space="preserve" text-anchor="middle" x="266" y="-895.16" font-family="Helvetica,sans-Serif" font-size="11.00">(::identifier 模式)</text>
</g>
<!-- diag&#45;&gt;span_analyzer -->
<g id="edge1" class="edge">
<title>diag&#45;&gt;span_analyzer</title>
<path fill="none" stroke="black" d="M315.8,-993.63C309.59,-984.51 302.07,-973.46 294.77,-962.75"/>
<polygon fill="black" stroke="black" points="297.83,-961.02 289.31,-954.73 292.05,-964.96 297.83,-961.02"/>
</g>
<!-- comp_extract -->
<g id="node4" class="node">
<title>comp_extract</title>
<path fill="#e8f0fe" stroke="black" d="M438.75,-943.36C438.75,-943.36 349.25,-943.36 349.25,-943.36 343.25,-943.36 337.25,-937.36 337.25,-931.36 337.25,-931.36 337.25,-907.61 337.25,-907.61 337.25,-901.61 343.25,-895.61 349.25,-895.61 349.25,-895.61 438.75,-895.61 438.75,-895.61 444.75,-895.61 450.75,-901.61 450.75,-907.61 450.75,-907.61 450.75,-931.36 450.75,-931.36 450.75,-937.36 444.75,-943.36 438.75,-943.36"/>
<text xml:space="preserve" text-anchor="middle" x="394" y="-928.91" font-family="Helvetica,sans-Serif" font-size="11.00">CompilerSuggestion</text>
<text xml:space="preserve" text-anchor="middle" x="394" y="-916.91" font-family="Helvetica,sans-Serif" font-size="11.00">Extractor</text>
<text xml:space="preserve" text-anchor="middle" x="394" y="-904.91" font-family="Helvetica,sans-Serif" font-size="11.00">归一化建议提取</text>
</g>
<!-- diag&#45;&gt;comp_extract -->
<g id="edge2" class="edge">
<title>diag&#45;&gt;comp_extract</title>
<path fill="none" stroke="black" d="M344.2,-993.63C352.32,-981.7 362.68,-966.48 371.85,-953.02"/>
<polygon fill="black" stroke="black" points="374.68,-955.09 377.41,-944.85 368.89,-951.15 374.68,-955.09"/>
</g>
<!-- path_struct -->
<g id="node3" class="node">
<title>path_struct</title>
<path fill="#e8f0fe" stroke="black" d="M308.12,-849.86C308.12,-849.86 223.88,-849.86 223.88,-849.86 217.88,-849.86 211.88,-843.86 211.88,-837.86 211.88,-837.86 211.88,-790.11 211.88,-790.11 211.88,-784.11 217.88,-778.11 223.88,-778.11 223.88,-778.11 308.12,-778.11 308.12,-778.11 314.12,-778.11 320.12,-784.11 320.12,-790.11 320.12,-790.11 320.12,-837.86 320.12,-837.86 320.12,-843.86 314.12,-849.86 308.12,-849.86"/>
<text xml:space="preserve" text-anchor="middle" x="266" y="-835.41" font-family="Helvetica,sans-Serif" font-size="11.00">PathStructure 识别</text>
<text xml:space="preserve" text-anchor="middle" x="266" y="-819.66" font-family="Helvetica,sans-Serif" font-size="11.00">SingleIdent</text>
<text xml:space="preserve" text-anchor="middle" x="266" y="-807.66" font-family="Helvetica,sans-Serif" font-size="11.00">ModuleAccess</text>
<text xml:space="preserve" text-anchor="middle" x="266" y="-795.66" font-family="Helvetica,sans-Serif" font-size="11.00">MethodCall</text>
<text xml:space="preserve" text-anchor="middle" x="266" y="-783.66" font-family="Helvetica,sans-Serif" font-size="11.00">NestedPath</text>
</g>
<!-- span_analyzer&#45;&gt;path_struct -->
<g id="edge3" class="edge">
<title>span_analyzer&#45;&gt;path_struct</title>
<path fill="none" stroke="black" d="M266,-885.45C266,-877.81 266,-869.54 266,-861.45"/>
<polygon fill="black" stroke="black" points="269.5,-861.72 266,-851.72 262.5,-861.72 269.5,-861.72"/>
</g>
<!-- p1 -->
<g id="node5" class="node">
<title>p1</title>
<path fill="#c8e6c9" stroke="black" d="M378,-728.49C378,-728.49 296,-728.49 296,-728.49 290,-728.49 284,-722.49 284,-716.49 284,-716.49 284,-692.74 284,-692.74 284,-686.74 290,-680.74 296,-680.74 296,-680.74 378,-680.74 378,-680.74 384,-680.74 390,-686.74 390,-692.74 390,-692.74 390,-716.49 390,-716.49 390,-722.49 384,-728.49 378,-728.49"/>
<text xml:space="preserve" text-anchor="middle" x="337" y="-714.04" font-family="Helvetica,sans-Serif" font-size="11.00">Track P1</text>
<text xml:space="preserve" text-anchor="middle" x="337" y="-702.04" font-family="Helvetica,sans-Serif" font-size="11.00">MachineApplicable</text>
<text xml:space="preserve" text-anchor="middle" x="337" y="-690.04" font-family="Helvetica,sans-Serif" font-size="11.00">编译器建议</text>
</g>
<!-- path_struct&#45;&gt;p1 -->
<g id="edge4" class="edge">
<title>path_struct&#45;&gt;p1</title>
<path fill="none" stroke="black" d="M289.25,-777.83C297.67,-765.09 307.15,-750.76 315.42,-738.24"/>
<polygon fill="black" stroke="black" points="318.33,-740.2 320.92,-729.93 312.49,-736.34 318.33,-740.2"/>
</g>
<!-- p2 -->
<g id="node6" class="node">
<title>p2</title>
<path fill="#c8e6c9" stroke="black" d="M486.12,-728.49C486.12,-728.49 419.88,-728.49 419.88,-728.49 413.88,-728.49 407.88,-722.49 407.88,-716.49 407.88,-716.49 407.88,-692.74 407.88,-692.74 407.88,-686.74 413.88,-680.74 419.88,-680.74 419.88,-680.74 486.12,-680.74 486.12,-680.74 492.12,-680.74 498.12,-686.74 498.12,-692.74 498.12,-692.74 498.12,-716.49 498.12,-716.49 498.12,-722.49 492.12,-728.49 486.12,-728.49"/>
<text xml:space="preserve" text-anchor="middle" x="453" y="-714.04" font-family="Helvetica,sans-Serif" font-size="11.00">Track P2</text>
<text xml:space="preserve" text-anchor="middle" x="453" y="-702.04" font-family="Helvetica,sans-Serif" font-size="11.00">MaybeIncorrect</text>
<text xml:space="preserve" text-anchor="middle" x="453" y="-690.04" font-family="Helvetica,sans-Serif" font-size="11.00">参考性建议</text>
</g>
<!-- path_struct&#45;&gt;p2 -->
<g id="edge5" class="edge">
<title>path_struct&#45;&gt;p2</title>
<path fill="none" stroke="black" d="M320.4,-798.23C345.57,-789.92 375.12,-777.99 399,-762.11 409.28,-755.28 419.06,-746.17 427.42,-737.27"/>
<polygon fill="black" stroke="black" points="429.87,-739.78 433.94,-730 424.66,-735.1 429.87,-739.78"/>
</g>
<!-- r1 -->
<g id="node7" class="node">
<title>r1</title>
<path fill="#a5d6a7" stroke="black" d="M91.62,-730.36C91.62,-730.36 28.37,-730.36 28.37,-730.36 22.37,-730.36 16.38,-724.36 16.38,-718.36 16.38,-718.36 16.38,-690.86 16.38,-690.86 16.38,-684.86 22.38,-678.86 28.38,-678.86 28.38,-678.86 91.62,-678.86 91.62,-678.86 97.62,-678.86 103.62,-684.86 103.62,-690.86 103.62,-690.86 103.62,-718.36 103.62,-718.36 103.62,-724.36 97.62,-730.36 91.62,-730.36"/>
<text xml:space="preserve" text-anchor="middle" x="60" y="-715.91" font-family="Helvetica,sans-Serif" font-size="11.00">Track R1</text>
<text xml:space="preserve" text-anchor="middle" x="60" y="-703.91" font-family="Helvetica,sans-Serif" font-size="11.00">包名 → crate::</text>
<text xml:space="preserve" text-anchor="middle" x="60" y="-688.16" font-family="Helvetica,sans-Serif" font-size="11.00">精确重写</text>
</g>
<!-- path_struct&#45;&gt;r1 -->
<g id="edge6" class="edge">
<title>path_struct&#45;&gt;r1</title>
<path fill="none" stroke="black" d="M211.42,-801.85C180.83,-793.94 142.95,-781.27 113,-762.11 103.41,-755.98 94.38,-747.73 86.57,-739.43"/>
<polygon fill="black" stroke="black" points="89.19,-737.11 79.92,-731.98 83.97,-741.77 89.19,-737.11"/>
</g>
<!-- r2 -->
<g id="node8" class="node">
<title>r2</title>
<path fill="#a5d6a7" stroke="black" d="M254.12,-728.49C254.12,-728.49 133.88,-728.49 133.88,-728.49 127.88,-728.49 121.88,-722.49 121.88,-716.49 121.88,-716.49 121.88,-692.74 121.88,-692.74 121.88,-686.74 127.88,-680.74 133.88,-680.74 133.88,-680.74 254.12,-680.74 254.12,-680.74 260.12,-680.74 266.12,-686.74 266.12,-692.74 266.12,-692.74 266.12,-716.49 266.12,-716.49 266.12,-722.49 260.12,-728.49 254.12,-728.49"/>
<text xml:space="preserve" text-anchor="middle" x="194" y="-714.04" font-family="Helvetica,sans-Serif" font-size="11.00">Track R2</text>
<text xml:space="preserve" text-anchor="middle" x="194" y="-702.04" font-family="Helvetica,sans-Serif" font-size="11.00">符号唯一可达</text>
<text xml:space="preserve" text-anchor="middle" x="194" y="-686.29" font-family="Helvetica,sans-Serif" font-size="11.00">(SymbolReachabilityIndex)</text>
</g>
<!-- path_struct&#45;&gt;r2 -->
<g id="edge7" class="edge">
<title>path_struct&#45;&gt;r2</title>
<path fill="none" stroke="black" d="M242.42,-777.83C233.8,-764.96 224.08,-750.48 215.63,-737.87"/>
<polygon fill="black" stroke="black" points="218.78,-736.28 210.3,-729.92 212.96,-740.17 218.78,-736.28"/>
</g>
<!-- comp_extract&#45;&gt;p1 -->
<g id="edge8" class="edge">
<title>comp_extract&#45;&gt;p1</title>
<path fill="none" stroke="black" d="M387.79,-895.3C377.73,-857.71 357.8,-783.29 346.12,-739.68"/>
<polygon fill="black" stroke="black" points="349.56,-738.99 343.59,-730.23 342.8,-740.8 349.56,-738.99"/>
</g>
<!-- comp_extract&#45;&gt;p2 -->
<g id="edge9" class="edge">
<title>comp_extract&#45;&gt;p2</title>
<path fill="none" stroke="black" d="M400.43,-895.3C410.84,-857.71 431.47,-783.29 443.56,-739.68"/>
<polygon fill="black" stroke="black" points="446.88,-740.8 446.18,-730.23 440.13,-738.93 446.88,-740.8"/>
</g>
<!-- dedup -->
<g id="node9" class="node">
<title>dedup</title>
<path fill="#e8f5e9" stroke="black" d="M300.75,-642.86C300.75,-642.86 229.25,-642.86 229.25,-642.86 223.25,-642.86 217.25,-636.86 217.25,-630.86 217.25,-630.86 217.25,-618.86 217.25,-618.86 217.25,-612.86 223.25,-606.86 229.25,-606.86 229.25,-606.86 300.75,-606.86 300.75,-606.86 306.75,-606.86 312.75,-612.86 312.75,-618.86 312.75,-618.86 312.75,-630.86 312.75,-630.86 312.75,-636.86 306.75,-642.86 300.75,-642.86"/>
<text xml:space="preserve" text-anchor="middle" x="265" y="-622.29" font-family="Helvetica,sans-Serif" font-size="11.00">(path, kind) 去重</text>
</g>
<!-- p1&#45;&gt;dedup -->
<g id="edge10" class="edge">
<title>p1&#45;&gt;dedup</title>
<path fill="none" stroke="black" d="M315.4,-680.28C306.9,-671.11 297.12,-660.54 288.45,-651.18"/>
<polygon fill="black" stroke="black" points="291.26,-649.06 281.89,-644.1 286.12,-653.82 291.26,-649.06"/>
</g>
<!-- p2&#45;&gt;dedup -->
<g id="edge11" class="edge">
<title>p2&#45;&gt;dedup</title>
<path fill="none" stroke="black" d="M407.41,-682.51C404.57,-681.26 401.75,-680.03 399,-678.86 373.76,-668.09 345.54,-656.82 321.54,-647.46"/>
<polygon fill="black" stroke="black" points="322.83,-644.2 312.24,-643.84 320.29,-650.73 322.83,-644.2"/>
</g>
<!-- r1&#45;&gt;dedup -->
<g id="edge12" class="edge">
<title>r1&#45;&gt;dedup</title>
<path fill="none" stroke="black" d="M104.1,-682.61C107.1,-681.31 110.08,-680.05 113,-678.86 143.42,-666.49 177.93,-654.31 206.37,-644.76"/>
<polygon fill="black" stroke="black" points="207.14,-648.19 215.52,-641.71 204.93,-641.55 207.14,-648.19"/>
</g>
<!-- r2&#45;&gt;dedup -->
<g id="edge13" class="edge">
<title>r2&#45;&gt;dedup</title>
<path fill="none" stroke="black" d="M215.3,-680.28C223.6,-671.2 233.13,-660.76 241.62,-651.47"/>
<polygon fill="black" stroke="black" points="244.18,-653.86 248.33,-644.11 239.01,-649.14 244.18,-653.86"/>
</g>
<!-- filter -->
<g id="node10" class="node">
<title>filter</title>
<path fill="#fff9c4" stroke="black" d="M319.5,-559.11C319.5,-559.11 210.5,-559.11 210.5,-559.11 204.5,-559.11 198.5,-553.11 198.5,-547.11 198.5,-547.11 198.5,-500.11 198.5,-500.11 198.5,-494.11 204.5,-488.11 210.5,-488.11 210.5,-488.11 319.5,-488.11 319.5,-488.11 325.5,-488.11 331.5,-494.11 331.5,-500.11 331.5,-500.11 331.5,-547.11 331.5,-547.11 331.5,-553.11 325.5,-559.11 319.5,-559.11"/>
<text xml:space="preserve" text-anchor="middle" x="265" y="-544.66" font-family="Helvetica,sans-Serif" font-size="11.00">约束过滤</text>
<text xml:space="preserve" text-anchor="middle" x="265" y="-528.91" font-family="Helvetica,sans-Serif" font-size="11.00">剔除非可执行</text>
<text xml:space="preserve" text-anchor="middle" x="265" y="-513.16" font-family="Helvetica,sans-Serif" font-size="11.00">禁用 DependencyAction</text>
<text xml:space="preserve" text-anchor="middle" x="265" y="-497.41" font-family="Helvetica,sans-Serif" font-size="11.00">仅保留 High 置信度</text>
</g>
<!-- dedup&#45;&gt;filter -->
<g id="edge14" class="edge">
<title>dedup&#45;&gt;filter</title>
<path fill="none" stroke="black" d="M265,-606.57C265,-596.62 265,-583.6 265,-570.88"/>
<polygon fill="black" stroke="black" points="268.5,-570.88 265,-560.88 261.5,-570.88 268.5,-570.88"/>
</g>
<!-- scoring -->
<g id="node11" class="node">
<title>scoring</title>
<path fill="#fff9c4" stroke="black" d="M318.75,-452.11C318.75,-452.11 211.25,-452.11 211.25,-452.11 205.25,-452.11 199.25,-446.11 199.25,-440.11 199.25,-440.11 199.25,-376.61 199.25,-376.61 199.25,-370.61 205.25,-364.61 211.25,-364.61 211.25,-364.61 318.75,-364.61 318.75,-364.61 324.75,-364.61 330.75,-370.61 330.75,-376.61 330.75,-376.61 330.75,-440.11 330.75,-440.11 330.75,-446.11 324.75,-452.11 318.75,-452.11"/>
<text xml:space="preserve" text-anchor="middle" x="265" y="-437.66" font-family="Helvetica,sans-Serif" font-size="11.00">多维评分</text>
<text xml:space="preserve" text-anchor="middle" x="265" y="-421.91" font-family="Helvetica,sans-Serif" font-size="11.00">Kind: PathRewrite +100</text>
<text xml:space="preserve" text-anchor="middle" x="265" y="-409.91" font-family="Helvetica,sans-Serif" font-size="11.00">Kind: UseImport +80</text>
<text xml:space="preserve" text-anchor="middle" x="265" y="-397.91" font-family="Helvetica,sans-Serif" font-size="11.00">Confidence: High +30</text>
<text xml:space="preserve" text-anchor="middle" x="265" y="-385.91" font-family="Helvetica,sans-Serif" font-size="11.00">crate:: +10 | std:: +5</text>
<text xml:space="preserve" text-anchor="middle" x="265" y="-373.91" font-family="Helvetica,sans-Serif" font-size="11.00">路径长度 负分</text>
</g>
<!-- filter&#45;&gt;scoring -->
<g id="edge15" class="edge">
<title>filter&#45;&gt;scoring</title>
<path fill="none" stroke="black" d="M265,-487.71C265,-480.11 265,-471.9 265,-463.75"/>
<polygon fill="black" stroke="black" points="268.5,-463.85 265,-453.85 261.5,-463.85 268.5,-463.85"/>
</g>
<!-- sort -->
<g id="node12" class="node">
<title>sort</title>
<path fill="#fff9c4" stroke="black" d="M319.12,-328.61C319.12,-328.61 210.88,-328.61 210.88,-328.61 204.88,-328.61 198.88,-322.61 198.88,-316.61 198.88,-316.61 198.88,-302.61 198.88,-302.61 198.88,-296.61 204.88,-290.61 210.88,-290.61 210.88,-290.61 319.12,-290.61 319.12,-290.61 325.12,-290.61 331.12,-296.61 331.12,-302.61 331.12,-302.61 331.12,-316.61 331.12,-316.61 331.12,-322.61 325.12,-328.61 319.12,-328.61"/>
<text xml:space="preserve" text-anchor="middle" x="265" y="-314.16" font-family="Helvetica,sans-Serif" font-size="11.00">排序</text>
<text xml:space="preserve" text-anchor="middle" x="265" y="-298.41" font-family="Helvetica,sans-Serif" font-size="11.00">score↓ → len↑ → alpha</text>
</g>
<!-- scoring&#45;&gt;sort -->
<g id="edge16" class="edge">
<title>scoring&#45;&gt;sort</title>
<path fill="none" stroke="black" d="M265,-364.36C265,-356.15 265,-347.73 265,-340.06"/>
<polygon fill="black" stroke="black" points="268.5,-340.28 265,-330.28 261.5,-340.28 268.5,-340.28"/>
</g>
<!-- gen -->
<g id="node13" class="node">
<title>gen</title>
<path fill="#fce4ec" stroke="black" d="M319.12,-242.86C319.12,-242.86 210.88,-242.86 210.88,-242.86 204.88,-242.86 198.88,-236.86 198.88,-230.86 198.88,-230.86 198.88,-187.61 198.88,-187.61 198.88,-181.61 204.88,-175.61 210.88,-175.61 210.88,-175.61 319.12,-175.61 319.12,-175.61 325.12,-175.61 331.12,-181.61 331.12,-187.61 331.12,-187.61 331.12,-230.86 331.12,-230.86 331.12,-236.86 325.12,-242.86 319.12,-242.86"/>
<text xml:space="preserve" text-anchor="middle" x="265" y="-228.41" font-family="Helvetica,sans-Serif" font-size="11.00">FixGenerator</text>
<text xml:space="preserve" text-anchor="middle" x="265" y="-216.41" font-family="Helvetica,sans-Serif" font-size="11.00">生成 FixAction::Replace</text>
<text xml:space="preserve" text-anchor="middle" x="265" y="-200.66" font-family="Helvetica,sans-Serif" font-size="11.00">保留 span 后缀</text>
<text xml:space="preserve" text-anchor="middle" x="265" y="-184.91" font-family="Helvetica,sans-Serif" font-size="11.00">避免扩大编辑面</text>
</g>
<!-- sort&#45;&gt;gen -->
<g id="edge17" class="edge">
<title>sort&#45;&gt;gen</title>
<path fill="none" stroke="black" d="M265,-290.57C265,-280.46 265,-267.37 265,-254.71"/>
<polygon fill="black" stroke="black" points="268.5,-254.8 265,-244.8 261.5,-254.8 268.5,-254.8"/>
</g>
<!-- topk -->
<g id="node14" class="node">
<title>topk</title>
<path fill="#fce4ec" stroke="black" d="M317.62,-139.61C317.62,-139.61 212.38,-139.61 212.38,-139.61 206.38,-139.61 200.38,-133.61 200.38,-127.61 200.38,-127.61 200.38,-103.86 200.38,-103.86 200.38,-97.86 206.38,-91.86 212.38,-91.86 212.38,-91.86 317.62,-91.86 317.62,-91.86 323.62,-91.86 329.62,-97.86 329.62,-103.86 329.62,-103.86 329.62,-127.61 329.62,-127.61 329.62,-133.61 323.62,-139.61 317.62,-139.61"/>
<text xml:space="preserve" text-anchor="middle" x="265" y="-125.16" font-family="Helvetica,sans-Serif" font-size="11.00">analyze_top_k()</text>
<text xml:space="preserve" text-anchor="middle" x="265" y="-113.16" font-family="Helvetica,sans-Serif" font-size="11.00">Vec&lt;RankedFixAction&gt;</text>
<text xml:space="preserve" text-anchor="middle" x="265" y="-101.16" font-family="Helvetica,sans-Serif" font-size="11.00">(分数 + 路径 + 来源)</text>
</g>
<!-- gen&#45;&gt;topk -->
<g id="edge18" class="edge">
<title>gen&#45;&gt;topk</title>
<path fill="none" stroke="black" d="M265,-175.2C265,-167.45 265,-159.17 265,-151.36"/>
<polygon fill="black" stroke="black" points="268.5,-151.49 265,-141.49 261.5,-151.49 268.5,-151.49"/>
</g>
<!-- output -->
<g id="node15" class="node">
<title>output</title>
<ellipse fill="#fff3e0" stroke="black" cx="265" cy="-27.93" rx="95.11" ry="27.93"/>
<text xml:space="preserve" text-anchor="middle" x="265" y="-33.23" font-family="Helvetica,sans-Serif" font-size="11.00">修复候选集</text>
<text xml:space="preserve" text-anchor="middle" x="265" y="-17.48" font-family="Helvetica,sans-Serif" font-size="11.00">(可能为空 → 移交 LLM)</text>
</g>
<!-- topk&#45;&gt;output -->
<g id="edge19" class="edge">
<title>topk&#45;&gt;output</title>
<path fill="none" stroke="black" d="M265,-91.74C265,-84.32 265,-75.87 265,-67.64"/>
<polygon fill="black" stroke="black" points="268.5,-67.77 265,-57.77 261.5,-67.77 268.5,-67.77"/>
</g>
</g>
</svg>
