<?xml version="1.0" encoding="UTF-8" standalone="no"?>
<!DOCTYPE svg PUBLIC "-//W3C//DTD SVG 1.1//EN"
 "http://www.w3.org/Graphics/SVG/1.1/DTD/svg11.dtd">
<!-- Generated by graphviz version 14.1.2 (20260124.0452)
 -->
<!-- Title: coordinator_flow Pages: 1 -->
<svg width="942pt" height="301pt"
 viewBox="0.00 0.00 942.00 301.00" xmlns="http://www.w3.org/2000/svg" xmlns:xlink="http://www.w3.org/1999/xlink">
<g id="graph0" class="graph" transform="scale(1 1) rotate(0) translate(4 297.25)">
<title>coordinator_flow</title>
<polygon fill="white" stroke="none" points="-4,4 -4,-297.25 937.89,-297.25 937.89,4 -4,4"/>
<text xml:space="preserve" text-anchor="middle" x="466.95" y="-275.95" font-family="Helvetica,sans-Serif" font-weight="bold" font-size="14.00">Coordinator 与 Transformer 数据流</text>
<g id="clust1" class="cluster">
<title>cluster_coord</title>
<path fill="#e8f0fe" fill-opacity="0.301961" stroke="#1a73e8" d="M153.78,-37C153.78,-37 269.03,-37 269.03,-37 275.03,-37 281.03,-43 281.03,-49 281.03,-49 281.03,-245 281.03,-245 281.03,-251 275.03,-257 269.03,-257 269.03,-257 153.78,-257 153.78,-257 147.78,-257 141.78,-251 141.78,-245 141.78,-245 141.78,-49 141.78,-49 141.78,-43 147.78,-37 153.78,-37"/>
<text xml:space="preserve" text-anchor="middle" x="196.66" y="-242.55" font-family="Helvetica,sans-Serif" font-weight="bold" font-size="11.00">PatchCoordinator</text>
</g>
<g id="clust2" class="cluster">
<title>cluster_trans</title>
<path fill="#e8f5e9" fill-opacity="0.301961" stroke="#2e7d32" d="M353.16,-8C353.16,-8 781.78,-8 781.78,-8 787.78,-8 793.78,-14 793.78,-20 793.78,-20 793.78,-84 793.78,-84 793.78,-90 787.78,-96 781.78,-96 781.78,-96 353.16,-96 353.16,-96 347.16,-96 341.16,-90 341.16,-84 341.16,-84 341.16,-20 341.16,-20 341.16,-14 347.16,-8 353.16,-8"/>
<text xml:space="preserve" text-anchor="middle" x="395.28" y="-81.55" font-family="Helvetica,sans-Serif" font-weight="bold" font-size="11.00">CodeTransformer</text>
</g>
<!-- diag -->
<g id="node1" class="node">
<title>diag</title>
<ellipse fill="#fff3e0" stroke="black" cx="56.39" cy="-207" rx="46.85" ry="25.28"/>
<text xml:space="preserve" text-anchor="middle" x="56.39" y="-210.43" font-family="Helvetica,sans-Serif" font-size="11.00">Diagnostic</text>
<text xml:space="preserve" text-anchor="middle" x="56.39" y="-198.43" font-family="Helvetica,sans-Serif" font-size="11.00">(单条)</text>
</g>
<!-- plan_single -->
<g id="node3" class="node">
<title>plan_single</title>
<path fill="#e8f0fe" stroke="black" d="M258.41,-228.88C258.41,-228.88 164.41,-228.88 164.41,-228.88 158.41,-228.88 152.41,-222.88 152.41,-216.88 152.41,-216.88 152.41,-193.12 152.41,-193.12 152.41,-187.12 158.41,-181.12 164.41,-181.12 164.41,-181.12 258.41,-181.12 258.41,-181.12 264.41,-181.12 270.41,-187.12 270.41,-193.12 270.41,-193.12 270.41,-216.88 270.41,-216.88 270.41,-222.88 264.41,-228.88 258.41,-228.88"/>
<text xml:space="preserve" text-anchor="middle" x="211.41" y="-214.43" font-family="Helvetica,sans-Serif" font-size="11.00">plan()</text>
<text xml:space="preserve" text-anchor="middle" x="211.41" y="-202.43" font-family="Helvetica,sans-Serif" font-size="11.00">单诊断 → 单候选</text>
<text xml:space="preserve" text-anchor="middle" x="211.41" y="-186.68" font-family="Helvetica,sans-Serif" font-size="11.00">GlobalCandidatePlan</text>
</g>
<!-- diag&#45;&gt;plan_single -->
<g id="edge1" class="edge">
<title>diag&#45;&gt;plan_single</title>
<path fill="none" stroke="black" d="M103.72,-206.39C115.37,-206.24 128.13,-206.08 140.65,-205.91"/>
<polygon fill="black" stroke="black" points="140.58,-209.41 150.53,-205.78 140.48,-202.41 140.58,-209.41"/>
</g>
<!-- diags_multi -->
<g id="node2" class="node">
<title>diags_multi</title>
<ellipse fill="#fff3e0" stroke="black" cx="56.39" cy="-138" rx="56.39" ry="25.28"/>
<text xml:space="preserve" text-anchor="middle" x="56.39" y="-141.43" font-family="Helvetica,sans-Serif" font-size="11.00">Diagnostic[]</text>
<text xml:space="preserve" text-anchor="middle" x="56.39" y="-129.43" font-family="Helvetica,sans-Serif" font-size="11.00">(函数级批量)</text>
</g>
<!-- plan_topk -->
<g id="node4" class="node">
<title>plan_topk</title>
<path fill="#e8f0fe" stroke="black" d="M261.03,-162.88C261.03,-162.88 161.78,-162.88 161.78,-162.88 155.78,-162.88 149.78,-156.88 149.78,-150.88 149.78,-150.88 149.78,-127.12 149.78,-127.12 149.78,-121.12 155.78,-115.12 161.78,-115.12 161.78,-115.12 261.03,-115.12 261.03,-115.12 267.03,-115.12 273.03,-121.12 273.03,-127.12 273.03,-127.12 273.03,-150.88 273.03,-150.88 273.03,-156.88 267.03,-162.88 261.03,-162.88"/>
<text xml:space="preserve" text-anchor="middle" x="211.41" y="-148.43" font-family="Helvetica,sans-Serif" font-size="11.00">plan_top_k()</text>
<text xml:space="preserve" text-anchor="middle" x="211.41" y="-136.43" font-family="Helvetica,sans-Serif" font-size="11.00">(E0433: beam search)</text>
<text xml:space="preserve" text-anchor="middle" x="211.41" y="-124.42" font-family="Helvetica,sans-Serif" font-size="11.00">其他: 回退 plan()</text>
</g>
<!-- diags_multi&#45;&gt;plan_topk -->
<g id="edge2" class="edge">
<title>diags_multi&#45;&gt;plan_topk</title>
<path fill="none" stroke="black" d="M113.07,-138.36C121.17,-138.42 129.62,-138.47 138,-138.53"/>
<polygon fill="black" stroke="black" points="137.81,-142.03 147.83,-138.59 137.86,-135.03 137.81,-142.03"/>
</g>
<!-- registry -->
<g id="node6" class="node">
<title>registry</title>
<path fill="#fff9c4" stroke="black" d="M462.28,-228.12C462.28,-228.12 354.78,-228.12 354.78,-228.12 348.78,-228.12 342.78,-222.12 342.78,-216.12 342.78,-216.12 342.78,-193.88 342.78,-193.88 342.78,-187.88 348.78,-181.88 354.78,-181.88 354.78,-181.88 462.28,-181.88 462.28,-181.88 468.28,-181.88 474.28,-187.88 474.28,-193.88 474.28,-193.88 474.28,-216.12 474.28,-216.12 474.28,-222.12 468.28,-228.12 462.28,-228.12"/>
<text xml:space="preserve" text-anchor="middle" x="408.53" y="-213.68" font-family="Helvetica,sans-Serif" font-size="11.00">PatcherRegistry</text>
<text xml:space="preserve" text-anchor="middle" x="408.53" y="-201.68" font-family="Helvetica,sans-Serif" font-size="11.00">get_patcher(ErrorCode)</text>
<text xml:space="preserve" text-anchor="middle" x="408.53" y="-189.68" font-family="Helvetica,sans-Serif" font-size="11.00">→ dyn Patcher</text>
</g>
<!-- plan_single&#45;&gt;registry -->
<g id="edge3" class="edge">
<title>plan_single&#45;&gt;registry</title>
<path fill="none" stroke="black" d="M270.69,-214.9C277.53,-215.76 284.42,-216.5 291.03,-217 304.1,-217.99 317.97,-217.72 331.42,-216.77"/>
<polygon fill="black" stroke="black" points="331.41,-220.28 341.07,-215.94 330.81,-213.31 331.41,-220.28"/>
<text xml:space="preserve" text-anchor="middle" x="307.91" y="-223.12" font-family="Helvetica,sans-Serif" font-size="10.00">查询</text>
</g>
<!-- gcp -->
<g id="node10" class="node">
<title>gcp</title>
<path fill="#c8e6c9" stroke="black" d="M460.41,-148C460.41,-148 356.66,-148 356.66,-148 350.66,-148 344.66,-142 344.66,-136 344.66,-136 344.66,-116 344.66,-116 344.66,-110 350.66,-104 356.66,-104 356.66,-104 460.41,-104 460.41,-104 466.41,-104 472.41,-110 472.41,-116 472.41,-116 472.41,-136 472.41,-136 472.41,-142 466.41,-148 460.41,-148"/>
<text xml:space="preserve" text-anchor="middle" x="408.53" y="-133.55" font-family="Helvetica,sans-Serif" font-size="11.00">GlobalCandidatePlan</text>
<text xml:space="preserve" text-anchor="middle" x="408.53" y="-121.55" font-family="Helvetica,sans-Serif" font-size="11.00">candidate_id, actions,</text>
<text xml:space="preserve" text-anchor="middle" x="408.53" y="-109.55" font-family="Helvetica,sans-Serif" font-size="11.00">diagnostic_index, score</text>
</g>
<!-- plan_single&#45;&gt;gcp -->
<g id="edge6" class="edge">
<title>plan_single&#45;&gt;gcp</title>
<path fill="none" stroke="black" d="M270.69,-181.4C293.09,-172.34 318.8,-161.93 341.85,-152.59"/>
<polygon fill="black" stroke="black" points="342.87,-155.96 350.83,-148.96 340.24,-149.47 342.87,-155.96"/>
</g>
<!-- plan_topk&#45;&gt;registry -->
<g id="edge4" class="edge">
<title>plan_topk&#45;&gt;registry</title>
<path fill="none" stroke="black" d="M273.34,-159.61C291.75,-165.84 312.19,-172.75 331.46,-179.27"/>
<polygon fill="black" stroke="black" points="330.3,-182.57 340.89,-182.46 332.54,-175.94 330.3,-182.57"/>
<text xml:space="preserve" text-anchor="middle" x="307.91" y="-181.45" font-family="Helvetica,sans-Serif" font-size="10.00">查询</text>
</g>
<!-- plan_topk&#45;&gt;gcp -->
<g id="edge7" class="edge">
<title>plan_topk&#45;&gt;gcp</title>
<path fill="none" stroke="black" d="M273.18,-125.38C279.19,-124.41 285.21,-123.59 291.03,-123 304.61,-121.63 319.13,-121.19 333.14,-121.29"/>
<polygon fill="black" stroke="black" points="332.67,-124.78 342.73,-121.45 332.79,-117.78 332.67,-124.78"/>
</g>
<!-- apply_planned -->
<g id="node5" class="node">
<title>apply_planned</title>
<path fill="#e8f0fe" stroke="black" d="M246.03,-96.75C246.03,-96.75 176.78,-96.75 176.78,-96.75 170.78,-96.75 164.78,-90.75 164.78,-84.75 164.78,-84.75 164.78,-57.25 164.78,-57.25 164.78,-51.25 170.78,-45.25 176.78,-45.25 176.78,-45.25 246.03,-45.25 246.03,-45.25 252.03,-45.25 258.03,-51.25 258.03,-57.25 258.03,-57.25 258.03,-84.75 258.03,-84.75 258.03,-90.75 252.03,-96.75 246.03,-96.75"/>
<text xml:space="preserve" text-anchor="middle" x="211.41" y="-82.3" font-family="Helvetica,sans-Serif" font-size="11.00">apply_planned()</text>
<text xml:space="preserve" text-anchor="middle" x="211.41" y="-70.3" font-family="Helvetica,sans-Serif" font-size="11.00">应用 FixAction</text>
<text xml:space="preserve" text-anchor="middle" x="211.41" y="-54.55" font-family="Helvetica,sans-Serif" font-size="11.00">到源文件</text>
</g>
<!-- conflict -->
<g id="node7" class="node">
<title>conflict</title>
<path fill="#e8f5e9" stroke="black" d="M455.91,-67.75C455.91,-67.75 361.16,-67.75 361.16,-67.75 355.16,-67.75 349.16,-61.75 349.16,-55.75 349.16,-55.75 349.16,-28.25 349.16,-28.25 349.16,-22.25 355.16,-16.25 361.16,-16.25 361.16,-16.25 455.91,-16.25 455.91,-16.25 461.91,-16.25 467.91,-22.25 467.91,-28.25 467.91,-28.25 467.91,-55.75 467.91,-55.75 467.91,-61.75 461.91,-67.75 455.91,-67.75"/>
<text xml:space="preserve" text-anchor="middle" x="408.53" y="-53.3" font-family="Helvetica,sans-Serif" font-size="11.00">ensure_no_conflicts()</text>
<text xml:space="preserve" text-anchor="middle" x="408.53" y="-41.3" font-family="Helvetica,sans-Serif" font-size="11.00">按 (file, offset) 排序</text>
<text xml:space="preserve" text-anchor="middle" x="408.53" y="-25.55" font-family="Helvetica,sans-Serif" font-size="11.00">检测字节范围重叠</text>
</g>
<!-- apply_planned&#45;&gt;conflict -->
<g id="edge9" class="edge">
<title>apply_planned&#45;&gt;conflict</title>
<path fill="none" stroke="black" d="M258.16,-64.2C281.81,-60.69 311.19,-56.32 337.62,-52.39"/>
<polygon fill="black" stroke="black" points="337.87,-55.89 347.24,-50.96 336.84,-48.97 337.87,-55.89"/>
</g>
<!-- registry&#45;&gt;plan_single -->
<g id="edge5" class="edge">
<title>registry&#45;&gt;plan_single</title>
<path fill="none" stroke="black" stroke-dasharray="5,2" d="M342.53,-203.87C325.75,-203.7 307.72,-203.62 291.03,-203.75 288.17,-203.77 285.24,-203.8 282.29,-203.83"/>
<polygon fill="black" stroke="black" points="282.27,-200.33 272.31,-203.95 282.35,-207.33 282.27,-200.33"/>
<text xml:space="preserve" text-anchor="middle" x="307.91" y="-205.5" font-family="Helvetica,sans-Serif" font-size="10.00">Patcher</text>
</g>
<!-- validate -->
<g id="node9" class="node">
<title>validate</title>
<path fill="#e8f5e9" stroke="black" d="M617.28,-60C617.28,-60 523.28,-60 523.28,-60 517.28,-60 511.28,-54 511.28,-48 511.28,-48 511.28,-36 511.28,-36 511.28,-30 517.28,-24 523.28,-24 523.28,-24 617.28,-24 617.28,-24 623.28,-24 629.28,-30 629.28,-36 629.28,-36 629.28,-48 629.28,-48 629.28,-54 623.28,-60 617.28,-60"/>
<text xml:space="preserve" text-anchor="middle" x="570.28" y="-45.42" font-family="Helvetica,sans-Serif" font-size="11.00">validate_range()</text>
<text xml:space="preserve" text-anchor="middle" x="570.28" y="-33.42" font-family="Helvetica,sans-Serif" font-size="11.00">UTF&#45;8 字节边界校验</text>
</g>
<!-- conflict&#45;&gt;validate -->
<g id="edge10" class="edge">
<title>conflict&#45;&gt;validate</title>
<path fill="none" stroke="black" d="M468.11,-42C478.38,-42 489.15,-42 499.68,-42"/>
<polygon fill="black" stroke="black" points="499.47,-45.5 509.47,-42 499.47,-38.5 499.47,-45.5"/>
</g>
<!-- apply_rep -->
<g id="node8" class="node">
<title>apply_rep</title>
<path fill="#e8f5e9" stroke="black" d="M773.78,-67.75C773.78,-67.75 678.28,-67.75 678.28,-67.75 672.28,-67.75 666.28,-61.75 666.28,-55.75 666.28,-55.75 666.28,-28.25 666.28,-28.25 666.28,-22.25 672.28,-16.25 678.28,-16.25 678.28,-16.25 773.78,-16.25 773.78,-16.25 779.78,-16.25 785.78,-22.25 785.78,-28.25 785.78,-28.25 785.78,-55.75 785.78,-55.75 785.78,-61.75 779.78,-67.75 773.78,-67.75"/>
<text xml:space="preserve" text-anchor="middle" x="726.03" y="-53.3" font-family="Helvetica,sans-Serif" font-size="11.00">apply_replacements()</text>
<text xml:space="preserve" text-anchor="middle" x="726.03" y="-41.3" font-family="Helvetica,sans-Serif" font-size="11.00">从右到左应用</text>
<text xml:space="preserve" text-anchor="middle" x="726.03" y="-25.55" font-family="Helvetica,sans-Serif" font-size="11.00">保持字节偏移稳定</text>
</g>
<!-- modified -->
<g id="node11" class="node">
<title>modified</title>
<ellipse fill="#c8e6c9" stroke="black" cx="878.34" cy="-42" rx="55.55" ry="18"/>
<text xml:space="preserve" text-anchor="middle" x="878.34" y="-39.42" font-family="Helvetica,sans-Serif" font-size="11.00">修改后的源码</text>
</g>
<!-- apply_rep&#45;&gt;modified -->
<g id="edge12" class="edge">
<title>apply_rep&#45;&gt;modified</title>
<path fill="none" stroke="black" d="M786.01,-42C794.26,-42 802.79,-42 811.17,-42"/>
<polygon fill="black" stroke="black" points="810.94,-45.5 820.94,-42 810.94,-38.5 810.94,-45.5"/>
</g>
<!-- validate&#45;&gt;apply_rep -->
<g id="edge11" class="edge">
<title>validate&#45;&gt;apply_rep</title>
<path fill="none" stroke="black" d="M629.41,-42C637.59,-42 646.08,-42 654.47,-42"/>
<polygon fill="black" stroke="black" points="654.29,-45.5 664.29,-42 654.29,-38.5 654.29,-45.5"/>
</g>
<!-- gcp&#45;&gt;apply_planned -->
<g id="edge8" class="edge">
<title>gcp&#45;&gt;apply_planned</title>
<path fill="none" stroke="black" d="M344.35,-108.19C320.11,-101.36 292.63,-93.61 269.04,-86.96"/>
<polygon fill="black" stroke="black" points="270.19,-83.65 259.61,-84.31 268.29,-90.39 270.19,-83.65"/>
</g>
</g>
</svg>
