<?xml version="1.0" encoding="UTF-8" standalone="no"?>
<!DOCTYPE svg PUBLIC "-//W3C//DTD SVG 1.1//EN"
 "http://www.w3.org/Graphics/SVG/1.1/DTD/svg11.dtd">
<!-- Generated by graphviz version 14.1.2 (20260124.0452)
 -->
<!-- Title: artifact_timeline Pages: 1 -->
<svg width="1009pt" height="441pt"
 viewBox="0.00 0.00 1009.00 441.00" xmlns="http://www.w3.org/2000/svg" xmlns:xlink="http://www.w3.org/1999/xlink">
<g id="graph0" class="graph" transform="scale(1 1) rotate(0) translate(4 437.25)">
<title>artifact_timeline</title>
<polygon fill="white" stroke="none" points="-4,4 -4,-437.25 1004.75,-437.25 1004.75,4 -4,4"/>
<text xml:space="preserve" text-anchor="middle" x="500.38" y="-415.95" font-family="Helvetica,sans-Serif" font-weight="bold" font-size="14.00">Artifact 产出时间线</text>
<!-- s1 -->
<g id="node1" class="node">
<title>s1</title>
<path fill="#e8f0fe" stroke="black" d="M42,-90C42,-90 12,-90 12,-90 6,-90 0,-84 0,-78 0,-78 0,-66 0,-66 0,-60 6,-54 12,-54 12,-54 42,-54 42,-54 48,-54 54,-60 54,-66 54,-66 54,-78 54,-78 54,-84 48,-90 42,-90"/>
<text xml:space="preserve" text-anchor="middle" x="27" y="-73.75" font-family="Helvetica,sans-Serif" font-size="10.00">Stage 1</text>
<text xml:space="preserve" text-anchor="middle" x="27" y="-62.5" font-family="Helvetica,sans-Serif" font-size="10.00">Compile</text>
</g>
<!-- s2 -->
<g id="node2" class="node">
<title>s2</title>
<path fill="#e8f0fe" stroke="black" d="M148.25,-117C148.25,-117 118.25,-117 118.25,-117 112.25,-117 106.25,-111 106.25,-105 106.25,-105 106.25,-93 106.25,-93 106.25,-87 112.25,-81 118.25,-81 118.25,-81 148.25,-81 148.25,-81 154.25,-81 160.25,-87 160.25,-93 160.25,-93 160.25,-105 160.25,-105 160.25,-111 154.25,-117 148.25,-117"/>
<text xml:space="preserve" text-anchor="middle" x="133.25" y="-100.75" font-family="Helvetica,sans-Serif" font-size="10.00">Stage 2</text>
<text xml:space="preserve" text-anchor="middle" x="133.25" y="-89.5" font-family="Helvetica,sans-Serif" font-size="10.00">Analyze</text>
</g>
<!-- s1&#45;&gt;s2 -->
<g id="edge1" class="edge">
<title>s1&#45;&gt;s2</title>
<path fill="none" stroke="black" d="M54.31,-78.81C66.65,-82.01 81.59,-85.88 95.06,-89.37"/>
<polygon fill="black" stroke="black" points="93.93,-92.69 104.49,-91.81 95.68,-85.91 93.93,-92.69"/>
</g>
<!-- a1 -->
<g id="node8" class="node">
<title>a1</title>
<polygon fill="#bbdefb" stroke="black" points="170.5,-63 90,-63 90,-27 176.5,-27 176.5,-57 170.5,-63"/>
<polyline fill="none" stroke="black" points="170.5,-63 170.5,-57"/>
<polyline fill="none" stroke="black" points="176.5,-57 170.5,-57"/>
<text xml:space="preserve" text-anchor="middle" x="133.25" y="-46.75" font-family="Helvetica,sans-Serif" font-size="10.00">1_compile_</text>
<text xml:space="preserve" text-anchor="middle" x="133.25" y="-35.5" font-family="Helvetica,sans-Serif" font-size="10.00">diagnostics.json</text>
</g>
<!-- s1&#45;&gt;a1 -->
<g id="edge7" class="edge">
<title>s1&#45;&gt;a1</title>
<path fill="none" stroke="black" stroke-dasharray="5,2" d="M54.31,-65.19C61.77,-63.25 70.18,-61.07 78.65,-58.88"/>
<polygon fill="black" stroke="black" points="79.46,-62.29 88.26,-56.39 77.7,-55.51 79.46,-62.29"/>
</g>
<!-- s3 -->
<g id="node3" class="node">
<title>s3</title>
<path fill="#e8f5e9" stroke="black" d="M270.75,-144C270.75,-144 240.75,-144 240.75,-144 234.75,-144 228.75,-138 228.75,-132 228.75,-132 228.75,-120 228.75,-120 228.75,-114 234.75,-108 240.75,-108 240.75,-108 270.75,-108 270.75,-108 276.75,-108 282.75,-114 282.75,-120 282.75,-120 282.75,-132 282.75,-132 282.75,-138 276.75,-144 270.75,-144"/>
<text xml:space="preserve" text-anchor="middle" x="255.75" y="-127.75" font-family="Helvetica,sans-Serif" font-size="10.00">Stage 3</text>
<text xml:space="preserve" text-anchor="middle" x="255.75" y="-116.5" font-family="Helvetica,sans-Serif" font-size="10.00">Plan</text>
</g>
<!-- s2&#45;&gt;s3 -->
<g id="edge2" class="edge">
<title>s2&#45;&gt;s3</title>
<path fill="none" stroke="black" d="M160.69,-104.93C177.25,-108.64 198.85,-113.47 217.17,-117.58"/>
<polygon fill="black" stroke="black" points="216.37,-120.99 226.89,-119.76 217.9,-114.16 216.37,-120.99"/>
</g>
<!-- a2 -->
<g id="node9" class="node">
<title>a2</title>
<polygon fill="#bbdefb" stroke="black" points="293,-90 212.5,-90 212.5,-54 299,-54 299,-84 293,-90"/>
<polyline fill="none" stroke="black" points="293,-90 293,-84"/>
<polyline fill="none" stroke="black" points="299,-84 293,-84"/>
<text xml:space="preserve" text-anchor="middle" x="255.75" y="-73.75" font-family="Helvetica,sans-Serif" font-size="10.00">2_analyzed_</text>
<text xml:space="preserve" text-anchor="middle" x="255.75" y="-62.5" font-family="Helvetica,sans-Serif" font-size="10.00">diagnostics.json</text>
</g>
<!-- s2&#45;&gt;a2 -->
<g id="edge8" class="edge">
<title>s2&#45;&gt;a2</title>
<path fill="none" stroke="black" stroke-dasharray="5,2" d="M160.69,-93.07C172.61,-90.4 187.14,-87.15 201.17,-84"/>
<polygon fill="black" stroke="black" points="201.8,-87.45 210.79,-81.85 200.27,-80.62 201.8,-87.45"/>
</g>
<!-- s4 -->
<g id="node4" class="node">
<title>s4</title>
<path fill="#fff9c4" stroke="black" d="M402.62,-252C402.62,-252 372.62,-252 372.62,-252 366.62,-252 360.62,-246 360.62,-240 360.62,-240 360.62,-228 360.62,-228 360.62,-222 366.62,-216 372.62,-216 372.62,-216 402.62,-216 402.62,-216 408.62,-216 414.62,-222 414.62,-228 414.62,-228 414.62,-240 414.62,-240 414.62,-246 408.62,-252 402.62,-252"/>
<text xml:space="preserve" text-anchor="middle" x="387.62" y="-235.75" font-family="Helvetica,sans-Serif" font-size="10.00">Stage 4</text>
<text xml:space="preserve" text-anchor="middle" x="387.62" y="-224.5" font-family="Helvetica,sans-Serif" font-size="10.00">Verify</text>
</g>
<!-- s3&#45;&gt;s4 -->
<g id="edge3" class="edge">
<title>s3&#45;&gt;s4</title>
<path fill="none" stroke="black" d="M271.5,-144.39C286.25,-161.98 310.26,-188.49 335,-207 339.69,-210.51 344.9,-213.81 350.15,-216.82"/>
<polygon fill="black" stroke="black" points="348.39,-219.84 358.85,-221.51 351.71,-213.68 348.39,-219.84"/>
</g>
<!-- a3a -->
<g id="node10" class="node">
<title>a3a</title>
<polygon fill="#c8e6c9" stroke="black" points="414.38,-198 354.88,-198 354.88,-162 420.38,-162 420.38,-192 414.38,-198"/>
<polyline fill="none" stroke="black" points="414.38,-198 414.38,-192"/>
<polyline fill="none" stroke="black" points="420.38,-192 414.38,-192"/>
<text xml:space="preserve" text-anchor="middle" x="387.62" y="-176.12" font-family="Helvetica,sans-Serif" font-size="10.00">3_plan.json</text>
</g>
<!-- s3&#45;&gt;a3a -->
<g id="edge9" class="edge">
<title>s3&#45;&gt;a3a</title>
<path fill="none" stroke="black" stroke-dasharray="5,2" d="M283.03,-136.93C300.5,-144.19 323.83,-153.89 343.93,-162.25"/>
<polygon fill="black" stroke="black" points="342.43,-165.41 353,-166.02 345.11,-158.95 342.43,-165.41"/>
</g>
<!-- a3b -->
<g id="node11" class="node">
<title>a3b</title>
<polygon fill="#c8e6c9" stroke="black" points="423.75,-144 345.5,-144 345.5,-108 429.75,-108 429.75,-138 423.75,-144"/>
<polyline fill="none" stroke="black" points="423.75,-144 423.75,-138"/>
<polyline fill="none" stroke="black" points="429.75,-138 423.75,-138"/>
<text xml:space="preserve" text-anchor="middle" x="387.62" y="-127.75" font-family="Helvetica,sans-Serif" font-size="10.00">3_plan_</text>
<text xml:space="preserve" text-anchor="middle" x="387.62" y="-116.5" font-family="Helvetica,sans-Serif" font-size="10.00">candidates.json</text>
</g>
<!-- s3&#45;&gt;a3b -->
<g id="edge10" class="edge">
<title>s3&#45;&gt;a3b</title>
<path fill="none" stroke="black" stroke-dasharray="5,2" d="M283.03,-126C297.62,-126 316.31,-126 333.79,-126"/>
<polygon fill="black" stroke="black" points="333.53,-129.5 343.53,-126 333.53,-122.5 333.53,-129.5"/>
</g>
<!-- a3c -->
<g id="node12" class="node">
<title>a3c</title>
<polygon fill="#c8e6c9" stroke="black" points="433.5,-90 335.75,-90 335.75,-54 439.5,-54 439.5,-84 433.5,-90"/>
<polyline fill="none" stroke="black" points="433.5,-90 433.5,-84"/>
<polyline fill="none" stroke="black" points="439.5,-84 433.5,-84"/>
<text xml:space="preserve" text-anchor="middle" x="387.62" y="-73.75" font-family="Helvetica,sans-Serif" font-size="10.00">3_function_</text>
<text xml:space="preserve" text-anchor="middle" x="387.62" y="-62.5" font-family="Helvetica,sans-Serif" font-size="10.00">dispatch_report.json</text>
</g>
<!-- s3&#45;&gt;a3c -->
<g id="edge11" class="edge">
<title>s3&#45;&gt;a3c</title>
<path fill="none" stroke="black" stroke-dasharray="5,2" d="M283.03,-115.07C297.09,-109.23 314.94,-101.8 331.86,-94.77"/>
<polygon fill="black" stroke="black" points="332.93,-98.11 340.82,-91.04 330.25,-91.65 332.93,-98.11"/>
</g>
<!-- a3d -->
<g id="node13" class="node">
<title>a3d</title>
<polygon fill="#c8e6c9" stroke="black" points="434.25,-36 335,-36 335,0 440.25,0 440.25,-30 434.25,-36"/>
<polyline fill="none" stroke="black" points="434.25,-36 434.25,-30"/>
<polyline fill="none" stroke="black" points="440.25,-30 434.25,-30"/>
<text xml:space="preserve" text-anchor="middle" x="387.62" y="-19.75" font-family="Helvetica,sans-Serif" font-size="10.00">3_function_</text>
<text xml:space="preserve" text-anchor="middle" x="387.62" y="-8.5" font-family="Helvetica,sans-Serif" font-size="10.00">rule_candidates.json</text>
</g>
<!-- s3&#45;&gt;a3d -->
<g id="edge12" class="edge">
<title>s3&#45;&gt;a3d</title>
<path fill="none" stroke="black" stroke-dasharray="5,2" d="M283.03,-111.6C288.63,-107.89 294.28,-103.63 299,-99 319.59,-78.8 313.55,-64.29 335,-45 335.76,-44.32 336.53,-43.65 337.33,-42.99"/>
<polygon fill="black" stroke="black" points="339.13,-46.01 345.16,-37.31 335.01,-40.35 339.13,-46.01"/>
</g>
<!-- s4_llm -->
<g id="node5" class="node">
<title>s4_llm</title>
<path fill="#e8f5e9" stroke="black" d="M565,-320C565,-320 533.25,-320 533.25,-320 527.25,-320 521.25,-314 521.25,-308 521.25,-308 521.25,-296 521.25,-296 521.25,-290 527.25,-284 533.25,-284 533.25,-284 565,-284 565,-284 571,-284 577,-290 577,-296 577,-296 577,-308 577,-308 577,-314 571,-320 565,-320"/>
<text xml:space="preserve" text-anchor="middle" x="549.12" y="-303.75" font-family="Helvetica,sans-Serif" font-size="10.00">Stage 4+</text>
<text xml:space="preserve" text-anchor="middle" x="549.12" y="-292.5" font-family="Helvetica,sans-Serif" font-size="10.00">LLM</text>
</g>
<!-- s4&#45;&gt;s4_llm -->
<g id="edge4" class="edge">
<title>s4&#45;&gt;s4_llm</title>
<path fill="none" stroke="black" d="M414.84,-246.92C432.13,-255.28 455.35,-266.2 476.25,-275 487.21,-279.62 499.27,-284.3 510.32,-288.43"/>
<polygon fill="black" stroke="black" points="508.95,-291.66 519.54,-291.84 511.38,-285.09 508.95,-291.66"/>
</g>
<!-- a4a -->
<g id="node14" class="node">
<title>a4a</title>
<polygon fill="#fff9c4" stroke="black" points="616,-266.12 476.25,-266.12 476.25,-201.88 622,-201.88 622,-260.12 616,-266.12"/>
<polyline fill="none" stroke="black" points="616,-266.12 616,-260.12"/>
<polyline fill="none" stroke="black" points="622,-260.12 616,-260.12"/>
<text xml:space="preserve" text-anchor="middle" x="549.12" y="-252.62" font-family="Helvetica,sans-Serif" font-size="10.00">verify/</text>
<text xml:space="preserve" text-anchor="middle" x="549.12" y="-241.38" font-family="Helvetica,sans-Serif" font-size="10.00">4_report.json</text>
<text xml:space="preserve" text-anchor="middle" x="549.12" y="-230.12" font-family="Helvetica,sans-Serif" font-size="10.00">4_function_verify_rounds.json</text>
<text xml:space="preserve" text-anchor="middle" x="549.12" y="-218.88" font-family="Helvetica,sans-Serif" font-size="10.00">4_check.stdout.log</text>
<text xml:space="preserve" text-anchor="middle" x="549.12" y="-207.62" font-family="Helvetica,sans-Serif" font-size="10.00">4_check.stderr.log</text>
</g>
<!-- s4&#45;&gt;a4a -->
<g id="edge13" class="edge">
<title>s4&#45;&gt;a4a</title>
<path fill="none" stroke="black" stroke-dasharray="5,2" d="M414.96,-234C428.75,-234 446.47,-234 464.46,-234"/>
<polygon fill="black" stroke="black" points="464.46,-237.5 474.46,-234 464.46,-230.5 464.46,-237.5"/>
</g>
<!-- a4b -->
<g id="node15" class="node">
<title>a4b</title>
<polygon fill="#fff9c4" stroke="black" points="591.62,-184 500.62,-184 500.62,-148 597.62,-148 597.62,-178 591.62,-184"/>
<polyline fill="none" stroke="black" points="591.62,-184 591.62,-178"/>
<polyline fill="none" stroke="black" points="597.62,-178 591.62,-178"/>
<text xml:space="preserve" text-anchor="middle" x="549.12" y="-162.12" font-family="Helvetica,sans-Serif" font-size="10.00">4_partial_plan.json</text>
</g>
<!-- s4&#45;&gt;a4b -->
<g id="edge14" class="edge">
<title>s4&#45;&gt;a4b</title>
<path fill="none" stroke="black" stroke-dasharray="5,2" d="M414.84,-221.08C432.13,-212.72 455.35,-201.8 476.25,-193 480.6,-191.17 485.13,-189.32 489.7,-187.51"/>
<polygon fill="black" stroke="black" points="490.91,-190.79 498.95,-183.89 488.37,-184.27 490.91,-190.79"/>
</g>
<!-- s5 -->
<g id="node6" class="node">
<title>s5</title>
<path fill="#fce4ec" stroke="black" d="M725.25,-351C725.25,-351 695.25,-351 695.25,-351 689.25,-351 683.25,-345 683.25,-339 683.25,-339 683.25,-327 683.25,-327 683.25,-321 689.25,-315 695.25,-315 695.25,-315 725.25,-315 725.25,-315 731.25,-315 737.25,-321 737.25,-327 737.25,-327 737.25,-339 737.25,-339 737.25,-345 731.25,-351 725.25,-351"/>
<text xml:space="preserve" text-anchor="middle" x="710.25" y="-334.75" font-family="Helvetica,sans-Serif" font-size="10.00">Stage 5</text>
<text xml:space="preserve" text-anchor="middle" x="710.25" y="-323.5" font-family="Helvetica,sans-Serif" font-size="10.00">Apply</text>
</g>
<!-- s4_llm&#45;&gt;s5 -->
<g id="edge5" class="edge">
<title>s4_llm&#45;&gt;s5</title>
<path fill="none" stroke="black" d="M577.48,-307.33C603.41,-312.38 642.58,-320.01 671.48,-325.64"/>
<polygon fill="black" stroke="black" points="670.81,-329.08 681.3,-327.55 672.15,-322.21 670.81,-329.08"/>
</g>
<!-- a4c -->
<g id="node16" class="node">
<title>a4c</title>
<polygon fill="#c8e6c9" stroke="black" points="756.5,-296.5 658,-296.5 658,-243.5 762.5,-243.5 762.5,-290.5 756.5,-296.5"/>
<polyline fill="none" stroke="black" points="756.5,-296.5 756.5,-290.5"/>
<polyline fill="none" stroke="black" points="762.5,-290.5 756.5,-290.5"/>
<text xml:space="preserve" text-anchor="middle" x="710.25" y="-283" font-family="Helvetica,sans-Serif" font-size="10.00">4_llm_handoff.json</text>
<text xml:space="preserve" text-anchor="middle" x="710.25" y="-271.75" font-family="Helvetica,sans-Serif" font-size="10.00">4_llm_attempts.json</text>
<text xml:space="preserve" text-anchor="middle" x="710.25" y="-260.5" font-family="Helvetica,sans-Serif" font-size="10.00">4_llm_contexts.json</text>
<text xml:space="preserve" text-anchor="middle" x="710.25" y="-249.25" font-family="Helvetica,sans-Serif" font-size="10.00">4_llm_io_debug.json</text>
</g>
<!-- s4_llm&#45;&gt;a4c -->
<g id="edge15" class="edge">
<title>s4_llm&#45;&gt;a4c</title>
<path fill="none" stroke="black" stroke-dasharray="5,2" d="M577.48,-296.5C596.43,-292.69 622.45,-287.46 646.36,-282.65"/>
<polygon fill="black" stroke="black" points="646.93,-286.1 656.05,-280.7 645.55,-279.24 646.93,-286.1"/>
</g>
<!-- s6 -->
<g id="node7" class="node">
<title>s6</title>
<path fill="#e8f0fe" stroke="black" d="M859.12,-405C859.12,-405 817.62,-405 817.62,-405 811.62,-405 805.62,-399 805.62,-393 805.62,-393 805.62,-381 805.62,-381 805.62,-375 811.62,-369 817.62,-369 817.62,-369 859.12,-369 859.12,-369 865.12,-369 871.12,-375 871.12,-381 871.12,-381 871.12,-393 871.12,-393 871.12,-399 865.12,-405 859.12,-405"/>
<text xml:space="preserve" text-anchor="middle" x="838.38" y="-388.75" font-family="Helvetica,sans-Serif" font-size="10.00">Stage 6</text>
<text xml:space="preserve" text-anchor="middle" x="838.38" y="-377.5" font-family="Helvetica,sans-Serif" font-size="10.00">Summarize</text>
</g>
<!-- s5&#45;&gt;s6 -->
<g id="edge6" class="edge">
<title>s5&#45;&gt;s6</title>
<path fill="none" stroke="black" d="M737.69,-344.32C754.19,-351.39 775.81,-360.64 794.7,-368.73"/>
<polygon fill="black" stroke="black" points="793.19,-371.89 803.76,-372.61 795.94,-365.45 793.19,-371.89"/>
</g>
<!-- a5a -->
<g id="node17" class="node">
<title>a5a</title>
<polygon fill="#ffcdd2" stroke="black" points="872.25,-351 798.5,-351 798.5,-315 878.25,-315 878.25,-345 872.25,-351"/>
<polyline fill="none" stroke="black" points="872.25,-351 872.25,-345"/>
<polyline fill="none" stroke="black" points="878.25,-345 872.25,-345"/>
<text xml:space="preserve" text-anchor="middle" x="838.38" y="-329.12" font-family="Helvetica,sans-Serif" font-size="10.00">5_changes.diff</text>
</g>
<!-- s5&#45;&gt;a5a -->
<g id="edge16" class="edge">
<title>s5&#45;&gt;a5a</title>
<path fill="none" stroke="black" stroke-dasharray="5,2" d="M737.69,-333C751.89,-333 769.89,-333 786.67,-333"/>
<polygon fill="black" stroke="black" points="786.52,-336.5 796.52,-333 786.52,-329.5 786.52,-336.5"/>
</g>
<!-- a5b -->
<g id="node18" class="node">
<title>a5b</title>
<polygon fill="#ffcdd2" stroke="black" points="867.75,-297 803,-297 803,-261 873.75,-261 873.75,-291 867.75,-297"/>
<polyline fill="none" stroke="black" points="867.75,-297 867.75,-291"/>
<polyline fill="none" stroke="black" points="873.75,-291 867.75,-291"/>
<text xml:space="preserve" text-anchor="middle" x="838.38" y="-282.62" font-family="Helvetica,sans-Serif" font-size="10.00">5_updated/</text>
<text xml:space="preserve" text-anchor="middle" x="838.38" y="-271.38" font-family="Helvetica,sans-Serif" font-size="10.00">(源文件副本)</text>
</g>
<!-- s5&#45;&gt;a5b -->
<g id="edge17" class="edge">
<title>s5&#45;&gt;a5b</title>
<path fill="none" stroke="black" stroke-dasharray="5,2" d="M737.69,-321.68C753.51,-314.91 774.04,-306.12 792.35,-298.28"/>
<polygon fill="black" stroke="black" points="793.61,-301.54 801.43,-294.39 790.86,-295.11 793.61,-301.54"/>
</g>
<!-- a6 -->
<g id="node19" class="node">
<title>a6</title>
<polygon fill="#bbdefb" stroke="black" points="994.75,-405 914.25,-405 914.25,-369 1000.75,-369 1000.75,-399 994.75,-405"/>
<polyline fill="none" stroke="black" points="994.75,-405 994.75,-399"/>
<polyline fill="none" stroke="black" points="1000.75,-399 994.75,-399"/>
<text xml:space="preserve" text-anchor="middle" x="957.5" y="-383.12" font-family="Helvetica,sans-Serif" font-size="10.00">6_summary.json</text>
</g>
<!-- s6&#45;&gt;a6 -->
<g id="edge18" class="edge">
<title>s6&#45;&gt;a6</title>
<path fill="none" stroke="black" stroke-dasharray="5,2" d="M871.38,-387C881.03,-387 891.9,-387 902.56,-387"/>
<polygon fill="black" stroke="black" points="902.47,-390.5 912.47,-387 902.47,-383.5 902.47,-390.5"/>
</g>
</g>
</svg>
