<?xml version="1.0" encoding="UTF-8" standalone="no"?>
<!DOCTYPE svg PUBLIC "-//W3C//DTD SVG 1.1//EN"
 "http://www.w3.org/Graphics/SVG/1.1/DTD/svg11.dtd">
<!-- Generated by graphviz version 14.1.2 (20260124.0452)
 -->
<!-- Title: e0432_layers Pages: 1 -->
<svg width="447pt" height="1077pt"
 viewBox="0.00 0.00 447.00 1077.00" xmlns="http://www.w3.org/2000/svg" xmlns:xlink="http://www.w3.org/1999/xlink">
<g id="graph0" class="graph" transform="scale(1 1) rotate(0) translate(4 1072.67)">
<title>e0432_layers</title>
<polygon fill="white" stroke="none" points="-4,4 -4,-1072.67 442.95,-1072.67 442.95,4 -4,4"/>
<text xml:space="preserve" text-anchor="middle" x="219.48" y="-1051.37" font-family="Helvetica,sans-Serif" font-weight="bold" font-size="14.00">E0432Patcher 三轨架构与级联阻断验证</text>
<g id="clust1" class="cluster">
<title>cluster_l1</title>
<path fill="#e8f0fe" fill-opacity="0.301961" stroke="#1a73e8" d="M85,-768.92C85,-768.92 277,-768.92 277,-768.92 283,-768.92 289,-774.92 289,-780.92 289,-780.92 289,-956.17 289,-956.17 289,-962.17 283,-968.17 277,-968.17 277,-968.17 85,-968.17 85,-968.17 79,-968.17 73,-962.17 73,-956.17 73,-956.17 73,-780.92 73,-780.92 73,-774.92 79,-768.92 85,-768.92"/>
<text xml:space="preserve" text-anchor="middle" x="126" y="-953.72" font-family="Helvetica,sans-Serif" font-weight="bold" font-size="11.00">第一层：证据提取</text>
</g>
<g id="clust2" class="cluster">
<title>cluster_l2</title>
<path fill="#e8f5e9" fill-opacity="0.301961" stroke="#2e7d32" d="M20,-449.92C20,-449.92 380,-449.92 380,-449.92 386,-449.92 392,-455.92 392,-461.92 392,-461.92 392,-737.92 392,-737.92 392,-743.92 386,-749.92 380,-749.92 380,-749.92 20,-749.92 20,-749.92 14,-749.92 8,-743.92 8,-737.92 8,-737.92 8,-461.92 8,-461.92 8,-455.92 14,-449.92 20,-449.92"/>
<text xml:space="preserve" text-anchor="middle" x="72.25" y="-735.47" font-family="Helvetica,sans-Serif" font-weight="bold" font-size="11.00">第二层：三轨候选构建</text>
</g>
<g id="clust3" class="cluster">
<title>cluster_l3</title>
<path fill="#fce4ec" fill-opacity="0.301961" stroke="#c62828" d="M141,-90.39C141,-90.39 269,-90.39 269,-90.39 275,-90.39 281,-96.39 281,-102.39 281,-102.39 281,-418.92 281,-418.92 281,-424.92 275,-430.92 269,-430.92 269,-430.92 141,-430.92 141,-430.92 135,-430.92 129,-424.92 129,-418.92 129,-418.92 129,-102.39 129,-102.39 129,-96.39 135,-90.39 141,-90.39"/>
<text xml:space="preserve" text-anchor="middle" x="193.25" y="-416.47" font-family="Helvetica,sans-Serif" font-weight="bold" font-size="11.00">第三层：级联阻断验证</text>
</g>
<!-- diag -->
<g id="node1" class="node">
<title>diag</title>
<ellipse fill="#fff3e0" stroke="black" cx="182" cy="-1017.8" rx="46.85" ry="22.63"/>
<text xml:space="preserve" text-anchor="middle" x="182" y="-1019.35" font-family="Helvetica,sans-Serif" font-size="11.00">Diagnostic</text>
<text xml:space="preserve" text-anchor="middle" x="182" y="-1007.35" font-family="Helvetica,sans-Serif" font-size="11.00">(E0432)</text>
</g>
<!-- msg_parse -->
<g id="node2" class="node">
<title>msg_parse</title>
<path fill="#e8f0fe" stroke="black" d="M163.38,-928.54C163.38,-928.54 92.62,-928.54 92.62,-928.54 86.62,-928.54 80.62,-922.54 80.62,-916.54 80.62,-916.54 80.62,-885.29 80.62,-885.29 80.62,-879.29 86.62,-873.29 92.62,-873.29 92.62,-873.29 163.38,-873.29 163.38,-873.29 169.38,-873.29 175.38,-879.29 175.38,-885.29 175.38,-885.29 175.38,-916.54 175.38,-916.54 175.38,-922.54 169.38,-928.54 163.38,-928.54"/>
<text xml:space="preserve" text-anchor="middle" x="128" y="-914.09" font-family="Helvetica,sans-Serif" font-size="11.00">消息解析</text>
<text xml:space="preserve" text-anchor="middle" x="128" y="-898.34" font-family="Helvetica,sans-Serif" font-size="11.00">正则提取 head</text>
<text xml:space="preserve" text-anchor="middle" x="128" y="-882.59" font-family="Helvetica,sans-Serif" font-size="11.00">从反引号路径中</text>
</g>
<!-- diag&#45;&gt;msg_parse -->
<g id="edge1" class="edge">
<title>diag&#45;&gt;msg_parse</title>
<path fill="none" stroke="black" d="M171.97,-995.46C164.54,-979.66 154.23,-957.72 145.46,-939.06"/>
<polygon fill="black" stroke="black" points="148.71,-937.74 141.29,-930.18 142.37,-940.72 148.71,-937.74"/>
</g>
<!-- ctx_detect -->
<g id="node4" class="node">
<title>ctx_detect</title>
<path fill="#e8f0fe" stroke="black" d="M269,-936.42C269,-936.42 205,-936.42 205,-936.42 199,-936.42 193,-930.42 193,-924.42 193,-924.42 193,-877.42 193,-877.42 193,-871.42 199,-865.42 205,-865.42 205,-865.42 269,-865.42 269,-865.42 275,-865.42 281,-871.42 281,-877.42 281,-877.42 281,-924.42 281,-924.42 281,-930.42 275,-936.42 269,-936.42"/>
<text xml:space="preserve" text-anchor="middle" x="237" y="-921.97" font-family="Helvetica,sans-Serif" font-size="11.00">上下文检测</text>
<text xml:space="preserve" text-anchor="middle" x="237" y="-906.22" font-family="Helvetica,sans-Serif" font-size="11.00">单行 span？</text>
<text xml:space="preserve" text-anchor="middle" x="237" y="-890.47" font-family="Helvetica,sans-Serif" font-size="11.00">use ... ; 语法？</text>
<text xml:space="preserve" text-anchor="middle" x="237" y="-874.72" font-family="Helvetica,sans-Serif" font-size="11.00">测试语境？</text>
</g>
<!-- diag&#45;&gt;ctx_detect -->
<g id="edge2" class="edge">
<title>diag&#45;&gt;ctx_detect</title>
<path fill="none" stroke="black" d="M192.22,-995.46C198.75,-981.81 207.47,-963.59 215.49,-946.86"/>
<polygon fill="black" stroke="black" points="218.54,-948.58 219.7,-938.05 212.23,-945.56 218.54,-948.58"/>
</g>
<!-- cargo_load -->
<g id="node3" class="node">
<title>cargo_load</title>
<path fill="#e8f0fe" stroke="black" d="M189.38,-828.42C189.38,-828.42 100.62,-828.42 100.62,-828.42 94.62,-828.42 88.62,-822.42 88.62,-816.42 88.62,-816.42 88.62,-788.92 88.62,-788.92 88.62,-782.92 94.62,-776.92 100.62,-776.92 100.62,-776.92 189.38,-776.92 189.38,-776.92 195.38,-776.92 201.38,-782.92 201.38,-788.92 201.38,-788.92 201.38,-816.42 201.38,-816.42 201.38,-822.42 195.38,-828.42 189.38,-828.42"/>
<text xml:space="preserve" text-anchor="middle" x="145" y="-813.97" font-family="Helvetica,sans-Serif" font-size="11.00">Cargo.toml 加载</text>
<text xml:space="preserve" text-anchor="middle" x="145" y="-798.22" font-family="Helvetica,sans-Serif" font-size="11.00">locate_manifest()</text>
<text xml:space="preserve" text-anchor="middle" x="145" y="-786.22" font-family="Helvetica,sans-Serif" font-size="11.00">获取 package.name</text>
</g>
<!-- msg_parse&#45;&gt;cargo_load -->
<g id="edge3" class="edge">
<title>msg_parse&#45;&gt;cargo_load</title>
<path fill="none" stroke="black" d="M132.78,-872.85C134.57,-862.73 136.63,-851.05 138.55,-840.21"/>
<polygon fill="black" stroke="black" points="141.99,-840.83 140.28,-830.37 135.1,-839.61 141.99,-840.83"/>
</g>
<!-- track_select -->
<g id="node8" class="node">
<title>track_select</title>
<path fill="#fff3e0" stroke="black" d="M194.18,-712.98C194.18,-712.98 67.82,-652.36 67.82,-652.36 62.41,-649.76 62.41,-644.57 67.82,-641.98 67.82,-641.98 194.18,-581.36 194.18,-581.36 199.59,-578.76 210.41,-578.76 215.82,-581.36 215.82,-581.36 342.18,-641.98 342.18,-641.98 347.59,-644.57 347.59,-649.76 342.18,-652.36 342.18,-652.36 215.82,-712.98 215.82,-712.98 210.41,-715.57 199.59,-715.57 194.18,-712.98"/>
<text xml:space="preserve" text-anchor="middle" x="205" y="-668.22" font-family="Helvetica,sans-Serif" font-size="11.00">轨道选择</text>
<text xml:space="preserve" text-anchor="middle" x="205" y="-652.47" font-family="Helvetica,sans-Serif" font-size="11.00">P1 命中 → 停止</text>
<text xml:space="preserve" text-anchor="middle" x="205" y="-636.72" font-family="Helvetica,sans-Serif" font-size="11.00">P1 miss + R1 命中 → 停止</text>
<text xml:space="preserve" text-anchor="middle" x="205" y="-620.97" font-family="Helvetica,sans-Serif" font-size="11.00">P1/R1 全 miss → R2</text>
</g>
<!-- cargo_load&#45;&gt;track_select -->
<g id="edge4" class="edge">
<title>cargo_load&#45;&gt;track_select</title>
<path fill="none" stroke="black" d="M154.77,-776.67C161.05,-760.6 169.54,-738.88 177.75,-717.87"/>
<polygon fill="black" stroke="black" points="180.95,-719.31 181.33,-708.73 174.43,-716.77 180.95,-719.31"/>
</g>
<!-- ctx_detect&#45;&gt;track_select -->
<g id="edge5" class="edge">
<title>ctx_detect&#45;&gt;track_select</title>
<path fill="none" stroke="black" d="M232.58,-865.18C228.04,-829.42 220.8,-772.5 214.88,-725.92"/>
<polygon fill="black" stroke="black" points="218.37,-725.61 213.64,-716.14 211.43,-726.5 218.37,-725.61"/>
</g>
<!-- p1 -->
<g id="node5" class="node">
<title>p1</title>
<path fill="#c8e6c9" stroke="black" d="M110,-523.29C110,-523.29 28,-523.29 28,-523.29 22,-523.29 16,-517.29 16,-511.29 16,-511.29 16,-471.79 16,-471.79 16,-465.79 22,-459.79 28,-459.79 28,-459.79 110,-459.79 110,-459.79 116,-459.79 122,-465.79 122,-471.79 122,-471.79 122,-511.29 122,-511.29 122,-517.29 116,-523.29 110,-523.29"/>
<text xml:space="preserve" text-anchor="middle" x="69" y="-508.84" font-family="Helvetica,sans-Serif" font-size="11.00">Track P1</text>
<text xml:space="preserve" text-anchor="middle" x="69" y="-496.84" font-family="Helvetica,sans-Serif" font-size="11.00">编译器建议直通车</text>
<text xml:space="preserve" text-anchor="middle" x="69" y="-481.09" font-family="Helvetica,sans-Serif" font-size="11.00">MachineApplicable</text>
<text xml:space="preserve" text-anchor="middle" x="69" y="-469.09" font-family="Helvetica,sans-Serif" font-size="11.00">贪心非重叠保留</text>
</g>
<!-- verify1 -->
<g id="node9" class="node">
<title>verify1</title>
<path fill="#fce4ec" stroke="black" d="M246.38,-399.17C246.38,-399.17 163.62,-399.17 163.62,-399.17 157.62,-399.17 151.62,-393.17 151.62,-387.17 151.62,-387.17 151.62,-371.67 151.62,-371.67 151.62,-365.67 157.62,-359.67 163.62,-359.67 163.62,-359.67 246.38,-359.67 246.38,-359.67 252.38,-359.67 258.38,-365.67 258.38,-371.67 258.38,-371.67 258.38,-387.17 258.38,-387.17 258.38,-393.17 252.38,-399.17 246.38,-399.17"/>
<text xml:space="preserve" text-anchor="middle" x="205" y="-384.72" font-family="Helvetica,sans-Serif" font-size="11.00">条件 1</text>
<text xml:space="preserve" text-anchor="middle" x="205" y="-368.97" font-family="Helvetica,sans-Serif" font-size="11.00">E0432 数严格下降</text>
</g>
<!-- p1&#45;&gt;verify1 -->
<g id="edge9" class="edge">
<title>p1&#45;&gt;verify1</title>
<path fill="none" stroke="black" d="M107.25,-459.58C127.86,-442.88 153.03,-422.5 172.66,-406.61"/>
<polygon fill="black" stroke="black" points="174.79,-409.39 180.36,-400.37 170.38,-403.95 174.79,-409.39"/>
</g>
<!-- r1 -->
<g id="node6" class="node">
<title>r1</title>
<path fill="#a5d6a7" stroke="black" d="M258,-523.29C258,-523.29 152,-523.29 152,-523.29 146,-523.29 140,-517.29 140,-511.29 140,-511.29 140,-471.79 140,-471.79 140,-465.79 146,-459.79 152,-459.79 152,-459.79 258,-459.79 258,-459.79 264,-459.79 270,-465.79 270,-471.79 270,-471.79 270,-511.29 270,-511.29 270,-517.29 264,-523.29 258,-523.29"/>
<text xml:space="preserve" text-anchor="middle" x="205" y="-508.84" font-family="Helvetica,sans-Serif" font-size="11.00">Track R1</text>
<text xml:space="preserve" text-anchor="middle" x="205" y="-496.84" font-family="Helvetica,sans-Serif" font-size="11.00">根路径精确重写</text>
<text xml:space="preserve" text-anchor="middle" x="205" y="-481.09" font-family="Helvetica,sans-Serif" font-size="11.00">head == package.name</text>
<text xml:space="preserve" text-anchor="middle" x="205" y="-469.09" font-family="Helvetica,sans-Serif" font-size="11.00">→ 替换为 crate::</text>
</g>
<!-- r1&#45;&gt;verify1 -->
<g id="edge10" class="edge">
<title>r1&#45;&gt;verify1</title>
<path fill="none" stroke="black" d="M205,-459.58C205,-444.32 205,-425.98 205,-410.8"/>
<polygon fill="black" stroke="black" points="208.5,-410.93 205,-400.93 201.5,-410.93 208.5,-410.93"/>
</g>
<!-- r2 -->
<g id="node7" class="node">
<title>r2</title>
<path fill="#ffecb3" stroke="black" d="M372.12,-525.17C372.12,-525.17 299.88,-525.17 299.88,-525.17 293.88,-525.17 287.88,-519.17 287.88,-513.17 287.88,-513.17 287.88,-469.92 287.88,-469.92 287.88,-463.92 293.88,-457.92 299.88,-457.92 299.88,-457.92 372.12,-457.92 372.12,-457.92 378.12,-457.92 384.12,-463.92 384.12,-469.92 384.12,-469.92 384.12,-513.17 384.12,-513.17 384.12,-519.17 378.12,-525.17 372.12,-525.17"/>
<text xml:space="preserve" text-anchor="middle" x="336" y="-510.72" font-family="Helvetica,sans-Serif" font-size="11.00">Track R2</text>
<text xml:space="preserve" text-anchor="middle" x="336" y="-498.72" font-family="Helvetica,sans-Serif" font-size="11.00">静默裁切探测</text>
<text xml:space="preserve" text-anchor="middle" x="336" y="-482.97" font-family="Helvetica,sans-Serif" font-size="11.00">仅限测试语境</text>
<text xml:space="preserve" text-anchor="middle" x="336" y="-467.22" font-family="Helvetica,sans-Serif" font-size="11.00">注释化 use 语句</text>
</g>
<!-- r2&#45;&gt;verify1 -->
<g id="edge11" class="edge">
<title>r2&#45;&gt;verify1</title>
<path fill="none" stroke="black" d="M296.7,-457.5C277.4,-441.28 254.46,-422 236.36,-406.78"/>
<polygon fill="black" stroke="black" points="238.96,-404.4 229.05,-400.64 234.46,-409.75 238.96,-404.4"/>
</g>
<!-- track_select&#45;&gt;p1 -->
<g id="edge6" class="edge">
<title>track_select&#45;&gt;p1</title>
<path fill="none" stroke="black" d="M161.22,-596.72C142.69,-575.78 121.39,-551.73 103.94,-532.01"/>
<polygon fill="black" stroke="black" points="106.72,-529.87 97.47,-524.7 101.47,-534.51 106.72,-529.87"/>
<text xml:space="preserve" text-anchor="middle" x="134.57" y="-548.67" font-family="Helvetica,sans-Serif" font-size="10.00">优先</text>
</g>
<!-- track_select&#45;&gt;r1 -->
<g id="edge7" class="edge">
<title>track_select&#45;&gt;r1</title>
<path fill="none" stroke="black" d="M205,-575.65C205,-561.64 205,-547.35 205,-534.66"/>
<polygon fill="black" stroke="black" points="208.5,-535.02 205,-525.02 201.5,-535.02 208.5,-535.02"/>
<text xml:space="preserve" text-anchor="middle" x="223" y="-546.79" font-family="Helvetica,sans-Serif" font-size="10.00">P1 miss</text>
</g>
<!-- track_select&#45;&gt;r2 -->
<g id="edge8" class="edge">
<title>track_select&#45;&gt;r2</title>
<path fill="none" stroke="black" d="M247.53,-596.29C264.77,-576.08 284.43,-553.02 300.83,-533.79"/>
<polygon fill="black" stroke="black" points="303.31,-536.27 307.14,-526.39 297.99,-531.73 303.31,-536.27"/>
<text xml:space="preserve" text-anchor="middle" x="315.76" y="-546.79" font-family="Helvetica,sans-Serif" font-size="10.00">P1/R1 miss</text>
</g>
<!-- verify2 -->
<g id="node10" class="node">
<title>verify2</title>
<path fill="#fce4ec" stroke="black" d="M244.88,-322.67C244.88,-322.67 165.12,-322.67 165.12,-322.67 159.12,-322.67 153.12,-316.67 153.12,-310.67 153.12,-310.67 153.12,-279.42 153.12,-279.42 153.12,-273.42 159.12,-267.42 165.12,-267.42 165.12,-267.42 244.88,-267.42 244.88,-267.42 250.88,-267.42 256.88,-273.42 256.88,-279.42 256.88,-279.42 256.88,-310.67 256.88,-310.67 256.88,-316.67 250.88,-322.67 244.88,-322.67"/>
<text xml:space="preserve" text-anchor="middle" x="205" y="-308.22" font-family="Helvetica,sans-Serif" font-size="11.00">条件 2（零级联）</text>
<text xml:space="preserve" text-anchor="middle" x="205" y="-292.47" font-family="Helvetica,sans-Serif" font-size="11.00">不得新增 E0425</text>
<text xml:space="preserve" text-anchor="middle" x="205" y="-276.72" font-family="Helvetica,sans-Serif" font-size="11.00">不得新增 E0433</text>
</g>
<!-- verify1&#45;&gt;verify2 -->
<g id="edge12" class="edge">
<title>verify1&#45;&gt;verify2</title>
<path fill="none" stroke="black" d="M205,-359.31C205,-351.93 205,-343.2 205,-334.62"/>
<polygon fill="black" stroke="black" points="208.5,-334.67 205,-324.67 201.5,-334.67 208.5,-334.67"/>
</g>
<!-- both_ok -->
<g id="node11" class="node">
<title>both_ok</title>
<path fill="#fff3e0" stroke="black" d="M193.4,-227.35C193.4,-227.35 148.62,-215.49 148.62,-215.49 142.82,-213.96 142.82,-210.88 148.62,-209.35 148.62,-209.35 193.4,-197.49 193.4,-197.49 199.2,-195.96 210.8,-195.96 216.6,-197.49 216.6,-197.49 261.38,-209.35 261.38,-209.35 267.18,-210.88 267.18,-213.96 261.38,-215.49 261.38,-215.49 216.6,-227.35 216.6,-227.35 210.8,-228.88 199.2,-228.88 193.4,-227.35"/>
<text xml:space="preserve" text-anchor="middle" x="205" y="-209.84" font-family="Helvetica,sans-Serif" font-size="11.00">同时满足？</text>
</g>
<!-- verify2&#45;&gt;both_ok -->
<g id="edge13" class="edge">
<title>verify2&#45;&gt;both_ok</title>
<path fill="none" stroke="black" d="M205,-267.2C205,-259.07 205,-250.12 205,-241.89"/>
<polygon fill="black" stroke="black" points="208.5,-242.05 205,-232.05 201.5,-242.05 208.5,-242.05"/>
</g>
<!-- rollback -->
<g id="node12" class="node">
<title>rollback</title>
<path fill="#ffcdd2" stroke="black" d="M235.88,-137.89C235.88,-137.89 174.12,-137.89 174.12,-137.89 168.12,-137.89 162.12,-131.89 162.12,-125.89 162.12,-125.89 162.12,-110.39 162.12,-110.39 162.12,-104.39 168.12,-98.39 174.12,-98.39 174.12,-98.39 235.88,-98.39 235.88,-98.39 241.88,-98.39 247.88,-104.39 247.88,-110.39 247.88,-110.39 247.88,-125.89 247.88,-125.89 247.88,-131.89 241.88,-137.89 235.88,-137.89"/>
<text xml:space="preserve" text-anchor="middle" x="205" y="-123.44" font-family="Helvetica,sans-Serif" font-size="11.00">回滚修复</text>
<text xml:space="preserve" text-anchor="middle" x="205" y="-107.69" font-family="Helvetica,sans-Serif" font-size="11.00">降级移交 LLM</text>
</g>
<!-- both_ok&#45;&gt;rollback -->
<g id="edge15" class="edge">
<title>both_ok&#45;&gt;rollback</title>
<path fill="none" stroke="black" d="M205,-194.06C205,-181.54 205,-164.3 205,-149.52"/>
<polygon fill="black" stroke="black" points="208.5,-149.84 205,-139.84 201.5,-149.84 208.5,-149.84"/>
<text xml:space="preserve" text-anchor="middle" x="209.88" y="-166.92" font-family="Helvetica,sans-Serif" font-size="10.00">否</text>
</g>
<!-- out_ok -->
<g id="node13" class="node">
<title>out_ok</title>
<ellipse fill="#c8e6c9" stroke="black" cx="364" cy="-118.14" rx="74.95" ry="25.28"/>
<text xml:space="preserve" text-anchor="middle" x="364" y="-121.57" font-family="Helvetica,sans-Serif" font-size="11.00">FixAction::Replace</text>
<text xml:space="preserve" text-anchor="middle" x="364" y="-109.57" font-family="Helvetica,sans-Serif" font-size="11.00">(或注释化)</text>
</g>
<!-- both_ok&#45;&gt;out_ok -->
<g id="edge14" class="edge">
<title>both_ok&#45;&gt;out_ok</title>
<path fill="none" stroke="black" d="M225.46,-199.54C248.62,-186.1 287.09,-163.78 317.63,-146.05"/>
<polygon fill="black" stroke="black" points="319.03,-149.29 325.92,-141.24 315.52,-143.23 319.03,-149.29"/>
<text xml:space="preserve" text-anchor="middle" x="294.14" y="-166.92" font-family="Helvetica,sans-Serif" font-size="10.00">是</text>
</g>
<!-- out_fail -->
<g id="node14" class="node">
<title>out_fail</title>
<ellipse fill="#ffcdd2" stroke="black" cx="205" cy="-27.93" rx="54.27" ry="27.93"/>
<text xml:space="preserve" text-anchor="middle" x="205" y="-33.23" font-family="Helvetica,sans-Serif" font-size="11.00">空 Vec</text>
<text xml:space="preserve" text-anchor="middle" x="205" y="-17.48" font-family="Helvetica,sans-Serif" font-size="11.00">→ LLM 处理</text>
</g>
<!-- rollback&#45;&gt;out_fail -->
<g id="edge16" class="edge">
<title>rollback&#45;&gt;out_fail</title>
<path fill="none" stroke="black" d="M205,-98C205,-89 205,-77.92 205,-67.3"/>
<polygon fill="black" stroke="black" points="208.5,-67.58 205,-57.58 201.5,-67.58 208.5,-67.58"/>
</g>
</g>
</svg>
