<?xml version="1.0" encoding="UTF-8" standalone="no"?>
<!DOCTYPE svg PUBLIC "-//W3C//DTD SVG 1.1//EN"
 "http://www.w3.org/Graphics/SVG/1.1/DTD/svg11.dtd">
<!-- Generated by graphviz version 14.1.2 (20260124.0452)
 -->
<!-- Title: e0560_layers Pages: 1 -->
<svg width="594pt" height="1191pt"
 viewBox="0.00 0.00 594.00 1191.00" xmlns="http://www.w3.org/2000/svg" xmlns:xlink="http://www.w3.org/1999/xlink">
<g id="graph0" class="graph" transform="scale(1 1) rotate(0) translate(4 1187.39)">
<title>e0560_layers</title>
<polygon fill="white" stroke="none" points="-4,4 -4,-1187.39 590,-1187.39 590,4 -4,4"/>
<text xml:space="preserve" text-anchor="middle" x="293" y="-1166.09" font-family="Helvetica,sans-Serif" font-weight="bold" font-size="14.00">E0560Patcher 双轨架构与窄口径字段修复</text>
<g id="clust1" class="cluster">
<title>cluster_l1</title>
<path fill="#e8f0fe" fill-opacity="0.301961" stroke="#1a73e8" d="M216,-769.64C216,-769.64 566,-769.64 566,-769.64 572,-769.64 578,-775.64 578,-781.64 578,-781.64 578,-1070.89 578,-1070.89 578,-1076.89 572,-1082.89 566,-1082.89 566,-1082.89 216,-1082.89 216,-1082.89 210,-1082.89 204,-1076.89 204,-1070.89 204,-1070.89 204,-781.64 204,-781.64 204,-775.64 210,-769.64 216,-769.64"/>
<text xml:space="preserve" text-anchor="middle" x="268.25" y="-1068.44" font-family="Helvetica,sans-Serif" font-weight="bold" font-size="11.00">第一层：错误模式分类</text>
</g>
<g id="clust2" class="cluster">
<title>cluster_l2</title>
<path fill="#fff9c4" fill-opacity="0.301961" stroke="#f57f17" d="M218,-521.26C218,-521.26 328,-521.26 328,-521.26 334,-521.26 340,-527.26 340,-533.26 340,-533.26 340,-738.64 340,-738.64 340,-744.64 334,-750.64 328,-750.64 328,-750.64 218,-750.64 218,-750.64 212,-750.64 206,-744.64 206,-738.64 206,-738.64 206,-533.26 206,-533.26 206,-527.26 212,-521.26 218,-521.26"/>
<text xml:space="preserve" text-anchor="middle" x="270.25" y="-736.19" font-family="Helvetica,sans-Serif" font-weight="bold" font-size="11.00">第二层：语法约束过滤</text>
</g>
<g id="clust3" class="cluster">
<title>cluster_l3</title>
<path fill="#e8f5e9" fill-opacity="0.301961" stroke="#2e7d32" d="M20,-368.89C20,-368.89 186,-368.89 186,-368.89 192,-368.89 198,-374.89 198,-380.89 198,-380.89 198,-606.89 198,-606.89 198,-612.89 192,-618.89 186,-618.89 186,-618.89 20,-618.89 20,-618.89 14,-618.89 8,-612.89 8,-606.89 8,-606.89 8,-380.89 8,-380.89 8,-374.89 14,-368.89 20,-368.89"/>
<text xml:space="preserve" text-anchor="middle" x="72.25" y="-604.44" font-family="Helvetica,sans-Serif" font-weight="bold" font-size="11.00">第三层：双轨候选构建</text>
</g>
<g id="clust4" class="cluster">
<title>cluster_l4</title>
<path fill="#fce4ec" fill-opacity="0.301961" stroke="#c62828" d="M149,-121.14C149,-121.14 247,-121.14 247,-121.14 253,-121.14 259,-127.14 259,-133.14 259,-133.14 259,-337.89 259,-337.89 259,-343.89 253,-349.89 247,-349.89 247,-349.89 149,-349.89 149,-349.89 143,-349.89 137,-343.89 137,-337.89 137,-337.89 137,-133.14 137,-133.14 137,-127.14 143,-121.14 149,-121.14"/>
<text xml:space="preserve" text-anchor="middle" x="190" y="-335.44" font-family="Helvetica,sans-Serif" font-weight="bold" font-size="11.00">第四层：验证条件</text>
</g>
<!-- diag -->
<g id="node1" class="node">
<title>diag</title>
<ellipse fill="#fff3e0" stroke="black" cx="365" cy="-1132.51" rx="46.85" ry="22.63"/>
<text xml:space="preserve" text-anchor="middle" x="365" y="-1134.06" font-family="Helvetica,sans-Serif" font-size="11.00">Diagnostic</text>
<text xml:space="preserve" text-anchor="middle" x="365" y="-1122.06" font-family="Helvetica,sans-Serif" font-size="11.00">(E0560)</text>
</g>
<!-- extract -->
<g id="node2" class="node">
<title>extract</title>
<path fill="#e8f0fe" stroke="black" d="M399.62,-1051.14C399.62,-1051.14 330.38,-1051.14 330.38,-1051.14 324.38,-1051.14 318.38,-1045.14 318.38,-1039.14 318.38,-1039.14 318.38,-995.89 318.38,-995.89 318.38,-989.89 324.38,-983.89 330.38,-983.89 330.38,-983.89 399.62,-983.89 399.62,-983.89 405.62,-983.89 411.62,-989.89 411.62,-995.89 411.62,-995.89 411.62,-1039.14 411.62,-1039.14 411.62,-1045.14 405.62,-1051.14 399.62,-1051.14"/>
<text xml:space="preserve" text-anchor="middle" x="365" y="-1036.69" font-family="Helvetica,sans-Serif" font-size="11.00">字段信息提取</text>
<text xml:space="preserve" text-anchor="middle" x="365" y="-1020.94" font-family="Helvetica,sans-Serif" font-size="11.00">未知字段名</text>
<text xml:space="preserve" text-anchor="middle" x="365" y="-1005.19" font-family="Helvetica,sans-Serif" font-size="11.00">可用字段列表</text>
<text xml:space="preserve" text-anchor="middle" x="365" y="-989.44" font-family="Helvetica,sans-Serif" font-size="11.00">(available fields)</text>
</g>
<!-- diag&#45;&gt;extract -->
<g id="edge1" class="edge">
<title>diag&#45;&gt;extract</title>
<path fill="none" stroke="black" d="M365,-1109.46C365,-1096.12 365,-1078.65 365,-1062.58"/>
<polygon fill="black" stroke="black" points="368.5,-1062.73 365,-1052.73 361.5,-1062.73 368.5,-1062.73"/>
</g>
<!-- classify -->
<g id="node3" class="node">
<title>classify</title>
<path fill="#fff3e0" stroke="black" d="M353.55,-943.29C353.55,-943.29 319.05,-932.48 319.05,-932.48 313.33,-930.68 313.33,-927.09 319.05,-925.29 319.05,-925.29 353.55,-914.48 353.55,-914.48 359.27,-912.68 370.73,-912.68 376.45,-914.48 376.45,-914.48 410.95,-925.29 410.95,-925.29 416.67,-927.09 416.67,-930.68 410.95,-932.48 410.95,-932.48 376.45,-943.29 376.45,-943.29 370.73,-945.09 359.27,-945.09 353.55,-943.29"/>
<text xml:space="preserve" text-anchor="middle" x="365" y="-926.31" font-family="Helvetica,sans-Serif" font-size="11.00">模式分类</text>
</g>
<!-- extract&#45;&gt;classify -->
<g id="edge2" class="edge">
<title>extract&#45;&gt;classify</title>
<path fill="none" stroke="black" d="M365,-983.76C365,-975.49 365,-966.67 365,-958.61"/>
<polygon fill="black" stroke="black" points="368.5,-958.65 365,-948.65 361.5,-958.65 368.5,-958.65"/>
</g>
<!-- single_typo -->
<g id="node4" class="node">
<title>single_typo</title>
<path fill="#c8e6c9" stroke="black" d="M293.62,-837.01C293.62,-837.01 224.38,-837.01 224.38,-837.01 218.38,-837.01 212.38,-831.01 212.38,-825.01 212.38,-825.01 212.38,-797.51 212.38,-797.51 212.38,-791.51 218.38,-785.51 224.38,-785.51 224.38,-785.51 293.62,-785.51 293.62,-785.51 299.62,-785.51 305.62,-791.51 305.62,-797.51 305.62,-797.51 305.62,-825.01 305.62,-825.01 305.62,-831.01 299.62,-837.01 293.62,-837.01"/>
<text xml:space="preserve" text-anchor="middle" x="259" y="-822.56" font-family="Helvetica,sans-Serif" font-size="11.00">SingleFieldTypo</text>
<text xml:space="preserve" text-anchor="middle" x="259" y="-810.56" font-family="Helvetica,sans-Serif" font-size="11.00">单个未知字段</text>
<text xml:space="preserve" text-anchor="middle" x="259" y="-794.81" font-family="Helvetica,sans-Serif" font-size="11.00">+ 唯一近邻候选</text>
</g>
<!-- classify&#45;&gt;single_typo -->
<g id="edge3" class="edge">
<title>classify&#45;&gt;single_typo</title>
<path fill="none" stroke="black" d="M344.88,-916.88C334.63,-910.67 322.38,-902.28 313,-892.89 299.53,-879.38 287.41,-862.06 278.09,-846.93"/>
<polygon fill="black" stroke="black" points="281.29,-845.46 273.15,-838.67 275.28,-849.05 281.29,-845.46"/>
<text xml:space="preserve" text-anchor="middle" x="337" y="-883.39" font-family="Helvetica,sans-Serif" font-size="10.00">单字段</text>
<text xml:space="preserve" text-anchor="middle" x="337" y="-868.39" font-family="Helvetica,sans-Serif" font-size="10.00">+ 近邻唯一</text>
</g>
<!-- schema_drift -->
<g id="node5" class="node">
<title>schema_drift</title>
<path fill="#ffcdd2" stroke="black" d="M394.75,-844.89C394.75,-844.89 335.25,-844.89 335.25,-844.89 329.25,-844.89 323.25,-838.89 323.25,-832.89 323.25,-832.89 323.25,-789.64 323.25,-789.64 323.25,-783.64 329.25,-777.64 335.25,-777.64 335.25,-777.64 394.75,-777.64 394.75,-777.64 400.75,-777.64 406.75,-783.64 406.75,-789.64 406.75,-789.64 406.75,-832.89 406.75,-832.89 406.75,-838.89 400.75,-844.89 394.75,-844.89"/>
<text xml:space="preserve" text-anchor="middle" x="365" y="-830.44" font-family="Helvetica,sans-Serif" font-size="11.00">SchemaDrift</text>
<text xml:space="preserve" text-anchor="middle" x="365" y="-818.44" font-family="Helvetica,sans-Serif" font-size="11.00">多个未知字段</text>
<text xml:space="preserve" text-anchor="middle" x="365" y="-802.69" font-family="Helvetica,sans-Serif" font-size="11.00">/ 候选不唯一</text>
<text xml:space="preserve" text-anchor="middle" x="365" y="-786.94" font-family="Helvetica,sans-Serif" font-size="11.00">/ 相似度不足</text>
</g>
<!-- classify&#45;&gt;schema_drift -->
<g id="edge4" class="edge">
<title>classify&#45;&gt;schema_drift</title>
<path fill="none" stroke="black" d="M365,-910.58C365,-896.28 365,-875.35 365,-856.47"/>
<polygon fill="black" stroke="black" points="368.5,-856.57 365,-846.57 361.5,-856.57 368.5,-856.57"/>
<text xml:space="preserve" text-anchor="middle" x="382.62" y="-883.39" font-family="Helvetica,sans-Serif" font-size="10.00">多字段</text>
<text xml:space="preserve" text-anchor="middle" x="382.62" y="-868.39" font-family="Helvetica,sans-Serif" font-size="10.00">/ 不唯一</text>
</g>
<!-- constructor_mm -->
<g id="node6" class="node">
<title>constructor_mm</title>
<path fill="#ffcdd2" stroke="black" d="M557.5,-837.01C557.5,-837.01 436.5,-837.01 436.5,-837.01 430.5,-837.01 424.5,-831.01 424.5,-825.01 424.5,-825.01 424.5,-797.51 424.5,-797.51 424.5,-791.51 430.5,-785.51 436.5,-785.51 436.5,-785.51 557.5,-785.51 557.5,-785.51 563.5,-785.51 569.5,-791.51 569.5,-797.51 569.5,-797.51 569.5,-825.01 569.5,-825.01 569.5,-831.01 563.5,-837.01 557.5,-837.01"/>
<text xml:space="preserve" text-anchor="middle" x="497" y="-822.56" font-family="Helvetica,sans-Serif" font-size="11.00">ConstructorModeMismatch</text>
<text xml:space="preserve" text-anchor="middle" x="497" y="-810.56" font-family="Helvetica,sans-Serif" font-size="11.00">适合 builder/宏</text>
<text xml:space="preserve" text-anchor="middle" x="497" y="-794.81" font-family="Helvetica,sans-Serif" font-size="11.00">构造模式</text>
</g>
<!-- classify&#45;&gt;constructor_mm -->
<g id="edge5" class="edge">
<title>classify&#45;&gt;constructor_mm</title>
<path fill="none" stroke="black" d="M379.63,-915.07C398.89,-898.2 433.43,-867.95 460.07,-844.61"/>
<polygon fill="black" stroke="black" points="462.06,-847.52 467.27,-838.3 457.44,-842.26 462.06,-847.52"/>
<text xml:space="preserve" text-anchor="middle" x="459.53" y="-875.89" font-family="Helvetica,sans-Serif" font-size="10.00">builder/宏</text>
</g>
<!-- named_only -->
<g id="node7" class="node">
<title>named_only</title>
<path fill="#fff9c4" stroke="black" d="M319.62,-718.89C319.62,-718.89 226.38,-718.89 226.38,-718.89 220.38,-718.89 214.38,-712.89 214.38,-706.89 214.38,-706.89 214.38,-679.39 214.38,-679.39 214.38,-673.39 220.38,-667.39 226.38,-667.39 226.38,-667.39 319.62,-667.39 319.62,-667.39 325.62,-667.39 331.62,-673.39 331.62,-679.39 331.62,-679.39 331.62,-706.89 331.62,-706.89 331.62,-712.89 325.62,-718.89 319.62,-718.89"/>
<text xml:space="preserve" text-anchor="middle" x="273" y="-704.44" font-family="Helvetica,sans-Serif" font-size="11.00">仅处理具名字段语法</text>
<text xml:space="preserve" text-anchor="middle" x="273" y="-688.69" font-family="Helvetica,sans-Serif" font-size="11.00">field: expr</text>
<text xml:space="preserve" text-anchor="middle" x="273" y="-676.69" font-family="Helvetica,sans-Serif" font-size="11.00">(span 后紧跟 :)</text>
</g>
<!-- single_typo&#45;&gt;named_only -->
<g id="edge8" class="edge">
<title>single_typo&#45;&gt;named_only</title>
<path fill="none" stroke="black" d="M262.04,-785.06C263.95,-769.16 266.46,-748.35 268.6,-730.66"/>
<polygon fill="black" stroke="black" points="272.06,-731.13 269.79,-720.79 265.12,-730.3 272.06,-731.13"/>
</g>
<!-- out_empty -->
<g id="node15" class="node">
<title>out_empty</title>
<ellipse fill="#ffcdd2" stroke="black" cx="365" cy="-39.07" rx="91.39" ry="39.07"/>
<text xml:space="preserve" text-anchor="middle" x="365" y="-52.24" font-family="Helvetica,sans-Serif" font-size="11.00">空 Vec</text>
<text xml:space="preserve" text-anchor="middle" x="365" y="-36.49" font-family="Helvetica,sans-Serif" font-size="11.00">→ Preflight Digest 注入</text>
<text xml:space="preserve" text-anchor="middle" x="365" y="-20.74" font-family="Helvetica,sans-Serif" font-size="11.00">→ LLM 处理</text>
</g>
<!-- schema_drift&#45;&gt;out_empty -->
<g id="edge6" class="edge">
<title>schema_drift&#45;&gt;out_empty</title>
<path fill="none" stroke="black" d="M365,-777.22C365,-753.99 365,-722.16 365,-694.14 365,-694.14 365,-694.14 365,-147.89 365,-128.91 365,-108.05 365,-89.78"/>
<polygon fill="black" stroke="black" points="368.5,-90 365,-80 361.5,-90 368.5,-90"/>
</g>
<!-- constructor_mm&#45;&gt;out_empty -->
<g id="edge7" class="edge">
<title>constructor_mm&#45;&gt;out_empty</title>
<path fill="none" stroke="black" d="M480.3,-785.15C466.79,-762.39 450,-727.41 450,-694.14 450,-694.14 450,-694.14 450,-147.89 450,-122.46 435.24,-99.51 418.03,-81.38"/>
<polygon fill="black" stroke="black" points="420.63,-79.02 411.06,-74.46 415.69,-83.99 420.63,-79.02"/>
</g>
<!-- reject_shorthand -->
<g id="node8" class="node">
<title>reject_shorthand</title>
<path fill="#ffcdd2" stroke="black" d="M316.5,-580.76C316.5,-580.76 237.5,-580.76 237.5,-580.76 231.5,-580.76 225.5,-574.76 225.5,-568.76 225.5,-568.76 225.5,-541.26 225.5,-541.26 225.5,-535.26 231.5,-529.26 237.5,-529.26 237.5,-529.26 316.5,-529.26 316.5,-529.26 322.5,-529.26 328.5,-535.26 328.5,-541.26 328.5,-541.26 328.5,-568.76 328.5,-568.76 328.5,-574.76 322.5,-580.76 316.5,-580.76"/>
<text xml:space="preserve" text-anchor="middle" x="277" y="-566.31" font-family="Helvetica,sans-Serif" font-size="11.00">拒绝处理</text>
<text xml:space="preserve" text-anchor="middle" x="277" y="-550.56" font-family="Helvetica,sans-Serif" font-size="11.00">field init shorthand</text>
<text xml:space="preserve" text-anchor="middle" x="277" y="-538.56" font-family="Helvetica,sans-Serif" font-size="11.00">..base 推理</text>
</g>
<!-- named_only&#45;&gt;reject_shorthand -->
<g id="edge10" class="edge">
<title>named_only&#45;&gt;reject_shorthand</title>
<path fill="none" stroke="black" d="M273.73,-667.17C274.35,-646.16 275.24,-615.84 275.94,-592.17"/>
<polygon fill="black" stroke="black" points="279.43,-592.43 276.23,-582.33 272.43,-592.23 279.43,-592.43"/>
<text xml:space="preserve" text-anchor="middle" x="296.26" y="-639.89" font-family="Helvetica,sans-Serif" font-size="10.00">shorthand</text>
<text xml:space="preserve" text-anchor="middle" x="296.26" y="-628.64" font-family="Helvetica,sans-Serif" font-size="10.00">/ ..base</text>
</g>
<!-- p1 -->
<g id="node9" class="node">
<title>p1</title>
<path fill="#c8e6c9" stroke="black" d="M177.88,-587.14C177.88,-587.14 56.12,-587.14 56.12,-587.14 50.13,-587.14 44.12,-581.14 44.12,-575.14 44.12,-575.14 44.12,-534.89 44.12,-534.89 44.12,-528.89 50.12,-522.89 56.12,-522.89 56.12,-522.89 177.88,-522.89 177.88,-522.89 183.88,-522.89 189.88,-528.89 189.88,-534.89 189.88,-534.89 189.88,-575.14 189.88,-575.14 189.88,-581.14 183.88,-587.14 177.88,-587.14"/>
<text xml:space="preserve" text-anchor="middle" x="117" y="-572.69" font-family="Helvetica,sans-Serif" font-size="11.00">Track P1</text>
<text xml:space="preserve" text-anchor="middle" x="117" y="-560.69" font-family="Helvetica,sans-Serif" font-size="11.00">编译器建议直通</text>
<text xml:space="preserve" text-anchor="middle" x="117" y="-544.94" font-family="Helvetica,sans-Serif" font-size="11.00">MachineApplicable → High</text>
<text xml:space="preserve" text-anchor="middle" x="117" y="-530.69" font-family="Helvetica,sans-Serif" font-size="11.00">MaybeIncorrect → Medium</text>
</g>
<!-- named_only&#45;&gt;p1 -->
<g id="edge9" class="edge">
<title>named_only&#45;&gt;p1</title>
<path fill="none" stroke="black" d="M244.39,-667.17C221.21,-646.94 188.15,-618.1 161.52,-594.86"/>
<polygon fill="black" stroke="black" points="164.1,-592.46 154.26,-588.52 159.49,-597.74 164.1,-592.46"/>
<text xml:space="preserve" text-anchor="middle" x="232.29" y="-636.14" font-family="Helvetica,sans-Serif" font-size="10.00">通过</text>
</g>
<!-- reject_shorthand&#45;&gt;out_empty -->
<g id="edge11" class="edge">
<title>reject_shorthand&#45;&gt;out_empty</title>
<path fill="none" stroke="black" d="M282.91,-529.03C288.49,-503.23 296,-461.73 296,-425.39 296,-425.39 296,-425.39 296,-147.89 296,-124.39 307.76,-101.92 321.58,-83.63"/>
<polygon fill="black" stroke="black" points="324.02,-86.18 327.53,-76.18 318.55,-81.8 324.02,-86.18"/>
</g>
<!-- r1 -->
<g id="node10" class="node">
<title>r1</title>
<path fill="#a5d6a7" stroke="black" d="M178.12,-471.89C178.12,-471.89 27.87,-471.89 27.87,-471.89 21.88,-471.89 15.88,-465.89 15.88,-459.89 15.88,-459.89 15.88,-388.89 15.88,-388.89 15.88,-382.89 21.88,-376.89 27.88,-376.89 27.88,-376.89 178.12,-376.89 178.12,-376.89 184.12,-376.89 190.12,-382.89 190.12,-388.89 190.12,-388.89 190.12,-459.89 190.12,-459.89 190.12,-465.89 184.12,-471.89 178.12,-471.89"/>
<text xml:space="preserve" text-anchor="middle" x="103" y="-457.44" font-family="Helvetica,sans-Serif" font-size="11.00">Track R1</text>
<text xml:space="preserve" text-anchor="middle" x="103" y="-445.44" font-family="Helvetica,sans-Serif" font-size="11.00">唯一字段名重写</text>
<text xml:space="preserve" text-anchor="middle" x="103" y="-429.69" font-family="Helvetica,sans-Serif" font-size="11.00">P1 无候选</text>
<text xml:space="preserve" text-anchor="middle" x="103" y="-413.94" font-family="Helvetica,sans-Serif" font-size="11.00">+ 单未知字段</text>
<text xml:space="preserve" text-anchor="middle" x="103" y="-398.19" font-family="Helvetica,sans-Serif" font-size="11.00">+ edit_distance_is_one_ascii_ci()</text>
<text xml:space="preserve" text-anchor="middle" x="103" y="-386.19" font-family="Helvetica,sans-Serif" font-size="11.00">唯一 distance=1 匹配</text>
</g>
<!-- p1&#45;&gt;r1 -->
<g id="edge12" class="edge">
<title>p1&#45;&gt;r1</title>
<path fill="none" stroke="black" d="M113.58,-522.55C112.29,-510.69 110.77,-496.8 109.3,-483.3"/>
<polygon fill="black" stroke="black" points="112.81,-483.16 108.25,-473.6 105.85,-483.92 112.81,-483.16"/>
<text xml:space="preserve" text-anchor="middle" x="138.25" y="-495.39" font-family="Helvetica,sans-Serif" font-size="10.00">P1 无候选时</text>
</g>
<!-- v1 -->
<g id="node11" class="node">
<title>v1</title>
<path fill="#fce4ec" stroke="black" d="M239.38,-318.14C239.38,-318.14 156.62,-318.14 156.62,-318.14 150.62,-318.14 144.62,-312.14 144.62,-306.14 144.62,-306.14 144.62,-294.14 144.62,-294.14 144.62,-288.14 150.62,-282.14 156.62,-282.14 156.62,-282.14 239.38,-282.14 239.38,-282.14 245.38,-282.14 251.38,-288.14 251.38,-294.14 251.38,-294.14 251.38,-306.14 251.38,-306.14 251.38,-312.14 245.38,-318.14 239.38,-318.14"/>
<text xml:space="preserve" text-anchor="middle" x="198" y="-297.56" font-family="Helvetica,sans-Serif" font-size="11.00">E0560 错误数下降</text>
</g>
<!-- p1&#45;&gt;v1 -->
<g id="edge13" class="edge">
<title>p1&#45;&gt;v1</title>
<path fill="none" stroke="black" d="M160.97,-522.59C176.21,-508.98 191.37,-491.62 199,-471.89 217.22,-424.77 210.74,-364.72 204.37,-329.83"/>
<polygon fill="black" stroke="black" points="207.82,-329.23 202.45,-320.09 200.95,-330.58 207.82,-329.23"/>
</g>
<!-- r1&#45;&gt;v1 -->
<g id="edge14" class="edge">
<title>r1&#45;&gt;v1</title>
<path fill="none" stroke="black" d="M139.46,-376.47C152.42,-359.79 166.54,-341.61 177.67,-327.29"/>
<polygon fill="black" stroke="black" points="180.21,-329.74 183.58,-319.69 174.68,-325.44 180.21,-329.74"/>
</g>
<!-- v2 -->
<g id="node12" class="node">
<title>v2</title>
<path fill="#fce4ec" stroke="black" d="M234.12,-245.14C234.12,-245.14 161.88,-245.14 161.88,-245.14 155.88,-245.14 149.88,-239.14 149.88,-233.14 149.88,-233.14 149.88,-217.64 149.88,-217.64 149.88,-211.64 155.88,-205.64 161.88,-205.64 161.88,-205.64 234.12,-205.64 234.12,-205.64 240.12,-205.64 246.12,-211.64 246.12,-217.64 246.12,-217.64 246.12,-233.14 246.12,-233.14 246.12,-239.14 240.12,-245.14 234.12,-245.14"/>
<text xml:space="preserve" text-anchor="middle" x="198" y="-230.69" font-family="Helvetica,sans-Serif" font-size="11.00">不得新增 E0063</text>
<text xml:space="preserve" text-anchor="middle" x="198" y="-214.94" font-family="Helvetica,sans-Serif" font-size="11.00">（缺字段）</text>
</g>
<!-- v1&#45;&gt;v2 -->
<g id="edge15" class="edge">
<title>v1&#45;&gt;v2</title>
<path fill="none" stroke="black" d="M198,-281.89C198,-274.38 198,-265.35 198,-256.78"/>
<polygon fill="black" stroke="black" points="201.5,-257.06 198,-247.06 194.5,-257.06 201.5,-257.06"/>
</g>
<!-- v3 -->
<g id="node13" class="node">
<title>v3</title>
<path fill="#fce4ec" stroke="black" d="M239,-168.64C239,-168.64 157,-168.64 157,-168.64 151,-168.64 145,-162.64 145,-156.64 145,-156.64 145,-141.14 145,-141.14 145,-135.14 151,-129.14 157,-129.14 157,-129.14 239,-129.14 239,-129.14 245,-129.14 251,-135.14 251,-141.14 251,-141.14 251,-156.64 251,-156.64 251,-162.64 245,-168.64 239,-168.64"/>
<text xml:space="preserve" text-anchor="middle" x="198" y="-154.19" font-family="Helvetica,sans-Serif" font-size="11.00">不得新增 E0451</text>
<text xml:space="preserve" text-anchor="middle" x="198" y="-138.44" font-family="Helvetica,sans-Serif" font-size="11.00">（私有字段构造）</text>
</g>
<!-- v2&#45;&gt;v3 -->
<g id="edge16" class="edge">
<title>v2&#45;&gt;v3</title>
<path fill="none" stroke="black" d="M198,-205.2C198,-197.64 198,-188.77 198,-180.37"/>
<polygon fill="black" stroke="black" points="201.5,-180.52 198,-170.52 194.5,-180.52 201.5,-180.52"/>
</g>
<!-- out_fix -->
<g id="node14" class="node">
<title>out_fix</title>
<ellipse fill="#c8e6c9" stroke="black" cx="181" cy="-39.07" rx="74.95" ry="25.28"/>
<text xml:space="preserve" text-anchor="middle" x="181" y="-42.49" font-family="Helvetica,sans-Serif" font-size="11.00">FixAction::Replace</text>
<text xml:space="preserve" text-anchor="middle" x="181" y="-30.49" font-family="Helvetica,sans-Serif" font-size="11.00">（字段名替换）</text>
</g>
<!-- v3&#45;&gt;out_fix -->
<g id="edge17" class="edge">
<title>v3&#45;&gt;out_fix</title>
<path fill="none" stroke="black" d="M189.9,-128.74C187.87,-123.16 185.93,-116.99 184.75,-111.14 182.46,-99.81 181.34,-87.28 180.85,-75.93"/>
<polygon fill="black" stroke="black" points="184.35,-76.04 180.58,-66.14 177.36,-76.24 184.35,-76.04"/>
<text xml:space="preserve" text-anchor="middle" x="199.38" y="-101.64" font-family="Helvetica,sans-Serif" font-size="10.00">全通过</text>
</g>
<!-- v3&#45;&gt;out_empty -->
<g id="edge18" class="edge">
<title>v3&#45;&gt;out_empty</title>
<path fill="none" stroke="black" d="M211.35,-128.86C219.55,-118.21 230.8,-105.27 243,-96.14 256.11,-86.31 271.22,-77.66 286.24,-70.27"/>
<polygon fill="black" stroke="black" points="287.69,-73.45 295.23,-66.01 284.69,-67.13 287.69,-73.45"/>
<text xml:space="preserve" text-anchor="middle" x="262.5" y="-101.64" font-family="Helvetica,sans-Serif" font-size="10.00">验证失败</text>
</g>
</g>
</svg>
