<?xml version="1.0" encoding="UTF-8" standalone="no"?>
<!DOCTYPE svg PUBLIC "-//W3C//DTD SVG 1.1//EN"
 "http://www.w3.org/Graphics/SVG/1.1/DTD/svg11.dtd">
<!-- Generated by graphviz version 14.1.2 (20260124.0452)
 -->
<!-- Title: e0599_layers Pages: 1 -->
<svg width="683pt" height="1241pt"
 viewBox="0.00 0.00 683.00 1241.00" xmlns="http://www.w3.org/2000/svg" xmlns:xlink="http://www.w3.org/1999/xlink">
<g id="graph0" class="graph" transform="scale(1 1) rotate(0) translate(4 1236.75)">
<title>e0599_layers</title>
<polygon fill="white" stroke="none" points="-4,4 -4,-1236.75 679,-1236.75 679,4 -4,4"/>
<text xml:space="preserve" text-anchor="middle" x="337.5" y="-1215.45" font-family="Helvetica,sans-Serif" font-weight="bold" font-size="14.00">E0599Patcher Analysis 流程：两级扫描 + 五级分类</text>
<g id="clust1" class="cluster">
<title>cluster_l1</title>
<path fill="#e8f0fe" fill-opacity="0.301961" stroke="#1a73e8" d="M199,-948.74C199,-948.74 343,-948.74 343,-948.74 349,-948.74 355,-954.74 355,-960.74 355,-960.74 355,-1120.24 355,-1120.24 355,-1126.24 349,-1132.24 343,-1132.24 343,-1132.24 199,-1132.24 199,-1132.24 193,-1132.24 187,-1126.24 187,-1120.24 187,-1120.24 187,-960.74 187,-960.74 187,-954.74 193,-948.74 199,-948.74"/>
<text xml:space="preserve" text-anchor="middle" x="240" y="-1117.79" font-family="Helvetica,sans-Serif" font-weight="bold" font-size="11.00">第一层：消息解析</text>
</g>
<g id="clust2" class="cluster">
<title>cluster_l2</title>
<path fill="#e8f5e9" fill-opacity="0.301961" stroke="#2e7d32" d="M148,-547.49C148,-547.49 395,-547.49 395,-547.49 401,-547.49 407,-553.49 407,-559.49 407,-559.49 407,-917.74 407,-917.74 407,-923.74 401,-929.74 395,-929.74 395,-929.74 148,-929.74 148,-929.74 142,-929.74 136,-923.74 136,-917.74 136,-917.74 136,-559.49 136,-559.49 136,-553.49 142,-547.49 148,-547.49"/>
<text xml:space="preserve" text-anchor="middle" x="214.88" y="-915.29" font-family="Helvetica,sans-Serif" font-weight="bold" font-size="11.00">第二层：两级 AST 扫描策略</text>
</g>
<g id="clust3" class="cluster">
<title>cluster_l3</title>
<path fill="#fff9c4" fill-opacity="0.301961" stroke="#f57f17" d="M20,-348.49C20,-348.49 646,-348.49 646,-348.49 652,-348.49 658,-354.49 658,-360.49 658,-360.49 658,-516.49 658,-516.49 658,-522.49 652,-528.49 646,-528.49 646,-528.49 20,-528.49 20,-528.49 14,-528.49 8,-522.49 8,-516.49 8,-516.49 8,-360.49 8,-360.49 8,-354.49 14,-348.49 20,-348.49"/>
<text xml:space="preserve" text-anchor="middle" x="72.25" y="-514.04" font-family="Helvetica,sans-Serif" font-weight="bold" font-size="11.00">第三层：五级分类体系</text>
</g>
<g id="clust4" class="cluster">
<title>cluster_l4</title>
<path fill="#fce4ec" fill-opacity="0.301961" stroke="#c62828" d="M33,-152.74C33,-152.74 655,-152.74 655,-152.74 661,-152.74 667,-158.74 667,-164.74 667,-164.74 667,-234.24 667,-234.24 667,-240.24 661,-246.24 655,-246.24 655,-246.24 33,-246.24 33,-246.24 27,-246.24 21,-240.24 21,-234.24 21,-234.24 21,-164.74 21,-164.74 21,-158.74 27,-152.74 33,-152.74"/>
<text xml:space="preserve" text-anchor="middle" x="98" y="-231.79" font-family="Helvetica,sans-Serif" font-weight="bold" font-size="11.00">第四层：Preflight 决策映射</text>
</g>
<!-- diag -->
<g id="node1" class="node">
<title>diag</title>
<ellipse fill="#fff3e0" stroke="black" cx="271" cy="-1181.87" rx="46.85" ry="22.63"/>
<text xml:space="preserve" text-anchor="middle" x="271" y="-1183.42" font-family="Helvetica,sans-Serif" font-size="11.00">Diagnostic</text>
<text xml:space="preserve" text-anchor="middle" x="271" y="-1171.42" font-family="Helvetica,sans-Serif" font-size="11.00">(E0599)</text>
</g>
<!-- regex_extract -->
<g id="node2" class="node">
<title>regex_extract</title>
<path fill="#e8f0fe" stroke="black" d="M334.88,-1100.49C334.88,-1100.49 207.12,-1100.49 207.12,-1100.49 201.12,-1100.49 195.12,-1094.49 195.12,-1088.49 195.12,-1088.49 195.12,-1060.99 195.12,-1060.99 195.12,-1054.99 201.12,-1048.99 207.12,-1048.99 207.12,-1048.99 334.88,-1048.99 334.88,-1048.99 340.88,-1048.99 346.88,-1054.99 346.88,-1060.99 346.88,-1060.99 346.88,-1088.49 346.88,-1088.49 346.88,-1094.49 340.88,-1100.49 334.88,-1100.49"/>
<text xml:space="preserve" text-anchor="middle" x="271" y="-1086.04" font-family="Helvetica,sans-Serif" font-size="11.00">正则提取</text>
<text xml:space="preserve" text-anchor="middle" x="271" y="-1070.29" font-family="Helvetica,sans-Serif" font-size="11.00">(type_name, method_name)</text>
<text xml:space="preserve" text-anchor="middle" x="271" y="-1058.29" font-family="Helvetica,sans-Serif" font-size="11.00">二元组</text>
</g>
<!-- diag&#45;&gt;regex_extract -->
<g id="edge1" class="edge">
<title>diag&#45;&gt;regex_extract</title>
<path fill="none" stroke="black" d="M271,-1158.83C271,-1145.3 271,-1127.64 271,-1112.09"/>
<polygon fill="black" stroke="black" points="274.5,-1112.22 271,-1102.22 267.5,-1112.22 274.5,-1112.22"/>
</g>
<!-- normalize -->
<g id="node3" class="node">
<title>normalize</title>
<path fill="#e8f0fe" stroke="black" d="M300.75,-1011.99C300.75,-1011.99 241.25,-1011.99 241.25,-1011.99 235.25,-1011.99 229.25,-1005.99 229.25,-999.99 229.25,-999.99 229.25,-968.74 229.25,-968.74 229.25,-962.74 235.25,-956.74 241.25,-956.74 241.25,-956.74 300.75,-956.74 300.75,-956.74 306.75,-956.74 312.75,-962.74 312.75,-968.74 312.75,-968.74 312.75,-999.99 312.75,-999.99 312.75,-1005.99 306.75,-1011.99 300.75,-1011.99"/>
<text xml:space="preserve" text-anchor="middle" x="271" y="-997.54" font-family="Helvetica,sans-Serif" font-size="11.00">类型名归一化</text>
<text xml:space="preserve" text-anchor="middle" x="271" y="-981.79" font-family="Helvetica,sans-Serif" font-size="11.00">去除泛型参数</text>
<text xml:space="preserve" text-anchor="middle" x="271" y="-966.04" font-family="Helvetica,sans-Serif" font-size="11.00">取最后 :: 段</text>
</g>
<!-- regex_extract&#45;&gt;normalize -->
<g id="edge2" class="edge">
<title>regex_extract&#45;&gt;normalize</title>
<path fill="none" stroke="black" d="M271,-1048.66C271,-1040.87 271,-1032.1 271,-1023.63"/>
<polygon fill="black" stroke="black" points="274.5,-1023.89 271,-1013.89 267.5,-1023.89 274.5,-1023.89"/>
</g>
<!-- scan_l1 -->
<g id="node4" class="node">
<title>scan_l1</title>
<path fill="#c8e6c9" stroke="black" d="M332.25,-897.99C332.25,-897.99 209.75,-897.99 209.75,-897.99 203.75,-897.99 197.75,-891.99 197.75,-885.99 197.75,-885.99 197.75,-854.74 197.75,-854.74 197.75,-848.74 203.75,-842.74 209.75,-842.74 209.75,-842.74 332.25,-842.74 332.25,-842.74 338.25,-842.74 344.25,-848.74 344.25,-854.74 344.25,-854.74 344.25,-885.99 344.25,-885.99 344.25,-891.99 338.25,-897.99 332.25,-897.99"/>
<text xml:space="preserve" text-anchor="middle" x="271" y="-883.54" font-family="Helvetica,sans-Serif" font-size="11.00">L1：同文件扫描</text>
<text xml:space="preserve" text-anchor="middle" x="271" y="-867.79" font-family="Helvetica,sans-Serif" font-size="11.00">扫描 impl TypeName { }</text>
<text xml:space="preserve" text-anchor="middle" x="271" y="-852.04" font-family="Helvetica,sans-Serif" font-size="11.00">forced scope: 当前 .rs 文件</text>
</g>
<!-- normalize&#45;&gt;scan_l1 -->
<g id="edge3" class="edge">
<title>normalize&#45;&gt;scan_l1</title>
<path fill="none" stroke="black" d="M271,-956.26C271,-942.22 271,-924.86 271,-909.5"/>
<polygon fill="black" stroke="black" points="274.5,-909.74 271,-899.74 267.5,-909.74 274.5,-909.74"/>
</g>
<!-- scan_check -->
<g id="node5" class="node">
<title>scan_check</title>
<path fill="#fff3e0" stroke="black" d="M259.14,-803.91C259.14,-803.91 166.19,-789.57 166.19,-789.57 160.26,-788.66 160.26,-786.83 166.19,-785.91 166.19,-785.91 259.14,-771.57 259.14,-771.57 265.07,-770.66 276.93,-770.66 282.86,-771.57 282.86,-771.57 375.81,-785.91 375.81,-785.91 381.74,-786.83 381.74,-788.66 375.81,-789.57 375.81,-789.57 282.86,-803.91 282.86,-803.91 276.93,-804.83 265.07,-804.83 259.14,-803.91"/>
<text xml:space="preserve" text-anchor="middle" x="271" y="-785.17" font-family="Helvetica,sans-Serif" font-size="11.00">同文件 impl 数 == 0？</text>
</g>
<!-- scan_l1&#45;&gt;scan_check -->
<g id="edge4" class="edge">
<title>scan_l1&#45;&gt;scan_check</title>
<path fill="none" stroke="black" d="M271,-842.52C271,-834.4 271,-825.45 271,-817.22"/>
<polygon fill="black" stroke="black" points="274.5,-817.37 271,-807.37 267.5,-817.37 274.5,-817.37"/>
</g>
<!-- scan_l2 -->
<g id="node6" class="node">
<title>scan_l2</title>
<path fill="#a5d6a7" stroke="black" d="M292,-718.74C292,-718.74 156,-718.74 156,-718.74 150,-718.74 144,-712.74 144,-706.74 144,-706.74 144,-675.49 144,-675.49 144,-669.49 150,-663.49 156,-663.49 156,-663.49 292,-663.49 292,-663.49 298,-663.49 304,-669.49 304,-675.49 304,-675.49 304,-706.74 304,-706.74 304,-712.74 298,-718.74 292,-718.74"/>
<text xml:space="preserve" text-anchor="middle" x="224" y="-704.29" font-family="Helvetica,sans-Serif" font-size="11.00">L2：Crate 范围扫描</text>
<text xml:space="preserve" text-anchor="middle" x="224" y="-688.54" font-family="Helvetica,sans-Serif" font-size="11.00">walkdir 递归</text>
<text xml:space="preserve" text-anchor="middle" x="224" y="-672.79" font-family="Helvetica,sans-Serif" font-size="11.00">跳过 target/ .git/ .ruter/</text>
</g>
<!-- scan_check&#45;&gt;scan_l2 -->
<g id="edge5" class="edge">
<title>scan_check&#45;&gt;scan_l2</title>
<path fill="none" stroke="black" d="M263.03,-770.69C257.38,-759.32 249.57,-743.59 242.41,-729.19"/>
<polygon fill="black" stroke="black" points="245.62,-727.77 238.03,-720.37 239.35,-730.89 245.62,-727.77"/>
<text xml:space="preserve" text-anchor="middle" x="287.22" y="-742.24" font-family="Helvetica,sans-Serif" font-size="10.00">是（扩大范围）</text>
</g>
<!-- syn_parse -->
<g id="node7" class="node">
<title>syn_parse</title>
<path fill="#e8f5e9" stroke="black" d="M356,-626.49C356,-626.49 262,-626.49 262,-626.49 256,-626.49 250,-620.49 250,-614.49 250,-614.49 250,-567.49 250,-567.49 250,-561.49 256,-555.49 262,-555.49 262,-555.49 356,-555.49 356,-555.49 362,-555.49 368,-561.49 368,-567.49 368,-567.49 368,-614.49 368,-614.49 368,-620.49 362,-626.49 356,-626.49"/>
<text xml:space="preserve" text-anchor="middle" x="309" y="-612.04" font-family="Helvetica,sans-Serif" font-size="11.00">syn 解析每个文件</text>
<text xml:space="preserve" text-anchor="middle" x="309" y="-596.29" font-family="Helvetica,sans-Serif" font-size="11.00">匹配 Type::Path 段</text>
<text xml:space="preserve" text-anchor="middle" x="309" y="-580.54" font-family="Helvetica,sans-Serif" font-size="11.00">收集可用方法签名</text>
<text xml:space="preserve" text-anchor="middle" x="309" y="-564.79" font-family="Helvetica,sans-Serif" font-size="11.00">(BTreeSet 去重排序)</text>
</g>
<!-- scan_check&#45;&gt;syn_parse -->
<g id="edge6" class="edge">
<title>scan_check&#45;&gt;syn_parse</title>
<path fill="none" stroke="black" d="M301.63,-774.03C310.82,-768.6 319.82,-761.26 325,-751.74 343.95,-716.87 336.87,-671.36 326.85,-637.84"/>
<polygon fill="black" stroke="black" points="330.22,-636.87 323.84,-628.41 323.55,-639 330.22,-636.87"/>
<text xml:space="preserve" text-anchor="middle" x="366.13" y="-689.12" font-family="Helvetica,sans-Serif" font-size="10.00">否（已足够）</text>
</g>
<!-- scan_l2&#45;&gt;syn_parse -->
<g id="edge7" class="edge">
<title>scan_l2&#45;&gt;syn_parse</title>
<path fill="none" stroke="black" d="M247.45,-663.05C254.9,-654.45 263.33,-644.71 271.52,-635.26"/>
<polygon fill="black" stroke="black" points="274.03,-637.71 277.93,-627.86 268.74,-633.12 274.03,-637.71"/>
</g>
<!-- cls -->
<g id="node8" class="node">
<title>cls</title>
<path fill="#fff3e0" stroke="black" d="M297.55,-493.15C297.55,-493.15 263.05,-482.33 263.05,-482.33 257.33,-480.54 257.33,-476.95 263.05,-475.15 263.05,-475.15 297.55,-464.33 297.55,-464.33 303.27,-462.54 314.73,-462.54 320.45,-464.33 320.45,-464.33 354.95,-475.15 354.95,-475.15 360.67,-476.95 360.67,-480.54 354.95,-482.33 354.95,-482.33 320.45,-493.15 320.45,-493.15 314.73,-494.95 303.27,-494.95 297.55,-493.15"/>
<text xml:space="preserve" text-anchor="middle" x="309" y="-476.17" font-family="Helvetica,sans-Serif" font-size="11.00">分类判断</text>
</g>
<!-- syn_parse&#45;&gt;cls -->
<g id="edge8" class="edge">
<title>syn_parse&#45;&gt;cls</title>
<path fill="none" stroke="black" d="M309,-555.11C309,-540.03 309,-522.6 309,-508.3"/>
<polygon fill="black" stroke="black" points="312.5,-508.67 309,-498.67 305.5,-508.67 312.5,-508.67"/>
</g>
<!-- c1 -->
<g id="node9" class="node">
<title>c1</title>
<path fill="#ffcdd2" stroke="black" d="M99.75,-423.74C99.75,-423.74 28.25,-423.74 28.25,-423.74 22.25,-423.74 16.25,-417.74 16.25,-411.74 16.25,-411.74 16.25,-368.49 16.25,-368.49 16.25,-362.49 22.25,-356.49 28.25,-356.49 28.25,-356.49 99.75,-356.49 99.75,-356.49 105.75,-356.49 111.75,-362.49 111.75,-368.49 111.75,-368.49 111.75,-411.74 111.75,-411.74 111.75,-417.74 105.75,-423.74 99.75,-423.74"/>
<text xml:space="preserve" text-anchor="middle" x="64" y="-409.29" font-family="Helvetica,sans-Serif" font-size="11.00">SevereNoStruct</text>
<text xml:space="preserve" text-anchor="middle" x="64" y="-397.29" font-family="Helvetica,sans-Serif" font-size="11.00">整个 crate 内</text>
<text xml:space="preserve" text-anchor="middle" x="64" y="-381.54" font-family="Helvetica,sans-Serif" font-size="11.00">找不到任何 impl</text>
<text xml:space="preserve" text-anchor="middle" x="64" y="-365.79" font-family="Helvetica,sans-Serif" font-size="11.00">【最高风险】</text>
</g>
<!-- cls&#45;&gt;c1 -->
<g id="edge9" class="edge">
<title>cls&#45;&gt;c1</title>
<path fill="none" stroke="black" d="M275.57,-470.71C239.49,-462.56 180.42,-447.63 122.52,-424.04"/>
<polygon fill="black" stroke="black" points="124.08,-420.9 113.5,-420.28 121.38,-427.36 124.08,-420.9"/>
</g>
<!-- c2 -->
<g id="node10" class="node">
<title>c2</title>
<path fill="#ffcdd2" stroke="black" d="M219.75,-423.74C219.75,-423.74 142.25,-423.74 142.25,-423.74 136.25,-423.74 130.25,-417.74 130.25,-411.74 130.25,-411.74 130.25,-368.49 130.25,-368.49 130.25,-362.49 136.25,-356.49 142.25,-356.49 142.25,-356.49 219.75,-356.49 219.75,-356.49 225.75,-356.49 231.75,-362.49 231.75,-368.49 231.75,-368.49 231.75,-411.74 231.75,-411.74 231.75,-417.74 225.75,-423.74 219.75,-423.74"/>
<text xml:space="preserve" text-anchor="middle" x="181" y="-409.29" font-family="Helvetica,sans-Serif" font-size="11.00">SevereEmptyImpl</text>
<text xml:space="preserve" text-anchor="middle" x="181" y="-397.29" font-family="Helvetica,sans-Serif" font-size="11.00">impl 存在</text>
<text xml:space="preserve" text-anchor="middle" x="181" y="-381.54" font-family="Helvetica,sans-Serif" font-size="11.00">但无任何方法</text>
<text xml:space="preserve" text-anchor="middle" x="181" y="-365.79" font-family="Helvetica,sans-Serif" font-size="11.00">【高风险】</text>
</g>
<!-- cls&#45;&gt;c2 -->
<g id="edge10" class="edge">
<title>cls&#45;&gt;c2</title>
<path fill="none" stroke="black" d="M291.47,-465.88C277.88,-456.68 258.23,-443.38 239.25,-430.54"/>
<polygon fill="black" stroke="black" points="241.22,-427.65 230.98,-424.94 237.3,-433.45 241.22,-427.65"/>
</g>
<!-- c3 -->
<g id="node11" class="node">
<title>c3</title>
<path fill="#fff9c4" stroke="black" d="M356.38,-423.74C356.38,-423.74 261.62,-423.74 261.62,-423.74 255.62,-423.74 249.62,-417.74 249.62,-411.74 249.62,-411.74 249.62,-368.49 249.62,-368.49 249.62,-362.49 255.62,-356.49 261.62,-356.49 261.62,-356.49 356.38,-356.49 356.38,-356.49 362.38,-356.49 368.38,-362.49 368.38,-368.49 368.38,-368.49 368.38,-411.74 368.38,-411.74 368.38,-417.74 362.38,-423.74 356.38,-423.74"/>
<text xml:space="preserve" text-anchor="middle" x="309" y="-409.29" font-family="Helvetica,sans-Serif" font-size="11.00">PartialMissingMethod</text>
<text xml:space="preserve" text-anchor="middle" x="309" y="-397.29" font-family="Helvetica,sans-Serif" font-size="11.00">有其他方法</text>
<text xml:space="preserve" text-anchor="middle" x="309" y="-381.54" font-family="Helvetica,sans-Serif" font-size="11.00">但无目标方法</text>
<text xml:space="preserve" text-anchor="middle" x="309" y="-365.79" font-family="Helvetica,sans-Serif" font-size="11.00">【中风险】</text>
</g>
<!-- cls&#45;&gt;c3 -->
<g id="edge11" class="edge">
<title>cls&#45;&gt;c3</title>
<path fill="none" stroke="black" d="M309,-460.63C309,-453.28 309,-444.32 309,-435.31"/>
<polygon fill="black" stroke="black" points="312.5,-435.49 309,-425.49 305.5,-435.49 312.5,-435.49"/>
</g>
<!-- c4 -->
<g id="node12" class="node">
<title>c4</title>
<path fill="#ffe0b2" stroke="black" d="M501.88,-423.74C501.88,-423.74 398.12,-423.74 398.12,-423.74 392.12,-423.74 386.12,-417.74 386.12,-411.74 386.12,-411.74 386.12,-368.49 386.12,-368.49 386.12,-362.49 392.12,-356.49 398.12,-356.49 398.12,-356.49 501.88,-356.49 501.88,-356.49 507.88,-356.49 513.88,-362.49 513.88,-368.49 513.88,-368.49 513.88,-411.74 513.88,-411.74 513.88,-417.74 507.88,-423.74 501.88,-423.74"/>
<text xml:space="preserve" text-anchor="middle" x="450" y="-409.29" font-family="Helvetica,sans-Serif" font-size="11.00">MisplacedFreeFunction</text>
<text xml:space="preserve" text-anchor="middle" x="450" y="-397.29" font-family="Helvetica,sans-Serif" font-size="11.00">目标更像自由函数</text>
<text xml:space="preserve" text-anchor="middle" x="450" y="-381.54" font-family="Helvetica,sans-Serif" font-size="11.00">非关联函数</text>
<text xml:space="preserve" text-anchor="middle" x="450" y="-365.79" font-family="Helvetica,sans-Serif" font-size="11.00">【中风险】</text>
</g>
<!-- cls&#45;&gt;c4 -->
<g id="edge12" class="edge">
<title>cls&#45;&gt;c4</title>
<path fill="none" stroke="black" d="M327.72,-466.24C342.86,-456.94 365.09,-443.28 386.46,-430.15"/>
<polygon fill="black" stroke="black" points="388.22,-433.18 394.9,-424.97 384.55,-427.22 388.22,-433.18"/>
</g>
<!-- c5 -->
<g id="node13" class="node">
<title>c5</title>
<path fill="#c8e6c9" stroke="black" d="M638,-423.74C638,-423.74 544,-423.74 544,-423.74 538,-423.74 532,-417.74 532,-411.74 532,-411.74 532,-368.49 532,-368.49 532,-362.49 538,-356.49 544,-356.49 544,-356.49 638,-356.49 638,-356.49 644,-356.49 650,-362.49 650,-368.49 650,-368.49 650,-411.74 650,-411.74 650,-417.74 644,-423.74 638,-423.74"/>
<text xml:space="preserve" text-anchor="middle" x="591" y="-409.29" font-family="Helvetica,sans-Serif" font-size="11.00">MinimalPass</text>
<text xml:space="preserve" text-anchor="middle" x="591" y="-397.29" font-family="Helvetica,sans-Serif" font-size="11.00">方法存在</text>
<text xml:space="preserve" text-anchor="middle" x="591" y="-381.54" font-family="Helvetica,sans-Serif" font-size="11.00">/ enum/trait 保守降级</text>
<text xml:space="preserve" text-anchor="middle" x="591" y="-365.79" font-family="Helvetica,sans-Serif" font-size="11.00">【低风险】</text>
</g>
<!-- cls&#45;&gt;c5 -->
<g id="edge13" class="edge">
<title>cls&#45;&gt;c5</title>
<path fill="none" stroke="black" d="M343.73,-471.21C384.43,-463.08 453.88,-447.71 520.86,-424.28"/>
<polygon fill="black" stroke="black" points="521.92,-427.62 530.16,-420.96 519.57,-421.03 521.92,-427.62"/>
</g>
<!-- out_analyze -->
<g id="node18" class="node">
<title>out_analyze</title>
<polygon fill="#fff9c4" stroke="black" points="366.12,-319.49 245.88,-319.49 245.88,-283.49 372.12,-283.49 372.12,-313.49 366.12,-319.49"/>
<polyline fill="none" stroke="black" points="366.12,-319.49 366.12,-313.49"/>
<polyline fill="none" stroke="black" points="372.12,-313.49 366.12,-313.49"/>
<text xml:space="preserve" text-anchor="middle" x="309" y="-304.92" font-family="Helvetica,sans-Serif" font-size="11.00">E0599Analysis</text>
<text xml:space="preserve" text-anchor="middle" x="309" y="-292.92" font-family="Helvetica,sans-Serif" font-size="11.00">(分类 + 方法签名集合)</text>
</g>
<!-- c1&#45;&gt;out_analyze -->
<g id="edge14" class="edge">
<title>c1&#45;&gt;out_analyze</title>
<path fill="none" stroke="black" d="M106.85,-356.07C111.49,-353.26 116.25,-350.67 121,-348.49 156.7,-332.14 198.98,-321.13 234.39,-314"/>
<polygon fill="black" stroke="black" points="235,-317.44 244.15,-312.1 233.66,-310.57 235,-317.44"/>
</g>
<!-- c2&#45;&gt;out_analyze -->
<g id="edge15" class="edge">
<title>c2&#45;&gt;out_analyze</title>
<path fill="none" stroke="black" d="M229.76,-356.12C244.42,-346.2 260.23,-335.5 273.83,-326.3"/>
<polygon fill="black" stroke="black" points="275.73,-329.24 282.05,-320.73 271.8,-323.44 275.73,-329.24"/>
</g>
<!-- c3&#45;&gt;out_analyze -->
<g id="edge16" class="edge">
<title>c3&#45;&gt;out_analyze</title>
<path fill="none" stroke="black" d="M309,-356.37C309,-348.1 309,-339.28 309,-331.22"/>
<polygon fill="black" stroke="black" points="312.5,-331.26 309,-321.26 305.5,-331.26 312.5,-331.26"/>
</g>
<!-- c4&#45;&gt;out_analyze -->
<g id="edge17" class="edge">
<title>c4&#45;&gt;out_analyze</title>
<path fill="none" stroke="black" d="M396.29,-356.12C379.82,-346 362.05,-335.09 346.87,-325.76"/>
<polygon fill="black" stroke="black" points="348.95,-322.93 338.6,-320.68 345.29,-328.9 348.95,-322.93"/>
</g>
<!-- c5&#45;&gt;out_analyze -->
<g id="edge18" class="edge">
<title>c5&#45;&gt;out_analyze</title>
<path fill="none" stroke="black" d="M539.54,-356.05C534.07,-353.25 528.5,-350.66 523,-348.49 478.3,-330.89 425.57,-319.46 383.63,-312.39"/>
<polygon fill="black" stroke="black" points="384.31,-308.96 373.88,-310.8 383.18,-315.87 384.31,-308.96"/>
</g>
<!-- d1 -->
<g id="node14" class="node">
<title>d1</title>
<path fill="#fce4ec" stroke="black" d="M150.5,-212.62C150.5,-212.62 41.5,-212.62 41.5,-212.62 35.5,-212.62 29.5,-206.62 29.5,-200.62 29.5,-200.62 29.5,-174.62 29.5,-174.62 29.5,-168.62 35.5,-162.62 41.5,-162.62 41.5,-162.62 150.5,-162.62 150.5,-162.62 156.5,-162.62 162.5,-168.62 162.5,-174.62 162.5,-174.62 162.5,-200.62 162.5,-200.62 162.5,-206.62 156.5,-212.62 150.5,-212.62"/>
<text xml:space="preserve" text-anchor="middle" x="96" y="-198.17" font-family="Helvetica,sans-Serif" font-size="11.00">(Severe*) + LowValue</text>
<text xml:space="preserve" text-anchor="middle" x="96" y="-186.17" font-family="Helvetica,sans-Serif" font-size="11.00">→ SkipLlmCommentOut</text>
<text xml:space="preserve" text-anchor="middle" x="96" y="-171.92" font-family="Helvetica,sans-Serif" font-size="11.00">（需 verify 通过）</text>
</g>
<!-- out_empty -->
<g id="node19" class="node">
<title>out_empty</title>
<ellipse fill="#e8f0fe" stroke="black" cx="371" cy="-61.87" rx="126.4" ry="61.87"/>
<text xml:space="preserve" text-anchor="middle" x="371" y="-91.17" font-family="Helvetica,sans-Serif" font-size="11.00">analyze() → 空 Vec</text>
<text xml:space="preserve" text-anchor="middle" x="371" y="-75.42" font-family="Helvetica,sans-Serif" font-size="11.00">(Analysis Patcher)</text>
<text xml:space="preserve" text-anchor="middle" x="371" y="-63.42" font-family="Helvetica,sans-Serif" font-size="11.00">+ Preflight Digest 注入:</text>
<text xml:space="preserve" text-anchor="middle" x="371" y="-47.67" font-family="Helvetica,sans-Serif" font-size="11.00">E0599_CLASSIFICATION</text>
<text xml:space="preserve" text-anchor="middle" x="371" y="-35.67" font-family="Helvetica,sans-Serif" font-size="11.00">E0599_SUMMARY</text>
<text xml:space="preserve" text-anchor="middle" x="371" y="-23.67" font-family="Helvetica,sans-Serif" font-size="11.00">E0599_METHOD_SIGNATURES</text>
</g>
<!-- d1&#45;&gt;out_empty -->
<g id="edge23" class="edge">
<title>d1&#45;&gt;out_empty</title>
<path fill="none" stroke="black" d="M150.33,-162.17C183.95,-147.04 228.2,-127.13 268.25,-109.11"/>
<polygon fill="black" stroke="black" points="269.54,-112.37 277.22,-105.07 266.66,-105.98 269.54,-112.37"/>
</g>
<!-- d2 -->
<g id="node15" class="node">
<title>d2</title>
<path fill="#ffe0b2" stroke="black" d="M377.38,-212.62C377.38,-212.62 192.62,-212.62 192.62,-212.62 186.62,-212.62 180.62,-206.62 180.62,-200.62 180.62,-200.62 180.62,-174.62 180.62,-174.62 180.62,-168.62 186.62,-162.62 192.62,-162.62 192.62,-162.62 377.38,-162.62 377.38,-162.62 383.38,-162.62 389.38,-168.62 389.38,-174.62 389.38,-174.62 389.38,-200.62 389.38,-200.62 389.38,-206.62 383.38,-212.62 377.38,-212.62"/>
<text xml:space="preserve" text-anchor="middle" x="285" y="-198.17" font-family="Helvetica,sans-Serif" font-size="11.00">MisplacedFreeFunction</text>
<text xml:space="preserve" text-anchor="middle" x="285" y="-186.17" font-family="Helvetica,sans-Serif" font-size="11.00">→ ContinueToLlmWithHints</text>
<text xml:space="preserve" text-anchor="middle" x="285" y="-171.92" font-family="Helvetica,sans-Serif" font-size="11.00">注入命名空间修复提示 + 自由函数签名</text>
</g>
<!-- d2&#45;&gt;out_empty -->
<g id="edge24" class="edge">
<title>d2&#45;&gt;out_empty</title>
<path fill="none" stroke="black" d="M301.99,-162.17C308.52,-152.78 316.33,-141.54 324.31,-130.06"/>
<polygon fill="black" stroke="black" points="327.03,-132.28 329.86,-122.07 321.28,-128.29 327.03,-132.28"/>
</g>
<!-- d3 -->
<g id="node16" class="node">
<title>d3</title>
<path fill="#fff9c4" stroke="black" d="M498.12,-212.62C498.12,-212.62 419.88,-212.62 419.88,-212.62 413.88,-212.62 407.88,-206.62 407.88,-200.62 407.88,-200.62 407.88,-174.62 407.88,-174.62 407.88,-168.62 413.88,-162.62 419.88,-162.62 419.88,-162.62 498.12,-162.62 498.12,-162.62 504.12,-162.62 510.12,-168.62 510.12,-174.62 510.12,-174.62 510.12,-200.62 510.12,-200.62 510.12,-206.62 504.12,-212.62 498.12,-212.62"/>
<text xml:space="preserve" text-anchor="middle" x="459" y="-198.17" font-family="Helvetica,sans-Serif" font-size="11.00">PartialMissing</text>
<text xml:space="preserve" text-anchor="middle" x="459" y="-186.17" font-family="Helvetica,sans-Serif" font-size="11.00">→ ContinueToLlm</text>
<text xml:space="preserve" text-anchor="middle" x="459" y="-171.92" font-family="Helvetica,sans-Serif" font-size="11.00">（保守放行）</text>
</g>
<!-- d3&#45;&gt;out_empty -->
<g id="edge25" class="edge">
<title>d3&#45;&gt;out_empty</title>
<path fill="none" stroke="black" d="M441.61,-162.17C434.93,-152.78 426.94,-141.54 418.78,-130.06"/>
<polygon fill="black" stroke="black" points="421.74,-128.18 413.09,-122.06 416.04,-132.24 421.74,-128.18"/>
</g>
<!-- d4 -->
<g id="node17" class="node">
<title>d4</title>
<path fill="#e8f5e9" stroke="black" d="M647.38,-214.49C647.38,-214.49 540.62,-214.49 540.62,-214.49 534.62,-214.49 528.62,-208.49 528.62,-202.49 528.62,-202.49 528.62,-172.74 528.62,-172.74 528.62,-166.74 534.62,-160.74 540.62,-160.74 540.62,-160.74 647.38,-160.74 647.38,-160.74 653.38,-160.74 659.38,-166.74 659.38,-172.74 659.38,-172.74 659.38,-202.49 659.38,-202.49 659.38,-208.49 653.38,-214.49 647.38,-214.49"/>
<text xml:space="preserve" text-anchor="middle" x="594" y="-200.04" font-family="Helvetica,sans-Serif" font-size="11.00">MinimalPass / 分析失败</text>
<text xml:space="preserve" text-anchor="middle" x="594" y="-184.29" font-family="Helvetica,sans-Serif" font-size="11.00">→ ContinueToLlm</text>
<text xml:space="preserve" text-anchor="middle" x="594" y="-170.04" font-family="Helvetica,sans-Serif" font-size="11.00">（保守放行）</text>
</g>
<!-- d4&#45;&gt;out_empty -->
<g id="edge26" class="edge">
<title>d4&#45;&gt;out_empty</title>
<path fill="none" stroke="black" d="M546.71,-160.38C522.58,-146.98 492.36,-130.22 463.82,-114.38"/>
<polygon fill="black" stroke="black" points="465.57,-111.35 455.13,-109.56 462.18,-117.47 465.57,-111.35"/>
</g>
<!-- out_analyze&#45;&gt;d1 -->
<g id="edge19" class="edge">
<title>out_analyze&#45;&gt;d1</title>
<path fill="none" stroke="black" d="M251.81,-283.06C226.36,-274.01 196.64,-261.61 172,-246.24 159.36,-238.36 146.22,-228.91 134.49,-219.95"/>
<polygon fill="black" stroke="black" points="136.67,-217.21 126.62,-213.85 132.38,-222.74 136.67,-217.21"/>
<text xml:space="preserve" text-anchor="middle" x="249.96" y="-255.99" font-family="Helvetica,sans-Serif" font-size="10.00">Severe + LowValue</text>
</g>
<!-- out_analyze&#45;&gt;d2 -->
<g id="edge20" class="edge">
<title>out_analyze&#45;&gt;d2</title>
<path fill="none" stroke="black" d="M305.25,-283.01C301.88,-267.29 296.82,-243.72 292.6,-224.06"/>
<polygon fill="black" stroke="black" points="296.07,-223.56 290.55,-214.51 289.23,-225.02 296.07,-223.56"/>
<text xml:space="preserve" text-anchor="middle" x="351.86" y="-255.99" font-family="Helvetica,sans-Serif" font-size="10.00">MisplacedFreeFunction</text>
</g>
<!-- out_analyze&#45;&gt;d3 -->
<g id="edge21" class="edge">
<title>out_analyze&#45;&gt;d3</title>
<path fill="none" stroke="black" d="M372.49,-284.03C384.32,-279.23 396.07,-273.15 406,-265.49 420.71,-254.16 432.87,-237.57 441.81,-222.7"/>
<polygon fill="black" stroke="black" points="444.81,-224.51 446.73,-214.09 438.73,-221.03 444.81,-224.51"/>
<text xml:space="preserve" text-anchor="middle" x="448.02" y="-255.99" font-family="Helvetica,sans-Serif" font-size="10.00">PartialMissing</text>
</g>
<!-- out_analyze&#45;&gt;d4 -->
<g id="edge22" class="edge">
<title>out_analyze&#45;&gt;d4</title>
<path fill="none" stroke="black" d="M372.62,-292.27C406.11,-286.81 447.47,-278.25 483,-265.49 500.08,-259.36 503.75,-256.08 519,-246.24 530.53,-238.8 542.53,-230.07 553.46,-221.7"/>
<polygon fill="black" stroke="black" points="555.42,-224.61 561.16,-215.71 551.12,-219.08 555.42,-224.61"/>
<text xml:space="preserve" text-anchor="middle" x="534.61" y="-255.99" font-family="Helvetica,sans-Serif" font-size="10.00">MinimalPass</text>
</g>
</g>
</svg>
