<?xml version="1.0" encoding="UTF-8" standalone="no"?>
<!DOCTYPE svg PUBLIC "-//W3C//DTD SVG 1.1//EN"
 "http://www.w3.org/Graphics/SVG/1.1/DTD/svg11.dtd">
<!-- Generated by graphviz version 14.1.2 (20260124.0452)
 -->
<!-- Title: e0308_layers_hybrid Pages: 1 -->
<svg width="1548pt" height="1881pt"
 viewBox="0.00 0.00 1548.00 1881.00" xmlns="http://www.w3.org/2000/svg" xmlns:xlink="http://www.w3.org/1999/xlink">
<g id="graph0" class="graph" transform="scale(1 1) rotate(0) translate(4 1877.01)">
<title>e0308_layers_hybrid</title>
<polygon fill="white" stroke="none" points="-4,4 -4,-1877.01 1544,-1877.01 1544,4 -4,4"/>
<text xml:space="preserve" text-anchor="middle" x="770" y="-1855.71" font-family="Helvetica,sans-Serif" font-weight="bold" font-size="14.00">E0308Patcher 混合策略：多源提取 + 五级分类 + 条件规则修复 + Preflight 决策</text>
<g id="clust1" class="cluster">
<title>cluster_l1</title>
<path fill="#e8f0fe" fill-opacity="0.301961" stroke="#1a73e8" d="M861,-1531.5C861,-1531.5 1338,-1531.5 1338,-1531.5 1344,-1531.5 1350,-1537.5 1350,-1543.5 1350,-1543.5 1350,-1760.5 1350,-1760.5 1350,-1766.5 1344,-1772.5 1338,-1772.5 1338,-1772.5 861,-1772.5 861,-1772.5 855,-1772.5 849,-1766.5 849,-1760.5 849,-1760.5 849,-1543.5 849,-1543.5 849,-1537.5 855,-1531.5 861,-1531.5"/>
<text xml:space="preserve" text-anchor="middle" x="947" y="-1758.05" font-family="Helvetica,sans-Serif" font-weight="bold" font-size="11.00">第一层：多源类型提取（按优先级）</text>
</g>
<g id="clust2" class="cluster">
<title>cluster_l2</title>
<path fill="#fff9c4" fill-opacity="0.301961" stroke="#f57f17" d="M671,-1259.75C671,-1259.75 1498,-1259.75 1498,-1259.75 1504,-1259.75 1510,-1265.75 1510,-1271.75 1510,-1271.75 1510,-1500.5 1510,-1500.5 1510,-1506.5 1504,-1512.5 1498,-1512.5 1498,-1512.5 671,-1512.5 671,-1512.5 665,-1512.5 659,-1506.5 659,-1500.5 659,-1500.5 659,-1271.75 659,-1271.75 659,-1265.75 665,-1259.75 671,-1259.75"/>
<text xml:space="preserve" text-anchor="middle" x="785.12" y="-1498.05" font-family="Helvetica,sans-Serif" font-weight="bold" font-size="11.00">第二层：五级分类体系（按优先级命中即停止）</text>
</g>
<g id="clust3" class="cluster">
<title>cluster_l3</title>
<path fill="#c8e6c9" fill-opacity="0.301961" stroke="#388e3c" d="M20,-685.63C20,-685.63 563,-685.63 563,-685.63 569,-685.63 575,-691.63 575,-697.63 575,-697.63 575,-1228.75 575,-1228.75 575,-1234.75 569,-1240.75 563,-1240.75 563,-1240.75 20,-1240.75 20,-1240.75 14,-1240.75 8,-1234.75 8,-1228.75 8,-1228.75 8,-697.63 8,-697.63 8,-691.63 14,-685.63 20,-685.63"/>
<text xml:space="preserve" text-anchor="middle" x="218.5" y="-1226.3" font-family="Helvetica,sans-Serif" font-weight="bold" font-size="11.00">第三层：NominalHallucination 四轨规则修复策略（仅当分类=Nominal 时触发）</text>
</g>
<g id="clust4" class="cluster">
<title>cluster_l4</title>
<path fill="#e8f5e9" fill-opacity="0.301961" stroke="#2e7d32" d="M714,-689C714,-689 1520,-689 1520,-689 1526,-689 1532,-695 1532,-701 1532,-701 1532,-796.75 1532,-796.75 1532,-802.75 1526,-808.75 1520,-808.75 1520,-808.75 714,-808.75 714,-808.75 708,-808.75 702,-802.75 702,-796.75 702,-796.75 702,-701 702,-701 702,-695 708,-689 714,-689"/>
<text xml:space="preserve" text-anchor="middle" x="759.12" y="-794.3" font-family="Helvetica,sans-Serif" font-weight="bold" font-size="11.00">第四层：Hints 生成</text>
</g>
<g id="clust5" class="cluster">
<title>cluster_l5</title>
<path fill="#fce4ec" fill-opacity="0.301961" stroke="#c62828" d="M758,-462.88C758,-462.88 971,-462.88 971,-462.88 977,-462.88 983,-468.88 983,-474.88 983,-474.88 983,-654.63 983,-654.63 983,-660.63 977,-666.63 971,-666.63 971,-666.63 758,-666.63 758,-666.63 752,-666.63 746,-660.63 746,-654.63 746,-654.63 746,-474.88 746,-474.88 746,-468.88 752,-462.88 758,-462.88"/>
<text xml:space="preserve" text-anchor="middle" x="864.25" y="-652.18" font-family="Helvetica,sans-Serif" font-weight="bold" font-size="11.00">第五层：多诊断优先级选择与 Preflight 决策</text>
</g>
<g id="clust6" class="cluster">
<title>cluster_pf</title>
<path fill="#f3e5f5" fill-opacity="0.301961" stroke="#7b1fa2" d="M480,-340.13C480,-340.13 1285,-340.13 1285,-340.13 1291,-340.13 1297,-346.13 1297,-352.13 1297,-352.13 1297,-421.63 1297,-421.63 1297,-427.63 1291,-433.63 1285,-433.63 1285,-433.63 480,-433.63 480,-433.63 474,-433.63 468,-427.63 468,-421.63 468,-421.63 468,-352.13 468,-352.13 468,-346.13 474,-340.13 480,-340.13"/>
<text xml:space="preserve" text-anchor="middle" x="522.5" y="-419.18" font-family="Helvetica,sans-Serif" font-weight="bold" font-size="11.00">Preflight 决策映射</text>
</g>
<!-- diag -->
<g id="node1" class="node">
<title>diag</title>
<ellipse fill="#fff3e0" stroke="black" cx="1072" cy="-1822.13" rx="46.85" ry="22.63"/>
<text xml:space="preserve" text-anchor="middle" x="1072" y="-1823.68" font-family="Helvetica,sans-Serif" font-size="11.00">Diagnostic</text>
<text xml:space="preserve" text-anchor="middle" x="1072" y="-1811.68" font-family="Helvetica,sans-Serif" font-size="11.00">(E0308)</text>
</g>
<!-- s1 -->
<g id="node2" class="node">
<title>s1</title>
<path fill="#bbdefb" stroke="black" d="M964.75,-1732.88C964.75,-1732.88 869.25,-1732.88 869.25,-1732.88 863.25,-1732.88 857.25,-1726.88 857.25,-1720.88 857.25,-1720.88 857.25,-1705.38 857.25,-1705.38 857.25,-1699.38 863.25,-1693.38 869.25,-1693.38 869.25,-1693.38 964.75,-1693.38 964.75,-1693.38 970.75,-1693.38 976.75,-1699.38 976.75,-1705.38 976.75,-1705.38 976.75,-1720.88 976.75,-1720.88 976.75,-1726.88 970.75,-1732.88 964.75,-1732.88"/>
<text xml:space="preserve" text-anchor="middle" x="917" y="-1718.43" font-family="Helvetica,sans-Serif" font-size="11.00">① Primary span label</text>
<text xml:space="preserve" text-anchor="middle" x="917" y="-1702.68" font-family="Helvetica,sans-Serif" font-size="11.00">置信度: High</text>
</g>
<!-- diag&#45;&gt;s1 -->
<g id="edge1" class="edge">
<title>diag&#45;&gt;s1</title>
<path fill="none" stroke="black" d="M1040.08,-1805.26C1023.22,-1796.39 1002.45,-1784.69 985,-1772.5 971.38,-1762.99 957.29,-1751.26 945.49,-1740.81"/>
<polygon fill="black" stroke="black" points="947.86,-1738.24 938.09,-1734.14 943.18,-1743.44 947.86,-1738.24"/>
</g>
<!-- s2 -->
<g id="node3" class="node">
<title>s2</title>
<path fill="#bbdefb" stroke="black" d="M1063.62,-1732.88C1063.62,-1732.88 1006.38,-1732.88 1006.38,-1732.88 1000.38,-1732.88 994.38,-1726.88 994.38,-1720.88 994.38,-1720.88 994.38,-1705.38 994.38,-1705.38 994.38,-1699.38 1000.38,-1693.38 1006.38,-1693.38 1006.38,-1693.38 1063.62,-1693.38 1063.62,-1693.38 1069.62,-1693.38 1075.62,-1699.38 1075.62,-1705.38 1075.62,-1705.38 1075.62,-1720.88 1075.62,-1720.88 1075.62,-1726.88 1069.62,-1732.88 1063.62,-1732.88"/>
<text xml:space="preserve" text-anchor="middle" x="1035" y="-1718.43" font-family="Helvetica,sans-Serif" font-size="11.00">② Child Note</text>
<text xml:space="preserve" text-anchor="middle" x="1035" y="-1702.68" font-family="Helvetica,sans-Serif" font-size="11.00">置信度: High</text>
</g>
<!-- diag&#45;&gt;s2 -->
<g id="edge2" class="edge">
<title>diag&#45;&gt;s2</title>
<path fill="none" stroke="black" d="M1064.51,-1799.48C1059,-1783.55 1051.45,-1761.69 1045.36,-1744.09"/>
<polygon fill="black" stroke="black" points="1048.68,-1742.98 1042.1,-1734.67 1042.06,-1745.26 1048.68,-1742.98"/>
</g>
<!-- s3 -->
<g id="node4" class="node">
<title>s3</title>
<path fill="#90caf9" stroke="black" d="M1212.38,-1738.88C1212.38,-1738.88 1105.62,-1738.88 1105.62,-1738.88 1099.62,-1738.88 1093.62,-1732.88 1093.62,-1726.88 1093.62,-1726.88 1093.62,-1699.38 1093.62,-1699.38 1093.62,-1693.38 1099.62,-1687.38 1105.62,-1687.38 1105.62,-1687.38 1212.38,-1687.38 1212.38,-1687.38 1218.38,-1687.38 1224.38,-1693.38 1224.38,-1699.38 1224.38,-1699.38 1224.38,-1726.88 1224.38,-1726.88 1224.38,-1732.88 1218.38,-1738.88 1212.38,-1738.88"/>
<text xml:space="preserve" text-anchor="middle" x="1159" y="-1724.43" font-family="Helvetica,sans-Serif" font-size="11.00">③ Child Help /</text>
<text xml:space="preserve" text-anchor="middle" x="1159" y="-1708.68" font-family="Helvetica,sans-Serif" font-size="11.00">suggested_replacement</text>
<text xml:space="preserve" text-anchor="middle" x="1159" y="-1696.68" font-family="Helvetica,sans-Serif" font-size="11.00">置信度: Medium</text>
</g>
<!-- diag&#45;&gt;s3 -->
<g id="edge3" class="edge">
<title>diag&#45;&gt;s3</title>
<path fill="none" stroke="black" d="M1088.57,-1800.75C1100.66,-1785.88 1117.33,-1765.38 1131.41,-1748.06"/>
<polygon fill="black" stroke="black" points="1133.96,-1750.47 1137.55,-1740.51 1128.53,-1746.06 1133.96,-1750.47"/>
</g>
<!-- s4 -->
<g id="node5" class="node">
<title>s4</title>
<path fill="#64b5f6" stroke="black" d="M1330,-1740.75C1330,-1740.75 1254,-1740.75 1254,-1740.75 1248,-1740.75 1242,-1734.75 1242,-1728.75 1242,-1728.75 1242,-1697.5 1242,-1697.5 1242,-1691.5 1248,-1685.5 1254,-1685.5 1254,-1685.5 1330,-1685.5 1330,-1685.5 1336,-1685.5 1342,-1691.5 1342,-1697.5 1342,-1697.5 1342,-1728.75 1342,-1728.75 1342,-1734.75 1336,-1740.75 1330,-1740.75"/>
<text xml:space="preserve" text-anchor="middle" x="1292" y="-1726.3" font-family="Helvetica,sans-Serif" font-size="11.00">④ Main message</text>
<text xml:space="preserve" text-anchor="middle" x="1292" y="-1710.55" font-family="Helvetica,sans-Serif" font-size="11.00">（fallback）</text>
<text xml:space="preserve" text-anchor="middle" x="1292" y="-1694.8" font-family="Helvetica,sans-Serif" font-size="11.00">置信度: Low</text>
</g>
<!-- diag&#45;&gt;s4 -->
<g id="edge4" class="edge">
<title>diag&#45;&gt;s4</title>
<path fill="none" stroke="black" d="M1116.04,-1813.84C1149.8,-1806.87 1196.61,-1794.15 1233,-1772.5 1243.42,-1766.3 1253.36,-1757.88 1262.01,-1749.35"/>
<polygon fill="black" stroke="black" points="1264.39,-1751.93 1268.83,-1742.31 1259.36,-1747.06 1264.39,-1751.93"/>
</g>
<!-- re1 -->
<g id="node6" class="node">
<title>re1</title>
<path fill="#e8f0fe" stroke="black" d="M1093.25,-1648.5C1093.25,-1648.5 910.75,-1648.5 910.75,-1648.5 904.75,-1648.5 898.75,-1642.5 898.75,-1636.5 898.75,-1636.5 898.75,-1624.5 898.75,-1624.5 898.75,-1618.5 904.75,-1612.5 910.75,-1612.5 910.75,-1612.5 1093.25,-1612.5 1093.25,-1612.5 1099.25,-1612.5 1105.25,-1618.5 1105.25,-1624.5 1105.25,-1624.5 1105.25,-1636.5 1105.25,-1636.5 1105.25,-1642.5 1099.25,-1648.5 1093.25,-1648.5"/>
<text xml:space="preserve" text-anchor="middle" x="1002" y="-1633.93" font-family="Helvetica,sans-Serif" font-size="11.00">RE_EXPECTED_FOUND_BACKTICK</text>
<text xml:space="preserve" text-anchor="middle" x="1002" y="-1621.93" font-family="Helvetica,sans-Serif" font-size="11.00">同时匹配 expected + found</text>
</g>
<!-- s1&#45;&gt;re1 -->
<g id="edge5" class="edge">
<title>s1&#45;&gt;re1</title>
<path fill="none" stroke="black" d="M937.14,-1693.02C948.63,-1682.12 963.17,-1668.34 975.56,-1656.58"/>
<polygon fill="black" stroke="black" points="977.79,-1659.29 982.64,-1649.86 972.98,-1654.21 977.79,-1659.29"/>
</g>
<!-- s2&#45;&gt;re1 -->
<g id="edge6" class="edge">
<title>s2&#45;&gt;re1</title>
<path fill="none" stroke="black" d="M1027.18,-1693.02C1023.06,-1682.96 1017.94,-1670.44 1013.39,-1659.33"/>
<polygon fill="black" stroke="black" points="1016.69,-1658.15 1009.66,-1650.22 1010.21,-1660.8 1016.69,-1658.15"/>
</g>
<!-- re2 -->
<g id="node7" class="node">
<title>re2</title>
<path fill="#e8f0fe" stroke="black" d="M1250.88,-1648.5C1250.88,-1648.5 1135.12,-1648.5 1135.12,-1648.5 1129.12,-1648.5 1123.12,-1642.5 1123.12,-1636.5 1123.12,-1636.5 1123.12,-1624.5 1123.12,-1624.5 1123.12,-1618.5 1129.12,-1612.5 1135.12,-1612.5 1135.12,-1612.5 1250.88,-1612.5 1250.88,-1612.5 1256.88,-1612.5 1262.88,-1618.5 1262.88,-1624.5 1262.88,-1624.5 1262.88,-1636.5 1262.88,-1636.5 1262.88,-1642.5 1256.88,-1648.5 1250.88,-1648.5"/>
<text xml:space="preserve" text-anchor="middle" x="1193" y="-1632.05" font-family="Helvetica,sans-Serif" font-size="11.00">RE_EXPECTED_ONLY /</text>
<text xml:space="preserve" text-anchor="middle" x="1193" y="-1620.05" font-family="Helvetica,sans-Serif" font-size="11.00">RE_FOUND_ONLY</text>
</g>
<!-- s3&#45;&gt;re2 -->
<g id="edge7" class="edge">
<title>s3&#45;&gt;re2</title>
<path fill="none" stroke="black" d="M1169.57,-1687.06C1173.29,-1678.25 1177.48,-1668.31 1181.28,-1659.29"/>
<polygon fill="black" stroke="black" points="1184.42,-1660.86 1185.08,-1650.28 1177.97,-1658.14 1184.42,-1660.86"/>
</g>
<!-- s4&#45;&gt;re2 -->
<g id="edge8" class="edge">
<title>s4&#45;&gt;re2</title>
<path fill="none" stroke="black" d="M1258.76,-1685.06C1247.15,-1675.6 1234.19,-1665.05 1222.87,-1655.83"/>
<polygon fill="black" stroke="black" points="1225.33,-1653.32 1215.37,-1649.72 1220.91,-1658.75 1225.33,-1653.32"/>
</g>
<!-- efpair -->
<g id="node8" class="node">
<title>efpair</title>
<path fill="#e8f0fe" stroke="black" d="M1141.62,-1575.5C1141.62,-1575.5 1054.38,-1575.5 1054.38,-1575.5 1048.38,-1575.5 1042.38,-1569.5 1042.38,-1563.5 1042.38,-1563.5 1042.38,-1551.5 1042.38,-1551.5 1042.38,-1545.5 1048.38,-1539.5 1054.38,-1539.5 1054.38,-1539.5 1141.62,-1539.5 1141.62,-1539.5 1147.62,-1539.5 1153.62,-1545.5 1153.62,-1551.5 1153.62,-1551.5 1153.62,-1563.5 1153.62,-1563.5 1153.62,-1569.5 1147.62,-1575.5 1141.62,-1575.5"/>
<text xml:space="preserve" text-anchor="middle" x="1098" y="-1559.05" font-family="Helvetica,sans-Serif" font-size="11.00">ExpectedFoundPair</text>
<text xml:space="preserve" text-anchor="middle" x="1098" y="-1547.05" font-family="Helvetica,sans-Serif" font-size="11.00">+ confidence</text>
</g>
<!-- re1&#45;&gt;efpair -->
<g id="edge9" class="edge">
<title>re1&#45;&gt;efpair</title>
<path fill="none" stroke="black" d="M1025.24,-1612.31C1037.3,-1603.4 1052.22,-1592.36 1065.41,-1582.6"/>
<polygon fill="black" stroke="black" points="1067.47,-1585.44 1073.43,-1576.68 1063.3,-1579.81 1067.47,-1585.44"/>
</g>
<!-- re2&#45;&gt;efpair -->
<g id="edge10" class="edge">
<title>re2&#45;&gt;efpair</title>
<path fill="none" stroke="black" d="M1170,-1612.31C1158.07,-1603.4 1143.3,-1592.36 1130.25,-1582.6"/>
<polygon fill="black" stroke="black" points="1132.43,-1579.87 1122.33,-1576.68 1128.24,-1585.47 1132.43,-1579.87"/>
</g>
<!-- cls -->
<g id="node9" class="node">
<title>cls</title>
<path fill="#fff3e0" stroke="black" d="M1086.92,-1476.13C1086.92,-1476.13 1014.33,-1445.87 1014.33,-1445.87 1008.79,-1443.56 1008.79,-1438.94 1014.33,-1436.63 1014.33,-1436.63 1086.92,-1406.37 1086.92,-1406.37 1092.46,-1404.06 1103.54,-1404.06 1109.08,-1406.37 1109.08,-1406.37 1181.67,-1436.63 1181.67,-1436.63 1187.21,-1438.94 1187.21,-1443.56 1181.67,-1445.87 1181.67,-1445.87 1109.08,-1476.13 1109.08,-1476.13 1103.54,-1478.44 1092.46,-1478.44 1086.92,-1476.13"/>
<text xml:space="preserve" text-anchor="middle" x="1098" y="-1446.55" font-family="Helvetica,sans-Serif" font-size="11.00">分类判断</text>
<text xml:space="preserve" text-anchor="middle" x="1098" y="-1430.8" font-family="Helvetica,sans-Serif" font-size="11.00">（优先级降序）</text>
</g>
<!-- efpair&#45;&gt;cls -->
<g id="edge11" class="edge">
<title>efpair&#45;&gt;cls</title>
<path fill="none" stroke="black" d="M1098,-1539.15C1098,-1526.67 1098,-1509.17 1098,-1492.47"/>
<polygon fill="black" stroke="black" points="1101.5,-1492.62 1098,-1482.62 1094.5,-1492.62 1101.5,-1492.62"/>
</g>
<!-- c1 -->
<g id="node10" class="node">
<title>c1</title>
<path fill="#ffcdd2" stroke="black" d="M979.38,-1350.75C979.38,-1350.75 848.62,-1350.75 848.62,-1350.75 842.62,-1350.75 836.62,-1344.75 836.62,-1338.75 836.62,-1338.75 836.62,-1283.5 836.62,-1283.5 836.62,-1277.5 842.62,-1271.5 848.62,-1271.5 848.62,-1271.5 979.38,-1271.5 979.38,-1271.5 985.38,-1271.5 991.38,-1277.5 991.38,-1283.5 991.38,-1283.5 991.38,-1338.75 991.38,-1338.75 991.38,-1344.75 985.38,-1350.75 979.38,-1350.75"/>
<text xml:space="preserve" text-anchor="middle" x="914" y="-1336.3" font-family="Helvetica,sans-Serif" font-size="11.00">① SetupHell</text>
<text xml:space="preserve" text-anchor="middle" x="914" y="-1320.55" font-family="Helvetica,sans-Serif" font-size="11.00">fmt::Formatter / *mut / *const</text>
<text xml:space="preserve" text-anchor="middle" x="914" y="-1308.55" font-family="Helvetica,sans-Serif" font-size="11.00">UnsafeCell / Pin</text>
<text xml:space="preserve" text-anchor="middle" x="914" y="-1296.55" font-family="Helvetica,sans-Serif" font-size="11.00">修复策略：不生成 Action</text>
<text xml:space="preserve" text-anchor="middle" x="914" y="-1280.8" font-family="Helvetica,sans-Serif" font-size="11.00">注入 hints</text>
</g>
<!-- cls&#45;&gt;c1 -->
<g id="edge12" class="edge">
<title>cls&#45;&gt;c1</title>
<path fill="none" stroke="black" d="M1062.96,-1415.85C1039.35,-1399.41 1007.49,-1377.23 979.3,-1357.6"/>
<polygon fill="black" stroke="black" points="981.35,-1354.76 971.14,-1351.91 977.35,-1360.5 981.35,-1354.76"/>
<text xml:space="preserve" text-anchor="middle" x="1032.89" y="-1374.25" font-family="Helvetica,sans-Serif" font-size="10.00">1st check</text>
</g>
<!-- c2 -->
<g id="node11" class="node">
<title>c2</title>
<path fill="#ffcdd2" stroke="black" d="M1174.25,-1354.5C1174.25,-1354.5 1021.75,-1354.5 1021.75,-1354.5 1015.75,-1354.5 1009.75,-1348.5 1009.75,-1342.5 1009.75,-1342.5 1009.75,-1279.75 1009.75,-1279.75 1009.75,-1273.75 1015.75,-1267.75 1021.75,-1267.75 1021.75,-1267.75 1174.25,-1267.75 1174.25,-1267.75 1180.25,-1267.75 1186.25,-1273.75 1186.25,-1279.75 1186.25,-1279.75 1186.25,-1342.5 1186.25,-1342.5 1186.25,-1348.5 1180.25,-1354.5 1174.25,-1354.5"/>
<text xml:space="preserve" text-anchor="middle" x="1098" y="-1340.05" font-family="Helvetica,sans-Serif" font-size="11.00">② WrapperMismatch</text>
<text xml:space="preserve" text-anchor="middle" x="1098" y="-1324.3" font-family="Helvetica,sans-Serif" font-size="11.00">一侧含 Option/Result/Box/Rc/Arc</text>
<text xml:space="preserve" text-anchor="middle" x="1098" y="-1308.55" font-family="Helvetica,sans-Serif" font-size="11.00">另一侧不含</text>
<text xml:space="preserve" text-anchor="middle" x="1098" y="-1292.8" font-family="Helvetica,sans-Serif" font-size="11.00">修复策略：不生成 Action</text>
<text xml:space="preserve" text-anchor="middle" x="1098" y="-1277.05" font-family="Helvetica,sans-Serif" font-size="11.00">注入 hints</text>
</g>
<!-- cls&#45;&gt;c2 -->
<g id="edge13" class="edge">
<title>cls&#45;&gt;c2</title>
<path fill="none" stroke="black" d="M1098,-1401.46C1098,-1390.3 1098,-1377.92 1098,-1366.02"/>
<polygon fill="black" stroke="black" points="1101.5,-1366.32 1098,-1356.32 1094.5,-1366.32 1101.5,-1366.32"/>
<text xml:space="preserve" text-anchor="middle" x="1105.88" y="-1374.25" font-family="Helvetica,sans-Serif" font-size="10.00">2nd</text>
</g>
<!-- c3 -->
<g id="node12" class="node">
<title>c3</title>
<path fill="#fff9c4" stroke="black" d="M1331.88,-1354.5C1331.88,-1354.5 1216.12,-1354.5 1216.12,-1354.5 1210.12,-1354.5 1204.12,-1348.5 1204.12,-1342.5 1204.12,-1342.5 1204.12,-1279.75 1204.12,-1279.75 1204.12,-1273.75 1210.12,-1267.75 1216.12,-1267.75 1216.12,-1267.75 1331.88,-1267.75 1331.88,-1267.75 1337.88,-1267.75 1343.88,-1273.75 1343.88,-1279.75 1343.88,-1279.75 1343.88,-1342.5 1343.88,-1342.5 1343.88,-1348.5 1337.88,-1354.5 1331.88,-1354.5"/>
<text xml:space="preserve" text-anchor="middle" x="1274" y="-1340.05" font-family="Helvetica,sans-Serif" font-size="11.00">③ MechanicalMismatch</text>
<text xml:space="preserve" text-anchor="middle" x="1274" y="-1324.3" font-family="Helvetica,sans-Serif" font-size="11.00">去引用后基础类型相同</text>
<text xml:space="preserve" text-anchor="middle" x="1274" y="-1308.55" font-family="Helvetica,sans-Serif" font-size="11.00">/ 字符串族 / 数值族</text>
<text xml:space="preserve" text-anchor="middle" x="1274" y="-1292.8" font-family="Helvetica,sans-Serif" font-size="11.00">修复策略：不生成 Action</text>
<text xml:space="preserve" text-anchor="middle" x="1274" y="-1277.05" font-family="Helvetica,sans-Serif" font-size="11.00">注入 hints</text>
</g>
<!-- cls&#45;&gt;c3 -->
<g id="edge14" class="edge">
<title>cls&#45;&gt;c3</title>
<path fill="none" stroke="black" d="M1131.93,-1415.55C1152.93,-1400.26 1180.63,-1380.1 1205.99,-1361.64"/>
<polygon fill="black" stroke="black" points="1207.96,-1364.53 1213.99,-1355.82 1203.84,-1358.87 1207.96,-1364.53"/>
<text xml:space="preserve" text-anchor="middle" x="1192.75" y="-1374.25" font-family="Helvetica,sans-Serif" font-size="10.00">3rd</text>
</g>
<!-- c4 -->
<g id="node13" class="node">
<title>c4</title>
<path fill="#c8e6c9" stroke="black" d="M806.5,-1354.5C806.5,-1354.5 679.5,-1354.5 679.5,-1354.5 673.5,-1354.5 667.5,-1348.5 667.5,-1342.5 667.5,-1342.5 667.5,-1279.75 667.5,-1279.75 667.5,-1273.75 673.5,-1267.75 679.5,-1267.75 679.5,-1267.75 806.5,-1267.75 806.5,-1267.75 812.5,-1267.75 818.5,-1273.75 818.5,-1279.75 818.5,-1279.75 818.5,-1342.5 818.5,-1342.5 818.5,-1348.5 812.5,-1354.5 806.5,-1354.5"/>
<text xml:space="preserve" text-anchor="middle" x="743" y="-1340.05" font-family="Helvetica,sans-Serif" font-size="11.00">④ NominalHallucination</text>
<text xml:space="preserve" text-anchor="middle" x="743" y="-1324.3" font-family="Helvetica,sans-Serif" font-size="11.00">含 :: 路径或大写名义类型</text>
<text xml:space="preserve" text-anchor="middle" x="743" y="-1308.55" font-family="Helvetica,sans-Serif" font-size="11.00">tail 相同但路径不同</text>
<text xml:space="preserve" text-anchor="middle" x="743" y="-1292.8" font-family="Helvetica,sans-Serif" font-size="11.00">修复策略：条件生成 Action</text>
<text xml:space="preserve" text-anchor="middle" x="743" y="-1277.05" font-family="Helvetica,sans-Serif" font-size="11.00">（见四轨修复）</text>
</g>
<!-- cls&#45;&gt;c4 -->
<g id="edge15" class="edge">
<title>cls&#45;&gt;c4</title>
<path fill="none" stroke="black" d="M1041.25,-1425C988.36,-1410.18 907.35,-1385.89 829.23,-1354.83"/>
<polygon fill="black" stroke="black" points="830.72,-1351.66 820.14,-1351.17 828.11,-1358.15 830.72,-1351.66"/>
<text xml:space="preserve" text-anchor="middle" x="907.64" y="-1374.25" font-family="Helvetica,sans-Serif" font-size="10.00">4th</text>
</g>
<!-- c5 -->
<g id="node14" class="node">
<title>c5</title>
<path fill="#e8f5e9" stroke="black" d="M1489.88,-1338.75C1489.88,-1338.75 1374.12,-1338.75 1374.12,-1338.75 1368.12,-1338.75 1362.12,-1332.75 1362.12,-1326.75 1362.12,-1326.75 1362.12,-1295.5 1362.12,-1295.5 1362.12,-1289.5 1368.12,-1283.5 1374.12,-1283.5 1374.12,-1283.5 1489.88,-1283.5 1489.88,-1283.5 1495.88,-1283.5 1501.88,-1289.5 1501.88,-1295.5 1501.88,-1295.5 1501.88,-1326.75 1501.88,-1326.75 1501.88,-1332.75 1495.88,-1338.75 1489.88,-1338.75"/>
<text xml:space="preserve" text-anchor="middle" x="1432" y="-1324.3" font-family="Helvetica,sans-Serif" font-size="11.00">⑤ Unknown</text>
<text xml:space="preserve" text-anchor="middle" x="1432" y="-1308.55" font-family="Helvetica,sans-Serif" font-size="11.00">以上不命中 / 提取失败</text>
<text xml:space="preserve" text-anchor="middle" x="1432" y="-1292.8" font-family="Helvetica,sans-Serif" font-size="11.00">修复策略：不生成 Action</text>
</g>
<!-- cls&#45;&gt;c5 -->
<g id="edge16" class="edge">
<title>cls&#45;&gt;c5</title>
<path fill="none" stroke="black" d="M1153.72,-1424.47C1206.07,-1408.95 1286.13,-1383.44 1353,-1354.5 1360.17,-1351.4 1367.56,-1347.89 1374.82,-1344.24"/>
<polygon fill="black" stroke="black" points="1375.95,-1347.59 1383.25,-1339.91 1372.75,-1341.37 1375.95,-1347.59"/>
<text xml:space="preserve" text-anchor="middle" x="1322.19" y="-1374.25" font-family="Helvetica,sans-Serif" font-size="10.00">fallback</text>
</g>
<!-- h1 -->
<g id="node22" class="node">
<title>h1</title>
<path fill="#e8f5e9" stroke="black" d="M1001.88,-755C1001.88,-755 886.12,-755 886.12,-755 880.12,-755 874.12,-749 874.12,-743 874.12,-743 874.12,-731 874.12,-731 874.12,-725 880.12,-719 886.12,-719 886.12,-719 1001.88,-719 1001.88,-719 1007.88,-719 1013.88,-725 1013.88,-731 1013.88,-731 1013.88,-743 1013.88,-743 1013.88,-749 1007.88,-755 1001.88,-755"/>
<text xml:space="preserve" text-anchor="middle" x="944" y="-740.43" font-family="Helvetica,sans-Serif" font-size="11.00">SetupHell hints:</text>
<text xml:space="preserve" text-anchor="middle" x="944" y="-728.43" font-family="Helvetica,sans-Serif" font-size="11.00">避免构造运行时内部类型</text>
</g>
<!-- c1&#45;&gt;h1 -->
<g id="edge25" class="edge">
<title>c1&#45;&gt;h1</title>
<path fill="none" stroke="black" d="M921.46,-1271.18C925.22,-1248.22 929,-1218.57 929,-1192 929,-1192 929,-1192 929,-878.13 929,-839.16 934.8,-794.45 939.19,-766.22"/>
<polygon fill="black" stroke="black" points="942.59,-767.12 940.72,-756.69 935.68,-766.01 942.59,-767.12"/>
</g>
<!-- h2 -->
<g id="node23" class="node">
<title>h2</title>
<path fill="#e8f5e9" stroke="black" d="M1152.12,-760.88C1152.12,-760.88 1043.88,-760.88 1043.88,-760.88 1037.88,-760.88 1031.88,-754.88 1031.88,-748.88 1031.88,-748.88 1031.88,-725.13 1031.88,-725.13 1031.88,-719.13 1037.88,-713.13 1043.88,-713.13 1043.88,-713.13 1152.12,-713.13 1152.12,-713.13 1158.12,-713.13 1164.12,-719.13 1164.12,-725.13 1164.12,-725.13 1164.12,-748.88 1164.12,-748.88 1164.12,-754.88 1158.12,-760.88 1152.12,-760.88"/>
<text xml:space="preserve" text-anchor="middle" x="1098" y="-746.43" font-family="Helvetica,sans-Serif" font-size="11.00">WrapperMismatch hints:</text>
<text xml:space="preserve" text-anchor="middle" x="1098" y="-734.43" font-family="Helvetica,sans-Serif" font-size="11.00">Some(...) / Ok(...) / ?</text>
<text xml:space="preserve" text-anchor="middle" x="1098" y="-722.43" font-family="Helvetica,sans-Serif" font-size="11.00">包装操作建议</text>
</g>
<!-- c2&#45;&gt;h2 -->
<g id="edge26" class="edge">
<title>c2&#45;&gt;h2</title>
<path fill="none" stroke="black" d="M1098,-1267.48C1098,-1245.02 1098,-1217.02 1098,-1192 1098,-1192 1098,-1192 1098,-878.13 1098,-842.15 1098,-800.98 1098,-772.63"/>
<polygon fill="black" stroke="black" points="1101.5,-772.82 1098,-762.82 1094.5,-772.82 1101.5,-772.82"/>
</g>
<!-- h3 -->
<g id="node24" class="node">
<title>h3</title>
<path fill="#e8f5e9" stroke="black" d="M1314.12,-759C1314.12,-759 1193.88,-759 1193.88,-759 1187.88,-759 1181.88,-753 1181.88,-747 1181.88,-747 1181.88,-727 1181.88,-727 1181.88,-721 1187.88,-715 1193.88,-715 1193.88,-715 1314.12,-715 1314.12,-715 1320.12,-715 1326.12,-721 1326.12,-727 1326.12,-727 1326.12,-747 1326.12,-747 1326.12,-753 1320.12,-759 1314.12,-759"/>
<text xml:space="preserve" text-anchor="middle" x="1254" y="-744.55" font-family="Helvetica,sans-Serif" font-size="11.00">MechanicalMismatch hints:</text>
<text xml:space="preserve" text-anchor="middle" x="1254" y="-732.55" font-family="Helvetica,sans-Serif" font-size="11.00">&amp; / &amp;mut / * / as</text>
<text xml:space="preserve" text-anchor="middle" x="1254" y="-720.55" font-family="Helvetica,sans-Serif" font-size="11.00">.into() / .to_string()</text>
</g>
<!-- c3&#45;&gt;h3 -->
<g id="edge27" class="edge">
<title>c3&#45;&gt;h3</title>
<path fill="none" stroke="black" d="M1268.62,-1267.28C1266.25,-1244.89 1264,-1217.01 1264,-1192 1264,-1192 1264,-1192 1264,-878.13 1264,-841.21 1260.5,-798.96 1257.65,-770.59"/>
<polygon fill="black" stroke="black" points="1261.15,-770.42 1256.63,-760.84 1254.19,-771.15 1261.15,-770.42"/>
</g>
<!-- check_nominal -->
<g id="node15" class="node">
<title>check_nominal</title>
<path fill="#fff3e0" stroke="black" d="M397.08,-1207.65C397.08,-1207.65 262.61,-1192.36 262.61,-1192.36 256.65,-1191.68 256.65,-1190.32 262.61,-1189.65 262.61,-1189.65 397.08,-1174.36 397.08,-1174.36 403.04,-1173.68 414.96,-1173.68 420.92,-1174.36 420.92,-1174.36 555.39,-1189.65 555.39,-1189.65 561.35,-1190.32 561.35,-1191.68 555.39,-1192.36 555.39,-1192.36 420.92,-1207.65 420.92,-1207.65 414.96,-1208.32 403.04,-1208.32 397.08,-1207.65"/>
<text xml:space="preserve" text-anchor="middle" x="409" y="-1188.43" font-family="Helvetica,sans-Serif" font-size="11.00">分类 == NominalHallucination ?</text>
</g>
<!-- c4&#45;&gt;check_nominal -->
<g id="edge17" class="edge">
<title>c4&#45;&gt;check_nominal</title>
<path fill="none" stroke="black" d="M667.21,-1283.32C602.75,-1260.52 512.13,-1228.48 457.16,-1209.03"/>
<polygon fill="black" stroke="black" points="458.35,-1205.74 447.75,-1205.71 456.01,-1212.34 458.35,-1205.74"/>
</g>
<!-- h4 -->
<g id="node25" class="node">
<title>h4</title>
<path fill="#e8f5e9" stroke="black" d="M843.88,-777C843.88,-777 722.12,-777 722.12,-777 716.12,-777 710.12,-771 710.12,-765 710.12,-765 710.12,-709 710.12,-709 710.12,-703 716.12,-697 722.12,-697 722.12,-697 843.88,-697 843.88,-697 849.88,-697 855.88,-703 855.88,-709 855.88,-709 855.88,-765 855.88,-765 855.88,-771 849.88,-777 843.88,-777"/>
<text xml:space="preserve" text-anchor="middle" x="783" y="-762.55" font-family="Helvetica,sans-Serif" font-size="11.00">NominalHallucination hints:</text>
<text xml:space="preserve" text-anchor="middle" x="783" y="-750.55" font-family="Helvetica,sans-Serif" font-size="11.00">type paths differ;</text>
<text xml:space="preserve" text-anchor="middle" x="783" y="-738.55" font-family="Helvetica,sans-Serif" font-size="11.00">rule patcher will attempt</text>
<text xml:space="preserve" text-anchor="middle" x="783" y="-726.55" font-family="Helvetica,sans-Serif" font-size="11.00">same&#45;module rewrite;</text>
<text xml:space="preserve" text-anchor="middle" x="783" y="-714.55" font-family="Helvetica,sans-Serif" font-size="11.00">if not possible, provide</text>
<text xml:space="preserve" text-anchor="middle" x="783" y="-702.55" font-family="Helvetica,sans-Serif" font-size="11.00">correct constructor</text>
</g>
<!-- c4&#45;&gt;h4 -->
<g id="edge28" class="edge">
<title>c4&#45;&gt;h4</title>
<path fill="none" stroke="black" d="M760.95,-1267.44C768.69,-1245.34 776,-1217.66 776,-1192 776,-1192 776,-1192 776,-878.13 776,-848.42 777.59,-815.22 779.25,-788.59"/>
<polygon fill="black" stroke="black" points="782.74,-788.95 779.89,-778.75 775.75,-788.5 782.74,-788.95"/>
</g>
<!-- h_extra -->
<g id="node26" class="node">
<title>h_extra</title>
<path fill="#e8f5e9" stroke="black" d="M1511.75,-762.75C1511.75,-762.75 1356.25,-762.75 1356.25,-762.75 1350.25,-762.75 1344.25,-756.75 1344.25,-750.75 1344.25,-750.75 1344.25,-723.25 1344.25,-723.25 1344.25,-717.25 1350.25,-711.25 1356.25,-711.25 1356.25,-711.25 1511.75,-711.25 1511.75,-711.25 1517.75,-711.25 1523.75,-717.25 1523.75,-723.25 1523.75,-723.25 1523.75,-750.75 1523.75,-750.75 1523.75,-756.75 1517.75,-762.75 1511.75,-762.75"/>
<text xml:space="preserve" text-anchor="middle" x="1434" y="-748.3" font-family="Helvetica,sans-Serif" font-size="11.00">前 3 条</text>
<text xml:space="preserve" text-anchor="middle" x="1434" y="-732.55" font-family="Helvetica,sans-Serif" font-size="11.00">children_suggested_replacements</text>
<text xml:space="preserve" text-anchor="middle" x="1434" y="-720.55" font-family="Helvetica,sans-Serif" font-size="11.00">（补充来源）</text>
</g>
<!-- c5&#45;&gt;h_extra -->
<g id="edge29" class="edge">
<title>c5&#45;&gt;h_extra</title>
<path fill="none" stroke="black" stroke-dasharray="5,2" d="M1432.36,-1283.39C1432.64,-1259.44 1433,-1223.38 1433,-1192 1433,-1192 1433,-1192 1433,-878.13 1433,-842.9 1433.32,-802.69 1433.6,-774.4"/>
<polygon fill="black" stroke="black" points="1437.1,-774.61 1433.7,-764.57 1430.1,-774.54 1437.1,-774.61"/>
</g>
<!-- t1 -->
<g id="node16" class="node">
<title>t1</title>
<path fill="#a5d6a7" stroke="black" d="M520.25,-1125.75C520.25,-1125.75 355.75,-1125.75 355.75,-1125.75 349.75,-1125.75 343.75,-1119.75 343.75,-1113.75 343.75,-1113.75 343.75,-1054.75 343.75,-1054.75 343.75,-1048.75 349.75,-1042.75 355.75,-1042.75 355.75,-1042.75 520.25,-1042.75 520.25,-1042.75 526.25,-1042.75 532.25,-1048.75 532.25,-1054.75 532.25,-1054.75 532.25,-1113.75 532.25,-1113.75 532.25,-1119.75 526.25,-1125.75 520.25,-1125.75"/>
<text xml:space="preserve" text-anchor="middle" x="438" y="-1111.3" font-family="Helvetica,sans-Serif" font-size="11.00">Track T1：编译器建议直通</text>
<text xml:space="preserve" text-anchor="middle" x="438" y="-1095.55" font-family="Helvetica,sans-Serif" font-size="11.00">触发：诊断携带 MachineApplicable</text>
<text xml:space="preserve" text-anchor="middle" x="438" y="-1079.8" font-family="Helvetica,sans-Serif" font-size="11.00">suggested_replacement</text>
<text xml:space="preserve" text-anchor="middle" x="438" y="-1067.8" font-family="Helvetica,sans-Serif" font-size="11.00">置信度：High</text>
<text xml:space="preserve" text-anchor="middle" x="438" y="-1052.05" font-family="Helvetica,sans-Serif" font-size="11.00">动作：直接应用替换</text>
</g>
<!-- check_nominal&#45;&gt;t1 -->
<g id="edge18" class="edge">
<title>check_nominal&#45;&gt;t1</title>
<path fill="none" stroke="black" d="M413.66,-1173.17C416.41,-1163.23 420.06,-1150.06 423.69,-1136.94"/>
<polygon fill="black" stroke="black" points="427.02,-1138.04 426.31,-1127.47 420.27,-1136.17 427.02,-1138.04"/>
<text xml:space="preserve" text-anchor="middle" x="430.01" y="-1145.5" font-family="Helvetica,sans-Serif" font-size="10.00">Yes</text>
</g>
<!-- fallback -->
<g id="node21" class="node">
<title>fallback</title>
<path fill="#fff9c4" stroke="black" d="M166.12,-764.63C166.12,-764.63 27.87,-764.63 27.87,-764.63 21.87,-764.63 15.88,-758.63 15.88,-752.63 15.88,-752.63 15.88,-721.38 15.88,-721.38 15.88,-715.38 21.88,-709.38 27.88,-709.38 27.88,-709.38 166.12,-709.38 166.12,-709.38 172.12,-709.38 178.12,-715.38 178.12,-721.38 178.12,-721.38 178.12,-752.63 178.12,-752.63 178.12,-758.63 172.12,-764.63 166.12,-764.63"/>
<text xml:space="preserve" text-anchor="middle" x="97" y="-750.18" font-family="Helvetica,sans-Serif" font-size="11.00">模块范围回退：若无模块信息</text>
<text xml:space="preserve" text-anchor="middle" x="97" y="-734.43" font-family="Helvetica,sans-Serif" font-size="11.00">退回函数级搜索，都失败则</text>
<text xml:space="preserve" text-anchor="middle" x="97" y="-718.68" font-family="Helvetica,sans-Serif" font-size="11.00">不生成 Action，由 LLM 处理</text>
</g>
<!-- check_nominal&#45;&gt;fallback -->
<g id="edge24" class="edge">
<title>check_nominal&#45;&gt;fallback</title>
<path fill="none" stroke="black" d="M324.03,-1182.18C263.93,-1171.42 194,-1145.87 194,-1085.25 194,-1085.25 194,-1085.25 194,-878.13 194,-836.7 164.98,-798.67 138.69,-772.72"/>
<polygon fill="black" stroke="black" points="141.4,-770.47 131.75,-766.1 136.58,-775.54 141.4,-770.47"/>
<text xml:space="preserve" text-anchor="middle" x="200.38" y="-983.88" font-family="Helvetica,sans-Serif" font-size="10.00">No</text>
</g>
<!-- t2_check -->
<g id="node17" class="node">
<title>t2_check</title>
<path fill="#fff3e0" stroke="black" d="M426.38,-1002.77C426.38,-1002.77 379.52,-990.74 379.52,-990.74 373.71,-989.24 373.71,-986.26 379.52,-984.77 379.52,-984.77 426.38,-972.74 426.38,-972.74 432.19,-971.24 443.81,-971.24 449.62,-972.74 449.62,-972.74 496.48,-984.77 496.48,-984.77 502.29,-986.26 502.29,-989.24 496.48,-990.74 496.48,-990.74 449.62,-1002.77 449.62,-1002.77 443.81,-1004.26 432.19,-1004.26 426.38,-1002.77"/>
<text xml:space="preserve" text-anchor="middle" x="438" y="-985.18" font-family="Helvetica,sans-Serif" font-size="11.00">T1 无结果 ?</text>
</g>
<!-- t1&#45;&gt;t2_check -->
<g id="edge19" class="edge">
<title>t1&#45;&gt;t2_check</title>
<path fill="none" stroke="black" d="M438,-1042.35C438,-1033.97 438,-1025.32 438,-1017.48"/>
<polygon fill="black" stroke="black" points="441.5,-1017.49 438,-1007.49 434.5,-1017.49 441.5,-1017.49"/>
</g>
<!-- priority -->
<g id="node27" class="node">
<title>priority</title>
<path fill="#fce4ec" stroke="black" d="M958.25,-634.88C958.25,-634.88 769.75,-634.88 769.75,-634.88 763.75,-634.88 757.75,-628.88 757.75,-622.88 757.75,-622.88 757.75,-559.38 757.75,-559.38 757.75,-553.38 763.75,-547.38 769.75,-547.38 769.75,-547.38 958.25,-547.38 958.25,-547.38 964.25,-547.38 970.25,-553.38 970.25,-559.38 970.25,-559.38 970.25,-622.88 970.25,-622.88 970.25,-628.88 964.25,-634.88 958.25,-634.88"/>
<text xml:space="preserve" text-anchor="middle" x="864" y="-620.43" font-family="Helvetica,sans-Serif" font-size="11.00">优先级排序</text>
<text xml:space="preserve" text-anchor="middle" x="864" y="-604.68" font-family="Helvetica,sans-Serif" font-size="11.00">SetupHell(5) &gt; WrapperMismatch(4)</text>
<text xml:space="preserve" text-anchor="middle" x="864" y="-592.68" font-family="Helvetica,sans-Serif" font-size="11.00">&gt; MechanicalMismatch(3)</text>
<text xml:space="preserve" text-anchor="middle" x="864" y="-580.68" font-family="Helvetica,sans-Serif" font-size="11.00">&gt; [Nominal + Rule&#45;Fixable](3.5)</text>
<text xml:space="preserve" text-anchor="middle" x="864" y="-568.68" font-family="Helvetica,sans-Serif" font-size="11.00">&gt; NominalHallucination(2) &gt; Unknown(1)</text>
<text xml:space="preserve" text-anchor="middle" x="864" y="-556.68" font-family="Helvetica,sans-Serif" font-size="11.00">同级按 rule&#45;fixable + confidence排序</text>
</g>
<!-- t1&#45;&gt;priority -->
<g id="edge35" class="edge">
<title>t1&#45;&gt;priority</title>
<path fill="none" stroke="black" stroke-dasharray="5,2" d="M532.69,-1064.69C601.27,-1048.43 682,-1022.2 682,-988.75 682,-988.75 682,-988.75 682,-736 682,-694.13 712.01,-662.54 747.66,-639.78"/>
<polygon fill="black" stroke="black" points="749.33,-642.87 756.05,-634.68 745.69,-636.89 749.33,-642.87"/>
<text xml:space="preserve" text-anchor="middle" x="707.5" y="-875.25" font-family="Helvetica,sans-Serif" font-size="10.00">T1 success</text>
</g>
<!-- t2 -->
<g id="node18" class="node">
<title>t2</title>
<path fill="#a5d6a7" stroke="black" d="M526.62,-922.5C526.62,-922.5 349.38,-922.5 349.38,-922.5 343.38,-922.5 337.38,-916.5 337.38,-910.5 337.38,-910.5 337.38,-847.75 337.38,-847.75 337.38,-841.75 343.38,-835.75 349.38,-835.75 349.38,-835.75 526.62,-835.75 526.62,-835.75 532.62,-835.75 538.62,-841.75 538.62,-847.75 538.62,-847.75 538.62,-910.5 538.62,-910.5 538.62,-916.5 532.62,-922.5 526.62,-922.5"/>
<text xml:space="preserve" text-anchor="middle" x="438" y="-908.05" font-family="Helvetica,sans-Serif" font-size="11.00">Track T2：同模块变量绑定推断</text>
<text xml:space="preserve" text-anchor="middle" x="438" y="-892.3" font-family="Helvetica,sans-Serif" font-size="11.00">触发：enclosing_test_module_scope()</text>
<text xml:space="preserve" text-anchor="middle" x="438" y="-876.55" font-family="Helvetica,sans-Serif" font-size="11.00">找到唯一变量绑定</text>
<text xml:space="preserve" text-anchor="middle" x="438" y="-860.8" font-family="Helvetica,sans-Serif" font-size="11.00">置信度：Medium</text>
<text xml:space="preserve" text-anchor="middle" x="438" y="-845.05" font-family="Helvetica,sans-Serif" font-size="11.00">动作：替换绑定语句中的类型路径</text>
</g>
<!-- t2_check&#45;&gt;t2 -->
<g id="edge20" class="edge">
<title>t2_check&#45;&gt;t2</title>
<path fill="none" stroke="black" d="M438,-969.62C438,-959.88 438,-947.08 438,-934.22"/>
<polygon fill="black" stroke="black" points="441.5,-934.5 438,-924.5 434.5,-934.5 441.5,-934.5"/>
<text xml:space="preserve" text-anchor="middle" x="446.25" y="-942.25" font-family="Helvetica,sans-Serif" font-size="10.00">Yes</text>
</g>
<!-- t3 -->
<g id="node19" class="node">
<title>t3</title>
<path fill="#ffcdd2" stroke="black" d="M555.25,-764.63C555.25,-764.63 402.75,-764.63 402.75,-764.63 396.75,-764.63 390.75,-758.63 390.75,-752.63 390.75,-752.63 390.75,-721.38 390.75,-721.38 390.75,-715.38 396.75,-709.38 402.75,-709.38 402.75,-709.38 555.25,-709.38 555.25,-709.38 561.25,-709.38 567.25,-715.38 567.25,-721.38 567.25,-721.38 567.25,-752.63 567.25,-752.63 567.25,-758.63 561.25,-764.63 555.25,-764.63"/>
<text xml:space="preserve" text-anchor="middle" x="479" y="-750.18" font-family="Helvetica,sans-Serif" font-size="11.00">Track T3：多候选歧义</text>
<text xml:space="preserve" text-anchor="middle" x="479" y="-734.43" font-family="Helvetica,sans-Serif" font-size="11.00">条件：同模块 2+ 个候选</text>
<text xml:space="preserve" text-anchor="middle" x="479" y="-718.68" font-family="Helvetica,sans-Serif" font-size="11.00">决策：fail&#45;closed，不生成 Action</text>
</g>
<!-- t2&#45;&gt;t3 -->
<g id="edge21" class="edge">
<title>t2&#45;&gt;t3</title>
<path fill="none" stroke="black" d="M450.52,-835.32C456.06,-816.39 462.52,-794.32 467.89,-775.98"/>
<polygon fill="black" stroke="black" points="471.19,-777.15 470.64,-766.57 464.47,-775.18 471.19,-777.15"/>
</g>
<!-- t4 -->
<g id="node20" class="node">
<title>t4</title>
<path fill="#ffcdd2" stroke="black" d="M360.25,-780.38C360.25,-780.38 207.75,-780.38 207.75,-780.38 201.75,-780.38 195.75,-774.38 195.75,-768.38 195.75,-768.38 195.75,-705.63 195.75,-705.63 195.75,-699.63 201.75,-693.63 207.75,-693.63 207.75,-693.63 360.25,-693.63 360.25,-693.63 366.25,-693.63 372.25,-699.63 372.25,-705.63 372.25,-705.63 372.25,-768.38 372.25,-768.38 372.25,-774.38 366.25,-780.38 360.25,-780.38"/>
<text xml:space="preserve" text-anchor="middle" x="284" y="-765.93" font-family="Helvetica,sans-Serif" font-size="11.00">Track T4：跨模块/不安全</text>
<text xml:space="preserve" text-anchor="middle" x="284" y="-750.18" font-family="Helvetica,sans-Serif" font-size="11.00">条件：替换结果包含坏路径</text>
<text xml:space="preserve" text-anchor="middle" x="284" y="-734.43" font-family="Helvetica,sans-Serif" font-size="11.00">或 UTF&#45;8 边界不安全</text>
<text xml:space="preserve" text-anchor="middle" x="284" y="-718.68" font-family="Helvetica,sans-Serif" font-size="11.00">或泛型复杂度高</text>
<text xml:space="preserve" text-anchor="middle" x="284" y="-702.93" font-family="Helvetica,sans-Serif" font-size="11.00">决策：fail&#45;closed，不生成 Action</text>
</g>
<!-- t2&#45;&gt;t4 -->
<g id="edge22" class="edge">
<title>t2&#45;&gt;t4</title>
<path fill="none" stroke="black" d="M390.96,-835.32C374.61,-820.45 356.14,-803.64 339.2,-788.23"/>
<polygon fill="black" stroke="black" points="341.89,-785.94 332.14,-781.8 337.18,-791.12 341.89,-785.94"/>
</g>
<!-- t2&#45;&gt;fallback -->
<g id="edge23" class="edge">
<title>t2&#45;&gt;fallback</title>
<path fill="none" stroke="black" d="M336.9,-859.8C289.73,-848.87 233.81,-832.41 187,-808.75 168.17,-799.23 149.48,-785.44 134.05,-772.56"/>
<polygon fill="black" stroke="black" points="136.39,-769.95 126.52,-766.1 131.83,-775.27 136.39,-769.95"/>
</g>
<!-- t2&#45;&gt;priority -->
<g id="edge36" class="edge">
<title>t2&#45;&gt;priority</title>
<path fill="none" stroke="black" stroke-dasharray="5,2" d="M539,-839.36C552.74,-830.85 565.65,-820.72 576,-808.75 613.74,-765.13 577.05,-727.23 617,-685.63 651.4,-649.81 700.91,-627.56 746.58,-613.81"/>
<polygon fill="black" stroke="black" points="747.39,-617.22 756.03,-611.09 745.45,-610.5 747.39,-617.22"/>
<text xml:space="preserve" text-anchor="middle" x="642.5" y="-733.13" font-family="Helvetica,sans-Serif" font-size="10.00">T2 success</text>
</g>
<!-- fallback&#45;&gt;priority -->
<g id="edge37" class="edge">
<title>fallback&#45;&gt;priority</title>
<path fill="none" stroke="black" d="M137.62,-709.03C152.58,-700.26 170.02,-691.32 187,-685.63 376.01,-622.2 608.55,-601.76 746.06,-595.19"/>
<polygon fill="black" stroke="black" points="746.09,-598.7 755.92,-594.74 745.77,-591.7 746.09,-598.7"/>
</g>
<!-- h1&#45;&gt;priority -->
<g id="edge30" class="edge">
<title>h1&#45;&gt;priority</title>
<path fill="none" stroke="black" d="M934.35,-718.65C924.22,-700.42 907.78,-670.86 893.34,-644.89"/>
<polygon fill="black" stroke="black" points="896.57,-643.51 888.66,-636.47 890.46,-646.91 896.57,-643.51"/>
</g>
<!-- h2&#45;&gt;priority -->
<g id="edge31" class="edge">
<title>h2&#45;&gt;priority</title>
<path fill="none" stroke="black" d="M1064.31,-712.75C1051.49,-704.06 1036.68,-694.23 1023,-685.63 999.3,-670.72 973.23,-655.08 949.19,-640.96"/>
<polygon fill="black" stroke="black" points="951.08,-638.01 940.68,-635.98 947.54,-644.05 951.08,-638.01"/>
</g>
<!-- h3&#45;&gt;priority -->
<g id="edge32" class="edge">
<title>h3&#45;&gt;priority</title>
<path fill="none" stroke="black" d="M1223.9,-714.64C1209.09,-704.83 1190.65,-693.62 1173,-685.63 1111.83,-657.94 1040.25,-635.69 981.39,-619.85"/>
<polygon fill="black" stroke="black" points="982.58,-616.55 972.02,-617.36 980.78,-623.31 982.58,-616.55"/>
</g>
<!-- h4&#45;&gt;priority -->
<g id="edge33" class="edge">
<title>h4&#45;&gt;priority</title>
<path fill="none" stroke="black" d="M805.13,-696.69C814.1,-680.76 824.59,-662.13 834.21,-645.04"/>
<polygon fill="black" stroke="black" points="837.16,-646.93 839.02,-636.5 831.06,-643.5 837.16,-646.93"/>
</g>
<!-- h_extra&#45;&gt;priority -->
<g id="edge34" class="edge">
<title>h_extra&#45;&gt;priority</title>
<path fill="none" stroke="black" d="M1390.79,-710.75C1373.84,-701.73 1353.95,-692.19 1335,-685.63 1218.11,-645.15 1078.5,-620.19 981.77,-606.35"/>
<polygon fill="black" stroke="black" points="982.37,-602.9 971.98,-604.97 981.39,-609.83 982.37,-602.9"/>
</g>
<!-- pick -->
<g id="node28" class="node">
<title>pick</title>
<path fill="#fce4ec" stroke="black" d="M917,-510.38C917,-510.38 811,-510.38 811,-510.38 805,-510.38 799,-504.38 799,-498.38 799,-498.38 799,-482.88 799,-482.88 799,-476.88 805,-470.88 811,-470.88 811,-470.88 917,-470.88 917,-470.88 923,-470.88 929,-476.88 929,-482.88 929,-482.88 929,-498.38 929,-498.38 929,-504.38 923,-510.38 917,-510.38"/>
<text xml:space="preserve" text-anchor="middle" x="864" y="-495.93" font-family="Helvetica,sans-Serif" font-size="11.00">选取最高优先级</text>
<text xml:space="preserve" text-anchor="middle" x="864" y="-480.18" font-family="Helvetica,sans-Serif" font-size="11.00">一条用于 Preflight 决策</text>
</g>
<!-- priority&#45;&gt;pick -->
<g id="edge38" class="edge">
<title>priority&#45;&gt;pick</title>
<path fill="none" stroke="black" d="M864,-546.92C864,-538.65 864,-530.14 864,-522.35"/>
<polygon fill="black" stroke="black" points="867.5,-522.36 864,-512.36 860.5,-522.36 867.5,-522.36"/>
</g>
<!-- pd1 -->
<g id="node29" class="node">
<title>pd1</title>
<path fill="#fce4ec" stroke="black" d="M612.38,-393C612.38,-393 487.62,-393 487.62,-393 481.62,-393 475.62,-387 475.62,-381 475.62,-381 475.62,-369 475.62,-369 475.62,-363 481.62,-357 487.62,-357 487.62,-357 612.38,-357 612.38,-357 618.38,-357 624.38,-363 624.38,-369 624.38,-369 624.38,-381 624.38,-381 624.38,-387 618.38,-393 612.38,-393"/>
<text xml:space="preserve" text-anchor="middle" x="550" y="-377.68" font-family="Helvetica,sans-Serif" font-size="11.00">SetupHell</text>
<text xml:space="preserve" text-anchor="middle" x="550" y="-365.68" font-family="Helvetica,sans-Serif" font-size="11.00">→ ContinueToLlmWithHints</text>
</g>
<!-- pick&#45;&gt;pd1 -->
<g id="edge39" class="edge">
<title>pick&#45;&gt;pd1</title>
<path fill="none" stroke="black" d="M798.74,-480.23C751.54,-471.9 687,-457.3 634,-433.63 614.74,-425.03 595.2,-411.93 579.82,-400.4"/>
<polygon fill="black" stroke="black" points="582.07,-397.72 572.01,-394.4 577.81,-403.27 582.07,-397.72"/>
</g>
<!-- pd2 -->
<g id="node30" class="node">
<title>pd2</title>
<path fill="#c8e6c9" stroke="black" d="M759.25,-401.88C759.25,-401.88 654.75,-401.88 654.75,-401.88 648.75,-401.88 642.75,-395.88 642.75,-389.88 642.75,-389.88 642.75,-360.13 642.75,-360.13 642.75,-354.13 648.75,-348.13 654.75,-348.13 654.75,-348.13 759.25,-348.13 759.25,-348.13 765.25,-348.13 771.25,-354.13 771.25,-360.13 771.25,-360.13 771.25,-389.88 771.25,-389.88 771.25,-395.88 765.25,-401.88 759.25,-401.88"/>
<text xml:space="preserve" text-anchor="middle" x="707" y="-387.43" font-family="Helvetica,sans-Serif" font-size="11.00">[Nominal + T1/T2成功]</text>
<text xml:space="preserve" text-anchor="middle" x="707" y="-371.68" font-family="Helvetica,sans-Serif" font-size="11.00">→ ContinueToRuleFirst</text>
<text xml:space="preserve" text-anchor="middle" x="707" y="-357.43" font-family="Helvetica,sans-Serif" font-size="11.00">（Enable Rule 修复）</text>
</g>
<!-- pick&#45;&gt;pd2 -->
<g id="edge40" class="edge">
<title>pick&#45;&gt;pd2</title>
<path fill="none" stroke="black" d="M831.89,-470.39C823.13,-464.91 813.72,-458.82 805.25,-452.88 785.77,-439.22 764.92,-423.13 747.46,-409.21"/>
<polygon fill="black" stroke="black" points="749.83,-406.62 739.84,-403.09 745.45,-412.08 749.83,-406.62"/>
<text xml:space="preserve" text-anchor="middle" x="832.62" y="-443.38" font-family="Helvetica,sans-Serif" font-size="10.00">Rule&#45;Fixable</text>
</g>
<!-- pd3 -->
<g id="node31" class="node">
<title>pd3</title>
<path fill="#fff9c4" stroke="black" d="M926.38,-401.88C926.38,-401.88 801.62,-401.88 801.62,-401.88 795.62,-401.88 789.62,-395.88 789.62,-389.88 789.62,-389.88 789.62,-360.13 789.62,-360.13 789.62,-354.13 795.62,-348.13 801.62,-348.13 801.62,-348.13 926.38,-348.13 926.38,-348.13 932.38,-348.13 938.38,-354.13 938.38,-360.13 938.38,-360.13 938.38,-389.88 938.38,-389.88 938.38,-395.88 932.38,-401.88 926.38,-401.88"/>
<text xml:space="preserve" text-anchor="middle" x="864" y="-387.43" font-family="Helvetica,sans-Serif" font-size="11.00">Nominal（Rule不可行）</text>
<text xml:space="preserve" text-anchor="middle" x="864" y="-371.68" font-family="Helvetica,sans-Serif" font-size="11.00">+ 其他分类</text>
<text xml:space="preserve" text-anchor="middle" x="864" y="-355.93" font-family="Helvetica,sans-Serif" font-size="11.00">→ ContinueToLlmWithHints</text>
</g>
<!-- pick&#45;&gt;pd3 -->
<g id="edge41" class="edge">
<title>pick&#45;&gt;pd3</title>
<path fill="none" stroke="black" d="M864,-470.61C864,-455.12 864,-432.78 864,-413.7"/>
<polygon fill="black" stroke="black" points="867.5,-413.84 864,-403.84 860.5,-413.84 867.5,-413.84"/>
</g>
<!-- pd4 -->
<g id="node32" class="node">
<title>pd4</title>
<path fill="#fff9c4" stroke="black" d="M1157.25,-393C1157.25,-393 968.75,-393 968.75,-393 962.75,-393 956.75,-387 956.75,-381 956.75,-381 956.75,-369 956.75,-369 956.75,-363 962.75,-357 968.75,-357 968.75,-357 1157.25,-357 1157.25,-357 1163.25,-357 1169.25,-363 1169.25,-369 1169.25,-369 1169.25,-381 1169.25,-381 1169.25,-387 1163.25,-393 1157.25,-393"/>
<text xml:space="preserve" text-anchor="middle" x="1063" y="-377.68" font-family="Helvetica,sans-Serif" font-size="11.00">WrapperMismatch / MechanicalMismatch</text>
<text xml:space="preserve" text-anchor="middle" x="1063" y="-365.68" font-family="Helvetica,sans-Serif" font-size="11.00">→ ContinueToLlmWithHints</text>
</g>
<!-- pick&#45;&gt;pd4 -->
<g id="edge42" class="edge">
<title>pick&#45;&gt;pd4</title>
<path fill="none" stroke="black" d="M897.31,-470.61C931.8,-450.92 985.7,-420.14 1022.6,-399.07"/>
<polygon fill="black" stroke="black" points="1024.26,-402.15 1031.21,-394.15 1020.79,-396.07 1024.26,-402.15"/>
</g>
<!-- pd5 -->
<g id="node33" class="node">
<title>pd5</title>
<path fill="#e8f5e9" stroke="black" d="M1277.12,-400C1277.12,-400 1198.88,-400 1198.88,-400 1192.88,-400 1186.88,-394 1186.88,-388 1186.88,-388 1186.88,-362 1186.88,-362 1186.88,-356 1192.88,-350 1198.88,-350 1198.88,-350 1277.12,-350 1277.12,-350 1283.12,-350 1289.12,-356 1289.12,-362 1289.12,-362 1289.12,-388 1289.12,-388 1289.12,-394 1283.12,-400 1277.12,-400"/>
<text xml:space="preserve" text-anchor="middle" x="1238" y="-385.55" font-family="Helvetica,sans-Serif" font-size="11.00">Unknown</text>
<text xml:space="preserve" text-anchor="middle" x="1238" y="-373.55" font-family="Helvetica,sans-Serif" font-size="11.00">→ ContinueToLlm</text>
<text xml:space="preserve" text-anchor="middle" x="1238" y="-359.3" font-family="Helvetica,sans-Serif" font-size="11.00">（保守放行）</text>
</g>
<!-- pick&#45;&gt;pd5 -->
<g id="edge43" class="edge">
<title>pick&#45;&gt;pd5</title>
<path fill="none" stroke="black" d="M929.42,-488.89C995.48,-485.72 1098.8,-473.94 1178,-433.63 1190.15,-427.44 1201.49,-417.99 1210.97,-408.52"/>
<polygon fill="black" stroke="black" points="1213.41,-411.03 1217.76,-401.37 1208.33,-406.21 1213.41,-411.03"/>
</g>
<!-- out -->
<g id="node34" class="node">
<title>out</title>
<ellipse fill="#e8f0fe" stroke="black" cx="864" cy="-155.56" rx="178.9" ry="155.56"/>
<text xml:space="preserve" text-anchor="middle" x="864" y="-251.11" font-family="Helvetica,sans-Serif" font-size="11.00">analyze() + fix_nominal()</text>
<text xml:space="preserve" text-anchor="middle" x="864" y="-239.11" font-family="Helvetica,sans-Serif" font-size="11.00">返回值：</text>
<text xml:space="preserve" text-anchor="middle" x="864" y="-223.36" font-family="Helvetica,sans-Serif" font-size="11.00">• Vec&lt;FixAction&gt; (若Nominal且T1/T2成功)</text>
<text xml:space="preserve" text-anchor="middle" x="864" y="-207.61" font-family="Helvetica,sans-Serif" font-size="11.00">• Vec&lt;&gt; (其他情况)</text>
<text xml:space="preserve" text-anchor="middle" x="864" y="-178.86" font-family="Helvetica,sans-Serif" font-size="11.00">Preflight Digest 注入:</text>
<text xml:space="preserve" text-anchor="middle" x="864" y="-163.11" font-family="Helvetica,sans-Serif" font-size="11.00">E0308_CLASSIFICATION</text>
<text xml:space="preserve" text-anchor="middle" x="864" y="-151.11" font-family="Helvetica,sans-Serif" font-size="11.00">E0308_EXPECTED / E0308_FOUND</text>
<text xml:space="preserve" text-anchor="middle" x="864" y="-139.11" font-family="Helvetica,sans-Serif" font-size="11.00">E0308_EXPECTED_ARRAY_LEN（若可解析）</text>
<text xml:space="preserve" text-anchor="middle" x="864" y="-123.36" font-family="Helvetica,sans-Serif" font-size="11.00">E0308_FOUND_ARRAY_LEN（若可解析）</text>
<text xml:space="preserve" text-anchor="middle" x="864" y="-107.61" font-family="Helvetica,sans-Serif" font-size="11.00">E0308_LEN_DELTA</text>
<text xml:space="preserve" text-anchor="middle" x="864" y="-95.61" font-family="Helvetica,sans-Serif" font-size="11.00">E0308_HINTS</text>
<text xml:space="preserve" text-anchor="middle" x="864" y="-70.61" font-family="Helvetica,sans-Serif" font-size="11.00">Action 动作范围：</text>
<text xml:space="preserve" text-anchor="middle" x="864" y="-54.86" font-family="Helvetica,sans-Serif" font-size="11.00">仅在同测试模块内执行替换</text>
</g>
<!-- pd1&#45;&gt;out -->
<g id="edge44" class="edge">
<title>pd1&#45;&gt;out</title>
<path fill="none" stroke="black" d="M575.17,-356.58C606.12,-335.14 661.2,-297 715.02,-259.73"/>
<polygon fill="black" stroke="black" points="716.87,-262.7 723.1,-254.13 712.89,-256.95 716.87,-262.7"/>
</g>
<!-- pd2&#45;&gt;out -->
<g id="edge45" class="edge">
<title>pd2&#45;&gt;out</title>
<path fill="none" stroke="black" d="M725.94,-347.77C735.79,-334.12 748.69,-316.26 762.64,-296.94"/>
<polygon fill="black" stroke="black" points="765.44,-299.04 768.46,-288.89 759.77,-294.95 765.44,-299.04"/>
</g>
<!-- pd3&#45;&gt;out -->
<g id="edge46" class="edge">
<title>pd3&#45;&gt;out</title>
<path fill="none" stroke="black" d="M864,-347.77C864,-340.47 864,-331.95 864,-322.66"/>
<polygon fill="black" stroke="black" points="867.5,-322.92 864,-312.92 860.5,-322.92 867.5,-322.92"/>
</g>
<!-- pd4&#45;&gt;out -->
<g id="edge47" class="edge">
<title>pd4&#45;&gt;out</title>
<path fill="none" stroke="black" d="M1047.05,-356.58C1032.11,-340.25 1008.3,-314.23 982.72,-286.28"/>
<polygon fill="black" stroke="black" points="985.46,-284.09 976.12,-279.08 980.29,-288.82 985.46,-284.09"/>
</g>
<!-- pd5&#45;&gt;out -->
<g id="edge48" class="edge">
<title>pd5&#45;&gt;out</title>
<path fill="none" stroke="black" d="M1196.19,-349.69C1153.85,-325.08 1085.74,-285.48 1022.18,-248.52"/>
<polygon fill="black" stroke="black" points="1024.14,-245.62 1013.74,-243.62 1020.62,-251.67 1024.14,-245.62"/>
</g>
</g>
</svg>
