<svg xmlns="http://www.w3.org/2000/svg" width="1400" height="820" viewBox="0 0 1400 820">
<rect width="100%" height="100%" fill="white"/>
<style>text{font-family:Arial, Helvetica, sans-serif; fill:#222}.mono{font-family:Menlo,Consolas,monospace}.axis{stroke:#333;stroke-width:1.2}.grid{stroke:#d9d9d9;stroke-width:0.7}</style>
<text x="20" y="38" font-size="24" font-weight="700">High-frequency Rust compiler error codes</text>
<text x="20" y="68" font-size="14" fill="#333">Main experiment: 3,700 error-code occurrences from 2,452 failed generated tests (3,183 attempts)</text>
<text x="158" y="684.0" font-size="12" text-anchor="end" fill="#333">0</text>
<line class="grid" x1="170" y1="597.9" x2="1355" y2="597.9"/>
<text x="158" y="601.9" font-size="12" text-anchor="end" fill="#333">5</text>
<line class="grid" x1="170" y1="515.7" x2="1355" y2="515.7"/>
<text x="158" y="519.7" font-size="12" text-anchor="end" fill="#333">10</text>
<line class="grid" x1="170" y1="433.6" x2="1355" y2="433.6"/>
<text x="158" y="437.6" font-size="12" text-anchor="end" fill="#333">15</text>
<line class="grid" x1="170" y1="351.4" x2="1355" y2="351.4"/>
<text x="158" y="355.4" font-size="12" text-anchor="end" fill="#333">20</text>
<line class="grid" x1="170" y1="269.3" x2="1355" y2="269.3"/>
<text x="158" y="273.3" font-size="12" text-anchor="end" fill="#333">25</text>
<line class="grid" x1="170" y1="187.1" x2="1355" y2="187.1"/>
<text x="158" y="191.1" font-size="12" text-anchor="end" fill="#333">30</text>
<line class="grid" x1="170" y1="105.0" x2="1355" y2="105.0"/>
<text x="158" y="109.0" font-size="12" text-anchor="end" fill="#333">35</text>
<line class="axis" x1="170" y1="105" x2="170" y2="680"/><line class="axis" x1="170" y1="680" x2="1355" y2="680"/>
<text transform="translate(55,392.5) rotate(-90)" font-size="15" text-anchor="middle" fill="#333">Share of error-code occurrences (%)</text>
<rect x="191.6" y="142.7" width="48" height="537.3" fill="#0072B2" stroke="white" stroke-width="1"/>
<text x="215.6" y="136.7" font-size="12" text-anchor="middle">32.7</text>
<text class="mono" transform="translate(218.6,702) rotate(45)" font-size="12" text-anchor="start" fill="#333">E0433</text>
<rect x="282.7" y="289.3" width="48" height="390.7" fill="#D55E00" stroke="white" stroke-width="1"/>
<text x="306.7" y="283.3" font-size="12" text-anchor="middle">23.8</text>
<text class="mono" transform="translate(309.7,702) rotate(45)" font-size="12" text-anchor="start" fill="#333">E0432</text>
<rect x="373.9" y="436.2" width="48" height="243.8" fill="#009E73" stroke="white" stroke-width="1"/>
<text x="397.9" y="430.2" font-size="12" text-anchor="middle">14.8</text>
<text class="mono" transform="translate(400.9,702) rotate(45)" font-size="12" text-anchor="start" fill="#333">E0599</text>
<rect x="465.0" y="588.1" width="48" height="91.9" fill="#CC79A7" stroke="white" stroke-width="1"/>
<text x="489.0" y="582.1" font-size="12" text-anchor="middle">5.6</text>
<text class="mono" transform="translate(492.0,702) rotate(45)" font-size="12" text-anchor="start" fill="#333">E0308</text>
<rect x="556.2" y="597.9" width="48" height="82.1" fill="#56B4E9" stroke="white" stroke-width="1"/>
<text x="580.2" y="591.9" font-size="12" text-anchor="middle">5.0</text>
<text class="mono" transform="translate(583.2,702) rotate(45)" font-size="12" text-anchor="start" fill="#333">E0603</text>
<rect x="647.3" y="626.7" width="48" height="53.3" fill="#E69F00" stroke="white" stroke-width="1"/>
<text x="671.3" y="620.7" font-size="12" text-anchor="middle">3.2</text>
<text class="mono" transform="translate(674.3,702) rotate(45)" font-size="12" text-anchor="start" fill="#333">E0560</text>
<rect x="738.5" y="631.2" width="48" height="48.8" fill="#8B6BBE" stroke="white" stroke-width="1"/>
<text x="762.5" y="625.2" font-size="12" text-anchor="middle">3.0</text>
<text class="mono" transform="translate(765.5,702) rotate(45)" font-size="12" text-anchor="start" fill="#333">E0061</text>
<rect x="829.7" y="644.0" width="48" height="36.0" fill="#4C78A8" stroke="white" stroke-width="1"/>
<text x="853.7" y="638.0" font-size="12" text-anchor="middle">2.2</text>
<text class="mono" transform="translate(856.7,702) rotate(45)" font-size="12" text-anchor="start" fill="#333">E0277</text>
<rect x="920.8" y="655.1" width="48" height="24.9" fill="#59A14F" stroke="white" stroke-width="1"/>
<text x="944.8" y="649.1" font-size="12" text-anchor="middle">1.5</text>
<text class="mono" transform="translate(947.8,702) rotate(45)" font-size="12" text-anchor="start" fill="#333">E0412</text>
<rect x="1012.0" y="659.6" width="48" height="20.4" fill="#F28E2B" stroke="white" stroke-width="1"/>
<text x="1036.0" y="653.6" font-size="12" text-anchor="middle">1.2</text>
<text class="mono" transform="translate(1039.0,702) rotate(45)" font-size="12" text-anchor="start" fill="#333">E0658</text>
<rect x="1103.1" y="665.3" width="48" height="14.7" fill="#B07AA1" stroke="white" stroke-width="1"/>
<text x="1127.1" y="659.3" font-size="12" text-anchor="middle">0.9</text>
<text class="mono" transform="translate(1130.1,702) rotate(45)" font-size="12" text-anchor="start" fill="#333">E0369</text>
<rect x="1194.3" y="666.2" width="48" height="13.8" fill="#76B7B2" stroke="white" stroke-width="1"/>
<text x="1218.3" y="660.2" font-size="12" text-anchor="middle">0.8</text>
<text class="mono" transform="translate(1221.3,702) rotate(45)" font-size="12" text-anchor="start" fill="#333">E0282</text>
<rect x="1285.4" y="594.7" width="48" height="85.3" fill="#999999" stroke="white" stroke-width="1"/>
<text x="1309.4" y="588.7" font-size="12" text-anchor="middle">5.2</text>
<text class="mono" transform="translate(1312.4,702) rotate(45)" font-size="12" text-anchor="start" fill="#333">Other</text>
<text x="762.5" y="795" font-size="15" text-anchor="middle" fill="#333">Rust compiler error code</text>
<line x1="215.6" y1="107.7" x2="315.8" y2="62.7" stroke="#333" stroke-width="1"/>
<text x="320.4" y="59.7" font-size="12" fill="#333">Path/import errors dominate: E0433+E0432 = 56.5%</text>
<text x="20" y="805" font-size="12" fill="#333">Note: Percentages use all error-code occurrences as denominator; a failed test may contribute multiple error codes.</text>
</svg>